<?xml version="1.0" encoding="UTF-8"?>
<svg id="Layer_2" data-name="Layer 2" xmlns="http://www.w3.org/2000/svg" viewBox="0 0 415 33.02">
  <defs>
    <style>
      .cls-1 {
        fill: #fff;
        stroke: #231f20;
        stroke-miterlimit: 10;
      }

      .cls-2 {
        fill: #231f20;
        stroke-width: 0px;
      }
    </style>
  </defs>
  <g id="Layer_1-2" data-name="Layer 1">
    <path class="cls-1" d="m414.58,16.34s-10.11,15.14-59.18,3.72c-51.39-11.97-141.7,28.06-112.33,5.36,32.5-25.11-28.96,5.32-70.24-4.09C106.61,6.25.5,29.84.5,29.84h0V.5h414v16.12"/>
    <g>
      <path class="cls-2" d="m5.91,7.26h1.99v.95h.03c.18-.48.83-1.16,2.13-1.16,1.85,0,3.22,1.47,3.22,3.99,0,2.19-1.01,4.12-3.26,4.12-.84,0-1.64-.29-2.13-1.13h-.03v3.74h-1.95V7.26Zm3.67,6.29c1.29,0,1.64-1.42,1.64-2.33,0-1.22-.42-2.35-1.7-2.35s-1.71,1.22-1.71,2.44c0,1.15.49,2.24,1.76,2.24Z"/>
      <path class="cls-2" d="m17.32,7.26h1.92v1.29h.03c.41-.76,1.13-1.48,2.33-1.48.13,0,.39.01.52.03v2h-.7c-1.53,0-2.09.87-2.09,1.78v4.09h-2v-7.7Z"/>
      <path class="cls-2" d="m28.28,11.11c0-2.77,1.81-4.05,3.81-4.05s3.81,1.27,3.81,4.05-1.81,4.05-3.81,4.05-3.81-1.27-3.81-4.05Zm3.81,2.42c1.53-.01,1.81-1.42,1.81-2.42,0-1.06-.31-2.42-1.81-2.42s-1.81,1.34-1.81,2.42c0,1.02.28,2.42,1.81,2.42Z"/>
      <path class="cls-2" d="m36.7,17.96h-.49v-1.67h.28c.46,0,.92-.03.92-.71V7.26h1.96v8.63c0,1.95-1.34,2.07-2.68,2.07Zm.71-13.33h1.96v1.72h-1.96v-1.72Z"/>
      <path class="cls-2" d="m43.55,11.32c0-2.48,1.27-4.26,3.84-4.26,1.98,0,3.73,1.26,3.59,4.19v.28h-5.38c.1,1.23.55,2.07,1.74,2.07.88,0,1.33-.71,1.4-1.2h2.1c-.14.99-.9,2.76-3.5,2.76-2.9,0-3.78-2.21-3.78-3.84Zm5.28-1.13c-.04-.57-.45-1.51-1.56-1.51-.84,0-1.46.5-1.64,1.51h3.19Z"/>
      <path class="cls-2" d="m52.74,13.07v-4.13h-1.29v-1.68h1.29v-2.07h2v2.07h1.83v1.68h-1.83v3.78c0,.62.39.77,1.09.77h.7v1.58c-.17.01-.57.03-1.15.03-1.34,0-2.65-.35-2.65-2.03Z"/>
      <path class="cls-2" d="m62.97,12.51h2.02c0,.63.39,1.09,1.56,1.09,1.01,0,1.25-.38,1.25-.77,0-.45-.49-.64-1.19-.83l-1.41-.36c-1.05-.27-1.99-.88-1.99-2.09s.77-2.49,3.1-2.49c1.46,0,3.11.43,3.26,2.54h-1.92c-.08-.48-.31-.94-1.37-.94-.81,0-1.15.31-1.15.7,0,.49.39.7,1.13.9l1.72.45c.98.25,1.78.76,1.78,1.89,0,2.17-2.17,2.56-3.33,2.56-1.62,0-3.39-.66-3.45-2.65Z"/>
    </g>
    <g>
      <path class="cls-2" d="m340.45,12.08c0-1.46,1.06-2.07,2.35-2.31l1.4-.27c.83-.15,1.15-.38,1.15-.8,0-.5-.46-.77-1.22-.77-1.11,0-1.48.59-1.47,1.09h-1.96c.14-2.07,1.88-2.8,3.54-2.8,1.09,0,3.1.46,3.1,2.3v4.15c0,.7.14,1.13.31,1.32v.14h-2.06c-.1-.18-.17-.49-.18-.77-.35.43-1.15.97-2.38.97-1.32,0-2.58-.77-2.58-2.24Zm3.12.77c.97,0,1.78-.71,1.78-1.32v-1.25c-.18.25-.66.43-1.32.56-.8.15-1.54.38-1.54,1.08,0,.6.46.92,1.08.92Z"/>
      <path class="cls-2" d="m351.8,6.42h1.99v.95h.03c.18-.48.83-1.16,2.13-1.16,1.85,0,3.22,1.47,3.22,3.99,0,2.19-1.01,4.12-3.26,4.12-.84,0-1.64-.29-2.13-1.13h-.03v3.74h-1.95V6.42Zm3.67,6.29c1.29,0,1.64-1.42,1.64-2.33,0-1.22-.42-2.35-1.7-2.35s-1.71,1.22-1.71,2.44c0,1.15.49,2.24,1.76,2.24Z"/>
      <path class="cls-2" d="m360.41,6.42h1.92v1.29h.03c.41-.76,1.13-1.48,2.33-1.48.13,0,.39.01.52.03v2h-.7c-1.53,0-2.09.87-2.09,1.78v4.09h-2v-7.7Z"/>
      <path class="cls-2" d="m371.37,10.27c0-2.77,1.81-4.05,3.81-4.05s3.81,1.27,3.81,4.05-1.81,4.05-3.81,4.05-3.81-1.27-3.81-4.05Zm3.81,2.42c1.53-.01,1.81-1.42,1.81-2.42,0-1.06-.31-2.42-1.81-2.42s-1.81,1.34-1.81,2.42c0,1.02.28,2.42,1.81,2.42Z"/>
      <path class="cls-2" d="m383.02,6.42h1.99v.95h.03c.18-.48.83-1.16,2.13-1.16,1.85,0,3.22,1.47,3.22,3.99,0,2.19-1.01,4.12-3.26,4.12-.84,0-1.64-.29-2.13-1.13h-.03v3.74h-1.95V6.42Zm3.67,6.29c1.29,0,1.64-1.42,1.64-2.33,0-1.22-.42-2.35-1.7-2.35s-1.71,1.22-1.71,2.44c0,1.15.49,2.24,1.76,2.24Z"/>
      <path class="cls-2" d="m391.31,10.27c0-2.77,1.81-4.05,3.81-4.05s3.81,1.27,3.81,4.05-1.81,4.05-3.81,4.05-3.81-1.27-3.81-4.05Zm3.81,2.42c1.53-.01,1.81-1.42,1.81-2.42,0-1.06-.31-2.42-1.81-2.42s-1.81,1.34-1.81,2.42c0,1.02.28,2.42,1.81,2.42Z"/>
      <path class="cls-2" d="m402.63,11.67h2.02c0,.63.39,1.09,1.56,1.09,1.01,0,1.25-.38,1.25-.77,0-.45-.49-.64-1.19-.83l-1.42-.36c-1.05-.27-1.99-.88-1.99-2.09s.77-2.49,3.1-2.49c1.46,0,3.11.43,3.26,2.54h-1.92c-.08-.48-.31-.94-1.37-.94-.81,0-1.15.31-1.15.7,0,.49.39.7,1.13.9l1.72.45c.98.25,1.78.76,1.78,1.89,0,2.17-2.17,2.56-3.33,2.56-1.62,0-3.39-.66-3.45-2.65Z"/>
    </g>
  </g>
</svg>