{
  "accessors": [
    {
      "bufferView": 2,
      "componentType": 5126,
      "count": 65532,
      "max": [
        0.599010705947876,
        0.13791492581367493,
        0.8985885381698608
      ],
      "min": [
        -0.5992215871810913,
        -0.08860830217599869,
        -0.9625473022460938
      ],
      "type": "VEC3"
    },
    {
      "bufferView": 2,
      "byteOffset": 786384,
      "componentType": 5126,
      "count": 65532,
      "max": [
        0.9991807341575623,
        0.999998927116394,
        0.9989953637123108
      ],
      "min": [
        -0.9989616274833679,
        -0.6506078839302063,
        -0.99965900182724
      ],
      "type": "VEC3"
    },
    {
      "bufferView": 1,
      "componentType": 5126,
      "count": 65532,
      "max": [
        0.9929616451263428,
        0.9999706149101257
      ],
      "min": [
        2.6444089598953724e-05,
        3.9995033148443326e-05
      ],
      "type": "VEC2"
    },
    {
      "bufferView": 1,
      "byteOffset": 524256,
      "componentType": 5126,
      "count": 65532,
      "max": [
        0.9929616451263428,
        0.9999706149101257
      ],
      "min": [
        2.6444089598953724e-05,
        3.9995033148443326e-05
      ],
      "type": "VEC2"
    },
    {
      "bufferView": 1,
      "byteOffset": 1048512,
      "componentType": 5126,
      "count": 65532,
      "max": [
        0.9929616451263428,
        0.9999706149101257
      ],
      "min": [
        2.6444089598953724e-05,
        3.9995033148443326e-05
      ],
      "type": "VEC2"
    },
    {
      "bufferView": 1,
      "byteOffset": 1572768,
      "componentType": 5126,
      "count": 65532,
      "max": [
        0.9929616451263428,
        0.9999706149101257
      ],
      "min": [
        2.6444089598953724e-05,
        3.9995033148443326e-05
      ],
      "type": "VEC2"
    },
    {
      "bufferView": 1,
      "byteOffset": 2097024,
      "componentType": 5126,
      "count": 65532,
      "max": [
        0.9929616451263428,
        0.9999706149101257
      ],
      "min": [
        2.6444089598953724e-05,
        3.9995033148443326e-05
      ],
      "type": "VEC2"
    },
    {
      "bufferView": 0,
      "componentType": 5125,
      "count": 359079,
      "type": "SCALAR"
    },
    {
      "bufferView": 2,
      "byteOffset": 1572768,
      "componentType": 5126,
      "count": 13036,
      "max": [
        0.470448762178421,
        0.13527297973632813,
        0.8082061409950256
      ],
      "min": [
        -0.44170081615448,
        -0.06969580054283142,
        -0.8133189082145691
      ],
      "type": "VEC3"
    },
    {
      "bufferView": 2,
      "byteOffset": 1729200,
      "componentType": 5126,
      "count": 13036,
      "max": [
        0.999925434589386,
        0.9999985098838806,
        0.9338546395301819
      ],
      "min": [
        -0.9729207158088684,
        -0.36745235323905945,
        -0.9893468618392944
      ],
      "type": "VEC3"
    },
    {
      "bufferView": 1,
      "byteOffset": 2621280,
      "componentType": 5126,
      "count": 13036,
      "max": [
        0.9886908531188965,
        0.9839219450950623
      ],
      "min": [
        0.0684683546423912,
        0.142140194773674
      ],
      "type": "VEC2"
    },
    {
      "bufferView": 1,
      "byteOffset": 2725568,
      "componentType": 5126,
      "count": 13036,
      "max": [
        0.9886908531188965,
        0.9839219450950623
      ],
      "min": [
        0.0684683546423912,
        0.142140194773674
      ],
      "type": "VEC2"
    },
    {
      "bufferView": 1,
      "byteOffset": 2829856,
      "componentType": 5126,
      "count": 13036,
      "max": [
        0.9886908531188965,
        0.9839219450950623
      ],
      "min": [
        0.0684683546423912,
        0.142140194773674
      ],
      "type": "VEC2"
    },
    {
      "bufferView": 1,
      "byteOffset": 2934144,
      "componentType": 5126,
      "count": 13036,
      "max": [
        0.9886908531188965,
        0.9839219450950623
      ],
      "min": [
        0.0684683546423912,
        0.142140194773674
      ],
      "type": "VEC2"
    },
    {
      "bufferView": 1,
      "byteOffset": 3038432,
      "componentType": 5126,
      "count": 13036,
      "max": [
        0.9886908531188965,
        0.9839219450950623
      ],
      "min": [
        0.0684683546423912,
        0.142140194773674
      ],
      "type": "VEC2"
    },
    {
      "bufferView": 0,
      "byteOffset": 1436316,
      "componentType": 5125,
      "count": 72621,
      "type": "SCALAR"
    }
  ],
  "asset": {
    "extras": {
      "author": "LazyPriest (https://sketchfab.com/Lazypriest)",
      "license": "CC-BY-NC-SA-4.0 (http://creativecommons.org/licenses/by-nc-sa/4.0/)",
      "source": "https://sketchfab.com/3d-models/wood-roots-like-planet-a68d4a3484674a13b0b1c1773754522a",
      "title": "Wood roots like planet"
    },
    "generator": "Sketchfab-15.47.0",
    "version": "2.0"
  },
  "bufferViews": [
    {
      "buffer": 0,
      "byteLength": 1726800,
      "name": "floatBufferViews",
      "target": 34963
    },
    {
      "buffer": 0,
      "byteLength": 3142720,
      "byteOffset": 1726800,
      "byteStride": 8,
      "name": "floatBufferViews",
      "target": 34962
    },
    {
      "buffer": 0,
      "byteLength": 1885632,
      "byteOffset": 4869520,
      "byteStride": 12,
      "name": "floatBufferViews",
      "target": 34962
    }
  ],
  "buffers": [
    {
      "byteLength": 6755152,
      "uri": "scene.bin"
    }
  ],
  "extensionsUsed": [
    "KHR_materials_unlit"
  ],
  "images": [
    {
      "uri": "textures/material_0_baseColor.jpeg"
    }
  ],
  "materials": [
    {
      "extensions": {
        "KHR_materials_unlit": {}
      },
      "name": "material_0",
      "pbrMetallicRoughness": {
        "baseColorTexture": {
          "index": 0
        },
        "metallicFactor": 0.0
      }
    }
  ],
  "meshes": [
    {
      "name": "Object_0",
      "primitives": [
        {
          "attributes": {
            "NORMAL": 1,
            "POSITION": 0,
            "TEXCOORD_0": 2,
            "TEXCOORD_1": 3,
            "TEXCOORD_2": 4,
            "TEXCOORD_3": 5,
            "TEXCOORD_4": 6
          },
          "indices": 7,
          "material": 0,
          "mode": 4
        }
      ]
    },
    {
      "name": "Object_1",
      "primitives": [
        {
          "attributes": {
            "NORMAL": 9,
            "POSITION": 8,
            "TEXCOORD_0": 10,
            "TEXCOORD_1": 11,
            "TEXCOORD_2": 12,
            "TEXCOORD_3": 13,
            "TEXCOORD_4": 14
          },
          "indices": 15,
          "material": 0,
          "mode": 4
        }
      ]
    }
  ],
  "nodes": [
    {
      "children": [
        1
      ],
      "matrix": [
        1.0,
        0.0,
        0.0,
        0.0,
        0.0,
        2.220446049250313e-16,
        -1.0,
        0.0,
        0.0,
        1.0,
        2.220446049250313e-16,
        0.0,
        0.0,
        0.0,
        0.0,
        1.0
      ],
      "name": "Sketchfab_model"
    },
    {
      "children": [
        2
      ],
      "name": "root"
    },
    {
      "children": [
        3
      ],
      "matrix": [
        1.0,
        0.0,
        0.0,
        0.0,
        0.0,
        2.220446049250313e-16,
        1.0,
        0.0,
        0.0,
        -1.0,
        2.220446049250313e-16,
        0.0,
        0.0,
        0.0,
        0.0,
        1.0
      ],
      "name": "GLTF_SceneRootNode"
    },
    {
      "children": [
        4,
        5
      ],
      "name": "_0"
    },
    {
      "mesh": 0,
      "name": "Object_4"
    },
    {
      "mesh": 1,
      "name": "Object_5"
    }
  ],
  "samplers": [
    {
      "magFilter": 9729,
      "minFilter": 9987,
      "wrapS": 10497,
      "wrapT": 10497
    }
  ],
  "scene": 0,
  "scenes": [
    {
      "name": "Sketchfab_Scene",
      "nodes": [
        0
      ]
    }
  ],
  "textures": [
    {
      "sampler": 0,
      "source": 0
    }
  ]
}
