<?xml version="1.0" encoding="UTF-8"?>
<svg id="Layer_2" data-name="Layer 2" xmlns="http://www.w3.org/2000/svg" viewBox="0 0 72.62 95">
  <defs>
    <style>
      .cls-1 {
        fill: #000;
        stroke-width: 0px;
      }
    </style>
  </defs>
  <g id="Layer_1-2" data-name="Layer 1">
    <path class="cls-1" d="M31.33,2.1L2.02,31.4c-2.7,2.7-2.7,7.2,0,9.9,2.7,2.7,7.2,2.7,9.9,0l17.4-17.3v64c0,3.9,3.1,7,7,7s7-3.1,7-7V24l17.3,17.3c2.7,2.7,7.2,2.7,9.9,0,1.4-1.4,2.1-3.2,2.1-5s-.7-3.6-2.1-5L41.33,2.1c-1.3-1.3-3.1-2.1-5-2.1s-3.7.7-5,2.1Z"/>
  </g>
</svg>