<?xml version="1.0" encoding="UTF-8"?>
<svg id="Layer_1" data-name="Layer 1" xmlns="http://www.w3.org/2000/svg" viewBox="0 0 365.92 510.03">
  <defs>
    <style>
      .cls-1 {
        fill: #000;
        stroke-width: 0px;
      }
    </style>
  </defs>
  <g>
    <g>
      <path class="cls-1" d="M163.01,279.97c-3.51.05-6.33,2.91-6.33,6.42v.1h0s0,50.59,0,50.59c-.03.25-.06.55-.06.85,0,3.55,2.88,6.42,6.42,6.42.06,0,.13,0,.19,0h-.01c.25,0,.48-.03.71-.06h-.03s50.59,0,50.59,0h.09c3.55,0,6.42-2.88,6.42-6.42s-2.88-6.42-6.42-6.42h-35.97l40.42-40.42c1.17-1.16,1.89-2.77,1.89-4.55,0-3.55-2.88-6.42-6.42-6.42-1.77,0-3.38.72-4.54,1.89h0l-40.42,40.42v-35.97c0-3.55-2.88-6.42-6.42-6.42h-.1,0,0Z"/>
      <path class="cls-1" d="M74.12,369.05h-.09c-3.55,0-6.42,2.88-6.42,6.42s2.88,6.42,6.42,6.42h35.96l-40.42,40.42c-1.2,1.17-1.94,2.8-1.94,4.6,0,3.55,2.88,6.42,6.42,6.42.06,0,.13,0,.19,0h-.01c1.74-.05,3.29-.79,4.41-1.94l40.42-40.42v35.96c0,3.55,2.88,6.42,6.42,6.42h.1,0c3.5-.06,6.32-2.91,6.32-6.42v-.1h0s0-51.38,0-51.38v-.03h0c0-.19-.01-.37-.03-.55v.03s0-.03,0-.04v-.04h0c-.02-.19-.04-.35-.07-.51v.04c-.01-.1-.02-.16-.03-.22v.04c-.13-.63-.34-1.18-.61-1.69l.02.03c-.04-.08-.07-.13-.1-.17l.02.03c-.1-.17-.17-.3-.26-.44l.02.02c-.04-.07-.07-.11-.1-.15l.02.02c-.36-.51-.77-.95-1.24-1.33h-.01s-.04-.05-.06-.07h0c-1.04-.83-2.38-1.34-3.82-1.38h-51.55Z"/>
    </g>
    <g>
      <path class="cls-1" d="M202.07,510.03h.09c3.55,0,6.42-2.88,6.42-6.42s-2.88-6.42-6.42-6.42h-35.96l40.42-40.42c1.2-1.17,1.94-2.8,1.94-4.6,0-3.55-2.88-6.42-6.42-6.42-.06,0-.13,0-.19,0h.01c-1.74.05-3.29.79-4.41,1.94l-40.42,40.42v-35.96c0-3.55-2.88-6.42-6.42-6.42h-.1,0c-3.5.06-6.32,2.91-6.32,6.42v.1h0s0,51.38,0,51.38v.03h0c0,.19.01.37.03.55v-.03s0,.03,0,.04v.04h0c.02.19.04.35.07.51v-.04c.01.1.02.16.03.22v-.04c.13.63.34,1.18.61,1.69l-.02-.03c.04.08.07.13.1.17l-.02-.03c.1.17.17.3.26.44l-.02-.02c.04.07.07.11.1.15l-.02-.02c.36.51.77.95,1.24,1.33h.01s.04.05.06.07h0c1.04.83,2.38,1.34,3.82,1.38h51.55Z"/>
      <path class="cls-1" d="M291.28,421.02c3.51-.05,6.33-2.91,6.33-6.42v-.1h0s0-50.59,0-50.59c.03-.25.06-.55.06-.85,0-3.55-2.88-6.42-6.42-6.42-.06,0-.13,0-.19,0h.01c-.25,0-.48.03-.71.06h.03s-50.59,0-50.59,0h-.09c-3.55,0-6.42,2.88-6.42,6.42s2.88,6.42,6.42,6.42h35.97l-40.42,40.42c-1.17,1.16-1.89,2.77-1.89,4.55,0,3.55,2.88,6.42,6.42,6.42,1.77,0,3.38-.72,4.54-1.89h0l40.42-40.42v35.97c0,3.55,2.88,6.42,6.42,6.42h.1,0,0Z"/>
    </g>
  </g>
  <g>
    <path class="cls-1" d="M49.72,24.32h-19.92v-8.56h34.88v8.56l-21.52,24.24h23.04v8.56H28.2v-8.56l21.52-24.24Z"/>
    <path class="cls-1" d="M72.52,27.48c1.01-2.69,2.45-4.99,4.32-6.88,1.87-1.89,4.11-3.36,6.72-4.4,2.61-1.04,5.55-1.56,8.8-1.56s6.2.52,8.84,1.56c2.64,1.04,4.89,2.51,6.76,4.4,1.87,1.89,3.31,4.19,4.32,6.88,1.01,2.69,1.52,5.69,1.52,9s-.51,6.29-1.52,8.96c-1.01,2.67-2.45,4.95-4.32,6.84-1.87,1.89-4.12,3.35-6.76,4.36-2.64,1.01-5.59,1.52-8.84,1.52s-6.19-.51-8.8-1.52c-2.61-1.01-4.85-2.47-6.72-4.36-1.87-1.89-3.31-4.17-4.32-6.84-1.01-2.67-1.52-5.65-1.52-8.96s.51-6.31,1.52-9ZM82.84,41.32c.32,1.57.87,2.99,1.64,4.24.77,1.25,1.8,2.25,3.08,3,1.28.75,2.88,1.12,4.8,1.12s3.53-.37,4.84-1.12c1.31-.75,2.35-1.75,3.12-3,.77-1.25,1.32-2.67,1.64-4.24.32-1.57.48-3.19.48-4.84s-.16-3.28-.48-4.88-.87-3.01-1.64-4.24c-.77-1.23-1.81-2.23-3.12-3-1.31-.77-2.92-1.16-4.84-1.16s-3.52.39-4.8,1.16c-1.28.77-2.31,1.77-3.08,3-.77,1.23-1.32,2.64-1.64,4.24-.32,1.6-.48,3.23-.48,4.88s.16,3.27.48,4.84Z"/>
    <path class="cls-1" d="M121.4,27.48c1.01-2.69,2.45-4.99,4.32-6.88,1.87-1.89,4.11-3.36,6.72-4.4,2.61-1.04,5.55-1.56,8.8-1.56s6.2.52,8.84,1.56c2.64,1.04,4.89,2.51,6.76,4.4,1.87,1.89,3.31,4.19,4.32,6.88,1.01,2.69,1.52,5.69,1.52,9s-.51,6.29-1.52,8.96c-1.01,2.67-2.45,4.95-4.32,6.84-1.87,1.89-4.12,3.35-6.76,4.36-2.64,1.01-5.59,1.52-8.84,1.52s-6.19-.51-8.8-1.52c-2.61-1.01-4.85-2.47-6.72-4.36-1.87-1.89-3.31-4.17-4.32-6.84-1.01-2.67-1.52-5.65-1.52-8.96s.51-6.31,1.52-9ZM131.72,41.32c.32,1.57.87,2.99,1.64,4.24.77,1.25,1.8,2.25,3.08,3,1.28.75,2.88,1.12,4.8,1.12s3.53-.37,4.84-1.12c1.31-.75,2.35-1.75,3.12-3,.77-1.25,1.32-2.67,1.64-4.24.32-1.57.48-3.19.48-4.84s-.16-3.28-.48-4.88-.87-3.01-1.64-4.24c-.77-1.23-1.81-2.23-3.12-3-1.31-.77-2.92-1.16-4.84-1.16s-3.52.39-4.8,1.16c-1.28.77-2.31,1.77-3.08,3-.77,1.23-1.32,2.64-1.64,4.24-.32,1.6-.48,3.23-.48,4.88s.16,3.27.48,4.84Z"/>
    <path class="cls-1" d="M181.08,15.76v5.6h.16c1.49-2.13,3.29-3.79,5.4-4.96,2.11-1.17,4.52-1.76,7.24-1.76s5,.51,7.16,1.52c2.16,1.01,3.8,2.8,4.92,5.36,1.23-1.81,2.89-3.41,5-4.8,2.11-1.39,4.6-2.08,7.48-2.08,2.19,0,4.21.27,6.08.8,1.87.53,3.47,1.39,4.8,2.56,1.33,1.17,2.37,2.71,3.12,4.6.75,1.89,1.12,4.17,1.12,6.84v27.68h-11.36v-23.44c0-1.39-.05-2.69-.16-3.92-.11-1.23-.4-2.29-.88-3.2-.48-.91-1.19-1.63-2.12-2.16-.93-.53-2.2-.8-3.8-.8s-2.89.31-3.88.92c-.99.61-1.76,1.41-2.32,2.4-.56.99-.93,2.11-1.12,3.36-.19,1.25-.28,2.52-.28,3.8v23.04h-11.36v-23.2c0-1.23-.03-2.44-.08-3.64-.05-1.2-.28-2.31-.68-3.32-.4-1.01-1.07-1.83-2-2.44-.93-.61-2.31-.92-4.12-.92-.53,0-1.24.12-2.12.36-.88.24-1.73.69-2.56,1.36-.83.67-1.53,1.63-2.12,2.88-.59,1.25-.88,2.89-.88,4.92v24h-11.36V15.76h10.72Z"/>
    <path class="cls-1" d="M266.52,30.4v9.76h-24.08v-9.76h24.08Z"/>
    <path class="cls-1" d="M275.4,9.36V0h11.36v9.36h-11.36ZM286.76,15.76v41.36h-11.36V15.76h11.36Z"/>
    <path class="cls-1" d="M306.52,15.76v5.76h.24c1.44-2.4,3.31-4.15,5.6-5.24,2.29-1.09,4.64-1.64,7.04-1.64,3.04,0,5.53.41,7.48,1.24,1.95.83,3.48,1.97,4.6,3.44,1.12,1.47,1.91,3.25,2.36,5.36.45,2.11.68,4.44.68,7v25.44h-11.36v-23.36c0-3.41-.53-5.96-1.6-7.64-1.07-1.68-2.96-2.52-5.68-2.52-3.09,0-5.33.92-6.72,2.76-1.39,1.84-2.08,4.87-2.08,9.08v21.68h-11.36V15.76h10.8Z"/>
    <path class="cls-1" d="M21.52,120.32H1.6v-8.56h34.88v8.56l-21.52,24.24h23.04v8.56H0v-8.56l21.52-24.24Z"/>
    <path class="cls-1" d="M44.32,123.48c1.01-2.69,2.45-4.99,4.32-6.88,1.87-1.89,4.11-3.36,6.72-4.4,2.61-1.04,5.55-1.56,8.8-1.56s6.2.52,8.84,1.56c2.64,1.04,4.89,2.51,6.76,4.4,1.87,1.89,3.31,4.19,4.32,6.88,1.01,2.69,1.52,5.69,1.52,9s-.51,6.29-1.52,8.96c-1.01,2.67-2.45,4.95-4.32,6.84-1.87,1.89-4.12,3.35-6.76,4.36-2.64,1.01-5.59,1.52-8.84,1.52s-6.19-.51-8.8-1.52c-2.61-1.01-4.85-2.47-6.72-4.36-1.87-1.89-3.31-4.17-4.32-6.84-1.01-2.67-1.52-5.65-1.52-8.96s.51-6.31,1.52-9ZM54.64,137.32c.32,1.57.87,2.99,1.64,4.24.77,1.25,1.8,2.25,3.08,3,1.28.75,2.88,1.12,4.8,1.12s3.53-.37,4.84-1.12c1.31-.75,2.35-1.75,3.12-3,.77-1.25,1.32-2.67,1.64-4.24.32-1.57.48-3.19.48-4.84s-.16-3.28-.48-4.88-.87-3.01-1.64-4.24c-.77-1.23-1.81-2.23-3.12-3-1.31-.77-2.92-1.16-4.84-1.16s-3.52.39-4.8,1.16c-1.28.77-2.31,1.77-3.08,3-.77,1.23-1.32,2.64-1.64,4.24-.32,1.6-.48,3.23-.48,4.88s.16,3.27.48,4.84Z"/>
    <path class="cls-1" d="M93.2,123.48c1.01-2.69,2.45-4.99,4.32-6.88,1.87-1.89,4.11-3.36,6.72-4.4,2.61-1.04,5.55-1.56,8.8-1.56s6.2.52,8.84,1.56c2.64,1.04,4.89,2.51,6.76,4.4,1.87,1.89,3.31,4.19,4.32,6.88,1.01,2.69,1.52,5.69,1.52,9s-.51,6.29-1.52,8.96c-1.01,2.67-2.45,4.95-4.32,6.84-1.87,1.89-4.12,3.35-6.76,4.36-2.64,1.01-5.59,1.52-8.84,1.52s-6.19-.51-8.8-1.52c-2.61-1.01-4.85-2.47-6.72-4.36-1.87-1.89-3.31-4.17-4.32-6.84-1.01-2.67-1.52-5.65-1.52-8.96s.51-6.31,1.52-9ZM103.52,137.32c.32,1.57.87,2.99,1.64,4.24.77,1.25,1.8,2.25,3.08,3,1.28.75,2.88,1.12,4.8,1.12s3.53-.37,4.84-1.12c1.31-.75,2.35-1.75,3.12-3,.77-1.25,1.32-2.67,1.64-4.24.32-1.57.48-3.19.48-4.84s-.16-3.28-.48-4.88-.87-3.01-1.64-4.24c-.77-1.23-1.81-2.23-3.12-3-1.31-.77-2.92-1.16-4.84-1.16s-3.52.39-4.8,1.16c-1.28.77-2.31,1.77-3.08,3-.77,1.23-1.32,2.64-1.64,4.24-.32,1.6-.48,3.23-.48,4.88s.16,3.27.48,4.84Z"/>
    <path class="cls-1" d="M152.88,111.76v5.6h.16c1.49-2.13,3.29-3.79,5.4-4.96,2.11-1.17,4.52-1.76,7.24-1.76s5,.51,7.16,1.52c2.16,1.01,3.8,2.8,4.92,5.36,1.23-1.81,2.89-3.41,5-4.8,2.11-1.39,4.6-2.08,7.48-2.08,2.19,0,4.21.27,6.08.8,1.87.53,3.47,1.39,4.8,2.56,1.33,1.17,2.37,2.71,3.12,4.6.75,1.89,1.12,4.17,1.12,6.84v27.68h-11.36v-23.44c0-1.39-.05-2.69-.16-3.92-.11-1.23-.4-2.29-.88-3.2-.48-.91-1.19-1.63-2.12-2.16-.93-.53-2.2-.8-3.8-.8s-2.89.31-3.88.92c-.99.61-1.76,1.41-2.32,2.4-.56.99-.93,2.11-1.12,3.36-.19,1.25-.28,2.52-.28,3.8v23.04h-11.36v-23.2c0-1.23-.03-2.44-.08-3.64-.05-1.2-.28-2.31-.68-3.32-.4-1.01-1.07-1.83-2-2.44-.93-.61-2.31-.92-4.12-.92-.53,0-1.24.12-2.12.36-.88.24-1.73.69-2.56,1.36-.83.67-1.53,1.63-2.12,2.88-.59,1.25-.88,2.89-.88,4.92v24h-11.36v-41.36h10.72Z"/>
    <path class="cls-1" d="M238.32,126.4v9.76h-24.08v-9.76h24.08Z"/>
    <path class="cls-1" d="M247.12,123.48c1.01-2.69,2.45-4.99,4.32-6.88,1.87-1.89,4.11-3.36,6.72-4.4s5.55-1.56,8.8-1.56,6.2.52,8.84,1.56c2.64,1.04,4.89,2.51,6.76,4.4,1.87,1.89,3.31,4.19,4.32,6.88,1.01,2.69,1.52,5.69,1.52,9s-.51,6.29-1.52,8.96c-1.01,2.67-2.45,4.95-4.32,6.84-1.87,1.89-4.12,3.35-6.76,4.36-2.64,1.01-5.59,1.52-8.84,1.52s-6.19-.51-8.8-1.52-4.85-2.47-6.72-4.36c-1.87-1.89-3.31-4.17-4.32-6.84-1.01-2.67-1.52-5.65-1.52-8.96s.51-6.31,1.52-9ZM257.44,137.32c.32,1.57.87,2.99,1.64,4.24.77,1.25,1.8,2.25,3.08,3,1.28.75,2.88,1.12,4.8,1.12s3.53-.37,4.84-1.12c1.31-.75,2.35-1.75,3.12-3,.77-1.25,1.32-2.67,1.64-4.24.32-1.57.48-3.19.48-4.84s-.16-3.28-.48-4.88-.87-3.01-1.64-4.24c-.77-1.23-1.81-2.23-3.12-3-1.31-.77-2.92-1.16-4.84-1.16s-3.52.39-4.8,1.16c-1.28.77-2.31,1.77-3.08,3-.77,1.23-1.32,2.64-1.64,4.24s-.48,3.23-.48,4.88.16,3.27.48,4.84Z"/>
    <path class="cls-1" d="M323.76,153.12v-5.76h-.24c-1.44,2.4-3.31,4.13-5.6,5.2-2.29,1.07-4.64,1.6-7.04,1.6-3.04,0-5.53-.4-7.48-1.2-1.95-.8-3.48-1.93-4.6-3.4-1.12-1.47-1.91-3.25-2.36-5.36-.45-2.11-.68-4.44-.68-7v-25.44h11.36v23.36c0,3.41.53,5.96,1.6,7.64,1.07,1.68,2.96,2.52,5.68,2.52,3.09,0,5.33-.92,6.72-2.76,1.39-1.84,2.08-4.87,2.08-9.08v-21.68h11.36v41.36h-10.8Z"/>
    <path class="cls-1" d="M365.92,111.76v7.6h-8.32v20.48c0,1.92.32,3.2.96,3.84.64.64,1.92.96,3.84.96.64,0,1.25-.03,1.84-.08.59-.05,1.15-.13,1.68-.24v8.8c-.96.16-2.03.27-3.2.32-1.17.05-2.32.08-3.44.08-1.76,0-3.43-.12-5-.36-1.57-.24-2.96-.71-4.16-1.4-1.2-.69-2.15-1.68-2.84-2.96-.69-1.28-1.04-2.96-1.04-5.04v-24.4h-6.88v-7.6h6.88v-12.4h11.36v12.4h8.32Z"/>
  </g>
</svg>