<?xml version="1.0" encoding="UTF-8"?>
<svg id="Layer_1" data-name="Layer 1" xmlns="http://www.w3.org/2000/svg" viewBox="0 0 500 400">
  <defs>
    <style>
      .cls-1 {
        letter-spacing: 0em;
      }

      .cls-2 {
        letter-spacing: -.02em;
      }

      .cls-3 {
        font-family: Helvetica-52, Helvetica;
        font-size: 48px;
        stroke-width: .5px;
      }

      .cls-3, .cls-4 {
        stroke: #231f20;
        stroke-miterlimit: 10;
      }

      .cls-3, .cls-5 {
        fill: #231f20;
      }

      .cls-4 {
        fill: #f5be24;
        stroke-width: 2px;
      }

      .cls-6 {
        letter-spacing: 0em;
      }

      .cls-5, .cls-7 {
        stroke-width: 0px;
      }

      .cls-7 {
        fill: #fff;
      }

      .cls-8 {
        letter-spacing: .55em;
      }
    </style>
  </defs>
  <ellipse class="cls-5" cx="267.93" cy="207.06" rx="159.07" ry="192.94"/>
  <path class="cls-7" d="m.05,399.96C.05,267.32.05,134.69,0,2.06,0,.38.42,0,2.3,0c165.14.05,330.27.05,495.41,0,1.87,0,2.3.38,2.3,2.06-.05,131.96-.05,263.92,0,395.89,0,1.68-.42,2.06-2.3,2.06-165.89-.05-331.77-.04-497.66-.04ZM208.95,66.25l-.02.03c-1.29.19-.92,1.08-.95,1.8-1.73,3.56-3.47,7.13-4.79,10.84-1.81,5.07-2.27,10,.64,14.97,1.3,2.22,3.21,4.1,4.19,6.47-.15.87.23,1.5.84,2.19,2.78,3.14,4.39,6.82,5.01,10.72.63,3.89-.5,7.62-2.26,11.25-.76,1.57-2.97,2.48-2.56,4.55h0c-4.03,2.01-6.19,6.18-10.82,7.51-1.31,2.79-4.54,4.1-6.29,6.5-1.96,2.68-5.17,4.91-3.58,9.14-5.09,2.89-5.84,7.7-7.16,12.03-.77,2.51-2.23,4.8-2.64,7.49-.21,1.39.04,3.02-.74,4.27-1.49,2.41-1.39,5.15-1.58,7.61-.33,4.2-.46,8.46.53,12.79,1.06,4.63,3.56,8.7,4.87,13.19.85,2.93.4,4.48-2.73,5.5-2.3.75-4.75.97-6.98,1.81-1.76.66-3.48,1.89-3.76,3.57-.29,1.75-1.22,3.16-1.77,4.73-.43,1.22-1.32,2.37-1.24,3.73.2,3.4-.74,6.59-1.84,9.82-.76,2.21-2.09,4.48-.95,7.07-1.96,3.6-2.56,7.36-2.3,11.25.03.51,0,1.28.32,1.47,3.28,1.88,6.49,3.94,10.65,3.92h0c.03.63-.18,1.68.69,1.63,2.24-.12,4.05,1.56,6.31,1.06.49.05,1.1-.05,1.47.17,3.22,1.93,6.96,2.63,10.56,3.63,3.39.94,4.42,1.95,4.82,5.14.11.88.03,1.79.09,2.68.4,6.11-1.34,12.12-.95,18.25.63,9.9-.4,19.71-3.18,29.32-.51,1.77-.27,3.82-1.78,5.35-.16.02-.39-.01-.48.07-2.28,2.26-2.51,5.7-5.43,7.6-.1.06-.12.29-.08.43.61,2.48-1.38,4.47-1.7,6.89-.41,3.11-2.49,6.24-4.64,8.99-1.3,1.66-.5,3.45-.69,5.17-.14,1.21,1.29.98,1.73,1.54,1.44,1.84,3.66,3.3,4.18,5.6.3,1.32,1.08,1.28,2.1,1.26.58.79,1.1,1.59,2.06,2.13,2.66,1.5,5.26,3.08,7.88,4.63-.11,1.41.89,1.44,2.02,1.31h0c-.04.51.34.78.7,1.11,2.63,2.43,6.46,3.09,9.38,5.12.87.61,1.59,1.57,2.79,1.77,3.91.64,7.86,1.13,11.73,1.92,2.86.58,5.85,1.08,8.18,2.9.63.49,1.26.65,2.03.65,9.41,0,18.83.07,28.24-.08,1.68-.03,3.62-.36,4.93-1.71h0c1.33-.01,2.69.15,3.97-.07,5.4-.96,10.28-3.32,15.55-4.67,4.71-1.21,8.39-4.31,12.49-6.62,1.42-.79,2.99-1.95,1.21-4.37,1.47,1.08,3.25.21,3.41-.72.29-1.6,1.41-2.93,1.4-4.64-.02-2.58-.04-5.1-2.25-7.59,4.96,0,9.31.28,13.59-.09,3.07-.27,6.38.02,9.19-1.82,1.63-1.06,3.7-1.59,5.36-2.63,1.25-.78,2.75-1.74,2.03-3.55h0c1.09,0,1.44-.88,2.1-1.39,2.56-1.99,2.15-5.9,5.78-7.21.08-.03.08-.28.09-.42.26-3.33.18-6.65-2.23-9.42-.89-1.03-1.8-2.44-3.77-2.07-1.51-1.06-2.13-2.85-3.87-3.73.04-.68-.19-1.23-.62-1.84-1.76-2.54-2.84-5.25-2.5-8.36.42-3.79-1.72-7.42-.93-11.26-2.74-3.52-1.98-7.53-2.03-11.41-.05-3.73.11-7.47-.05-11.19-.16-3.61.75-7.18-1.65-10.81-1.27-1.92-.85-5.11-1.13-7.72-.46-4.21-.17-8.5-.14-12.75.01-1.57.57-3.08,1.75-4.22,2.13-2.06,2.94-4.71,4.31-7.12l.03-.03c.81-.06,1.49-.04,1.97-.96.82-1.56,1.45-3.34,2.36-4.65,2.41-3.46,2.04-7.29,2.37-10.85.67-7.17.14-14.34-1.49-21.52-.7-3.1-2.06-5.88-2.88-8.84-.77-2.78-2.79-5.6-.3-8.63-.48-6.15-.15-12.27-.86-18.45-.49-4.24-2.81-7.78-3.83-11.76-.81-3.14-3.91-5.96-5.73-9.07-.3-.51-.73-1.23-1.67-1.17h-.01c0-.82.35-1.84-.32-2.39-2.95-2.44-4.81-5.6-7.24-8.38-3.99-4.54-10.03-7.07-13.98-11.63-.42-.49-1.43-.81-1.02-1.6.41-.78,1.23-1.11,2.27-1.08,1.66.04,3.56.41,4.95-.15,4.74-1.91,9.35-.38,13.76.46,5.83,1.11,11.52,2.52,17.57,2.47,4.41-.03,8.41-.5,11.68-3.58,1.06-1,1.46-1.67.73-2.82.38-1.44,2-2.19,2.49-3.57,1.3-.25,1.76-1.02,2.12-2.13.49-1.51,1.08-3.01,1.72-4.5,1.31-3.08,3.7-6.05,1.34-9.68-.48-.74-1.02-1.77-1.13-2.85-.27-2.89-4.53-6.3-7.69-6.79-2.99-.46-5.93-1.07-8.99-.89-.61.04-1.1-.12-1.28-.79-.48-1.8-1.77-2.35-3.67-1.62-2.03.77-5.24.27-5.95-1.38-.84-1.97-2.04-1.44-3.48-1.06-.63.17-1.29.27-1.93.4-1.17.15-1.92-.75-2.95-.95-3.54-2.43-7.52-3.66-11.99-3.56h-.01c.3-1.34,2.08-3.01-1-3.57h0c0-.96.24-1.96-.03-2.85-.45-1.49-.45-3.2-1.97-4.31-1.83-3.09-3.1-6.63-5.93-9.02-3.49-2.94-4.49-6.26-4.04-10.2.04-.38.09-1.01.09-1.39-.09-4.8-.93-9.4-4.35-13.26-.48-.54-.88-1.07-.96-1.77.17-.93.06-1.47-1.12-2.07-3.91-2-8.32-2.98-12.18-5.05-.85-.46-1.82-.26-2.73.43-1.68,1.29-2.57,2.89-3.38,4.71-1.58,3.57-4.09,6.78-4.62,10.77-.13.97-.38,3.91-3.37,1.9-.39-.26-1.13-.11-1.71-.12-2.17-.01-4.33-.04-6.5,0-1.15.02-2.02-.04-2.4-1.33-.83-2.79-1.55-5.68-2.96-8.24-.73-1.33.42-4.05-2.94-3.91.24-2.67-1.57-4.47-3.4-5.97-1.33-1.09-3.49-.11-4.39,1.61h-.03c-2.73.58-5.54,1-6.98,3.59l-.07-.11.06.11c-2.3-.39-3.46,1.11-4.28,3.17-.4-.37-.56-1.54-1.51-1.19-1.51.55-2.65,1.44-2.6,3.03-1.04-.06-.42-1.23-1.53-1.18.05,1.6-1.02,2.83-1.7,4.21-.61,1.23-2.03,2.11-2.31,3.31-.8,3.46-1.75,6.94-1.21,10.53.09.61.08,1.22.97,1.33.42.62.86,1.24,1.25,1.88,1.19,1.91,3.14,3.82,2.55,6.04-.8,2.99-2.82,5.6-4.78,8.15-1.33.12-.96,1.03-1.01,1.74Zm-74.38-10.83l1.22.09c.78-.02,1.56-.04,2.34-.05.4.11.67-.01.65-.38,0-.12-.33-.22-.51-.33-1.2-1.05-2.04-2.24-.69-3.6,1.36-1.37.55-2.01-.87-2.38-.94-.24-1.98-.3-2.95-.25-.98.06-2.14.33-.57,1.34.85.54.54,1.13.24,1.77-.58,1.24-1.15,2.47-1.72,3.71,1.05.43,1.95.11,2.86.09Zm-67.84-6.04c-.92-.11-1.84-.23-2.76-.34-1.27-.11-1.83.59-2.04,1.55-.23,1.07-.21,2.1,1.18,2.63.56.22,1.08.58.64,1.19-.19.26-.92.54-1.02.45-1.54-1.35-1.79.19-2.53,1.46-.43-1.89-.37-3.3-1.26-4.48-.26-.34.02-.71.55-.76.95-.09,1.36-.64,1.17-1.39-.21-.82-1.12-.78-1.85-.82-.96-.05-1.79.14-2.33.98-.57.89-.15,1.58.44,2.24.41.47.89.88,1.34,1.33.51.51.62,1.07.07,1.6-.48.46-.97.31-1.54-.02-.93-.54-2.07-.4-3.07-.25-.7.1-1.35.44-1.58-.37-.16-.57-.39-1.31.8-1.52,1.1-.19,1.14-.86.17-1.28-.63-.27-1.06-.5-.78-1.11.29-.63.89-.62,1.42-.24.48.34.86.47,1.08-.18.18-.55.11-1.12-.59-1.28-.8-.18-1.64-.29-2.47-.28-1.06,0-1.88-.03-1.29,1.52.6,1.57-.07,3.36-.51,5-.13.48-1.38.55-.96,1.33.46.85,1.48.41,2.26.55,1.48.27,2.84-.78,4.07-.65,3.5.37,6.91.89,10.21-.7.52,1.42,1.8,1.32,2.97,1.03,1.14-.28,2.12-.64,3.41-.32,1.08.27,2.76.35,1.67-1.62-.26-.47-.09-1.2.69-1.51.95.53.71,1.42.83,2.21.15,1.03,1.09.88,1.73.73,1.23-.29.36-.8.05-1.26-.74-1.09-1.36-2.1-.25-3.42.59-.7,0-1.7-.97-1.98-1.28-.37-2.64-.98-4.04-.11,1.54,1.82.27,3.54.11,5.29-.05.58-.89,1.09-1.45,1.03-.65-.06-1.59-.55-1.51-1.25.15-1.37-.15-2.87.94-4.04.28-.3,1.02-.32.69-.93-.24-.44-.77-.56-1.29-.51-.82.08-1.68.02-2.39.5Zm88.96-25c-3.48,1.22-6.38,2.68-5.99,6.83.12,1.28.26,2.91-.44,4.15-.93,1.67-.27,2.97.87,4.04,2.15,2.02,3.93,4.15,8.06,3.5,4.88-.77,8.35-2.74,9.05-5.98.81-3.75,1.51-7.59-2.27-10.52-1.36-1.06-3.03-1.79-4.56-2.68.5-2.39-1.46-.93-2.33-1.19-1.28-1.21-2.95-1.13-4.62-1.22-3.33-.17-6.66-.5-9.99-.63-1.61-.06-1.91-.73-1.81-1.99.12-1.48,0-2.97.05-4.45.03-.8-.21-1.36-1.21-1.3-.77.05-1.97-.11-1.85.98.19,1.71-.96,3.16-.91,4.81.03,1.25-.45,1.9-2,1.98-.78.04-2.27,0-2.2.93.06.88.89,2.22,1.89,2.31,2.64.23,1.84,1.69,1.85,3.06.07,5.41-2,10.58-2.1,15.97-.02,1.27.34,1.81,1.7,2.23,3.48,1.07,7.05.95,10.61.9,2-.03,4.08.38,6.33-.35-2.42-1.66-5.07-2.01-7.66-2.52-1.29-.26-2.79-.28-3.81-.91-1.41-.87.17-2.32-.21-3.5-.14-.42-.03-.9-.14-1.33-.92-3.62-.53-7.29-.62-10.95-.04-1.95.67-2.28,2.55-2.03,3.42.45,6.77-.08,10.07-.88.45.45,1.67-.46,1.69.76Zm-54.27.32c.03-2.05-1.81-1.74-3.17-2-1.53-.29-3.39,0-3.55-2.13-.02-.27-.31-.48-.72-.51-2.55-.23-3.72.84-3.49,3.18.09.89.14,1.78.15,2.67.03,4.5-1.43,8.99-.17,13.51.21.75-.23,1.83,1.09,1.93,1.37.1,1.24-1.16,1.36-1.8.7-3.74,1.26-7.5,1.8-11.27.11-.77.03-1.53,1.22-1.57,1.12-.04,1.27.55,1.43,1.41.46,2.54.37,5.04-.3,7.54-.37,1.39-.56,2.82.1,4.18.38.79.77,1.59,2.13,1.52,2.4-.12,3.22-1.27,2.35-3.65-.56-1.53-.94-3.02-.93-4.72.02-3.28,3.03-5.03,4.18-7.68.21-.49.84-.76,1.48-.57.68.2.36.74.34,1.14-.16,5.2-.25,10.41-.56,15.6-.11,1.83.61,2.39,2.54,2.68,2.89.44,5.63.66,8.59.05,1.89-.39,3.88-.83,5.23-.98-.68-.27-2.4-.47-3.11-1.34-1.75-2.15-4.25-2.29-6.61-2.22-2.17.06-2.6-.8-2.26-2.19,1-4.1.58-8.29,1.08-12.42.46-3.79.27-3.96-4.07-3.85-.67.02-1.33.02-2,.05-1.36.07-2.38.5-2.75,1.84-.15.55-.34,1.18-1.37,1.59Zm-54.72,11.64c0-.92-.04-1.44,0-1.95.2-2.36.45-4.72.64-7.09.07-.92-.28-1.61-1.46-1.72-1.45-.13-1.07.9-1.14,1.53-.19,1.85-.19,3.72-.42,5.57-.12.9.13,2.42-1.78,1.97-2.25-.53-6.34.92,1.58-12.25-6.73,1.01-2.52-1.66-4.73-2.47-2.48-.91-4.1.19-4.12,2.6-.02,2.46,1.17,4.81.73,7.3-.31,1.76-.6,3.53-.81,5.3-.16,1.39.25,2.73,1.61,3.5,2.72,1.52,6.77,1.14,9.2-.73.27-.21.38-.75.89-.42.31.2.73.47.58.9-.89,2.62,1.14,2.6,2.9,2.34,2.56-.37,5.02-.41,7.54.18,2.46.58,3.55-.5,3.49-2.67-.1-3.82,1.1-7.65-.35-11.47-.38-1-.43-2.16-.08-3.3.49-1.57-.47-2.2-2.1-2.65-2.97-.83-5.85-.1-8.76.04-1.23.06-1.54,1.03-1.65,1.7-.22,1.32-.1,2.83,1.73,3.23,1.61.35,3.13.06,2.87-1.96-.12-.98.48-1.26,1.31-1.11,1.27.22,3.1-.13,3.38,1.49.2,1.17.43,2.31.77,3.45.24.82.19,1.94-1.12,1.72-2.59-.43-4.9.65-7.36.77-1.23.06-1.61.42-1.38,1.51.35,1.7-.27,3.16-1.96,4.72Zm1.89,8.51c-.97-.8-1.92-.6-2.79-.69-1.65-.18-3.51-.1-4.77-1.09-2.43-1.91-5.23-2.04-8.14-1.83-1.1.08-2.14.09-3.18-.15-.74-.17-2.05.08-1.97-.88.08-1,1.4-.98,2.21-.79,1.65.38,2.31-.26,2.62-1.56.15-.65.37-1.29.53-1.94,1.24-5.08-.36-10.23.49-15.31.08-.5-.17-.83-.72-1.01-4.6-1.51-9.26-1.58-13.94-.37-.59.15-1.23.51-1.38,1.18-1.25,5.3-2.2,10.64-2.54,16.06-.07,1.07.59,1.2,1.44,1.39,2.09.47,4.17.99,6.26,1.47,1.27.29,2.02.88,2.01,2.17-.02,2.02,1.41,2.64,3.41,3.09,2.55.58,5.14.17,7.62.6,4.27.72,8.42.08,12.85-.33Zm24.12-3.95c.83,0,1.69-.11,2.49.02,2.07.33,3.37-.49,3.98-2.16,1.02-2.77,1.04-5.65.94-8.53-.02-.68-.72-.75-1.3-.8-2.75-.24-5.23-1.32-7.81-2.05-1.56-.44-3.44-1.24-3.83-2.63-.68-2.44.09-4.84,1.99-6.84,1.47-1.54,3.39-1.01,5.12-.76,2.46.35,2.94,1.33,2.23,3.46-.33.99-.37,2.04-.61,3.06-.25,1.1.23,1.63,1.43,1.91,3.42.81,4.09.33,3.87-2.89-.07-1.11-.44-2.2-.17-3.33.11-.43,0-.94-.49-1.19-2.07-1.08-3.92-2.53-6.39-2.94-3.93-.64-6.28.13-7.63,2.52-.67,1.19-.68,2.46-.53,3.72.1.84-.02,1.37-.71,2.12-2.23,2.43-.32,7.28,3.2,7.79,2.13.31,3.78,1.49,5.83,1.8.81.12,1.05.65,1,1.32-.05.62-.43.9-1.12.96-1.24.12-2.51.19-3.69.49-1.48.38-2.04.1-1.72-1.32.22-.97,0-2.09-1.27-1.93-1.2.15-2.36-.53-3.2-.24-1.51.52.1,1.83-.31,2.76-.12.27-.14.58-.25.86-.85,2.1.43,3.23,2.32,4.07,2.11.93,4.39.69,6.62.75Zm50.58-.81c1.19,0,2.03.04,2.86,0,2.66-.16,6.52-2.75,6.93-4.7.72-3.44,1.14-6.9.65-10.4-.11-.82-.5-1.47-1.16-2.13-2.47-2.49-6.43-2.87-8.99-5.21-.32-.29-.78.06-1.06.34-2.35,2.37-5.24,4.03-8.51,5.17-.49.17-1.08.5-.89.93,1.2,2.82-.36,5.75.66,8.73.52,1.51-.72,3.38,1.49,4.83.72.47,1.18,1.51,2.29,1.72,2.01.38,3.95,1.3,5.74.72Zm-15.47,16.03c-1.41-2.09-1.05-4.25-1.18-6.33-.03-.46.06-1-.6-1.01-1.06-.03-2.18-.26-3.18.22-.27.13-.09.48.04.78.94,2.19-.3,3.9-1.7,5.51-1.1,1.27-1.69.45-1.82-.57-.19-1.4.04-2.82.58-4.16.16-.39.7-.75.26-1.19-.18-.17-.61-.22-.91-.19-.86.08-.62.69-.68,1.19-.09.76.1,1.82-1.39,1.56-1.22-.21-1.07-.94-.66-1.69.24-.44.42-.85-.25-1.08-.57-.2-1.16-.14-1.69.11-.44.2-.36.51-.28.93.49,2.57-.15,4.34-2.06,6.05,2.72.89,2.92.77,3.14-1.58.07-.69.12-1.63,1.33-1.53,1.41.11,1.24,1.07.92,1.83-.31.75-.68,1.7.43,1.72,1.53.02,3.03-.51,4.66-.45,1.18.04.25-1.4.85-2.03.4-.42.42-1.27,1.29-1.13,1.15.19.74,1.11.58,1.63-.79,2.61,1.04,1.44,2.33,1.44Zm-23.59-14.35c.15-.27.3-.45.36-.65,1.49-5.1,2.06-10.35,2.99-15.54.2-1.1-.46-1.77-1.9-1.78-2.03-.02-2.78.95-2.69,2.56.21,3.66-1.99,7.44.71,10.99.31.41.23,1.19.08,1.74-.26.95.09,1.74.46,2.66Zm4.26,10.64c-1-.14-.58-1.64-1.77-1.34-.88.21-.79,1.47-2.06,1.64-.36-1.22-1.12-2.34,1.59-3.35-1.58-.66-3.54-1.06-5.19-.4-.85.34-.56,1.21.21,1.27,2.08.17,1.69,1.51,1.79,2.63.08.96.03,1.94.09,2.9.02.37.23.74.69.84.5.11.71-.25.98-.54.7-.75.78-1.9,1.68-2.49.69.31.55.72.63,1.07.17.69-.15,1.79.77,1.93,1.26.19,1.09-1.07,1.44-1.76.72-1.41.81-3.05,1.95-4.3.35-.38,1.53-.26.94-1.17-.41-.64-1.18-.38-1.83-.33-1.11.08-2.65-.17-1.35,1.63.29.4-.05,1.15-.56,1.76Zm33.7,3.43c1.09-.13,1.1-1.02,1.4-1.66.54-1.17.98-2.38,1.5-3.56.28-.64.82-1.34,1.55-1.16.92.23,1.1,1.15.71,1.87-.62,1.14-.05,2.57-1.18,3.57-.69.62-.17.99.47,1.03.99.07,2,.04,2.98-.08.72-.09,1.28-.6,1.11-1.26-.22-.87-.78-.35-1.3-.14-.96.39-1.12-.47-.85-.77.67-.74.97-1.29.3-2.22-.24-.33.25-1.2,1.15-1.09.59.07,1.32.72,1.42-.39.1-1.06-.79-1.16-1.65-1.23-1.78-.13-3.5.47-5.34.29-.63-.06-1.17.01-1.82-.31-.68-.34-1.79-.33-1.19.79.74,1.4.29,2.78.38,4.17.05.71-.37,1.49.35,2.13Zm-77.28,1.46c1.55,0,2.33-.67,1.78-1.54-1.32-2.1-.97-4.18.99-5.78.41-.33,1.26-.55.88-1.14-.51-.82-1.5-.26-2.27-.28-.64-.02-1.24.41-.78,1.01.82,1.09.1,2.01-.75,2.06-1,.06-1.43-1.11-1.61-1.99-.12-.6.4-1.41-.76-1.56-1.07-.14-2.16-.29-3.05.51-.3.27-.62.54-.45.96.18.47.63.32,1.03.34,2.37.15,4.54,3.54,3.49,5.42-.88,1.57-.58,1.97,1.49,1.98Zm71.72-1.38c.76-.32,1.97.38,2.39-.66.35-.86.6-1.89-1.13-1.9-.19,0,.69-2.98.92-2.91,1.19.35,1.47-.35,1.16-1.02-.71-1.58-2.28-.65-3.46-.67-.82-.02-.68.55-.31,1.12.97,1.52-.16,2.81-.71,4.15-.21.52-1.23.76-.9,1.45.39.81,1.34.24,2.04.45Zm-7.79-5.12c2.45-.89,2.47-.89,2.11,1.28-.14.87-.38,1.73-.64,2.58-.12.39-1.29.69-.36,1.13.65.31,1.64.28,2.4.12.9-.19.17-.75.15-1.2-.09-1.49-1.07-3.22,1.42-4.14.98-.36.65-1.34-.15-1.76-1.68-.88-4.07.03-4.92,1.98Z"/>
  <ellipse class="cls-4" cx="421.76" cy="346.12" rx="65.68" ry="37.89"/>
  <path class="cls-7" d="m244.31,220.42c1.22-.54,1.44-1.38,1.62-2.1.44-1.76,1.65-2.33,3.26-2.42.79-.04,1.57-.04,2.36-.06,5.13-.14,5.35.07,4.81,5.08-.59,5.45-.09,10.97-1.27,16.39-.4,1.83.11,2.97,2.68,2.89,2.79-.09,5.74.1,7.82,2.93.84,1.15,2.88,1.41,3.68,1.77-1.6.2-3.94.78-6.18,1.3-3.49.81-6.73.52-10.16-.06-2.28-.39-3.13-1.12-3.01-3.54.36-6.86.47-13.73.66-20.59.01-.53.39-1.23-.41-1.5-.76-.25-1.5.11-1.75.75-1.37,3.5-4.92,5.81-4.94,10.14-.01,2.25.44,4.21,1.11,6.23,1.02,3.14.06,4.66-2.78,4.81-1.61.09-2.07-.96-2.52-2.01-.77-1.79-.55-3.68-.11-5.52.79-3.3.89-6.59.35-9.95-.18-1.14-.37-1.91-1.69-1.86-1.42.05-1.32,1.05-1.45,2.07-.64,4.97-1.3,9.93-2.13,14.87-.14.84,0,2.5-1.61,2.37-1.56-.13-1.04-1.56-1.29-2.55-1.5-5.97.24-11.89.2-17.83,0-1.17-.07-2.35-.17-3.52-.27-3.09,1.12-4.5,4.13-4.2.48.05.82.33.85.68.19,2.79,2.38,2.42,4.2,2.81,1.62.34,3.79-.06,3.75,2.64Z"/>
  <path class="cls-7" d="m263.77,119.25c2-2.06,2.73-3.99,2.32-6.23-.26-1.43.17-1.91,1.63-1.99,2.91-.15,5.63-1.58,8.7-1.01,1.55.29,1.61-1.18,1.33-2.27-.39-1.51-.67-3.02-.9-4.56-.33-2.14-2.49-1.67-3.99-1.96-.98-.19-1.69.17-1.55,1.47.3,2.67-1.49,3.05-3.4,2.59-2.16-.52-2.3-2.52-2.04-4.26.13-.89.5-2.17,1.95-2.25,3.45-.19,6.85-1.15,10.36-.05,1.93.6,3.06,1.43,2.48,3.5-.42,1.5-.35,3.04.09,4.36,1.71,5.04.29,10.1.41,15.14.07,2.87-1.21,4.29-4.12,3.53-2.98-.78-5.89-.72-8.91-.23-2.08.34-4.47.36-3.42-3.09.17-.57-.33-.93-.69-1.19-.6-.43-.73.28-1.05.56-2.87,2.47-7.66,2.98-10.88.97-1.62-1.01-2.09-2.78-1.91-4.62.24-2.34.59-4.67.95-7,.52-3.29-.88-6.38-.86-9.63.02-3.18,1.93-4.63,4.87-3.43,1.17.48.82,1.45.79,2.26-.18,4.71-.23,9.44-.68,14.12-.3,3.14,2.04,2.64,3.61,3.05,2.25.59,1.96-1.41,2.1-2.6.28-2.44.28-4.9.5-7.35.07-.83-.37-2.19,1.34-2.02,1.4.14,1.81,1.06,1.73,2.27-.23,3.12-.52,6.24-.76,9.36-.05.67,0,1.35,0,2.57Zm12.56-1.67c-.56-1.17,1.01-3.18-1.3-3.51-2.55-.36-4.14,1.13-4.27,3.42-.15,2.54.59,4.14,3.5,4.03,3.17-.12,1.3-2.63,2.07-3.94Z"/>
  <path class="cls-7" d="m267.81,88.7c-5.24.55-10.14,1.39-15.19.44-2.94-.56-6-.02-9.01-.79-2.37-.6-4.05-1.41-4.03-4.08.01-1.69-.87-2.48-2.38-2.86-2.47-.63-4.93-1.32-7.4-1.93-1.01-.25-1.79-.43-1.71-1.84.4-7.15,1.53-14.2,3-21.19.19-.89.94-1.36,1.64-1.56,5.53-1.6,11.04-1.5,16.48.49.66.24.95.67.86,1.34-1,6.71.89,13.51-.58,20.21-.19.86-.45,1.7-.63,2.56-.36,1.72-1.14,2.57-3.09,2.06-.96-.25-2.51-.28-2.61,1.04-.09,1.27,1.46.94,2.33,1.17,1.23.32,2.47.3,3.76.2,3.44-.29,6.75-.11,9.63,2.41,1.48,1.3,3.69,1.2,5.64,1.43,1.03.13,2.15-.14,3.3.91Zm-28.52-12.55c-.14-1.19-.55-2.76.85-3.09,1.33-.31,2.5.76,3.36,1.92.3.4-.31,1.72,1.03,1.16.8-.33,1.25-.93,1.19-1.84-.2-3.08.74-6.01,1.21-9,.43-2.71-.28-5.07-2.68-6.75-2.13-1.49-4.76-.63-6.21,1.47-3.3,4.81-2.56,10.57-3.9,15.83-.56,2.21,2.61,2.22,4.13,2.56,1.81.4.64-1.49,1.01-2.27Z"/>
  <path class="cls-7" d="m233.33,168.83c-2.65-.08-5.34.24-7.83-.99-2.23-1.1-3.75-2.59-2.75-5.37.13-.36.16-.77.3-1.13.49-1.23-1.42-2.95.36-3.64.99-.38,2.37.52,3.79.32,1.52-.22,1.76,1.27,1.51,2.55-.38,1.87.27,2.24,2.03,1.75,1.41-.4,2.9-.49,4.37-.65.82-.09,1.27-.46,1.33-1.27.06-.89-.22-1.57-1.18-1.74-2.42-.41-4.37-1.97-6.89-2.38-4.16-.68-6.43-7.08-3.79-10.28.82-.99.96-1.69.84-2.8-.18-1.66-.17-3.34.63-4.91,1.6-3.15,4.37-4.18,9.02-3.33,2.91.53,5.1,2.45,7.55,3.87.57.33.7,1,.58,1.57-.33,1.49.11,2.93.2,4.39.26,4.25-.53,4.88-4.58,3.81-1.42-.38-1.99-1.07-1.69-2.52.27-1.34.33-2.74.72-4.04.84-2.81.27-4.1-2.64-4.57-2.05-.33-4.32-1.03-6.05,1.01-2.24,2.63-3.16,5.8-2.35,9.02.46,1.84,2.68,2.89,4.53,3.47,3.06.97,5.99,2.4,9.24,2.71.69.07,1.5.16,1.53,1.06.12,3.8.09,7.6-1.11,11.26-.72,2.2-2.25,3.28-4.71,2.85-.96-.17-1.96-.03-2.95-.03Z"/>
  <path class="cls-7" d="m263.51,318c-3.91,1.06-7.86,1.76-11.91,1.16-2.22-.33-3.06.11-3.01,2.68.1,4.83-.36,9.67.73,14.45.13.57,0,1.2.16,1.76.45,1.56-1.42,3.47.25,4.62,1.21.83,2.98.87,4.51,1.21,3.06.68,6.19,1.14,9.06,3.33-2.67.97-5.12.43-7.49.47-4.2.07-8.43.23-12.54-1.18-1.61-.55-2.04-1.27-2.01-2.94.11-7.12,2.56-13.94,2.48-21.08-.02-1.81.93-3.74-2.19-4.04-1.19-.12-2.17-1.89-2.24-3.05-.08-1.22,1.68-1.17,2.6-1.23,1.82-.11,2.4-.97,2.36-2.62-.05-2.17,1.3-4.09,1.08-6.34-.14-1.43,1.28-1.23,2.19-1.29,1.17-.08,1.46.66,1.43,1.72-.06,1.96.08,3.93-.06,5.88-.12,1.66.23,2.54,2.14,2.63,3.94.18,7.87.61,11.81.83,1.97.11,3.95.01,5.46,1.6-1.32,1.41-3.4.31-4.81,1.44Z"/>
  <path class="cls-7" d="m233.82,290.71c-2.11.77-4.41-.45-6.78-.95-1.3-.27-1.85-1.64-2.7-2.26-2.6-1.92-1.14-4.39-1.76-6.38-1.21-3.93.63-7.8-.79-11.52-.22-.57.48-1.01,1.06-1.23,3.87-1.51,7.28-3.7,10.06-6.83.33-.37.87-.84,1.25-.45,3.03,3.09,7.71,3.59,10.63,6.88.78.88,1.23,1.73,1.37,2.81.58,4.62.09,9.19-.77,13.72-.48,2.57-5.05,5.99-8.19,6.2-.98.07-1.97.01-3.38.01Zm-5.07-10.79c.08,1.44-1.08,3.17,1.1,4.08,3.66,1.53,7.47.95,11.03.14,1.95-.45.71-3.6,1.84-5.23.21-.3.16-.76.27-1.14,1.5-5.09-.96-10.09-5.9-11.9-1.92-.7-3.75-.77-5.5.67-2.02,1.67-3,3.85-3.14,6.31-.13,2.34.19,4.71.3,7.06Z"/>
  <path class="cls-7" d="m278.77,322.11c1.81,1.16,3.79,2.14,5.4,3.53,4.47,3.86,3.64,8.93,2.69,13.88-.83,4.28-4.93,6.89-10.7,7.9-4.88.86-6.99-1.95-9.53-4.62-1.35-1.41-2.14-3.13-1.03-5.33.82-1.64.66-3.79.52-5.48-.45-5.47,2.97-7.4,7.08-9.01,2,.64,3.68-.81,5.57-.87Zm2.28,11.86q-.02-5.36-.85-6.22c-2.92-3.02-3.79-3.19-7.85-1.45-1.86.8-4.07,1.24-4.21,3.89-.08,1.67-.27,3.35-.18,5.01.22,4,1.66,5.39,5.6,5.7,6.7.52,7.52-.24,7.49-6.94Z"/>
  <path class="cls-7" d="m255.16,188.8c-.44-1.22-.85-2.26-.54-3.51.18-.73.28-1.75-.09-2.29-3.19-4.7-.58-9.68-.84-14.51-.11-2.13.77-3.4,3.18-3.38,1.71.02,2.48.9,2.25,2.35-1.09,6.85-1.77,13.77-3.53,20.5-.07.26-.25.5-.43.85Z"/>
  <text class="cls-3" transform="translate(342.5 280.4)"><tspan x="0" y="0">more</tspan><tspan x="29.22" y="80">here</tspan></text>
  <rect class="cls-7" x="0" y="2.06" width="192.75" height="102.34"/>
  <text class="cls-3" transform="translate(17.69 45.95)"><tspan class="cls-2" x="0" y="0">v</tspan><tspan class="cls-1" x="26.26" y="0">oice </tspan><tspan x="0" y="57.6">w</tspan><tspan class="cls-6" x="38.98" y="57.6">i</tspan><tspan x="51.74" y="57.6">th</tspan><tspan x="0" y="115.2">helium</tspan><tspan class="cls-8" x="0" y="172.8" xml:space="preserve">		</tspan><tspan x="72" y="172.8">= </tspan></text>
</svg>