<?xml version="1.0" encoding="utf-8"?>
<!-- Generator: Adobe Illustrator 28.0.0, SVG Export Plug-In . SVG Version: 6.00 Build 0)  -->
<svg version="1.1" id="Layer_1" xmlns="http://www.w3.org/2000/svg" xmlns:xlink="http://www.w3.org/1999/xlink" x="0px" y="0px"
	 viewBox="0 0 500 400" style="enable-background:new 0 0 500 400;" xml:space="preserve">
<style type="text/css">
	.st0{fill:url(#SVGID_1_);}
	.st1{fill:#FFF200;}
	.st2{fill:#FFF200;stroke:#000000;stroke-width:2;stroke-miterlimit:10;}
	.st3{fill:#FFFFFF;stroke:#000000;stroke-width:2;stroke-miterlimit:10;}
	.st4{fill:#FFFFFF;}
	.st5{fill:url(#SVGID_00000109017487798304683950000003896515532136681892_);}
</style>
<linearGradient id="SVGID_1_" gradientUnits="userSpaceOnUse" x1="253.7233" y1="-1.1836" x2="253.7233" y2="307.7407" gradientTransform="matrix(1 0 0 -1 0 486.6816)">
	<stop  offset="0" style="stop-color:#FFFFFF"/>
	<stop  offset="0.8852" style="stop-color:#000000"/>
</linearGradient>
<rect x="-2.7" y="183.7" class="st0" width="512.8" height="216.3"/>
<rect x="-2.7" y="0" width="506.6" height="183.7"/>
<path class="st1" d="M248.2,106.8c59.1,0,112,12.7,160.5,33.9c34.3,15.1,63.4,33.8,88.4,55.2c1.9,1.6,3.8,2.8,1,5.2
	c-43.2,36.9-96.2,65.4-164.5,80.5c-73.3,16.2-144.3,11.4-212.5-11.8c-49-16.6-88.9-40.1-122.1-68.6c-1.9-1.6-2.1-2.7-0.1-4.4
	C47,155.9,106.8,125.6,184.7,112C205.3,108.4,226.6,106.9,248.2,106.8z M248.5,139.4c-51.4,0.1-91.9,26.4-92,59.6
	c0,32.9,41.1,59.5,91.8,59.4c51.4-0.1,92-26.6,91.9-59.7C340.1,165.9,299.2,139.4,248.5,139.4z M323.1,136.6
	c30,16.3,46.2,37,46.3,62.3c0.1,25.3-16.5,46-46.2,62.4c56.1-11.8,101.3-33.3,138.9-62.4C424,169.6,378.8,148.2,323.1,136.6z
	 M173.5,136.6C117.6,148.2,72.4,169.8,35,198.6c26.7,25,107.2,61.2,138.5,62.3C111.2,228.4,112.5,168.4,173.5,136.6z"/>
<path class="st2" d="M248.1,122.2c50.7-0.1,91.7,26.4,91.8,59.4c0,33.2-40.7,59.6-91.9,59.7c-50.6,0.1-91.8-26.6-91.8-59.4
	C156.2,148.6,196.7,122.3,248.1,122.2z M294.7,193.1c8.8-11.6,1.8-28.6-15.4-37c-20.3-10-47.3-9.2-65.8,1.8
	c-17.2,10.3-20.7,27.7-8.4,40.7c10.7,11.3,34.4,18.4,49,14.8c-5.1-10.1-3.3-16.3,6.4-21.4C269.8,187.3,280.6,187.6,294.7,193.1z"/>
<path class="st2" d="M323.1,119.4c55.8,11.7,101,33.2,139,62.3c-37.4,29.1-82.8,50.6-138.9,62.4c29.8-16.5,46.3-37.1,46.2-62.4
	C369.3,156.4,352.9,135.7,323.1,119.4z"/>
<path class="st2" d="M167.5,119.7c-61,31.8-62.3,91.9,0,124.5C136.2,243,55.7,206.9,29,181.9C66.4,153,111.7,131.5,167.5,119.7z"/>
<path class="st3" d="M294.6,177.4c-14.1-5.5-24.9-5.9-34.2-1c-9.7,5-11.6,11.3-6.4,21.4c-14.6,3.7-38.3-3.6-49-14.8
	c-12.4-13-8.8-30.4,8.4-40.7c18.5-11.1,45.5-11.8,65.8-1.8C296.3,148.9,303.3,165.8,294.6,177.4z"/>
<path class="st4" d="M-2.6,0H15c8.5,0,12.2,4.3,12.2,10.1c0,6-4.1,8.1-6.4,8.6v0.1c1.8,0.5,5.8,2,6,9.2c0.1,2.7,0.3,6.6,1.3,7.7v0.5
	h-8.3c-0.8-1.7-1-4.5-1.3-7.4c-0.5-4.9-2.3-7.5-7.3-7.5H5v14.9h-7.5V0z M13.6,15.5c3.9,0,6.2-1.4,6.2-4.5c0-3.1-1.6-4.5-5.3-4.5H4.9
	v9.2h8.8V15.5z"/>
<path class="st4" d="M468,24.6h7.8c0,2,1,5.8,7.9,5.8c3.8,0,8-0.9,8-4.4c0-2.7-2.5-3.4-6.5-4.3l-4.1-0.9
	c-6.3-1.4-12.2-2.8-12.2-10.4c0-4.8,4.3-10.3,15.1-10.3c11.8,0,14.9,7.3,15.1,11.4h-7.9c-0.3-1.6-0.6-5.5-7.7-5.5
	c-3.1,0-6.8,1-6.8,4.2c0,2.7,2,3.2,5.8,4.1l7.2,1.6c5.3,1.1,9.9,3.1,9.9,9.3c0,10.3-11.9,11.3-15.3,11.3
	C470.4,36.4,468,28.9,468,24.6z"/>
<path class="st4" d="M-2.4,380.6c0-5.9,1.5-12.3,5.9-15.9c2.3-1.8,5-3.2,9.3-3.2c7.9,0,12.2,4.1,12.8,10.1H18
	c-0.3-2.7-2-4.3-5.5-4.3c-5.7,0-7.9,6-7.8,11.2l0.1,0.1c2.1-2.8,5.4-4.3,9.2-4.3c6.9,0,11.8,5.2,11.8,11.8c0,7.5-5.5,13.3-13.4,13.3
	C1.2,399.4-2.4,389.8-2.4,380.6z M12.3,393.4c3.9,0,6.4-2.7,6.4-6.6s-2.1-6.9-6.4-6.9c-4.1,0-6.5,2.8-6.5,6.8
	C5.7,390.4,8.1,393.4,12.3,393.4z"/>
<g>
	<path class="st4" d="M440,381.2c0-5.9,1.5-12.3,5.9-15.9c2.3-1.8,5-3.2,9.3-3.2c7.9,0,12.2,4.1,12.8,10.1h-7.5
		c-0.3-2.7-2-4.3-5.5-4.3c-5.7,0-7.9,6-7.8,11.2l0.1,0.1c2.1-2.8,5.4-4.3,9.2-4.3c6.9,0,11.8,5.2,11.8,11.8
		c0,7.5-5.5,13.3-13.4,13.3C443.6,400,440,390.4,440,381.2z M454.7,394c3.9,0,6.4-2.7,6.4-6.6s-2.1-6.9-6.4-6.9
		c-4.1,0-6.5,2.8-6.5,6.8C448.1,391,450.5,394,454.7,394z"/>
	<path class="st4" d="M471.4,381.2c0-5.9,1.5-12.3,5.9-15.9c2.3-1.8,5-3.2,9.3-3.2c7.9,0,12.2,4.1,12.8,10.1h-7.5
		c-0.3-2.7-2-4.3-5.5-4.3c-5.7,0-7.9,6-7.8,11.2l0.1,0.1c2.1-2.8,5.4-4.3,9.2-4.3c6.9,0,11.8,5.2,11.8,11.8
		c0,7.5-5.5,13.3-13.4,13.3C475,400,471.4,390.4,471.4,381.2z M485.9,394c3.9,0,6.4-2.7,6.4-6.6s-2.1-6.9-6.4-6.9
		c-4.1,0-6.5,2.8-6.5,6.8C479.4,391,481.9,394,485.9,394z"/>
</g>
</svg>
