<?xml version="1.0" encoding="UTF-8"?>
<svg id="Layer_2" data-name="Layer 2" xmlns="http://www.w3.org/2000/svg" viewBox="0 0 16.16 34.54">
  <defs>
    <style>
      .cls-1 {
        fill: #000;
        stroke-width: 0px;
      }
    </style>
  </defs>
  <g id="Layer_1-2" data-name="Layer 1">
    <g>
      <path class="cls-1" d="M4.96,24.58H1.41c1.23-4.37,2.43-8.59,3.62-12.81-.11-.05-.21-.1-.32-.15-.18.31-.41.61-.52.94-.59,1.95-1.16,3.9-1.72,5.86-.24.85-.64,1.57-1.66,1.25-1.02-.32-.9-1.16-.65-1.99.77-2.56,1.52-5.13,2.31-7.68.57-1.84,1.88-2.82,3.81-2.89,1.2-.04,2.4-.05,3.6-.01,1.88.07,3.25,1.11,3.81,2.91.79,2.51,1.54,5.04,2.3,7.56.06.19.1.39.13.58.1.76-.08,1.51-.91,1.52-.47,0-1.22-.5-1.37-.95-.71-2.03-1.24-4.13-1.87-6.19-.1-.35-.36-.65-.54-.97-.13.06-.25.11-.38.17,1.22,4.22,2.44,8.44,3.71,12.81h-3.62c0,1.9,0,3.69,0,5.48,0,1,0,2,0,3,0,.9-.39,1.51-1.32,1.5-.92,0-1.33-.64-1.34-1.52-.01-2.24,0-4.48,0-6.71,0-.24.04-.49-.01-.72-.08-.34-.23-.67-.35-1-.14.35-.39.7-.4,1.06-.04,2.2-.02,4.4-.02,6.59,0,.28,0,.56,0,.84-.02.91-.48,1.47-1.39,1.46-.91-.01-1.34-.6-1.35-1.5,0-2.36,0-4.72,0-7.07,0-.43,0-.85,0-1.38Z"/>
      <path class="cls-1" d="M11.35,3.37c-.02,1.86-1.56,3.35-3.4,3.3-1.8-.05-3.25-1.54-3.27-3.33C4.66,1.49,6.17,0,8.05,0c1.88,0,3.32,1.48,3.3,3.37Z"/>
    </g>
  </g>
</svg>