<?xml version="1.0" encoding="UTF-8"?>
<svg id="Layer_1" data-name="Layer 1" xmlns="http://www.w3.org/2000/svg" viewBox="0 0 524 423">
  <defs>
    <style>
      .cls-1, .cls-2, .cls-3, .cls-4, .cls-5, .cls-6, .cls-7, .cls-8, .cls-9, .cls-10, .cls-11, .cls-12, .cls-13 {
        stroke-width: 0px;
      }

      .cls-2 {
        fill: #f9c339;
      }

      .cls-3 {
        fill: #5b401a;
      }

      .cls-4 {
        fill: #231f20;
      }

      .cls-5 {
        fill: #b17d32;
      }

      .cls-6 {
        fill: #fce5b4;
      }

      .cls-7 {
        fill: #fff;
      }

      .cls-8 {
        fill: #f5be24;
      }

      .cls-9 {
        fill: #ffe8b6;
      }

      .cls-10 {
        fill: #e9b424;
      }

      .cls-11 {
        fill: #fef9f5;
      }

      .cls-12 {
        fill: #efbb39;
      }

      .cls-13 {
        fill: #ee2c2d;
      }
    </style>
  </defs>
  <rect class="cls-1" width="524" height="423"/>
  <ellipse class="cls-7" cx="264" cy="212.11" rx="250" ry="200"/>
  <g>
    <path class="cls-6" d="m215.72,327.15c-.41,3.77-1.8,7.23-3.37,10.63-1.94,4.19-3.86,8.39-5.77,12.6-.3.67,0,1.01.59,1.54,2.28,2.05,3.88,4.59,4.69,7.59-.79.02-1.39.05-1.62-1.09-.41-1.98-2.11-3.23-3.23-4.82-.34-.48-1.44-.29-1.33-1.33.15-1.49-.47-3.02.53-4.46,1.66-2.37,3.27-5.07,3.58-7.75.25-2.08,1.78-3.79,1.31-5.93-.03-.12,0-.31.07-.37,2.25-1.64,2.43-4.6,4.19-6.55.07-.07.24-.05.37-.06h-.01Z"/>
    <path class="cls-6" d="m219.52,365.32c.63.23,1.2.54,1.56,1.13-.87.11-1.65.09-1.56-1.13Z"/>
    <path class="cls-10" d="m224.11,312.07c-.55,2.6-.45,5.23-.34,7.85.06,1.28-.26,2.5-.78,3.53-.9,1.77-1.43,3.58-1.37,5.52.07,2.46-2.14,3.67-2.94,5.67-.36.89-.46,2.04-1.39,2.67-.1-1.07.04-2.19-.6-3.17-.24-.37-.12-.73.16-1.05,1.65-1.86,1.99-4.26,2.66-6.52.15-.52.37-.91.71-1.3.33-.37.83-.66.83-1.24-.03-2.95,1.2-5.74,1.03-8.76-.05-.94-.16-3.13,2.04-3.19h-.01Z"/>
    <path class="cls-10" d="m216.81,338.72c-.42,1.99-.99,3.94-1.91,5.76-.16-1.11-.88-1.98-.21-3.41.54-1.16.86-2.03,2.12-2.35h0Z"/>
    <path class="cls-10" d="m222.82,307.73c.05.11.14.21.14.31,0,.09-.11.18-.17.27-.05-.1-.14-.2-.14-.29s.1-.18.17-.29h0Z"/>
    <path class="cls-10" d="m217.19,337.54c-.11.28-.21.55-.32.83-.04-.33,0-.63.32-.83Z"/>
    <path class="cls-10" d="m224.35,311.81c0,.13-.06.19-.19.19.03-.1.09-.17.19-.19Z"/>
    <path class="cls-3" d="m224.35,340.36c-.09.58-.55.61-.99.67-.46.07-.96.05-1-.53-.05-.63.53-.59.94-.63.43-.05.9-.11,1.05.49Z"/>
    <path class="cls-6" d="m221.08,366.45c2.3.47,4.17,1.91,6.05,3.11,2.81,1.78,5.66,3.17,8.96,3.56,4.29.51,8.24,2.14,12.19,3.7,1.46.58,2.9.47,4.35.48,3.85.05,7.72-.18,11.56.07,3.2.21,6.19-.98,9.33-.87-1.01,1.16-2.51,1.45-3.8,1.47-7.26.13-14.53.07-21.79.07-.59,0-1.08-.13-1.57-.56-1.79-1.57-4.1-2-6.31-2.5-2.99-.68-6.03-1.1-9.05-1.65-.92-.17-1.48-1-2.15-1.52-2.26-1.75-5.21-2.32-7.24-4.41-.28-.28-.57-.52-.54-.96h0Z"/>
    <path class="cls-6" d="m300.14,363.37c-.2-1.05.78-1.54,1.16-2.32,1.18-2.45.44-4.72-.44-6.97-.83-2.13-.32-3.03,1.96-3.08,1.99-.04,3.98-.08,5.97,0,5.62.2,10.43-1.69,14.57-5.44.31-.28.51-.77,1.06-.72.55,1.56-.61,2.38-1.57,3.06-1.28.9-2.87,1.35-4.13,2.26-2.17,1.58-4.72,1.33-7.09,1.56-3.3.32-6.65.08-10.48.08,1.71,2.15,1.72,4.32,1.74,6.54,0,1.47-.86,2.62-1.08,3.99-.09.58-.83,1.13-1.66,1.04h0Z"/>
    <path class="cls-6" d="m273.54,376.5c1.03-1.34,2.73-1.01,4.07-1.43,7.12-2.22,14.01-4.82,19.97-9.45.69-.53.82-1.85,2.12-1.54.36,1.35-.59,2.09-1.46,2.64-3.17,1.98-6,4.66-9.64,5.7-4.07,1.17-7.84,3.2-12,4.02-.99.2-2.04.05-3.06.06Z"/>
    <path class="cls-6" d="m324.42,344.83c.59-2.04,2.15-3.55,3.02-5.44.66-1.43,1.36-2.85,1.58-4.42.3-2.17-.09-4.14-1.81-5.75-.57-.53-1.18-1.18-1.26-2.07,1.52-.32,2.22.9,2.91,1.79,1.86,2.39,1.92,5.24,1.72,8.11,0,.13,0,.34-.07.36-2.8,1.13-2.49,4.5-4.46,6.21-.51.44-.78,1.21-1.62,1.2h0Z"/>
    <path class="cls-12" d="m293.09,350.9c2.48,1.92,3.7,4.46,3.7,7.6,0,1.03-.67,1.68-1.33,2.25-1.63,1.41-3.12,3.01-5.38,3.58-.85.22-1.54,1.08-2.29,1.67-3.31,2.6-7.28,3.11-11.25,3.67-2.96.42-5.99.92-8.79,1.67-5.58,1.49-11.22.38-16.74,1.34-.9.16-1.75-.07-2.62-.38-2.28-.81-4.5-1.73-6.9-2.29-2.74-.64-5.33-1.99-7.67-3.72-1.37-1.01-2.76-2.07-4.57-2.34-1.93-.29-3.31-1.9-5.22-2.31-.31-.07-.72-.46-.79-.77-.5-2.33-2.29-3.88-3.7-5.53-1.4-1.63-3.08-3.23-5.3-3.99-.75-.26-2.1-.62-.84-1.77,2.43-2.21,2.8-5.39,4.04-8.15.18-.4.16-.89.54-1.2.32,3.62-1.86,6.46-3.29,10.04,1.17-.69,1.9-.99,2.68-1.6.82-.64,1.68-1.27,2.53-1.97.52-.43.96.78,1.11,1.42.18.79.08,1.66-.97,1.73-1.07.07-2.6-.57-2.7,1.11-.1,1.6,1.65.53,2.43,1.14.73.57,1.85.61,2.51,1.35,1.17,1.31,1.25.32,1.45-.91.16,2.03,1.28,2.28,2.8,2.62.89.2,1.7,1.51,2.61,2.28,1.51,1.28,3.26,2.48,4.86,3.22,1.9.88,2.64,2.36,3.93,3.56,1.78,1.67,3.94,2.81,6.46,3.03.76.07,1.61-.19,2.3.05,1.99.7,2.41-.42,2.57-1.97.21-.06.57.07.49-.37,0-.05-.08-.12-.13-.13-.44-.08-.31.28-.37.49-.81-1.17.71-1.65.78-2.56,0-.03.48-.08.7,0,.54.2.51.73.4,1.13-.28.98-.4,1.97-.34,2.98-.03.06-.05.11-.08.17.03-.05.06-.1.09-.15,1.51.68,3.05,1.86,4.67.52,1.63-1.36,3.22-1.94,5.26-.96.4.19,1.1-.2,1.65-.39,2.39-.81,4.83-.66,7.28-.41,1.54.16,2.87,0,4.3-1.02,1.11-.79,2.75-1.28,4.15-1.51,4.53-.73,7.98-2.95,10.36-6.78.97-1.56.71-3.57,1.48-5.28.27-.6-.68-.73-1.26-.77-.5-.04-1.09.06-1.18-.67-.06-.44.13-.73.57-.87.54-.17,1.08-.5,1.55.15.86,1.19,2.09,1.76,3.49,2.02l-.03-.02Z"/>
    <path class="cls-12" d="m302.54,333.29c-.45,0-.91.05-1.35-.01-.71-.1-1.76.44-2.05-.49-.27-.88.08-1.85.73-2.63,1.79-2.12,4.49-2.06,6.41.04.75.82-.02,1.43-.03,2.14,0,.68-.57.94-1.22.95h-2.5,0Z"/>
    <path class="cls-3" d="m287.3,318.83c-.22.49-.23,1.2-.94,1.25-.68.05-.78-.53-.76-1.04.03-.7.53-.97,1.15-.99.51-.02.58.36.55.78h0Z"/>
    <path class="cls-3" d="m235.36,315.2c-.39-.06-.64-.28-.55-.64.12-.48.54-.7,1.01-.73.38-.02.62.23.51.6-.14.46-.52.7-.97.77h0Z"/>
    <path class="cls-3" d="m237.53,329.5c0,.51-.23.87-.73.98-.39.08-.63-.2-.61-.54.02-.43.09-.97.6-1.1.44-.11.69.23.75.67h-.01Z"/>
    <path class="cls-3" d="m234.7,324.4c-.11.42.07,1.06-.56,1.04-.5-.02-.57-.59-.62-1.02-.06-.47.05-.97.6-.97.59,0,.54.56.58.96h0Z"/>
    <path class="cls-10" d="m287.5,343.72c.1.09.2.18.3.28-.1-.09-.2-.18-.3-.28Z"/>
    <path class="cls-10" d="m297.34,341.24s.03-.1.05-.14c.05.02.12.03.16.06.01.01-.03.09-.04.14-.05-.02-.11-.04-.16-.06h0Z"/>
    <path class="cls-10" d="m249.23,365.31c.06-.21-.07-.57.37-.49.05,0,.12.08.13.13.08.44-.28.31-.49.37h0Z"/>
    <path class="cls-10" d="m250.78,366.86s-.06.1-.09.15c.03-.06.05-.11.08-.17h0v.02Z"/>
    <g>
      <path class="cls-8" d="m223.49,296.75c.05,2.66-.31,5.33-.02,7.99-1.25-.3-1.68-1.14-1.64-2.37.06-1.74-.23-3.5.79-5.1.24-.38.45-.57.87-.52h0Z"/>
      <path class="cls-9" d="m288.83,68.06c-1.99-.78-3.57-2.35-5.76-2.82-1.65-.35-3.25-1.03-4.8-1.78-1.49-.73-2.2.72-2.59,1.62-1.64,3.78-3.97,7.28-4.64,11.48-.22,1.41-1.17,2.28-2.88,2.16-2.24-.17-4.49-.05-6.73-.14-1.72-.07-2.97-.64-3.21-2.7-.34-2.92-1.59-5.59-2.72-8.27-.28-.65-.59-1.29-.43-2.03,2.45-.05,1.6,2.24,2.16,3.37,1.09,2.21,1.64,4.69,2.28,7.1.3,1.11.97,1.16,1.85,1.15,1.67-.03,3.34,0,5.01,0,.45,0,1.02-.12,1.32.1,2.31,1.73,2.5-.8,2.6-1.64.41-3.44,2.35-6.2,3.56-9.28.62-1.57,1.31-2.95,2.61-4.06.7-.6,1.45-.77,2.11-.37,2.98,1.78,6.38,2.62,9.4,4.35.91.52,1,.99.87,1.79v-.03Z"/>
      <path class="cls-9" d="m240.02,67.32c-1.92,1.96-3.79,3.92-5.24,6.3-1.92,3.17-2.89,6.45-2.18,10.14.07.37,0,.76,0,1.14-.69-.1-.68-.62-.75-1.14-.42-3.1.32-6.1.93-9.07.21-1.03,1.31-1.79,1.78-2.85.53-1.19,1.35-2.25,1.32-3.62.86-.04.38.96,1.18,1.02-.04-1.37.84-2.14,2.01-2.61.55-.22.76.29.96.7h0Z"/>
      <path class="cls-9" d="m254.96,64.89c-.43-.03-.69-.27-.87-.64-1.05-2.21-2.87-2.82-5.15-2.43.69-1.48,2.36-2.32,3.39-1.39,1.27,1.16,2.53,2.53,2.63,4.46h0Z"/>
      <path class="cls-9" d="m248.91,61.83c-1.4,1.71-3.51,2.19-5.38,3.08,1.11-2.23,3.28-2.59,5.38-3.08Z"/>
      <path class="cls-9" d="m243.52,64.91c-.62,1.05-1.46,1.7-2.76,1.49.6-1.09,1.43-1.75,2.76-1.49Z"/>
      <path class="cls-8" d="m224.59,283.89c.57.52.35,1.19.32,1.8-.1,2.24-.21,4.47-.06,6.71.11,1.58-.41,3-1.35,4.27-1.5-1.61-1.26-3.57.54-4.54.98-.53.34-1.25.21-1.92-.16-.8-1.1-1.28-.87-2.24.07-.3,0-.74.39-.74.21,0,.43.36.86.75-.46-1.52-.43-2.82-.04-4.1h0Z"/>
      <path class="cls-5" d="m240.09,82.9c-.06-.38-.07-.77-.18-1.14-.53-1.74.14-3.52,1.83-4.38,1.14-.58,2.01-1.31,2.48-2.53.71-1.83,2.9-2.13,3.92-3.71.32-.5,1.06-.18.89.55-.32,1.36.46,2.29,1,3.37.66,1.33.45,2.86.67,4.3.15.93-.05,1.91.31,2.83.03.34.06.68.09,1.01-1.06.31-1.4-.27-1.43-1.19-.05-1.66.02-3.34-.18-4.98-.18-1.45-.71-3.07-2.36-3.28-1.53-.2-2.15,1.09-2.28,2.52h.02c-.98.68-1.97,1.33-2.92,2.05-1.49,1.13-1.56,2.38-.56,3.99,1.2,1.92,2.23,3.95,3.31,5.95.31.57.34,1.12-.48,1.32-.13-.04-.25-.07-.38-.11-.99-2.26-1.91-4.56-3.51-6.5-.07-.08-.16-.11-.26-.09l.02.02Z"/>
      <path class="cls-5" d="m277.32,80.25c.24-2.23.4-4.48,2.51-5.93.17-.11.21-.45.25-.7.09-.6-.23-1.44.59-1.65.84-.21,1.18.65,1.58,1.19,1.32,1.79,2.95,3.47,2.48,5.99-.09.5-.22,1-.38,1.48-.12.35-.44.46-.78.34-.38-.13-.39-.46-.34-.79.32-2.44-.28-4.44-1.79-5.99-2.25,1.74-3.47,3.87-2.58,6.8-1.06.9-1.09-.36-1.54-.74Z"/>
      <path class="cls-2" d="m244.24,89.6c.82-.2.79-.75.48-1.32-1.08-2-2.11-4.02-3.31-5.95-1-1.61-.93-2.86.56-3.99.95-.72,1.95-1.38,2.92-2.06.32,1.06-.46,1.79-1.05,2.26-2.85,2.26-2.82,2.19-.44,5.18,1.23,1.55,2.23,3.31,2.36,5.4.03.44.03.94-.54,1.08-.51.13-.88-.03-.97-.6h0Z"/>
      <path class="cls-2" d="m244.86,76.3c.13-1.43.75-2.71,2.28-2.52,1.65.21,2.18,1.82,2.36,3.28.2,1.64.13,3.32.18,4.98.03.93.37,1.5,1.43,1.19-.05.59.34,1.39-.61,1.57-.84.16-.72-.67-1.03-1.1-1.18-1.64-.4-3.48-.64-5.21-.15-1.13.02-2.24-1.02-3.22-.87-.82-1.07-.7-1.59.19-.25.42-.64,1.02-1.38.83h.02Z"/>
      <path class="cls-2" d="m240.35,83c1.6,1.93,2.52,4.23,3.51,6.5-1.73.07-1.77-1.67-2.41-2.56-.74-1.03-1.33-2.46-1.1-3.93h0Z"/>
      <path class="cls-5" d="m237.39,302.9c-.03.51-.23.91-.8.84s-.73-.5-.6-1c.1-.41.14-.99.78-.89.56.08.62.57.63,1.04h0Z"/>
      <path class="cls-5" d="m234.66,289.28c-.27.51-.6,1.08-1.22,1.24-.47.12-.64-.35-.59-.74.07-.57.23-1.15.98-1.16.4,0,.74.14.84.66h0Z"/>
      <path class="cls-5" d="m231.8,305.05c-.46-.06-.87-.21-.98-.71-.09-.41.21-.58.54-.55.51.05,1.04.2,1.11.8.04.35-.33.47-.67.45h0Z"/>
      <path class="cls-5" d="m284.31,304.27c-.07.44-.18.96-.68.98-.52.03-.48-.48-.44-.84.04-.4-.09-.99.56-.98.43.01.58.41.57.83h-.01Z"/>
      <path class="cls-8" d="m251,73.95c-.8-.39-.58-.9-.65-1.3-.08-.47-.55-.94-.1-1.42.1-.1.38-.15.5-.08.64.37.34,1.02.38,1.55.03.36-.07.73-.13,1.25Z"/>
      <path class="cls-9" d="m213.62,175.49c-.05,2.51-1.51,4.58-2.18,6.9-1.31,4.51-2.8,8.95-3.66,13.61-.58,3.15-.68,6.34-1.24,9.48-.48,2.66.51,5.15.91,7.7.53,3.34,2.23,6.19,3.76,9.1.86,1.63.62,3.37.62,5.09,0,.76-.53.83-1.12,1.04-2.68.94-5.31,2.01-7.99,2.94-1.25.43-1.9,1.35-2.19,2.47-.69,2.7-1.25,5.43-1.82,8.15-.7,3.36-1.37,6.73-2.05,10.1-.35,1.75-.77,3.48-.99,5.25-.16,1.27-.32,2.5-.68,3.75-.86,2.98.12,4.61,3.01,5.9,1.33.6,2.8,1.05,3.79,2.26-3.21.02-5.69-1.75-8.22-3.37-.25-.16-.22-.83-.25-1.26-.18-3.06.18-6.03,1.4-8.88.21-.5.22-1.16.12-1.71-.35-1.87.49-3.55.99-5.2.85-2.78,1.58-5.53,1.42-8.46-.06-1.17.63-2.16.96-3.21.42-1.36,1.14-2.57,1.37-4.07.22-1.44,1.54-2.5,2.9-3.07,1.72-.72,3.61-.91,5.39-1.56,2.42-.88,2.77-2.21,2.11-4.74-1.01-3.87-2.94-7.38-3.76-11.36-.77-3.73-.66-7.4-.41-11.02.15-2.12.07-4.48,1.22-6.56.6-1.08.4-2.48.57-3.68.32-2.31,1.45-4.28,2.04-6.45.87-3.17,1.41-6.64,3.98-9.14h0Z"/>
      <path class="cls-9" d="m201.8,269.24c2.05.19,3.77,1.15,5.4,2.32-1.75.42-3.14-1.02-4.87-.92-.67.04-.51-.86-.53-1.4Z"/>
      <path class="cls-8" d="m205.63,234.55l-.14.02c-.68.17-.62.68-.55,1.19,0,0,.07.04.06.04-1.28.19-1.86,1.67-1.81,2.21.21,2.36-.88,4.34-1.34,6.49-.88,4.13-1.79,8.23-3.09,12.25-.19.58-.25,1.29.4,1.75-.03.24-.07.48-.1.72-.53,0-1.21.06-1.09.74.21,1.2-.74,2-.83,3.07-.05.55-.33.85-.87.77-.73-.11-.72-.68-.56-1.18.82-2.52.42-5.54,1.62-7.66,1.88-3.34.96-6.76,1.5-10.16,1.13.28.18,1.51,1.16,1.88.43-.76.52-1.86.12-2.29-1.04-1.11-.14-1.89.2-2.71.81-1.98,1.27-4.05,1.43-6.15.19-2.54.68-3.52,3.1-4.01,2.14-.43,3.91-1.88,6.31-1.76,1.69.08,3.11-3.71,2-5.61-.73-1.24,0-1.65.51-2.53.7,2.37,2.49,4.26,2.04,6.89-.13.74-.15,1.19-1.08,1.46-2.88.82-5.39,2.66-8.43,3.13-.78.12-.48.92-.56,1.46h0Z"/>
      <path class="cls-8" d="m198.22,265.45c.83-.67,1.41-.72,2.33-.28,3.41,1.63,7.03,2.81,10.38,4.54,2.31,1.19,4.98,1.83,6.83,3.86-1.38,1.25-2.25-.47-3.27-.75-3.28-.89-6.51-2.11-9.55-3.63-2.26-1.13-4.13-3-6.71-3.74h0Z"/>
      <path class="cls-8" d="m217.67,170.66c1.12,3,.29,6.06-1.5,7.69-1.66,1.51-1.09,2.77-1.25,4.19-.11.97-.81,1.39-1.35,1.99-.32.35-.64.67-1.12.25-.41-.36-.73-.74-.29-1.3,1.6-2.02,1.14-4.93,2.81-6.83,1.3-1.48,1.55-3.05,1.57-4.84,0-.49.55-.82,1.14-1.15h-.01Z"/>
      <path class="cls-8" d="m212.57,188.59c.05.63-.15,1.07-.44,1.52-1.21,1.89-1.4,4.09-1.86,6.21-.11.49.02,1.1-.72,1.13-.87.04-.91-.67-.79-1.21.3-1.47.75-2.91,1.06-4.38.35-1.65,1.28-3.14,1.24-4.88,0-.3-.06-.7.34-.8.49-.12.67.28.77.65.16.61.55,1.18.4,1.76h0Z"/>
      <path class="cls-8" d="m224.23,277.01c-1.35.1-.58,1.36-1.06,1.94-.33.4.13,1.38-.76,1.3-.82-.08-1.45-.64-1.32-1.58.31-2.25-.98-3.46-2.71-4.56,2.15.6,4.31,1.11,5.87,2.9h-.02Z"/>
      <path class="cls-8" d="m209.99,201.97c-.67-1.18-1.14-1.93-.12-2.79.62.79.41,1.56.12,2.79Z"/>
      <path class="cls-8" d="m212.72,219.95c-.47.1-.51-.22-.51-.55,0-.37-.05-.8.42-.94.38-.12.6.11.67.46.1.5-.07.86-.58,1.04h0Z"/>
      <path class="cls-8" d="m224.23,281.92c.48.59.32,1.3.36,1.97-.73-.54-.35-1.29-.36-1.97Z"/>
      <path class="cls-8" d="m211.96,217.29c.05-.11.07-.27.15-.3.08-.03.26.05.29.13s-.05.26-.13.29-.2-.08-.31-.12h0Z"/>
      <path class="cls-8" d="m212.59,221.46c-.07.15-.13.35-.16.35-.33-.06-.21-.34-.2-.54,0-.09.12-.18.18-.26.06.16.13.32.18.45h0Z"/>
      <path class="cls-2" d="m224.09,264.68c-.47-.21-.92-.55-1.4-.6-3.91-.36-4.64-3.59-5.83-6.4,1.54-.09,1.38,1.45,1.93,2.2,1.2,1.64,1.97,3.54,4.57,3.27.75-.08,1.48.53.73,1.52h0Z"/>
      <path class="cls-5" d="m216.85,207.87c-.5.03-.78-.22-.77-.66.02-.66.19-1.29.96-1.44.49-.09.95.06.85.68-.11.62-.34,1.22-1.04,1.42h0Z"/>
      <path class="cls-5" d="m220.24,253.1c-.92-.37-1.75-.27-2.02-1.15-.04-.13.25-.5.41-.52.94-.11,1.31.5,1.61,1.67Z"/>
      <path class="cls-13" d="m215.44,232.78c1-.14,1.05.35.7,1.11-.65,1.37-1.76,2.5-2.14,4.02-.1.39-.44.43-.77.36-.25-.06-.51-.14-.71-.29-1.25-.93-3.53-1.44-3.41-2.95.08-1.03,2.5-1.31,3.88-1.9.73-.31,1.63-.25,2.45-.35h0Z"/>
      <path class="cls-2" d="m199.16,258.5c-.65-.46-.58-1.17-.4-1.75,1.29-4.02,2.21-8.13,3.09-12.25.46-2.15,1.55-4.13,1.34-6.49-.05-.55.53-2.02,1.81-2.21-.08,2.37-.46,4.63-1.54,6.83-.85,1.73-.97,3.77-1.52,5.65-.59,2.04-1.16,4.1-1.86,6.12-.2.59-.06,1.14-.12,1.7-.09.86.17,1.84-.8,2.41h0Z"/>
      <path class="cls-2" d="m204.94,235.76c-.07-.51-.13-1.02.55-1.19-.09.44-.05.94-.55,1.19Z"/>
      <path class="cls-2" d="m213.62,175.49c.41-.92.82-1.84,1.23-2.76.62.05.64-.42.83-.84,1.39-3.04,3.24-5.77,5.73-7.99,2.21-1.97,4.63-3.71,6.8-5.72,1.17-1.08,2.68-2.01,2.91-3.85h0c2.28-1.73,3.21-4.17,4-6.83,1.68-5.63.31-10.65-2.69-15.38-.57-.89-.61-2.36-2.11-2.51-.76-2.04-2.23-3.66-3.24-5.57-2.24-4.28-1.89-8.53-.49-12.89,1.02-3.2,2.36-6.26,3.7-9.33.98-.17.77-.9.73-1.55v-.03c1.04-.1.71-.91.79-1.5,1.51-2.2,3.07-4.45,3.69-7.02.46-1.91-1.05-3.55-1.96-5.2-.31-.55-.64-1.08-.97-1.62,0-.38.08-.78,0-1.14-.71-3.69.25-6.97,2.18-10.14,1.45-2.39,3.32-4.35,5.24-6.3.25-.3.5-.61.75-.91,1.3.21,2.14-.45,2.76-1.49l-.05-.1s.06.09.05.09c1.87-.89,3.98-1.36,5.38-3.08h.02c2.29-.4,4.1.21,5.15,2.42.18.38.44.61.87.64.03.22.07.45.1.67-.16.74.16,1.37.43,2.03,1.13,2.69,2.38,5.36,2.72,8.27.24,2.06,1.49,2.64,3.21,2.7,2.24.09,4.5-.02,6.73.14,1.71.13,2.66-.75,2.88-2.16.67-4.2,3-7.7,4.64-11.48.39-.9,1.09-2.34,2.59-1.62,1.55.75,3.15,1.43,4.8,1.78,2.2.47,3.77,2.04,5.76,2.82.06.6.37,1.06.74,1.52,2.46,3.09,3.19,6.74,3.33,10.57.02.58.06,1.16,0,1.73-.44,3.53.3,6.49,3.08,9.1,2.18,2.05,3.16,5.1,4.57,7.77-.22,2.08,1.02,3.91,1.04,5.96,0,.07.33.14.5.21h0c.18,1.04-.84,2.39.77,3.07h.01c.05.18.05.5.15.53,3.02.89,5.95,2.14,9.1,2.54.8.17,1.37.95,2.28.82.28,1.27,1.5.63,2.22,1.09,4.43,2.82,9.41,3.82,14.55,4.44,2.38.29,4.72.81,6.5,3,3.25,3.99,1.87,8.09,1.04,12.33-.42,2.14-2,3.85-1.98,6.09-.38,1.19-1.63,1.83-1.92,3.07-.38.15-.56.47-.79.79-1.5,2.13-3.65,3.38-6.13,3.78-4.92.8-9.63-.77-14.36-1.74-2.68-.55-5.27-1.36-8.07-1.33-2.96.04-5.86.49-8.78.78-.98.1-1.81.34-2.23,1.2-.47.94.24,1.68.69,2.46,1.27,2.16,3.4,3.35,5.27,4.84,3.41,2.72,6.47,5.73,8.87,9.49.98,1.54,1.63,3.63,3.62,4.45h0c.07.44,0,.97.23,1.29,1.69,2.35,2.7,5.05,4,7.59,2.17,4.23,3.55,8.67,3.5,13.49-.06,5.01-.05,10.02-.06,15.03,0,1.08.08,2.12.45,3.2,1.42,4.13,2.67,8.35,3.29,12.64.9,6.29.96,12.68.02,18.97-.36,2.43-.45,5.04-2.07,7.24-.66.9-1.53,1.87-1.59,3.15l-.02.03c-2.66,2.24-4.75,4.97-5.41,8.38-1.02,5.28-.12,10.59.29,15.88.11,1.4.19,2.85.64,4.16,1.44,4.23,1.36,8.55,1.1,12.9-.17,3-.35,6.02.07,9.02.72,5.19,2.01,10.3,1.84,15.61-.05,1.55.28,3.23.89,4.67.64,1.51,1.07,3.33,2.89,4.07,1.34.75,1.82,2.3,2.98,3.21.08.89.69,1.54,1.26,2.07,1.72,1.61,2.1,3.58,1.81,5.75-.21,1.56-.92,2.98-1.58,4.42-.87,1.89-2.42,3.4-3.02,5.44h0c-.55-.05-.75.44-1.06.72-4.13,3.76-8.95,5.64-14.57,5.44-1.99-.07-3.98-.03-5.97,0-2.28.04-2.79.95-1.96,3.08.88,2.25,1.62,4.53.44,6.97-.37.78-1.36,1.26-1.16,2.32-.15.23-.29.47-.44.7-1.3-.31-1.43,1.01-2.12,1.54-5.96,4.63-12.85,7.23-19.97,9.45-1.34.42-3.04.08-4.07,1.43h0c-3.14-.11-6.14,1.08-9.33.87-3.84-.25-7.71-.02-11.56-.07-1.45-.02-2.89.09-4.35-.48-3.96-1.56-7.9-3.19-12.19-3.7-3.29-.39-6.15-1.78-8.96-3.56-1.89-1.2-3.75-2.64-6.05-3.11h0c-.36-.59-.94-.9-1.56-1.13-2.02-1.33-4.03-2.7-6.08-3.98-.74-.47-1.14-1.15-1.59-1.83-.81-3-2.41-5.54-4.69-7.59-.58-.53-.89-.87-.59-1.54,1.91-4.21,3.83-8.41,5.77-12.6,1.57-3.4,2.96-6.86,3.37-10.63,1.16-1.31.98-3.08,1.37-4.6,2.14-8.27,2.94-16.72,2.45-25.25-.3-5.28,1.04-10.46.73-15.72-.05-.77,0-1.55-.07-2.31-.31-2.75-1.11-3.62-3.72-4.43-2.78-.86-5.67-1.47-8.15-3.13-.28-.19-.75-.11-1.13-.15-1.63-1.17-3.35-2.13-5.4-2.32h0c-.99-1.21-2.45-1.66-3.79-2.26-2.88-1.29-3.87-2.93-3.01-5.9.36-1.25.52-2.48.68-3.75.22-1.76.64-3.5.99-5.25.67-3.37,1.34-6.74,2.05-10.1.57-2.73,1.13-5.46,1.82-8.15.28-1.11.94-2.03,2.19-2.47,2.68-.93,5.31-2,7.99-2.94.59-.21,1.12-.28,1.12-1.04,0-1.72.24-3.46-.62-5.09-1.53-2.92-3.23-5.76-3.76-9.1-.41-2.56-1.4-5.05-.91-7.7.57-3.14.66-6.32,1.24-9.48.86-4.66,2.35-9.09,3.66-13.61.67-2.32,2.13-4.39,2.18-6.9l.03.03Zm10.97,108.39h0c-.39,1.29-.42,2.58.04,4.1-.43-.4-.65-.76-.86-.75-.39,0-.32.44-.39.74-.23.96.71,1.44.87,2.24.13.67.78,1.39-.21,1.92-1.8.97-2.04,2.93-.54,4.54v.07c-.44-.05-.64.14-.88.52-1.02,1.6-.74,3.37-.79,5.1-.04,1.23.38,2.07,1.64,2.37l.16,1.64c.51,1.46-1.01,3.26.78,4.5l-.06.93c-.1.02-.16.09-.19.19l-.05.07c-2.2.06-2.09,2.26-2.04,3.19.17,3.02-1.07,5.81-1.03,8.76,0,.59-.5.87-.83,1.24-.34.39-.56.78-.71,1.3-.67,2.26-1.01,4.66-2.66,6.52-.28.32-.4.68-.16,1.05.64.98.5,2.09.6,3.17.03.1,0,.18-.09.24-.31.2-.36.5-.32.83.04.12.03.24-.05.34-1.26.32-1.58,1.19-2.12,2.35-.67,1.43.05,2.3.21,3.41-.34,2.11-1.62,3.7-3,5.22-1.01,1.11-.51,1.73.62,2.09,4.03,1.27,6.88,4.26,8.51,7.72,1.38,2.94,3.7,3.96,6.04,4.61,3.94,1.09,6.72,4.04,10.39,5.5,4.1,1.64,8.4,2.58,12.52,4.11.38.14.89-.11,1.33-.07,3.43.31,6.79-1.05,10.26-.29,1.14.25,2.65.44,3.53-.09,2.2-1.32,4.67-1.05,6.97-1.63,1.88-.47,3.82-1.34,5.7-1.26,3.01.13,5.88-.73,8.11-2.13,3.32-2.08,6.88-3.87,9.9-6.48,2.18-1.89,2.53-3.88,1.35-7.03-.92-2.46-2.8-4.19-4.41-6.13,1.3-.73,2.51.22,3.69-.17,4.63-1.53,9.4-.07,14.09-.68,3.62-.47,6.86-1.75,9.7-3.95,2.72-2.1,3.51-5.44,4.87-8.37.53-1.14-.02-2.43-1.04-2.82-2.34-.9-3.55-3.05-5.48-4.37-.96-.65-1.33-1.58-1.84-2.53-2.27-4.15-1.79-8.61-1.85-13.07-.04-3.35.04-6.85-1.56-9.95-.68-1.31-1.12-2.63-1.1-4.02.02-2.43-.04-4.92.29-7.28.96-6.89.37-13.53-1.91-20.09-.73-2.1-.89-4.37-.84-6.64.07-2.91,1.02-5.68,1.1-8.56.05-1.82.7-3.44,2.03-4.37,2.35-1.65,3.28-4.53,5.68-6.08.29-.19.51-.62.59-.98.69-3.31,1.77-6.56.97-10.04-.68-2.94-1.07-6.13-.56-8.93.71-3.87-.64-7.2-1.19-10.74-.19-1.19-.61-2.32-1.17-3.44-1.19-2.35-2.24-4.75-1.23-7.53.32-.87.35-1.93.22-2.86-.26-1.88-.11-3.66.39-5.51.41-1.53.45-3.25-.02-4.77-.91-2.98-1.86-6-2.97-8.86-1.63-4.21-3.63-8.37-6.49-12.02-1.17-1.49-1.36-3.63-2.83-4.95-2.74-2.47-4.82-5.45-6.96-8.4-.99-1.37-1.73-3.05-3.31-3.9-3.36-1.81-5.85-4.7-8.8-7.01-.88-.69-.84-1.17.39-1.47,1.81-.44,3.51-1.15,5.1-2.18,1-.65,2.11-1.29,3.4-1.21,2.16.14,4.2-.47,6.27-.88,1.16-.23,2.25-.16,3.41-.07,1.78.14,3.41,1.69,5.21.82,1.89-.91,3.61-.3,5.41.04.82.15,1.64.41,2.46.39,1.38-.04,2.55.28,3.43,1.37,1.16,1.45,2.69,1.62,4.34,1.22,2.38-.58,4.44-1.97,6.72-2.8.5-.18.69-.73.94-1.18,1.64-2.91,3.04-5.84,3.25-9.32.12-1.99.85-4.01-.54-5.7-1.28-1.56-2.75-3.03-4.38-4.2-.86-.62-2.24-.33-3.37-.02-.62.17-1.25.4-1.89.26-3.3-.73-6.7-1.06-9.83-2.5-1.44-.67-2.72-1.63-4.14-2.35-1.9-.96-4.07-1.11-5.84-2.26-2.07-1.34-4.29-2.31-6.72-2.74-.77-.14-1.16-.51-1.18-1.26-.08-2.78-.84-5.43-1.44-8.12-.92-4.14-2.09-8.02-6.29-10.23-1.98-1.04-2.95-3.86-2.03-5.86,1.15-2.47.92-4.82.79-7.43-.19-3.81-3.54-5.29-4.87-8.16-.07-.16-.54-.11-.69-.27-.92-.99-2.51-.61-3.34-1.67-.3-.38-.33-1.07-1-.95-.69.12-.81.78-.92,1.34-.47,2.26-1.94,4.11-2.98,6.04-.93,1.73-1.49,3.08-1.09,4.93.19.87.24,1.78.24,2.68,0,.71-.29,1.03-1.11.63-1.38-.69-2.84-.71-4.25-.01-.75.37-1.36.24-2.15-.14-2.09-1.01-4.32-1.2-6.45-.11-2.79,1.43-3.92.79-4.1-2.45-.07-1.24-.26-2.41-1.33-3.27-1.18-.94-1.46-2.23-1.09-3.64.3-1.12-.04-2.08-.76-2.85-1.17-1.24-2.06-2.62-2.65-4.21-.44-1.18-1.11-1.15-1.83-.31-.92,1.07-1.58,2.46-2.69,3.24-3.02,2.12-5.55,4.47-7.44,7.79-1.65,2.89-3.73,5.29-1.24,8.61.1.14.11.37.13.55.2,1.91,1.05,3.51,2.22,5.01.91,1.17.84,2.22-.07,3.62-1.51,2.34-3.8,4.14-4.64,6.94-1.19,3.97-2.91,7.74-4.61,11.52-.87,1.94-.89,4.26-.74,6.44.11,1.68,2,2.07,2.74,3.29,1.86,3.07,3.74,6.15,5.33,9.36.97,1.97,1.36,4.22,1.57,6.45-.12.35-.75.44-.58.89s.66.24,1.02.28c1.24,2.49,2.02,4.95,1.52,7.9-.41,2.4-1.34,4.13-3.11,5.69-1.33,1.17-3.1,2.16-3.68,3.84-1.04,2.96-2.94,4.97-5.7,6.12-3.63,1.52-5.58,4.88-8.38,7.29-.18.16-.36.41-.4.64-.88,4.78-3.54,9-4.33,13.84-.3,1.81-1.31,3.51-2.03,5.24-1.25,3-3.09,5.89-1.88,9.38.41,1.17-.43,1.96-.79,2.86-.25.62-.43,1.09-.16,1.74,1.01,2.47,1.05,5.08,1.21,7.69.07,1.15.22,2.43,1.14,3.49.87,1,1.78,2.09,1.47,3.7-.22,1.14.13,2.29.99,3.15.42.42.48.87.52,1.39.12,1.46.35,2.86,1.07,4.21,1.28,2.41.35,3.68-2.41,4.06-3.02.42-5.87,1.56-8.7,2.68.08-.53-.21-1.34.56-1.46,3.04-.47,5.55-2.31,8.43-3.13.94-.27.96-.71,1.08-1.46.45-2.63-1.33-4.51-2.04-6.89-.52.88-1.24,1.29-.51,2.53,1.12,1.91-.3,5.7-2,5.61-2.4-.12-4.17,1.33-6.31,1.76-2.42.48-2.91,1.47-3.1,4.01-.16,2.09-.61,4.17-1.43,6.15-.34.82-1.23,1.6-.2,2.71.4.43.3,1.53-.12,2.29-.98-.37-.02-1.6-1.16-1.88-.54,3.4.38,6.82-1.5,10.16-1.2,2.12-.8,5.14-1.62,7.66-.16.5-.17,1.07.56,1.18.54.08.82-.22.87-.77.09-1.06,1.04-1.87.83-3.07-.12-.68.56-.73,1.09-.74-.21,1.03-.49,2.06-.6,3.1-.2,1.82,1.64,1.22,2.43,1.71,2.42,1.49,5.14,2.51,7.75,3.7,2.89,1.33,5.95,2.22,8.6,4.19,1.81,1.35,3.78,2.7,6.11,3.27.69.17,1.94.54.9,1.8-1.56-1.79-3.72-2.3-5.87-2.9,1.74,1.1,3.02,2.31,2.71,4.56-.13.95.5,1.51,1.32,1.58.89.08.43-.9.76-1.3.48-.58-.29-1.84,1.06-1.94-.17,1.64-.49,3.27,0,4.91,0,.68-.36,1.42.36,1.97l-.02.06Zm-26.38-18.44c2.58.74,4.45,2.61,6.71,3.74,3.04,1.52,6.28,2.74,9.55,3.63,1.02.28,1.89,2,3.27.75-1.85-2.03-4.52-2.67-6.83-3.86-3.35-1.73-6.98-2.91-10.38-4.54-.92-.44-1.49-.39-2.33.28h0Zm19.46-94.79c-.58.33-1.13.66-1.14,1.15-.02,1.79-.28,3.37-1.57,4.84-1.67,1.9-1.2,4.82-2.81,6.83-.45.56-.13.94.29,1.3.48.42.81.11,1.12-.25.54-.6,1.24-1.02,1.35-1.99.16-1.42-.41-2.69,1.25-4.19,1.8-1.63,2.62-4.69,1.5-7.69h.01Zm-5.11,17.92c.14-.58-.24-1.15-.4-1.76-.1-.37-.28-.77-.77-.65-.4.1-.35.5-.34.8.04,1.74-.89,3.24-1.24,4.88-.31,1.47-.76,2.91-1.06,4.38-.11.54-.08,1.24.79,1.21.73-.03.61-.64.72-1.13.45-2.12.64-4.32,1.86-6.21.29-.45.5-.89.44-1.52h0Zm-2.57,13.38c.29-1.23.5-2-.12-2.79-1.02.86-.55,1.61.12,2.79Zm2.73,17.98c.51-.17.68-.54.58-1.03-.07-.35-.29-.57-.67-.46-.47.15-.42.57-.42.94,0,.33.04.65.51.55Zm-.76-2.66c.11.05.23.15.31.12s.16-.22.13-.29c-.03-.08-.22-.16-.29-.13-.08.03-.1.19-.15.3h0Zm.63,4.17c-.05-.13-.12-.29-.18-.45-.06.09-.18.17-.18.26,0,.2-.13.47.2.54.03,0,.09-.2.16-.35h0Zm10.22,86.27c-.06.1-.16.19-.17.29,0,.1.09.2.14.29.06-.09.16-.18.17-.27,0-.1-.08-.2-.14-.31h0Z"/>
      <path class="cls-9" d="m320.66,249.25c.07-1.28.93-2.25,1.59-3.15,1.63-2.2,1.71-4.81,2.07-7.24.94-6.3.88-12.69-.02-18.97-.62-4.29-1.87-8.52-3.29-12.64-.37-1.08-.46-2.11-.45-3.2.01-5.01,0-10.02.06-15.03.05-4.82-1.32-9.26-3.5-13.49-1.31-2.54-2.31-5.24-4-7.59-.23-.32-.16-.86-.23-1.29.72-.05,1.06.57,1.29,1.01,1.41,2.68,3.8,5.11,4.42,7.81.79,3.43,2.58,6.48,2.96,10.13.48,4.66.35,9.28.55,13.91.06,1.23-.32,2.34-.65,3.5-.58,2.04.52,3.98,1,5.9.63,2.56,1.68,4.94,2.22,7.62,1.26,6.19,1.67,12.36,1.15,18.54-.26,3.07.03,6.36-1.83,9.35-.7,1.13-1.19,2.66-1.82,4-.37.8-.9.78-1.52.83Z"/>
      <path class="cls-9" d="m322.95,323.95c-1.83-.73-2.25-2.56-2.89-4.07-.61-1.43-.94-3.11-.89-4.67.17-5.31-1.12-10.42-1.84-15.61-.42-3-.24-6.01-.07-9.02.25-4.36.34-8.67-1.1-12.9-.45-1.31-.53-2.76-.64-4.16-.41-5.29-1.31-10.61-.29-15.88.66-3.41,2.75-6.14,5.41-8.38-1.06,2.07-1.68,4.35-3.33,6.13-.91.98-1.34,2.28-1.35,3.64-.03,3.66-.25,7.35.11,10.98.22,2.25-.1,5,.87,6.65,1.85,3.13,1.15,6.2,1.27,9.32.13,3.21,0,6.43.04,9.64.04,3.3-.53,6.69,1.48,9.7.06.1.07.26.05.38-.49,3.22,1.07,6.28.76,9.46-.26,2.68.57,5.01,1.93,7.2.33.53.51,1,.48,1.59h0Z"/>
      <path class="cls-9" d="m312.89,166.63c-1.99-.82-2.64-2.91-3.62-4.45-2.4-3.76-5.46-6.76-8.87-9.49-1.87-1.49-4-2.68-5.27-4.84-.45-.77-1.16-1.51-.69-2.46.42-.85,1.25-1.1,2.23-1.2,2.92-.29,5.82-.74,8.78-.78,2.8-.04,5.39.78,8.07,1.33,4.73.97,9.44,2.54,14.36,1.74,2.48-.4,4.63-1.65,6.13-3.78.23-.32.4-.65.79-.79.56.99.25,1.57-.57,2.43-2.52,2.66-5.6,3.06-9.01,3.09-4.67.04-9.06-1.18-13.56-2.13-3.4-.72-6.96-2.04-10.62-.39-1.08.49-2.54.17-3.82.13-.81-.02-1.44.26-1.75.93-.32.68.46.96.79,1.38,3.05,3.93,7.71,6.11,10.79,10.02,1.88,2.39,3.32,5.12,5.59,7.22.52.48.24,1.35.25,2.05h0Z"/>
      <path class="cls-9" d="m336.73,138.84c-.02-2.25,1.56-3.96,1.98-6.09.83-4.24,2.21-8.34-1.04-12.33-1.78-2.19-4.13-2.71-6.5-3-5.14-.62-10.12-1.62-14.55-4.44-.72-.46-1.94.18-2.22-1.09.5-.11,1-.2,1.49-.35,1.11-.32,2.03-.78,2.68.92.55,1.42,3.03,1.86,4.59,1.19,1.47-.63,2.46-.16,2.84,1.39.14.58.52.71.99.68,2.36-.15,4.63.36,6.93.76,2.44.42,5.72,3.36,5.93,5.85.08.93.5,1.82.87,2.45,1.82,3.13-.03,5.69-1.04,8.34-.49,1.28-.95,2.57-1.32,3.87-.28.96-.63,1.63-1.63,1.84h0Z"/>
      <path class="cls-9" d="m230.33,129.61c1.5.15,1.54,1.61,2.11,2.51,3.01,4.73,4.38,9.75,2.69,15.38-.79,2.66-1.72,5.11-4,6.83-.31-1.78,1.39-2.56,1.98-3.92,1.36-3.12,2.23-6.34,1.75-9.69-.48-3.36-1.72-6.53-3.87-9.23-.48-.6-.77-1.14-.65-1.89h-.01Z"/>
      <path class="cls-9" d="m231.13,154.33c-.23,1.84-1.74,2.77-2.91,3.85-2.18,2.01-4.59,3.75-6.8,5.72-2.5,2.22-4.35,4.96-5.73,7.99-.19.41-.21.89-.83.84-.18-2.69,1.8-4.37,3.08-6.33,1.35-2.07,3.84-3.2,4.85-5.6,3.57-1.14,5.24-4.73,8.35-6.47h-.01Z"/>
      <path class="cls-9" d="m312.13,111.07c-3.16-.4-6.08-1.65-9.1-2.54-.09-.03-.1-.35-.15-.53,3.45-.08,6.52.98,9.25,3.07Z"/>
      <path class="cls-9" d="m302.09,104.92c-.18-.07-.5-.14-.5-.21-.02-2.04-1.26-3.87-1.04-5.96,1.17.96,1.17,2.43,1.52,3.72.21.76.03,1.63.02,2.45h0Z"/>
      <path class="cls-9" d="m302.86,107.99c-1.62-.68-.59-2.03-.77-3.07,2.38.49,1,1.92.77,3.07Z"/>
      <path class="cls-9" d="m231.04,100.27c.04.65.24,1.38-.73,1.55.03-.62-.26-1.39.73-1.55Z"/>
      <path class="cls-9" d="m231.83,98.74c-.08.59.25,1.4-.78,1.5.04-.62-.25-1.4.78-1.5Z"/>
      <path class="cls-8" d="m224.41,310.87c-1.8-1.23-.27-3.04-.78-4.5.93.93,0,2.46,1.03,3.5.49-.85.44-1.57.25-2.34-.87-3.65-.57-7.32.37-10.86.58-2.2,1.21-4.28.89-6.57-.11-.81,0-1.67.11-2.49.22-1.54.27-3.04-.28-4.55-.35-.96-.59-1.98-.7-2.99-.3-2.77.36-3.26,2.85-2.21.71.3,1.42.6,2.07,1,3.01,1.86,6.3,3.11,9.6,4.26,3.17,1.1,6.66,1.27,9.3,3.81,1.03.99,2.56,1.04,3.99.32,2.28-1.16,4.52-2.4,7.11-2.83,2.34-.39,4.37-1.81,6.76-2.06.75-.08,1.34-.52,1.55-1.27.97-3.52,2.16-6.97,3.28-10.44,1.5-4.65,3.27-9.18,4.97-13.75.29-.77.53-1.52-.67-1.98-1.42-.55-2.79-1.29-4.1-2.09-3.41-2.1-6.93-4.02-10.25-6.29-1.53-1.04-2.62-2.05-3.1-3.85-.37-1.38-.61-2.76-.68-4.17-.07-1.36-.53-2.49-1.49-3.44-1-.99-2.14-1.89-2.9-3.03-.81-1.21-1.69-2.04-3.16-2.21-1.32-.16-2.15-.95-2.23-2.26-.14-2.39-1.4-4.05-3.2-5.43-.24-1.01.58-2.33-.84-3.01v.02c.03-1.66.15-3.33.03-4.97-.07-.89,1.1-1.46.42-2.47-.56-.83-.63-1.58.69-2,.81-.26.64-1.3.26-1.81-.53-.7-.75.36-1.04.4-1.04.12-.99,1.12-1.54,1.6-.93-.52-1.09-1.67-1.97-2.3-2.7-1.94-3.35-5.03-3.57-7.99-.16-2.19.8-4.47-1.06-6.38-.23-.24-.09-.86-.57-.87-.71,0-.62.68-.8,1.13-.02,2.37-.04,4.74-.04,7.11,0,.54-.23,1.2.5,1.5.49.41,1.22.72,1.42,1.24.86,2.26,2.18,4.12,3.94,5.79,1.54,1.45,1.82,3.2,1.55,5.52-.4,3.5.24,7.12,3.25,9.69.75.64.94,1.44,1.07,2.36.22,1.53.49,3.43,2.2,3.75,3,.55,4.13,3.2,6.18,4.77,1.2.92,1.64,2.19,1.7,3.68.04,1.08.21,2.17.46,3.23.52,2.21.33,2.57-1.76,1.71-2.98-1.23-5.38.28-7.91,1.19-1.22.44-1.69,1.54-1.35,2.85.26,1.01.38,2.04.25,3.05-.32,2.59,1.02,4.89,1.42,7.34.37,2.29,0,4.4.05,6.58,0,.49-.54.65-.89.92-2.53,1.89-5.38,2.13-8.46,2.11-3.04-.02-6.02-1.22-8.95-.74-2.67.44-4.32-.25-5.54-2.48.75-.99.02-1.6-.73-1.52-2.6.27-3.37-1.63-4.57-3.27-.55-.75-.39-2.29-1.93-2.2-.77-3.5-3.49-6.62-2.08-10.57.07-.19-.1-.49-.19-.72-1.37-3.39.63-6.39,1.25-9.51.29-1.49,1.49-2.79,2.26-4.19.5-.91.62-1.78.44-2.9-.69-4.26-3.08-8.12-2.97-12.56,0-.31-.44-.61-.6-.96-.69-1.48-2.04-2.68-1.89-4.5.08-.98-.26-1.89-.38-2.83-.3-2.25-1.25-4.52-.63-6.74.36-1.28.73-2.4.27-3.69-.22-.62-.24-1.26-.04-1.89.92-2.89,1.93-5.75,3.1-8.55,1.68-4.01,3.11-8.13,4.11-12.34,1.08-4.54,4.1-7.51,7.49-10.08,3.09-2.34,6.76-3.92,8.21-7.95.5-1.4,1.74-2.44,2.89-3.17,3.88-2.46,4.18-6.36,4.6-10.28v-4.6c1.92.57,2.61-1.07,3.64-2.06.13-.12.14-.51.05-.7-.16-.31-.63-.44-.82-.24-.96.99-2.61,1.34-2.88,2.99-3.03-1.3-1.42-4.52-2.68-6.55-.19-.31-.43-.66-.19-1.07.06-.11.15-.21.23-.31,1.03-1.42.63-2.38-1.18-2.87-.33-.09-.64-.14-.71-.52-.06-.34.1-.65.4-.81.55-.3,1.47-.62.9-1.3-.48-.57-1.24-1.55-2.37-.68-.56.43-1.28.2-1.46-.38-.69-2.21-2.33-3.75-3.68-5.5-.29-.37-.46-1.01-.37-1.46.51-2.45.07-5.1,1.65-7.35,1.23-1.75,2.3-3.64,1.74-5.96h-.02c.33-.02.54-.15.77-.44.93-1.19.58-2.97,1.8-3.97,1.47-1.21,2.1-3.03,3.43-4.36.76-.76,1.08-1.93,1.03-3.19-.07-1.89-1.12-3.33-1.9-4.9-1.19-2.39-2.12-4.81-1.71-7.55.63.81.96,1.77,1.76,2.4.11-.02.19,0,.26.09-.23,1.48.36,2.91,1.1,3.93.64.89.68,2.64,2.41,2.56l.38.11c.09.57.46.73.97.6.57-.14.57-.64.54-1.08-.12-2.08-1.13-3.85-2.36-5.4-2.37-2.99-2.41-2.93.44-5.18.59-.47,1.37-1.2,1.05-2.26h-.02c.73.2,1.13-.39,1.38-.82.52-.89.72-1.01,1.59-.19,1.03.98.87,2.09,1.02,3.22.23,1.73-.55,3.57.64,5.21.31.43.19,1.26,1.03,1.1.94-.18.56-.99.61-1.58-.03-.34-.06-.68-.09-1.01.56-1.67-.23-3.41.27-5.11.48.21.96.36,1.38.6.99.55.9,1.93,1.87,2.51-.5,1.24.61,2.27.48,3.46-.07.78.21,1.24,1.07,1.2,1.87-.09,3.86,1.5,5.64-.63.4-.48,2.03-.43,2.75-.02,1.82,1.03,3.64.79,5.54.66,1.13-.07,2.23-.08,3.34.55.85.49,2.21.6,2.9-.08.7-.68.5-1.83-.05-2.83-.65-1.17-.45-2.1,1.11-2.28.45.38.48,1.64,1.54.74.42.19.86.36,1.24-.05.41-.44-.01-.71-.29-.92-.8-.61-.43-1.2-.2-1.97.36-1.17,1.45-1.48,2.1-2.29,1.84,1.8.68,4.2,1.28,6.24.31,1.07-.83,1.21-1.52,1.59-.29.16-.18.58.01.87.36.53.66,1.13,1.13,1.55.83.75,1.06,1.3-.04,2.05-.73.49-.55,1.33.29,1.36,2.85.09,4.26,1.44,5.07,4.2.59,2.02,2.03,3.74,2.38,5.99.17,1.06.21,2.48,1.48,3.35.6.42.36,1.58.09,2.36-.14.42-.61.57-1.04.15-1.6-1.56-3.02.04-4.45.38-1.01.24-.39,1.44-.51,2.21.04.31.17.64.1.93-.55,2.31,1.02,1.82,2.29,1.78.66-.02.91-.61,1.39-.88,1.32,1.1,1.95-.09,2.27-.92.48-1.23.87-.58,1.27-.11.56.66.57,1.47.05,2.12-.55.7-.17,1.07.32,1.42.94.67,1.82,1.2,3.17.87,1.7-.42,3.36.12,4.79,1.22.92.71,1.89,1.35,2.84,2.03h0c.21.95.82.93,1.42.47.91-.69,1.7-.36,2.67-.11,2.92.75,5.02,2.98,7.97,3.91,3.21,1.01,6.39,1.4,9.62,1.88.94.14,1.92.02,2.89.03.48,0,.92.13,1.13.59.25.54-.1.79-.55,1.02-.6.32-.55.86-.2,1.3.68.88.76,1.72.02,2.59-.27.32-.34.73-.19,1.09.72,1.8-.09,3.14-1.21,4.44-.78-.64-1.35-1.24-.46-2.18.15-.16-.01-.62-.03-.94.12-.55.35-1.1.35-1.66,0-.66.2-1.48-.6-1.88-.76-.38-1.31.17-1.9.56-2.05,1.36-3.15,3.59-2.39,5.84.23.68-.53,2.56,1.47,2.21.11.72-.63,1.38-.86,1.3-.96-.34-2.52.17-2.67-.07-1.37-2.08-2.88-1.14-4.43-.49-.37.16-.91.22-1.03-.17-.59-1.84-2.19-1.3-3.47-1.64-1.95-.51-4.15.4-5.79-.39-2.06-1-3.67-1.85-5.56,0-.13.13-.51.09-.75.03-1.94-.45-3.35.33-4.52,1.83-.51.66-3.6.27-4.07-.46-.62-.96-3.44-2-3.57-1.41-.27,1.23-1.58,1.7-1.75,2.89-.08.55-.23,1.09-.9.99-1.41-.21-2.29.56-3.14,1.5-.26.29-.61.52-1.02.34-.36-.16-.38-.49-.27-.81.33-1.01.05-1.66-1.06-1.75-1.17-.09-2.35.65-2.26,1.54.14,1.3-.52,1.44-1.29,1.86-.29.16-.86.43-.51,1.17,1.17-.32,1.9,1.08,3.16.84.39-.07.83.17.88.58.08.59-.48.74-.89.81-.75.13-1.57,0-2.29.22-3.16.99-6.66-.3-9.16-2.71-1.24-1.19-2.84-2.99-5.16-1.78-1.37.04-2.53.74-3.75,1.24-.62.26-.77.63-.14,1.08.13,1.35,1.01.52,1.31.31,1.3-.9,2.56-.6,4.11-.26-1.45,1.28-3.36,1.68-3.9,3.54-2.51,2.34-5.01,4.68-7.53,7-1.41,1.3-1.27,2.3.39,3.24,1.29.74,2.35.52,3.53-.34,3.95-2.87,7.27-6.4,10.59-9.92.73-.77,1.17-.81,2.08-.42,1.59.68,2.85,2.39,4.78,1.98,2.4-.51,4.94-.59,7.16-1.71,1.22-.62,1.93-.33,2.82.52,1.9,1.79,3.78,3.63,5.88,5.17,2.13,1.56,4.58,2.67,6.17,4.92,1.9,2.7,3.89,5.34,5.85,8.01-.17.49.49,1.01.06,1.44-1.7,1.71.53.59.68.96h0c-.05.82,0,1.52,1.1,1.62.65.06,1.19.44,1.2,1.26.03,2.01.87,3.82,1.34,5.7.82,3.27,2.87,6.12,3.11,9.54,0,.12.25.31.39.33,1.93.25,1.49,1.57,1.41,2.85-.07,1.23-.1,2.41.43,3.71.68,1.65,1.02,3.64.83,5.41-.23,2.13-1.17,4.19-1.78,6.28-.12.42-.4,1.05-.22,1.27,1.07,1.28.54,2.64.26,4.06.73.1,1.55-1.43,1.86-.14.5,2.13,2.16,3.97,1.66,6.35-.11.55.32.92.54,1.38.74,1.55.18,3.07-1.37,3.6-.92.31-.65.96-.72,1.54-.7.11-1.11.58-1.27,1.19-.08.29.33.34.56.3.96-.14.6-.93.71-1.49,1.43-.22.84,1.4,1.91,1.74-.71.17-1.14.26-1.61.37.52.64,1.71.61,1.44,1.49-.3.95-1.22.06-1.85.25-.29.09-.63-.02-.95-.02-.39,0-1.04-.55-1.09.11-.05.65.31,1.41,1.15,1.63.33.21.66.42,1,.62-.8.55-.25.83.21,1.17.54.4,1.31.59,1.32,1.49.02,3.29-.47,6.39-3.27,8.77.59.07,1.12.03,1.57.21.75.29,1.25,1.19.7,1.62-.82.64-1.15,1.69-2.1,2.15-.07-.82-.17-1.57-.77-2.28-1-1.17-1.3-2.57-.78-4.08,0-.32.02-.64.03-.96.04-1.28-.15-2.86,1.89-1.31.27.2.67.26.98-.17.64-.88.83-2.02.29-2.75-.89-1.21-2.13-.99-3.08.24-.45-.74-.54-1.55-.47-2.41.18-2.23-.02-4.42-.7-6.59-1.1-3.53-1.89-7.04-1.83-10.86.05-3.02-1.32-6.02-2.5-8.91-.64-1.56-1.68-3.36-1.39-4.82.81-4.17.57-8.27.34-12.42-.22-3.95-1.76-7.43-3.47-10.86-.31-.61-.83-1.56-1.75-1.05-.79.43-.13,1.14.11,1.69.89,2.03,1.8,4.05,2.71,6.07.89,1.98.32,4.2.94,6.17.77,2.43.65,5.03.11,7.19-.81,3.26.11,5.92,1.15,8.71,1.08,2.91,2.37,5.83,2.33,8.93-.03,2.35.08,4.6.95,6.74,1.64,4.06,2.04,8.33,1.73,12.58-.24,3.31.02,6.44.91,9.58,0,1.35,0,2.7-.01,4.05,0,.44.03,1.24-.34,1.19-2.06-.28-2.24,1.69-2.87,2.67-.87,1.37-2.27,2.7-2.16,4.54.17,2.91.05,5.83.64,8.71.6,2.97,1.19,5.96.9,9.04-.09,1.02-.03,2.05-.01,3.08.03,1.47-.44,3.27.24,4.36,2.22,3.58.89,7.34.22,10.62-.88,4.28.47,8.07.85,12.05.1.99,1.14,2.05,1.44,3.3.89,3.77.58,7.63,1.08,11.43.45,3.39,1.02,6.58,3.37,9.37.86,1.02,2.52,1.06,2.78,2.56.17.99.38,1.69,1.55.79.37-.28.79.08.76.53-.15,2.48.78,5.11-1.24,7.33-.77.85-1.94,1.03-2.63,1.9-1.71,2.12-4.09,2.3-6.45,1.93-1.63-.26-3.14.74-4.74.16-.3-.11-.56.22-.7.54-.33.71-.89.68-1.44.35-.55-.34-.28-.7.04-1.1.35-.43.21-.94-.25-1.13-.97-.41-2.04-.43-2.99-.05-.57.23-.41.87-.02,1.3.45.5.55,1.03.14,1.56-.45.59-1.02.26-1.58.13-1.31-.29-2.59-.03-3.58.83-1.02.89-1.75.73-2.64-.12-.85-.81-1.48-2.02-2.94-1.95-1.96-.35-1.11-1.99-1.4-3.1-1.34-5.15-2.25-10.44-5.27-15-.5-.75-.68-1.7-.26-2.58.45-.95.5-1.98.69-2.98.49-2.56.27-5.18,1.29-7.72.59-1.46.62-3.41-.4-5.01-.33-.51-.3-1.12-.17-1.69.42-1.81.96-3.6,1.28-5.42.38-2.2.91-4.38-.07-6.65-.64-1.47-1.94-2.91-.87-4.81.42-.75,1.16-1.21,1.48-1.98,1.69-4.02,4.54-7.59,4.83-12.18.06-.94,1.32-2.35.2-2.66-1.18-.31-1.27,1.6-1.35,2.47-.42,5-3.35,8.84-5.67,12.97-.9,1.61-1.73,3.26-.28,5.16.65.85,1.13,2.11,1.1,3.16-.08,2.92-.63,5.79-1.53,8.6-.35,1.1-.5,2.21.01,3.37.82,1.86,1.01,3.79.08,5.69-.4.82-.66,1.65-.69,2.57-.08,2.36-.15,4.72-1.05,6.97-.57,1.43-.19,2.98.79,3.89.75.69.88,1.43,1.26,2.19,1.25,2.48,1.56,5.26,2.46,7.85.64,1.85,1.92,4.08-.1,6.07-.35.34.13.65.36.95.83,1.06,2.15,1.34,3.17,2.1,2.82,2.1,5.21,4.64,7.53,7.25-1.4-.27-2.63-.84-3.49-2.02-.47-.65-1.01-.32-1.55-.15-.44.14-.63.43-.57.87.1.73.68.63,1.18.67.58.04,1.53.17,1.26.77-.77,1.71-.51,3.72-1.48,5.28-2.38,3.83-5.83,6.05-10.36,6.78-1.41.23-3.04.72-4.15,1.51-1.43,1.01-2.77,1.18-4.3,1.02-2.45-.25-4.89-.4-7.28.41-.54.18-1.25.58-1.65.39-2.04-.98-3.63-.4-5.26.96-1.62,1.35-3.16.17-4.67-.52h0c-.05-1.03.07-2.01.34-2.99.11-.39.14-.93-.4-1.13-.21-.08-.7-.02-.7,0-.08.91-1.59,1.4-.78,2.56h0c-.17,1.56-.58,2.68-2.57,1.98-.69-.24-1.53.01-2.3-.05-2.51-.22-4.67-1.36-6.46-3.03-1.28-1.2-2.03-2.68-3.93-3.56-1.6-.74-3.36-1.95-4.86-3.22-.91-.77-1.72-2.08-2.61-2.28-1.52-.34-2.64-.59-2.8-2.62-.19,1.23-.28,2.21-1.45.91-.66-.73-1.78-.77-2.51-1.35-.77-.61-2.52.46-2.43-1.14.1-1.68,1.63-1.04,2.7-1.11,1.05-.07,1.15-.94.97-1.73-.14-.64-.58-1.85-1.11-1.42-.84.69-1.7,1.32-2.53,1.97-.78.61-1.52.91-2.68,1.6,1.42-3.58,3.61-6.43,3.29-10.04.62-2.7,1.75-5.17,3.44-7.36.52-.67,1.06-1.29,1.14-2.16.27-2.78.91-5.47,1.85-8.1.71-1.99.34-4.14.52-6.16.12-1.45-.13-2.99.42-4.48.14-.39.03-.89,0-1.33,0-.29-.19-.51-.47-.48-.39.05-.39.44-.48.73l-.06.04Zm41.93-203c1.61,3.11,3.49,4.4,6.62,4.61.7.05,4.04-2.28,3.96-2.92-.15-1.28-1.24-1.94-2.12-2.73-.67-.6-1.34-.44-1.8.19-.43.57-.81.61-1.45.43-1.77-.48-3.49-.16-5.21.41h0Zm36.2,225.42h0c.83-.01,1.67,0,2.5-.01.65,0,1.21-.27,1.22-.95,0-.7.78-1.32.03-2.14-1.93-2.1-4.62-2.15-6.41-.04-.66.78-1,1.75-.73,2.63.28.93,1.34.39,2.05.49.44.06.9.01,1.35.01h0Zm-85.68-125.42c.69-.19.93-.8,1.04-1.42.11-.61-.36-.77-.85-.68-.77.15-.94.78-.96,1.44,0,.44.27.68.77.66h0Zm70.45,110.96c.03-.41-.05-.79-.55-.78-.62.02-1.11.29-1.15.99-.02.52.07,1.09.76,1.04.72-.05.72-.76.94-1.25h0Zm-49.91-15.93c0-.47-.07-.96-.63-1.04-.63-.09-.68.48-.78.89-.12.5.04.93.6,1,.58.07.77-.33.8-.84h0Zm6.78-171.99c-.15-.56-.55-1.23-1.06-1.09-.45.13-.88.84-1.02,1.38-.13.48.45.69.92.71.66.02,1.09-.27,1.15-1h.01Zm-9.5,158.38c-.1-.51-.44-.66-.84-.66-.75.01-.91.59-.98,1.16-.05.39.12.86.59.74.62-.16.95-.73,1.22-1.24h0Zm13.86-81.05c.48.07.93,0,.94-.48,0-.66-.57-.77-1.09-.83-.43-.05-1.01-.16-.95.53.05.64.68.66,1.11.77h-.01Zm-6.43-5.59c-.5.15-.69.55-.76,1-.1.59.32.83.78.87.58.05.8-.31.66-.86-.11-.41-.05-.94-.67-1.01h-.01Zm1.66-38.26c.03-.63-.11-1.2-.85-1.24-.43-.02-.66.4-.56.81.14.59.13,1.42.91,1.48.55.04.47-.63.5-1.05h0Zm-23.51,88.72c-.3-1.17-.67-1.78-1.61-1.67-.16.02-.45.39-.41.52.27.88,1.1.78,2.02,1.15Zm4.11,87.26c-.14-.6-.61-.53-1.05-.49-.42.04-.99,0-.94.63.04.58.54.6,1,.53.43-.07.9-.09.98-.67h.01Zm2.42-101.75c-.11-.28-.23-.67-.72-.64-.45.03-.67.35-.67.78,0,.52.26.9.81.82.42-.06.59-.44.59-.96h0Zm4.67-66.66c0-.52-.36-.63-.76-.64-.53,0-1.05.1-1.17.71-.12.62.33.75.81.72.53-.03.97-.23,1.12-.79h0Zm10.46,25.83c.42-.03.72-.24.67-.71-.06-.52-.26-1.01-.89-1.03-.38-.02-.57.26-.56.61.02.52.1,1.03.79,1.13h0Zm-6.55,117.41c.46-.07.84-.3.97-.77.11-.38-.13-.62-.51-.6-.48.02-.89.24-1.01.73-.09.36.16.58.55.64h0Zm4.16-155.04c-.13-.48-.5-.7-.97-.74-.44-.04-.75.16-.66.67.07.43.36.66.8.66.39,0,.78-.03.84-.58h0Zm-2,169.34c-.06-.44-.3-.78-.75-.66-.5.13-.57.66-.6,1.1-.02.34.23.62.61.54.5-.1.74-.46.73-.98h.01Zm-5.72-24.45c.34.02.71-.1.67-.45-.07-.6-.6-.75-1.11-.8-.33-.03-.64.14-.54.55.11.5.53.65.98.7Zm52.51-.79c.02-.42-.13-.82-.57-.83-.65-.02-.52.57-.56.98-.03.36-.07.87.44.84s.61-.54.68-.98h.01Zm-49.61,20.14c-.04-.4.02-.96-.58-.96-.55,0-.66.5-.6.97.05.43.12,1,.62,1.02.62.03.45-.61.56-1.04h0Zm9.23-183.39c-.1-.06-.19-.16-.29-.17-.1,0-.2.09-.29.13.09.06.18.16.27.17.1,0,.2-.08.31-.14h0Z"/>
      <path class="cls-4" d="m301.34,164.25c-1.95-2.67-3.94-5.31-5.85-8.01-1.59-2.26-4.04-3.36-6.17-4.92-2.1-1.54-3.98-3.38-5.88-5.17-.89-.84-1.59-1.14-2.82-.52-2.22,1.12-4.76,1.2-7.16,1.71-1.93.41-3.18-1.3-4.78-1.98-.91-.39-1.35-.35-2.08.42-3.32,3.52-6.64,7.05-10.59,9.92-1.18.86-2.23,1.07-3.53.34-1.66-.94-1.8-1.94-.39-3.24,2.52-2.33,5.02-4.67,7.53-7,1.36-.91,2.73-1.82,4.08-2.74,1.04-.71.8-1.13-.24-1.67-2.05-1.07-3.62.27-5.36.83-.64-.45-.48-.82.14-1.08,1.22-.5,2.38-1.2,3.75-1.24,1.18.44,2.48.59,3.43,1.57,1.67,1.72,3.86,2.64,5.88,3.83.95.56,1.89.74,2.95.58,4.3-.64,8.47-1.86,12.63-3.07.98-.28,1.85-.78,2.72-1.37,1.23-.84,2.62-1.56,4.24-1.47,1.36.07,2.66-.16,3.99-.51,2.72-.73,5.47-1.1,8.25-.02.77.3,1.74.7,2.61.2,2.15-1.24,4.22-.35,6.32.13.5.11,1,.26,1.5.3.75.06,1.49.02,1.22-1.11-.12-.49-.03-.95.56-1.01.56-.05.73.46.87.88.7,2.04,2.21,3.73,4.18,3.72,2.86,0,5.79-1.11,7.68-3.33,2.57-3.02,3.2-6.9,3.51-10.79.16-1.99-.53-3.54-2.36-4.44-.43-.21-.77-.44-.93-.88-.47-1.33-1.71-1.88-2.74-1.49-2.46.94-4.69.13-7.02-.32-1.11-.22-2.22-.34-3.34-.63-2.97-.76-5.3-2.75-8.09-3.85-1.77-.7-3.72-.97-5.36-2.01-2.92-1.86-5.91-3.38-9.55-2.54-.37.09-.84.04-.9-.46-.05-.4.33-.55.64-.55,1.69.03,1.51-1.11,1.49-2.23-.07-3.97-1.52-7.65-2.58-11.38-.68-2.38-2.22-4.5-4.79-5.44-.48-.18-.85-.51-.94-.87-.35-1.32-1.3-2.01-2.4-2.6-.39-.21-1.03-.55-.46-.94,1.65-1.11,1.79-3.02,2.22-4.56.84-3.02.44-6.19-1.4-8.79-.81-1.15-1.97-2.13-2.83-3.32-.77-1.07-3.87-2.06-4.23-1.44-.76,1.3-2.22,2.22-2.22,3.94,0,.67-.13,1.32-.73,1.69-1.06.65-1.13,1.64-1.02,2.7.17,1.59.61,3.16.46,4.78-.06.65.89,1.43.04,1.91-.8.46-1.92.27-2.53-.37-1.37-1.43-2.77-1.28-4.35-.53-.86.41-1.74.76-2.64-.04-1.68-1.5-3.67-1.18-5.37-.35-1.91.93-3.68.85-5.56.25.14-1.19-.98-2.22-.48-3.46.26-1.75-.66-2.99-1.92-3.94-.84-.64-1.15-1.08-.68-2.17.6-1.41.54-2.85-.8-4.03-.56-.49-.97-1.2-1.32-1.88-.78-1.47-1.52-1.06-2.2,0-.52.83-1.06,1.72-1.92,2.1-3.82,1.72-5.5,5.32-7.65,8.5-1.33,1.97-1.65,4,.08,5.99.19.22.32.57.33.87.04,1.82,1.01,3.21,1.96,4.66.68,1.05,1.41,2.34.65,3.59-.99,1.64-2.05,3.28-3.36,4.65-1.73,1.82-2.51,3.94-2.8,6.33h.02c-.72,1.12-.98,2.44-1.61,3.63-1.51,2.87-3.07,5.79-2.93,9.21.04.88-.26,1.9.5,2.56,3.31,2.86,4.55,7.21,7.49,10.34.42.45.85.98.9,1.67.32,3.99,2.09,7.62,2.82,11.5.03.17.37.29.57.43-.42,3.92-.72,7.82-4.6,10.28-1.15.73-2.39,1.77-2.89,3.17-1.44,4.04-5.11,5.61-8.21,7.95-3.39,2.56-6.42,5.54-7.49,10.08-1,4.21-2.43,8.33-4.11,12.34-1.17,2.8-2.19,5.66-3.1,8.55-.2.63-.18,1.28.04,1.89.46,1.29.09,2.41-.27,3.69-.62,2.23.33,4.5.63,6.74.13.94.46,1.85.38,2.83-.15,1.82,1.21,3.02,1.89,4.5.16.34.61.64.6.96-.11,4.45,2.28,8.3,2.97,12.56.18,1.12.07,1.99-.44,2.9-.77,1.4-1.97,2.7-2.26,4.19-.62,3.13-2.62,6.12-1.25,9.51.09.23.26.53.19.72-1.4,3.94,1.32,7.06,2.08,10.57,1.19,2.81,1.92,6.04,5.83,6.4.48.04.93.39,1.4.6,1.22,2.23,2.86,2.92,5.54,2.48,2.93-.49,5.91.72,8.95.74,3.08.02,5.92-.22,8.46-2.11.36-.27.91-.43.89-.92-.05-2.18.33-4.29-.05-6.58-.4-2.46-1.74-4.76-1.42-7.34.13-1.02,0-2.05-.25-3.05-.33-1.31.13-2.41,1.35-2.85,2.53-.91,4.92-2.42,7.91-1.19,2.1.86,2.28.5,1.76-1.71-.25-1.06-.41-2.15-.46-3.23-.06-1.49-.5-2.76-1.7-3.68-2.06-1.58-3.19-4.22-6.18-4.77-1.71-.32-1.98-2.22-2.2-3.75-.14-.92-.32-1.72-1.07-2.36-3-2.57-3.65-6.19-3.25-9.69.27-2.32-.02-4.07-1.55-5.52-1.76-1.67-3.08-3.53-3.94-5.79-.2-.52-.93-.83-1.42-1.24.75-1.83.13-3.78.49-5.65.21-1.11-.15-2.14-.95-2.97.18-.44.09-1.14.8-1.13.48,0,.34.63.57.87,1.85,1.91.9,4.19,1.06,6.38.22,2.96.87,6.04,3.57,7.99.88.63,1.04,1.78,1.97,2.3.64,1.57.81,3.09.51,4.87-.23,1.35-.76,3.14.69,4.39v-.02c.28,1,.24,2.09.83,3.01,1.8,1.38,3.06,3.04,3.2,5.43.08,1.31.91,2.1,2.23,2.26,1.46.18,2.35,1,3.16,2.21.77,1.15,1.91,2.05,2.9,3.03.96.95,1.42,2.09,1.49,3.44.07,1.41.31,2.79.68,4.17.48,1.8,1.57,2.81,3.1,3.85,3.32,2.26,6.84,4.19,10.25,6.29,1.3.8,2.67,1.54,4.1,2.09,1.2.46.95,1.21.67,1.98-1.7,4.57-3.47,9.1-4.97,13.75-1.12,3.47-2.31,6.92-3.28,10.44-.21.75-.79,1.19-1.55,1.27-2.39.25-4.43,1.68-6.76,2.06-2.59.43-4.83,1.67-7.11,2.83-1.43.72-2.95.67-3.99-.32-2.64-2.54-6.13-2.71-9.3-3.81-3.31-1.15-6.6-2.39-9.6-4.26-.65-.4-1.36-.71-2.07-1-2.49-1.05-3.15-.55-2.85,2.21.11,1.01.35,2.03.7,2.99.55,1.51.5,3.01.28,4.55-.12.82-.22,1.68-.11,2.49.32,2.29-.31,4.37-.89,6.57-.93,3.53-1.23,7.21-.37,10.86.18.77.24,1.49-.25,2.34-1.02-1.04-.1-2.57-1.03-3.5-.05-.55-.11-1.1-.16-1.64-.29-2.66.08-5.33.02-7.99v-.07c.95-1.27,1.47-2.69,1.36-4.27-.16-2.24-.05-4.47.06-6.71.03-.62.25-1.29-.32-1.8h0c-.04-.67.12-1.38-.36-1.97-.49-1.64-.17-3.27,0-4.91h.02c1.03-1.26-.21-1.63-.9-1.8-2.34-.57-4.3-1.92-6.11-3.27-2.65-1.97-5.7-2.87-8.6-4.19-2.6-1.2-5.32-2.21-7.75-3.7-.78-.48-2.63.12-2.43-1.71.12-1.04.4-2.07.6-3.1.03-.24.07-.48.1-.72.97-.57.71-1.55.8-2.41.06-.56-.09-1.11.12-1.7.7-2.01,1.27-4.07,1.86-6.12.54-1.88.67-3.92,1.52-5.65,1.08-2.2,1.47-4.45,1.55-6.83l-.07-.04c.5-.25.46-.75.55-1.19l.14-.02c2.83-1.12,5.68-2.26,8.7-2.68,2.76-.39,3.69-1.65,2.41-4.06-.72-1.35-.95-2.75-1.07-4.21-.04-.51-.1-.97-.52-1.39-.86-.85-1.21-2.01-.99-3.15.31-1.62-.6-2.71-1.47-3.7-.92-1.06-1.07-2.34-1.14-3.49-.16-2.62-.2-5.23-1.21-7.69-.27-.65-.09-1.12.16-1.74.37-.9,1.2-1.69.79-2.86-1.21-3.48.63-6.37,1.88-9.38.72-1.73,1.74-3.43,2.03-5.24.79-4.84,3.45-9.06,4.33-13.84.04-.23.22-.48.4-.64,2.8-2.41,4.74-5.77,8.38-7.29,2.75-1.15,4.66-3.16,5.7-6.12.59-1.67,2.36-2.66,3.68-3.84,1.77-1.56,2.71-3.3,3.11-5.69.5-2.95-.28-5.41-1.52-7.9.06-.47-.1-.85-.44-1.17-.21-2.23-.59-4.48-1.57-6.45-1.59-3.21-3.47-6.29-5.33-9.36-.74-1.22-2.63-1.61-2.74-3.29-.15-2.18-.13-4.5.74-6.44,1.7-3.78,3.42-7.55,4.61-11.52.84-2.81,3.13-4.61,4.64-6.94.91-1.41.98-2.45.07-3.62-1.17-1.5-2.02-3.1-2.22-5.01-.02-.19-.02-.42-.13-.55-2.5-3.32-.41-5.71,1.24-8.61,1.89-3.32,4.42-5.67,7.44-7.79,1.11-.78,1.77-2.17,2.69-3.24.72-.84,1.39-.87,1.83.31.59,1.58,1.48,2.97,2.65,4.21.72.77,1.05,1.73.76,2.85-.37,1.41-.09,2.7,1.09,3.64,1.07.86,1.26,2.03,1.33,3.27.18,3.24,1.31,3.88,4.1,2.45,2.13-1.09,4.36-.9,6.45.11.79.38,1.39.51,2.15.14,1.41-.69,2.87-.67,4.25.01.82.41,1.11.08,1.11-.63,0-.89-.05-1.81-.24-2.68-.4-1.85.16-3.2,1.09-4.93,1.04-1.93,2.51-3.78,2.98-6.04.12-.55.23-1.22.92-1.34.68-.12.7.56,1,.95.83,1.06,2.42.68,3.34,1.67.15.17.62.11.69.27,1.33,2.87,4.68,4.34,4.87,8.16.13,2.61.36,4.96-.79,7.43-.93,2,.05,4.82,2.03,5.86,4.2,2.2,5.37,6.08,6.29,10.23.6,2.69,1.36,5.34,1.44,8.12.02.75.41,1.12,1.18,1.26,2.43.43,4.65,1.41,6.72,2.74,1.78,1.15,3.94,1.29,5.84,2.26,1.42.72,2.7,1.68,4.14,2.35,3.13,1.45,6.53,1.77,9.83,2.5.64.14,1.26-.08,1.89-.26,1.13-.31,2.51-.61,3.37.02,1.63,1.17,3.1,2.64,4.38,4.2,1.39,1.69.65,3.71.54,5.7-.21,3.48-1.61,6.41-3.25,9.32-.25.45-.44,1-.94,1.18-2.29.83-4.34,2.22-6.72,2.8-1.65.4-3.18.23-4.34-1.22-.87-1.09-2.05-1.41-3.43-1.37-.81.02-1.64-.24-2.46-.39-1.8-.34-3.53-.94-5.41-.04-1.8.86-3.43-.68-5.21-.82-1.16-.09-2.25-.16-3.41.07-2.07.42-4.12,1.02-6.27.88-1.29-.08-2.4.56-3.4,1.21-1.59,1.03-3.29,1.74-5.1,2.18-1.22.3-1.26.78-.39,1.47,2.96,2.31,5.44,5.2,8.8,7.01,1.58.85,2.32,2.54,3.31,3.9,2.15,2.96,4.23,5.93,6.96,8.4,1.46,1.32,1.66,3.46,2.83,4.95,2.86,3.64,4.86,7.81,6.49,12.02,1.11,2.87,2.06,5.88,2.97,8.86.47,1.52.43,3.24.02,4.77-.5,1.85-.65,3.63-.39,5.51.13.93.1,1.99-.22,2.86-1.01,2.78.04,5.18,1.23,7.53.56,1.11.99,2.25,1.17,3.44.55,3.55,1.9,6.87,1.19,10.74-.51,2.8-.12,5.99.56,8.93.8,3.48-.28,6.73-.97,10.04-.07.36-.3.79-.59.98-2.4,1.55-3.32,4.43-5.68,6.08-1.33.93-1.98,2.55-2.03,4.37-.08,2.88-1.03,5.66-1.1,8.56-.06,2.28.11,4.54.84,6.64,2.28,6.56,2.88,13.2,1.91,20.09-.33,2.36-.27,4.85-.29,7.28-.01,1.4.43,2.71,1.1,4.02,1.6,3.1,1.52,6.6,1.56,9.95.05,4.46-.42,8.92,1.85,13.07.52.95.88,1.88,1.84,2.53,1.92,1.31,3.14,3.47,5.48,4.37,1.02.39,1.56,1.68,1.04,2.82-1.36,2.94-2.15,6.27-4.87,8.37-2.84,2.2-6.08,3.48-9.7,3.95-4.69.61-9.46-.85-14.09.68-1.18.39-2.39-.56-3.69.17,1.6,1.94,3.49,3.67,4.41,6.13,1.18,3.15.83,5.14-1.35,7.03-3.02,2.62-6.58,4.4-9.9,6.48-2.24,1.4-5.1,2.26-8.11,2.13-1.88-.08-3.81.79-5.7,1.26-2.3.58-4.77.31-6.97,1.63-.89.53-2.39.34-3.53.09-3.46-.76-6.83.6-10.26.29-.44-.04-.95.21-1.33.07-4.12-1.53-8.42-2.48-12.52-4.11-3.67-1.46-6.45-4.41-10.39-5.5-2.34-.65-4.66-1.67-6.04-4.61-1.63-3.47-4.48-6.45-8.51-7.72-1.13-.36-1.63-.98-.62-2.09,1.37-1.51,2.65-3.1,3-5.22.92-1.83,1.5-3.77,1.91-5.76.08-.1.1-.22.05-.34.11-.28.21-.55.32-.83.09-.06.12-.14.09-.24.93-.63,1.03-1.79,1.39-2.67.8-1.99,3.02-3.21,2.94-5.67-.06-1.94.47-3.75,1.37-5.52.52-1.03.84-2.24.78-3.53-.11-2.62-.21-5.25.34-7.85l.05-.07c.14,0,.2-.06.19-.19.02-.31.04-.62.06-.93.09-.3.09-.68.48-.73.28-.04.46.19.47.48.02.45.13.94,0,1.33-.55,1.49-.3,3.03-.42,4.48-.17,2.02.2,4.17-.52,6.16-.94,2.62-1.58,5.32-1.85,8.1-.08.88-.63,1.49-1.14,2.16-1.69,2.19-2.82,4.66-3.44,7.36-.38.32-.36.8-.54,1.2-1.24,2.76-1.61,5.94-4.04,8.15-1.26,1.14.08,1.51.84,1.77,2.21.75,3.9,2.35,5.3,3.99,1.41,1.65,3.2,3.2,3.7,5.53.07.31.47.71.79.77,1.91.41,3.29,2.03,5.22,2.31,1.81.27,3.2,1.33,4.57,2.34,2.34,1.73,4.94,3.08,7.67,3.72,2.4.56,4.62,1.47,6.9,2.29.87.31,1.73.54,2.62.38,5.52-.96,11.16.15,16.74-1.34,2.8-.74,5.83-1.25,8.79-1.67,3.97-.56,7.95-1.07,11.25-3.67.75-.59,1.44-1.45,2.29-1.67,2.26-.57,3.74-2.18,5.38-3.58.66-.57,1.33-1.22,1.33-2.25,0-3.14-1.22-5.67-3.7-7.6-2.33-2.61-4.71-5.15-7.53-7.25-1.02-.76-2.34-1.05-3.17-2.1-.23-.3-.71-.6-.36-.95,2.02-1.99.74-4.22.1-6.07-.9-2.59-1.2-5.37-2.46-7.85-.38-.76-.52-1.49-1.26-2.19-.98-.91-1.36-2.46-.79-3.89.89-2.25.97-4.61,1.05-6.97.03-.92.28-1.75.69-2.57.94-1.9.74-3.83-.08-5.69-.51-1.16-.36-2.27-.01-3.37.9-2.8,1.46-5.68,1.53-8.6.03-1.06-.45-2.31-1.1-3.16-1.45-1.9-.62-3.55.28-5.16,2.32-4.14,5.25-7.97,5.67-12.97.07-.87.17-2.79,1.35-2.47,1.12.3-.14,1.72-.2,2.66-.3,4.59-3.14,8.15-4.83,12.18-.32.76-1.06,1.23-1.48,1.98-1.08,1.9.23,3.35.87,4.81.99,2.27.45,4.45.07,6.65-.32,1.83-.86,3.61-1.28,5.42-.13.57-.16,1.17.17,1.69,1.03,1.61.99,3.55.4,5.01-1.02,2.54-.8,5.17-1.29,7.72-.19,1.01-.24,2.03-.69,2.98-.42.89-.24,1.83.26,2.58,3.02,4.57,3.93,9.85,5.27,15,.29,1.1-.56,2.74,1.4,3.1.48.88.84,1.84,1.84,2.3.1.09.2.18.3.28,2.32,2.93,5.4,4.35,8.98,3.35,3.21-.9,6.34-.42,9.5-.39,5.67.06,10.99-.67,14.78-5.56,1.47-1.9,2.1-4.2,3.08-6.33.37-.81-.2-1.62-1-2.08-3.17-1.8-5.77-4.08-7.48-7.43-1.57-3.09-2.72-6.1-2-9.67.34-1.66.33-3.43.09-5.16-.43-3.1-.7-6.22-2.4-9.02-1.1-1.82-.55-3.81-.09-5.77.45-1.94-.31-3.98.26-5.93.93-3.18.67-6.33,0-9.51-.7-3.31-1.54-6.57-2.51-9.82-1.21-4.02-.74-8.24.32-12.31.41-1.59.66-3.21.32-4.76-.78-3.51-.65-7.05-.61-10.59,0-.72-.08-1.27-.8-1.55-.88-3.14-1.14-6.28-.91-9.58.3-4.25-.09-8.52-1.73-12.58-.87-2.14-.98-4.39-.95-6.74.04-3.1-1.25-6.02-2.33-8.93-1.03-2.79-1.96-5.45-1.15-8.71.53-2.15.66-4.75-.11-7.19-.62-1.97-.05-4.19-.94-6.17-.91-2.02-1.82-4.04-2.71-6.07-.24-.55-.89-1.26-.11-1.69.92-.5,1.45.44,1.75,1.05,1.71,3.43,3.24,6.91,3.47,10.86.24,4.16.48,8.26-.34,12.42-.29,1.47.75,3.26,1.39,4.82,1.19,2.89,2.55,5.89,2.5,8.91-.06,3.82.73,7.34,1.83,10.86.68,2.17.88,4.35.7,6.59-.07.86.02,1.66.47,2.41-.8,1.63-.78,3.28-.11,4.95-.51,1.51-.22,2.91.78,4.08.6.7.7,1.46.77,2.28-.77,2.94.28,5.81-.02,8.96,2.38-1.66,3.75-3.8,5.5-5.35,3.07-2.73,3.31-6.03,3.03-9.36-.31-3.73-1.11-7.59-.66-11.18.51-4.1-.21-7.83-1.45-11.42-1.53-4.41-3.3-8.55-2.08-13.42.45-1.78.15-3.77.61-5.68.37-1.56.46-3.3-.15-4.92-.99-2.61-2.49-5.05-2.63-7.97-.04-.78-.39-1.71-.91-2.28-1.37-1.51-2.11-3.33-2.85-5.15-.47-1.14-1.07-2.13-1.94-3.04-.78-.81-1.52-1.83-1.83-2.89-.66-2.21-1.88-3.89-3.82-5.08l.05-.02Zm-71.66,104.03c-2.77.57-5.02.14-6.61-2.21-.28-.41-.71-.67-1.26-.78-2.75-.57-6.44-4.29-6.7-7.12-.16-1.74-.61-3.45-1.15-4.98-1.36-3.89-.92-7.74-.68-11.65.04-.73.3-1.54-.58-2.06-1.37-.82-2.7-1.69-4.06-2.54-1.42-.89-2.32-.54-2.49,1.16-.43,4.17-2.15,8.01-3.19,12.01-.92,3.54-1.38,7.21-2.66,10.67-.25.68.1.93.59,1.49,1.33,1.48,3.3,1.27,4.7,2.22,4.12,2.82,9.05,3.98,13.17,6.92,3.61,2.58,7.8,4.37,11.84,6.29,4.09,1.94,8.1,4.12,12.6,5.09,2.11.46,4.25.75,5.85,2.51.6.66,1.5.2,2.05-.38.52-.55.79-1.29,1.13-1.98,1.16-2.29,1.11-4.85,1.81-7.24,1.05-3.58,2.79-6.91,3.53-10.64.88-4.45,1.11-4.44-2.61-6.31-1.46-.73-3.02-1.26-4.56-1.83-.46-.17-1.05-.29-1.41.23-.22.32-.27.94.03,1.07,1.9.77.82,2.32.78,3.41-.19,4.88-3.59,7.65-8.45,7.65-3.99,0-7.89-.64-11.67-.98v-.02Zm42.59-10.63c-2.71.97-6.09,1.47-9.43,2.14-1.88.38-2.6,1.81-3.31,3.33-.6,1.29-.79,2.69-1.11,4.04-1.11,4.77-4.05,9-4.06,14.1,0,.83-.24,1.78-.81,2.53-.35.46-.86.98-.27,1.49.53.46,1.18.33,1.73-.17,1.23-1.11,2.85-1.67,4.33-1.78,2.8-.2,4.79-2.55,7.6-2.53.43,0,.43-.58.52-.94.92-4,2.56-7.77,3.78-11.67.89-2.83,2.09-5.56,3.11-8.35.63-1.71.23-2.25-2.1-2.21l.02.02Zm-19.02-13.17c-1.63.36-3.26.66-4.69,1.57-.88.56-1.44,1.2-.82,2.36.43.81.37,1.8.17,2.65-.43,1.8.64,2.75,1.83,3.63,2.83,2.11,6.36,2.77,9.41,4.45.52.29,1.2.26,1.69-.02,2.56-1.46,5.62-.85,8.26-2.09,1.32-.62,2.93-.57,4.27-1.32-1.03-1.21-2.29-2.09-3.68-2.88-1.6-.92-3.44-1.28-4.87-2.6-2.87-2.67-6.47-4.04-10.09-5.31-.48-.17-.98-.28-1.49-.43h.01Zm8.78-98.64c-.37.06-.86,0-1.09.21-2.02,1.84-3.99,3.72-5.98,5.59-.6.57-.85,1.21-.08,1.76.62.44,1.27,1.18,2.17.37,2.04-1.84,3.77-4,6-5.64.5-.36.61-1.01.4-1.57-.23-.61-.8-.78-1.42-.72h0Zm-46.58,86.93c-.82.1-1.72.04-2.45.35-1.38.59-3.8.87-3.88,1.9-.12,1.51,2.16,2.02,3.41,2.95.2.15.46.23.71.29.33.08.67.03.77-.36.37-1.52,1.49-2.65,2.14-4.02.36-.75.31-1.25-.7-1.11h0Zm47.63-87.99c1,.72,1.71,1.9,2.75.42.33-.47,1.17-.9.28-1.55-1.58-1.15-1.83.9-3.04,1.13h0Z"/>
      <path class="cls-8" d="m238.85,138.46c.34.32.5.7.44,1.17-.36-.04-.85.17-1.02-.28s.46-.54.58-.89Z"/>
      <path class="cls-2" d="m287.5,343.72c-1-.46-1.36-1.42-1.84-2.3,1.45-.07,2.08,1.13,2.94,1.95.89.84,1.63,1.01,2.64.12.99-.87,2.27-1.12,3.58-.83.56.12,1.13.46,1.58-.13.41-.53.31-1.06-.14-1.56-.39-.43-.55-1.08.02-1.3.95-.38,2.02-.36,2.99.05.46.19.6.71.25,1.13-.33.4-.59.76-.04,1.1s1.11.36,1.44-.35c.15-.32.41-.64.7-.54,1.6.57,3.11-.42,4.74-.16,2.36.37,4.74.19,6.45-1.93.7-.86,1.86-1.05,2.63-1.9,2.02-2.21,1.1-4.85,1.24-7.33.03-.44-.39-.81-.76-.53-1.17.89-1.38.19-1.55-.79-.26-1.5-1.92-1.54-2.78-2.56-2.35-2.79-2.93-5.99-3.37-9.37-.5-3.8-.2-7.66-1.08-11.43-.3-1.26-1.34-2.31-1.44-3.3-.38-3.98-1.73-7.77-.85-12.05.67-3.28,2.01-7.04-.22-10.62-.67-1.08-.2-2.88-.24-4.36-.02-1.03-.08-2.06.01-3.08.28-3.08-.3-6.06-.9-9.04-.58-2.89-.47-5.81-.64-8.71-.11-1.84,1.28-3.17,2.16-4.54.62-.98.8-2.94,2.87-2.67.37.05.33-.75.34-1.19.01-1.35,0-2.7.01-4.05.73.28.81.84.8,1.55-.04,3.54-.17,7.08.61,10.59.34,1.54.1,3.17-.32,4.76-1.06,4.07-1.53,8.29-.32,12.31.98,3.25,1.82,6.51,2.51,9.82.67,3.18.92,6.33,0,9.51-.57,1.95.19,3.99-.26,5.93-.46,1.96-1.01,3.95.09,5.77,1.7,2.8,1.97,5.91,2.4,9.02.24,1.73.24,3.51-.09,5.16-.73,3.57.43,6.58,2,9.67,1.7,3.35,4.31,5.63,7.48,7.43.8.46,1.37,1.27,1,2.08-.98,2.13-1.61,4.44-3.08,6.33-3.79,4.88-9.11,5.61-14.78,5.56-3.16-.03-6.29-.51-9.5.39-3.58,1-6.66-.42-8.98-3.35-.1-.09-.2-.18-.3-.28v.02Zm9.83-2.48s.11.04.16.06c.02-.05.06-.12.05-.14-.04-.04-.1-.04-.16-.06-.02.05-.03.1-.05.14Z"/>
      <path class="cls-2" d="m255.03,83.68c1.88.6,3.65.68,5.56-.25,1.71-.83,3.7-1.14,5.37.35.9.8,1.77.45,2.64.04,1.58-.75,2.98-.9,4.35.53.61.64,1.73.83,2.53.37.84-.48-.11-1.26-.04-1.91.16-1.63-.29-3.19-.46-4.78-.11-1.06-.04-2.05,1.02-2.7.6-.37.73-1.02.73-1.69,0-1.72,1.46-2.64,2.22-3.94.36-.62,3.46.37,4.23,1.44.87,1.2,2.02,2.18,2.83,3.32,1.84,2.6,2.24,5.77,1.4,8.79-.43,1.54-.57,3.45-2.22,4.56-.57.38.08.73.46.94,1.1.59,2.06,1.27,2.4,2.6.1.37.46.7.94.87,2.57.94,4.11,3.06,4.79,5.44,1.06,3.73,2.52,7.41,2.58,11.38.02,1.12.2,2.26-1.49,2.23-.31,0-.69.15-.64.55.06.5.53.55.9.46,3.64-.85,6.64.68,9.55,2.54,1.64,1.04,3.59,1.31,5.36,2.01,2.79,1.1,5.12,3.09,8.09,3.85,1.12.29,2.23.41,3.34.63,2.33.45,4.55,1.26,7.02.32,1.03-.39,2.27.16,2.74,1.49.16.44.49.67.93.88,1.83.9,2.51,2.45,2.36,4.44-.31,3.88-.94,7.77-3.51,10.79-1.89,2.21-4.82,3.31-7.68,3.33-1.97,0-3.48-1.68-4.18-3.72-.14-.42-.31-.93-.87-.88-.58.05-.68.52-.56,1.01.27,1.13-.47,1.17-1.22,1.11-.51-.04-1-.19-1.5-.3-2.1-.48-4.17-1.37-6.32-.13-.87.5-1.84.1-2.61-.2-2.78-1.08-5.52-.7-8.25.02-1.32.35-2.63.58-3.99.51-1.62-.09-3.01.63-4.24,1.47-.87.59-1.74,1.08-2.72,1.37-4.16,1.21-8.33,2.42-12.63,3.07-1.05.16-1.99-.02-2.95-.58-2.02-1.19-4.21-2.11-5.88-3.83-.95-.98-2.25-1.13-3.43-1.57,2.32-1.21,3.92.59,5.16,1.78,2.51,2.41,6.01,3.71,9.16,2.71.71-.22,1.53-.09,2.29-.22.41-.07.97-.22.89-.81-.06-.42-.5-.65-.88-.58-1.26.24-2-1.16-3.16-.84-.34-.74.22-1.01.51-1.17.77-.42,1.43-.56,1.29-1.86-.09-.89,1.09-1.63,2.26-1.54,1.11.09,1.39.74,1.06,1.75-.11.32-.09.66.27.81.42.18.76-.05,1.02-.34.84-.93,1.73-1.7,3.14-1.5.67.1.82-.44.9-.99.17-1.19,1.48-1.66,1.75-2.89.13-.6,2.96.44,3.57,1.41.47.73,3.56,1.12,4.07.46,1.17-1.49,2.58-2.28,4.52-1.83.24.06.62.1.75-.03,1.89-1.85,3.5-1,5.56,0,1.63.79,3.84-.12,5.79.39,1.28.33,2.88-.21,3.47,1.64.13.39.66.33,1.03.17,1.55-.66,3.07-1.59,4.43.49.16.24,1.71-.27,2.67.07.24.08.97-.58.86-1.3-.02-.1,0-.19.08-.27.5-.51.51-1.02.02-1.53-.64-.85-.61-1.8-.1-2.63.63-1.02,1,.64,1.66.28.15-.08.37-.03.55-.04.27-.04.44-.18.5-.45.12-.15.24-.3.36-.44.02.32.18.78.03.94-.88.94-.32,1.54.46,2.18,1.12-1.29,1.93-2.63,1.21-4.44-.14-.36-.08-.76.19-1.09.74-.87.66-1.71-.02-2.59-.35-.45-.4-.99.2-1.3.44-.24.79-.48.55-1.02-.21-.46-.65-.59-1.13-.59-.96,0-1.94.11-2.89-.03-3.23-.48-6.42-.87-9.62-1.88-2.95-.93-5.05-3.17-7.97-3.91-.97-.25-1.76-.58-2.67.11-.6.46-1.21.48-1.42-.47.24-.04.53-.03.57-.36,0-.06-.15-.22-.21-.21-.33.05-.32.33-.36.58-.95-.67-1.92-1.32-2.84-2.03-1.43-1.1-3.09-1.64-4.79-1.22-1.35.34-2.23-.2-3.17-.87-.48-.34-.87-.72-.32-1.42.51-.65.5-1.46-.05-2.12-.4-.47-.79-1.12-1.27.11-.32.83-.95,2.02-2.27.92.2-.34.52-.51.85-.73.79-.52,1.3-1.3,1.02-2.25-.31-1.06-1.34-1.14-2.22-1.11-1.57.05-2.86.65-3.43,2.27.12-.77-.5-1.97.51-2.21,1.43-.34,2.85-1.94,4.45-.38.43.42.9.27,1.04-.15.27-.78.51-1.95-.09-2.36-1.26-.87-1.31-2.29-1.48-3.35-.36-2.25-1.79-3.97-2.38-5.99-.82-2.76-2.22-4.11-5.07-4.2-.85-.03-1.02-.87-.29-1.36,1.1-.75.87-1.3.04-2.05-.46-.42-.77-1.02-1.13-1.55-.19-.28-.3-.7-.01-.87.7-.39,1.84-.52,1.52-1.59-.6-2.05.56-4.44-1.28-6.24-.65.81-1.74,1.12-2.1,2.29-.23.77-.6,1.35.2,1.97.27.21.69.48.29.92-.38.41-.82.24-1.24.05-.89-2.93.33-5.06,2.58-6.8,1.51,1.55,2.11,3.55,1.79,5.99-.04.33-.04.66.34.79.34.12.66.02.78-.34.16-.48.29-.98.38-1.48.47-2.53-1.16-4.21-2.48-5.99-.4-.54-.73-1.4-1.58-1.19-.82.2-.5,1.05-.59,1.65-.04.24-.08.58-.25.7-2.11,1.45-2.27,3.71-2.51,5.93-1.56.19-1.76,1.12-1.11,2.28.56.99.75,2.15.05,2.83s-2.05.57-2.9.08c-1.11-.63-2.21-.62-3.34-.55-1.89.12-3.72.37-5.54-.66-.72-.41-2.36-.46-2.75.02-1.78,2.13-3.77.54-5.64.63-.86.04-1.13-.42-1.07-1.2l.03-.02Zm74.2,51.64c-.07.46-.12.99.5,1.02.48.02.54-.49.53-.87-.03-.95.55-1.68.79-2.52.4-1.42,1.29-2.59,1.74-3.97.32-.97-.26-1.46-1.1-1.64-.65-.14-1.44-.14-1.36.8.23,2.5-.76,4.78-1.1,7.17h0Zm-36.21,3.71c1.44-.36,2.47.28,3.31-.47.23-.2.01-.95-.43-1.1-1.1-.37-1.88.17-2.88,1.57Zm32.32-3.51c.16,0,.32.02.49.03v-3.33c-1.23,1.08-.41,2.24-.49,3.3Zm-27.65,2.89c-.1-.04-.23-.15-.31-.12-.07.03-.1.19-.14.29.1.04.23.15.31.12.07-.03.1-.19.14-.29Z"/>
      <path class="cls-2" d="m301.34,164.25c1.94,1.2,3.16,2.87,3.82,5.08.32,1.06,1.05,2.08,1.83,2.89.88.91,1.47,1.89,1.94,3.04.75,1.82,1.48,3.64,2.85,5.15.52.57.88,1.5.91,2.28.14,2.92,1.63,5.35,2.63,7.97.61,1.62.52,3.36.15,4.92-.46,1.91-.16,3.9-.61,5.68-1.22,4.87.55,9.01,2.08,13.42,1.24,3.59,1.96,7.32,1.45,11.42-.44,3.59.35,7.45.66,11.18.28,3.34.05,6.63-3.03,9.36-1.75,1.55-3.12,3.69-5.5,5.35.3-3.15-.75-6.02.02-8.96.94-.46,1.28-1.51,2.1-2.15.55-.43.04-1.33-.7-1.62-.45-.17-.99-.14-1.57-.21,2.8-2.38,3.29-5.48,3.27-8.77,0-.9-.78-1.09-1.32-1.49-.47-.35-1.02-.62-.21-1.17.23-.1.45-.2.68-.3.11.32.09.99.51.77.54-.27-.12-.73-.18-1.12-.68-1.38-1.35-1.12-2.01.02-.84-.23-1.2-.99-1.15-1.63.05-.66.7-.1,1.09-.11.32,0,.66.1.95.02.63-.19,1.55.71,1.85-.25.27-.88-.92-.85-1.44-1.49.47-.11.9-.21,1.61-.37-1.06-.34-.47-1.96-1.91-1.73.08-.59-.19-1.24.73-1.55,1.56-.53,2.11-2.05,1.37-3.6-.22-.45-.65-.83-.54-1.38.5-2.39-1.16-4.22-1.66-6.35-.3-1.29-1.13.24-1.86.14.28-1.41.81-2.78-.26-4.06-.18-.21.1-.84.22-1.27.61-2.09,1.55-4.15,1.78-6.28.19-1.77-.15-3.76-.83-5.41-.53-1.3-.5-2.48-.43-3.71.08-1.28.52-2.6-1.41-2.85-.15-.02-.38-.21-.39-.33-.25-3.42-2.29-6.27-3.11-9.54-.47-1.88-1.31-3.69-1.34-5.7-.01-.82-.55-1.2-1.2-1.26-1.11-.11-1.16-.8-1.1-1.62.14-.13.49-.21.14-.48-.05.16-.09.32-.14.49-.15-.37-2.37.75-.68-.96.43-.44-.23-.95-.06-1.44v-.02Z"/>
      <path class="cls-2" d="m234.91,104.91c.29-2.39,1.07-4.51,2.8-6.33,1.31-1.38,2.38-3.02,3.36-4.65.76-1.26.04-2.55-.65-3.59-.95-1.45-1.92-2.84-1.96-4.66,0-.3-.14-.65-.33-.87-1.73-1.98-1.41-4.02-.08-5.99,2.15-3.18,3.83-6.79,7.65-8.5.86-.39,1.4-1.28,1.92-2.1.68-1.07,1.43-1.48,2.2,0,.36.67.76,1.39,1.32,1.88,1.34,1.17,1.4,2.61.8,4.03-.47,1.09-.16,1.53.68,2.17,1.25.95,2.17,2.2,1.92,3.94-.97-.58-.88-1.96-1.87-2.51-.43-.24-.9-.39-1.38-.6-.5,1.7.29,3.44-.27,5.11-.36-.92-.16-1.9-.31-2.83-.22-1.44-.02-2.98-.67-4.3-.54-1.09-1.32-2.01-1-3.37.17-.74-.56-1.05-.89-.55-1.02,1.58-3.21,1.87-3.92,3.71-.47,1.21-1.34,1.95-2.48,2.53-1.69.86-2.37,2.64-1.83,4.38.11.36.12.76.18,1.14-.8-.63-1.12-1.59-1.76-2.4-.41,2.74.52,5.16,1.71,7.55.78,1.56,1.83,3,1.9,4.9.05,1.26-.28,2.43-1.03,3.19-1.33,1.33-1.96,3.15-3.43,4.36-1.21,1-.87,2.78-1.8,3.97-.23.29-.44.42-.77.45v-.05Zm16.09-30.96c.06-.52.16-.89.13-1.25-.04-.53.26-1.18-.38-1.55-.12-.07-.4-.02-.5.08-.46.49.02.95.1,1.42.07.4-.15.91.65,1.3Z"/>
      <path class="cls-2" d="m242.68,144.25c-.2-.14-.54-.26-.57-.43-.73-3.89-2.5-7.52-2.82-11.5-.05-.68-.48-1.22-.9-1.67-2.93-3.13-4.18-7.47-7.49-10.34-.76-.66-.46-1.68-.5-2.56-.14-3.42,1.42-6.34,2.93-9.21.63-1.19.89-2.51,1.61-3.63.56,2.32-.51,4.2-1.74,5.96-1.58,2.25-1.14,4.89-1.65,7.35-.09.45.09,1.09.37,1.46,1.34,1.75,2.98,3.28,3.68,5.5.18.57.9.81,1.46.38,1.13-.87,1.89.11,2.37.68.57.68-.34,1-.9,1.3-.29.16-.46.46-.4.81.07.37.38.43.71.52,1.81.49,2.21,1.44,1.18,2.87-.07.1-.16.2-.23.31-.23.41,0,.76.19,1.07,1.27,2.03-.35,5.25,2.68,6.55h0v4.6l.02-.02Z"/>
      <path class="cls-4" d="m266.33,107.87c1.72-.56,3.44-.88,5.21-.41.64.17,1.03.14,1.45-.43.47-.63,1.14-.79,1.8-.19.87.78,1.97,1.45,2.12,2.73.07.63-3.26,2.96-3.96,2.92-3.13-.21-5.01-1.51-6.62-4.61h0Z"/>
      <path class="cls-4" d="m326.6,131.5c-.19,0-.41-.04-.55.04-.66.36-1.03-1.3-1.66-.28-.51.82-.55,1.77.1,2.63,0,.51-.01,1.02-.02,1.53-.08.08-.1.17-.08.27-2,.34-1.24-1.53-1.47-2.21-.75-2.25.35-4.47,2.39-5.84.58-.39,1.13-.93,1.9-.56.8.39.6,1.22.6,1.88,0,.55-.22,1.1-.35,1.66-.12.15-.24.29-.36.44-.17.15-.33.3-.5.45h0Z"/>
      <path class="cls-4" d="m285.9,108.06c.57-1.62,1.86-2.22,3.43-2.27.89-.03,1.91.06,2.22,1.11.28.95-.23,1.74-1.02,2.25-.33.21-.65.38-.85.73-.48.27-.73.86-1.39.88-1.27.04-2.84.53-2.29-1.78.07-.29-.06-.62-.1-.93h0Z"/>
      <path class="cls-2" d="m244.16,219.16c-1.45-1.25-.92-3.04-.69-4.39.31-1.77.13-3.29-.51-4.87.55-.48.5-1.48,1.54-1.6.28-.03.51-1.1,1.04-.4.38.51.55,1.55-.26,1.81-1.32.42-1.25,1.17-.69,2,.68,1.01-.48,1.58-.42,2.47.12,1.65,0,3.31-.02,4.97h.01Z"/>
      <path class="cls-2" d="m308.99,236.67c-.68-1.66-.69-3.31.11-4.95.96-1.23,2.2-1.45,3.08-.24.54.73.36,1.87-.29,2.75-.32.43-.72.37-.98.17-2.03-1.55-1.85.03-1.89,1.31,0,.32-.02.64-.03.96h0Zm.77-4.47c-.02.07-.04.14-.06.2.04-.05.08-.1.12-.15.04-.06.09-.13.13-.19-.06.04-.13.09-.19.13h0Zm-.12,1.11c1.05.05,1.62.32,1.9-.32.08-.17-.07-.63-.21-.68-.73-.24-.71.66-1.68,1h-.01Z"/>
      <path class="cls-2" d="m258.11,142.21c1.74-.56,3.32-1.89,5.36-.83,1.05.55,1.28.96.24,1.67-1.35.93-2.72,1.83-4.08,2.74.54-1.87,2.44-2.27,3.9-3.54-1.55-.35-2.81-.64-4.11.26-.3.21-1.18,1.05-1.31-.31h0Z"/>
      <path class="cls-2" d="m235,193.49c.8.83,1.17,1.86.95,2.97-.36,1.87.27,3.82-.49,5.65-.74-.31-.5-.97-.51-1.5,0-2.37.02-4.74.04-7.11h.01Z"/>
      <path class="cls-2" d="m242.67,139.65c.27-1.66,1.91-2,2.88-2.99.19-.2.66-.07.82.24.09.19.08.58-.05.7-1.04.99-1.72,2.63-3.64,2.06h-.01Z"/>
      <path class="cls-2" d="m244.17,130.91c-.07.73-.49,1.02-1.15,1-.47-.02-1.05-.23-.92-.71.14-.53.57-1.25,1.02-1.38.51-.14.91.53,1.06,1.09h-.01Z"/>
      <path class="cls-5" d="m248.53,208.23c-.43-.11-1.06-.13-1.11-.77-.06-.7.52-.58.95-.53.52.06,1.1.17,1.09.83,0,.47-.46.54-.94.48h.01Z"/>
      <path class="cls-5" d="m242.1,202.64c.62.08.56.61.67,1.01.14.55-.07.92-.66.86-.46-.04-.88-.28-.78-.87.08-.45.26-.86.77-1Z"/>
      <path class="cls-5" d="m243.75,164.38c-.03.43.06,1.09-.5,1.05-.78-.06-.78-.89-.91-1.48-.1-.41.13-.83.56-.81.73.03.87.61.85,1.24h0Z"/>
      <path class="cls-5" d="m311.12,226.99c.66-1.14,1.32-1.4,2.01-.02-.11.12-.22.23-.33.35-.23.1-.45.2-.68.3-.33-.21-.66-.42-1-.62h0Z"/>
      <path class="cls-5" d="m226.78,238.61c0,.52-.16.9-.59.96-.55.08-.81-.3-.81-.82,0-.42.22-.75.67-.78.49-.03.61.35.72.64h0Z"/>
      <path class="cls-5" d="m231.44,171.96c-.14.57-.59.77-1.12.79-.48.03-.93-.1-.81-.72.12-.61.64-.71,1.17-.71.4,0,.75.11.76.64h0Z"/>
      <path class="cls-5" d="m241.91,197.79c-.68-.1-.77-.61-.79-1.13,0-.35.17-.63.56-.61.64.03.83.51.89,1.03.06.47-.25.67-.67.71h0Z"/>
      <path class="cls-5" d="m239.52,160.16c-.05.55-.45.57-.84.58-.44,0-.72-.23-.8-.66-.09-.51.22-.7.66-.67.47.04.84.26.97.74h0Z"/>
      <path class="cls-2" d="m312.12,221.42c-.12.57.25,1.36-.72,1.5-.24.03-.64,0-.56-.3.16-.61.57-1.08,1.28-1.2Z"/>
      <path class="cls-2" d="m244.99,222.15c-.6-.91-.55-2.01-.84-3.01,1.43.68.6,1.99.84,3.01Z"/>
      <path class="cls-2" d="m243.93,141.01c-.11.05-.21.14-.31.14-.09,0-.18-.11-.27-.17.1-.05.2-.14.29-.13.09,0,.18.1.29.17h0Z"/>
      <path class="cls-13" d="m229.68,268.29c3.78.34,7.69.97,11.67.98,4.86,0,8.26-2.76,8.45-7.65.04-1.08,1.11-2.63-.78-3.41-.3-.12-.25-.75-.03-1.07.36-.52.95-.4,1.41-.23,1.54.56,3.1,1.09,4.56,1.83,3.73,1.87,3.49,1.87,2.61,6.31-.74,3.73-2.47,7.05-3.53,10.64-.7,2.39-.65,4.95-1.81,7.24-.35.68-.62,1.43-1.13,1.98-.54.58-1.44,1.04-2.05.38-1.6-1.76-3.74-2.05-5.85-2.51-4.49-.97-8.51-3.15-12.6-5.09-4.04-1.92-8.24-3.71-11.84-6.29-4.12-2.94-9.05-4.1-13.17-6.92-1.4-.96-3.37-.74-4.7-2.22-.5-.55-.84-.81-.59-1.49,1.27-3.45,1.73-7.13,2.66-10.67,1.04-4,2.76-7.84,3.19-12.01.18-1.7,1.07-2.04,2.49-1.16,1.35.85,2.69,1.72,4.06,2.54.88.53.62,1.33.58,2.06-.23,3.91-.68,7.76.68,11.65.53,1.53.99,3.24,1.15,4.98.26,2.83,3.94,6.56,6.7,7.12.56.11.98.37,1.26.78,1.59,2.35,3.85,2.78,6.61,2.21v.02Z"/>
      <path class="cls-13" d="m272.26,257.66c2.33-.05,2.73.49,2.1,2.21-1.03,2.79-2.23,5.52-3.11,8.35-1.22,3.9-2.86,7.67-3.78,11.67-.08.36-.09.94-.52.94-2.82-.02-4.8,2.33-7.6,2.53-1.48.11-3.1.67-4.33,1.78-.55.5-1.2.63-1.73.17-.59-.51-.08-1.04.27-1.49.57-.75.81-1.7.81-2.53,0-5.1,2.94-9.34,4.06-14.1.32-1.36.51-2.75,1.11-4.04.71-1.52,1.43-2.95,3.31-3.33,3.34-.67,6.72-1.18,9.43-2.14l-.02-.02Z"/>
      <path class="cls-13" d="m253.24,244.49c.52.15,1.01.27,1.49.43,3.63,1.28,7.23,2.65,10.09,5.31,1.42,1.32,3.27,1.69,4.87,2.6,1.38.8,2.65,1.67,3.68,2.88-1.34.74-2.95.69-4.27,1.32-2.64,1.24-5.7.63-8.26,2.09-.48.28-1.17.3-1.69.02-3.05-1.68-6.58-2.34-9.41-4.45-1.19-.88-2.26-1.84-1.83-3.63.2-.85.26-1.84-.17-2.65-.62-1.16-.06-1.8.82-2.36,1.43-.91,3.06-1.21,4.69-1.57h0Z"/>
      <path class="cls-11" d="m262.02,145.85c.63-.06,1.2.11,1.42.72.21.56.1,1.21-.4,1.57-2.23,1.64-3.96,3.8-6,5.64-.9.81-1.55.07-2.17-.37-.77-.55-.52-1.19.08-1.76,1.99-1.87,3.96-3.76,5.98-5.59.23-.21.72-.15,1.09-.21h0Z"/>
      <path class="cls-11" d="m263.08,144.79c1.2-.23,1.46-2.28,3.04-1.13.89.64.05,1.08-.28,1.55-1.04,1.48-1.75.3-2.75-.42h0Z"/>
      <path class="cls-4" d="m329.23,135.32c.34-2.39,1.34-4.68,1.1-7.17-.09-.94.71-.95,1.36-.8.84.19,1.42.67,1.1,1.64-.46,1.37-1.34,2.55-1.74,3.97-.24.84-.81,1.58-.79,2.52.01.38-.06.89-.53.87-.62-.03-.57-.56-.5-1.02h0Z"/>
      <path class="cls-8" d="m293.02,139.03c1-1.4,1.78-1.95,2.88-1.57.45.15.66.9.43,1.1-.84.75-1.87.11-3.31.47Z"/>
      <path class="cls-8" d="m325.34,135.51c.08-1.06-.74-2.22.49-3.3v3.33c-.16,0-.32-.02-.49-.03Z"/>
      <path class="cls-8" d="m324.47,135.41c0-.51.01-1.02.02-1.53.49.52.49,1.03-.02,1.53Z"/>
      <path class="cls-8" d="m304.39,116.51c.03-.25.03-.53.36-.58.06,0,.22.15.21.21-.04.33-.33.32-.57.36h0Z"/>
      <path class="cls-8" d="m297.68,138.4c-.05.1-.07.26-.14.29-.08.03-.2-.07-.31-.12.05-.1.07-.27.14-.29.08-.03.2.07.31.12Z"/>
      <path class="cls-8" d="m326.6,131.5c.17-.15.33-.3.5-.45-.06.27-.23.42-.5.45Z"/>
      <path class="cls-8" d="m312.79,227.31c.11-.12.22-.23.33-.35.06.39.71.85.18,1.12-.42.21-.4-.45-.51-.77h0Z"/>
      <path class="cls-8" d="m302.07,166.65c.05-.16.09-.32.14-.49.35.28,0,.35-.14.48h0Z"/>
      <path class="cls-8" d="m309.65,233.31c.97-.33.95-1.24,1.68-1,.14.05.29.5.21.68-.28.63-.84.36-1.9.32h.01Z"/>
      <path class="cls-8" d="m309.83,232.26s-.08.1-.12.15c.02-.07.04-.14.06-.2l.06.06h0Z"/>
      <path class="cls-8" d="m309.77,232.2c.06-.04.13-.09.19-.13-.04.06-.09.13-.13.19l-.06-.06Z"/>
    </g>
  </g>
  <path class="cls-7" d="m40.18,28.83c3.03.16,4.55.21,7.6.21,2.95,15.23,4.25,22.87,5.87,35.08-2.91.86-4.37,1.3-7.28,2.17-2.06-12.49-4.12-24.97-6.18-37.46h0Z"/>
  <path class="cls-7" d="m440.03,30.76c2.37-.49,3.56-.74,5.94-1.26,1.21,16.21-.97,23.09-3.85,27.18-2.22.05-3.33.09-5.53.17,2.85-3.34,4.76-10.25,3.44-26.09Z"/>
  <path class="cls-7" d="m450.5,31.5c2.39-.55,3.58-.83,5.97-1.4.17,2.82.09,4.32-.15,7.26-2.36.5-3.54.74-5.89,1.22.19-2.86.25-4.32.07-7.08Zm1.42,28.19c-2.25,0-3.37,0-5.6.05,2.14-3.61,2.5-4.8,3.79-17.4,2.33-.44,3.49-.66,5.83-1.13-1.52,12.92-1.91,14.13-4.01,18.48h0Z"/>
  <path class="cls-7" d="m462.69,24.18c2.45-.6,3.67-.91,6.12-1.53.4,9.56-1.88,15.88-2.54,23.29,3.41-4.43,5.6-7.29,9.65-13.3,3.04-.65,4.56-.97,7.6-1.62-4.45,6.33-6.85,9.33-10.58,13.91,2.91,5.76,3.85,5.24,6.67,10.9-2.9-.17-4.34-.25-7.2-.37-1.66-3.37-2.51-5.9-3.73-6.52-1.45.46-2.16.81-3.57,1.56-.68,1.49-.94,2.84-1.53,4.68-2.33-.05-3.5-.07-5.81-.09,5.05-8.48,4.17-21.63,4.93-30.91h0Z"/>
  <path class="cls-7" d="m481.27,45.52c1.89-2.21,6.44-17.56,14.1-19.17,5.9-1.24,7.6,7.6,7.18,15.86-.02.32-.08.37-.14.64-6.19.72-9.28,1.14-15.43,2.03-.52,1.82.55,5.48,4.09,5.47,2.63,0,4.16-2.85,4.54-4.42,2.46-.18,3.69-.27,6.16-.42-.65,3.58-3.21,11.42-11.18,10.63-8.87-.88-10.56-9.17-9.32-10.61h0Zm15.44-5.91c.21-2.09-.05-6.07-3.29-5.49-2.46.44-4.89,3.28-5.92,6.95,3.68-.61,5.52-.9,9.21-1.46h0Z"/>
  <path class="cls-7" d="m26.16,381.16c-3.58-9.5-2.46-11.28.4-19.58-1.52-.18-2.28-.27-3.8-.44,1.13-3.42,1.85-5.25,3.03-8.82,1.56.21,2.34.33,3.9.56,1.51-4.33,2.26-6.53,2.66-10.31,2.49.5,3.73.76,6.23,1.29-.44,3.61-1.23,5.74-2.82,9.95,2.23.35,3.34.54,5.57.91-1.34,3.32-2.15,5.05-3.44,8.3-2.17-.29-3.26-.43-5.43-.71-2.75,7.46-4.12,9.11-.98,17.31,1.28,3.34,3.14,4.38,5.33,4.49.88.04,1.32.06,2.2.11,1.97,3.55,3.24,5.44,5.44,9.06-.53.08-1.87.16-3.83.14-4.6-.03-10.84-2.6-14.47-12.26h.01Z"/>
  <path class="cls-7" d="m49.55,348.49c2.4.6,3.61.91,6.01,1.53.08,5.08-2.51,9.12-5.8,16.18.03,0,.05,0,.08.01,1.9-2.34,6.09-5.5,10.15-4.76,4.66.85,5.41,5.35,2.25,12.22-6.28,8.96,6.27,18.36,11.2,23.41-2.71.07-4.07.1-6.79.14-8.89-9.95-13.85-13.93-11.25-21.76.74-2.23,2.13-6.12-1.28-6.61-2.7-.39-6.73,2.32-7.79,6.9-1.67,7.24,2.81,11.78,10.13,21.58-2.73.02-4.09.02-6.82.02-13.46-21.97-3.35-26.66-.09-48.88v.02Z"/>
  <path class="cls-7" d="m76.6,357.3c2.45.63,3.67.94,6.11,1.54-.04,1.59-.61,2.7-2.02,5.15-2.4-.45-3.61-.68-6.02-1.15,1.36-2.59,1.91-3.77,1.93-5.54Zm8.94,41.27c-2.62.1-3.94.15-6.59.23-12.66-11.98-17.58-17.23-6.33-32.38,2.38.4,3.57.6,5.94.98-11.95,14.92-6.26,19.95,6.97,31.17h.01Z"/>
  <path class="cls-7" d="m81.2,386.96c2.4.1,3.59.14,5.98.21,2.43,2.37,6.51,4.25,10.08,4.18,3.1-.06,1.5-1.48-.38-2.87-2.15-1.59-4.12-2.27-6.66-2.98-2.04-.57-3.02-.86-4.89-1.46-3.46-1.1-6.53-3.14-3.97-7.85s8.77-9.4,15.79-8.46c4.39.59,7.04,2.51,2.68,10.04-2.23-.11-3.35-.17-5.59-.32.82-1.76,1.49-3.55-1.65-3.85-2.4-.23-4.25.86-5.17,2.37-1.14,1.88-.32,2.75,1.53,3.59,1.72.77,2.6,1.14,4.41,1.83,2.58.97,3.14,2.5,8.21,6.26,9.69,7.21,8.76,9.79,5.01,9.95-9.04.39-18.68-4.48-25.38-10.64h0Z"/>
  <g>
    <path class="cls-7" d="m420.44,384.8c2.23,0,3.34,0,5.55.02,1.94,2.36,5.08,4.3,7.94,4.36,2.48.05,1.67-1.5.53-3.03-1.3-1.75-2.96-2.48-5.28-3.15-1.87-.54-2.81-.8-4.65-1.29-3.42-.91-6.18-1.07-5.19-3.6s5.22-5.49,10.99-5.64c3.61-.09,6.38,1.33,6.66,5.96-2.11-.03-3.17-.05-5.3-.07-.1-1.02-.43-2.21-3.26-2.22-2.16,0-3.35.75-3.6,1.62-.32,1.08.71,1.44,2.76,1.78,1.9.31,2.87.45,4.82.67,2.77.31,4.15.78,6.62,5.16,4.73,8.37,3.45,10.59,1.06,10.52-3.33-.1-12.6-3.7-19.65-11.07v-.02Z"/>
    <path class="cls-7" d="m442.24,375.7c.41-1.14,5.45-8.85,10.28-9.22s10.86,8.89,11.09,10.45-1.46,15.18-5.37,14.85c-3.9-.33-16.42-14.94-16.01-16.08h.01Zm12.76,9.04c3.57.23,3.12-7.81,3.08-8.28-.04-.5-2.04-5.28-5.92-5.27s-4.14,4.27-4.23,4.7c-.08.41,3.46,8.62,7.06,8.85h.01Z"/>
    <path class="cls-7" d="m464.57,359.87c1.83-.17,2.74-.26,4.56-.45-.07,1.61.09,2.54.5,4.32h.07c.14-2.12,2.07-5.33,5.17-5.75,3.56-.48,6.39,4.29,9.06,11.41,3.52,9.4.07,10.13-1.2,19.06-1.75-.37-2.61-.55-4.32-.87.52-8.09,3.58-10.6,1.3-16.54-.65-1.69-2.41-5.57-5.26-5.61-2.26-.04-3.13,3.12-2.26,5.49,1.38,3.74-.6,7.85-.05,15.57-1.65-.26-2.47-.38-4.09-.59-2.31-13.42-4.38-15.69-3.47-26.03h0Z"/>
    <path class="cls-7" d="m492.14,355.08c2.96-.53,4.71,3.83,5.95,7.25h.06c-.66-2.74-.94-4.14-1.1-6.73,1.79-.28,2.69-.43,4.47-.72,3.12,14.28,7.62,24.35,2.62,38.2-2.07,6.57-6.94,9.81-12.29,8.91-3.82-.64-6.91-2.78-5.57-11.01,1.9.43,2.86.66,4.85,1.15-.31,2.14.37,3.82,2.44,4.3,2.6.61,4.41-1.21,5.34-4.13.54-1.73.82-2.61,1.36-4.32-.03,0-.04-.01-.07-.02-2.16,2.71-4.38,3.35-6.37,2.82-5.44-1.45-4.35-12.87-4.19-15.8.18-3.46-1.7-19.13,2.5-19.87v-.03Zm10.81,24.37c.98-3.63-4.21-12.54-7.31-12.78-3-.23-.75,7.55-.87,9.7-.09,1.61-1.34,7.56,1.83,8.52,3.14.95,5.42-2.02,6.35-5.44Z"/>
  </g>
</svg>