<?xml version="1.0" encoding="utf-8"?>
<!-- Generator: Adobe Illustrator 27.9.0, SVG Export Plug-In . SVG Version: 6.00 Build 0)  -->
<svg version="1.1" id="Layer_1" xmlns="http://www.w3.org/2000/svg" xmlns:xlink="http://www.w3.org/1999/xlink" x="0px" y="0px"
	 viewBox="0 0 400 325.6" style="enable-background:new 0 0 400 325.6;" xml:space="preserve">
<style type="text/css">
	.st0{fill:#FFF200;}
	.st1{fill:#FFF200;stroke:#000000;stroke-width:2;stroke-miterlimit:10;}
	.st2{fill:#FFFFFF;stroke:#000000;stroke-width:2;stroke-miterlimit:10;}
	.st3{fill:#FFFFFF;}
</style>
<rect y="170.6" width="400" height="154.9"/>
<path class="st0" d="M200,170.6c47.1,0,89.2,10.3,127.8,27.6c27.3,12.3,50.5,27.5,70.4,44.9c1.5,1.3,3,2.3,0.8,4.2
	c-34.4,30-76.6,53.2-131,65.5c-58.4,13.2-114.9,9.3-169.2-9.6c-39-13.5-70.8-32.6-97.2-55.8c-1.5-1.3-1.7-2.2-0.1-3.6
	c38.3-33.3,85.9-57.9,147.9-69C165.8,171.9,182.8,170.7,200,170.6z M200.2,197.1c-40.9,0.1-73.2,21.5-73.3,48.5
	c0,26.8,32.7,48.4,73.1,48.3c40.9-0.1,73.3-21.6,73.2-48.6C273.2,218.7,240.6,197.1,200.2,197.1z M259.6,194.8
	c23.9,13.3,36.8,30.1,36.9,50.7c0.1,20.6-13.1,37.4-36.8,50.8c44.7-9.6,80.7-27.1,110.6-50.8C340,221.7,304,204.3,259.6,194.8z
	 M140.5,194.8C96,204.3,60,221.8,30.2,245.3c21.3,20.3,85.4,49.8,110.3,50.7C90.9,269.5,91.9,220.7,140.5,194.8z"/>
<path class="st1" d="M199.9,183.1c40.4-0.1,73,21.5,73.1,48.3c0,27-32.4,48.5-73.2,48.6c-40.3,0.1-73.1-21.6-73.1-48.3
	C126.7,204.6,159,183.2,199.9,183.1z M237,240.8c7-9.4,1.4-23.3-12.3-30.1c-16.2-8.1-37.7-7.5-52.4,1.5
	c-13.7,8.4-16.5,22.5-6.7,33.1c8.5,9.2,27.4,15,39,12c-4.1-8.2-2.6-13.3,5.1-17.4C217.2,236.1,225.8,236.3,237,240.8z"/>
<path class="st1" d="M259.6,180.8c44.4,9.5,80.4,27,110.7,50.7c-29.8,23.7-65.9,41.2-110.6,50.8c23.7-13.4,36.9-30.2,36.8-50.8
	C296.4,210.9,283.4,194.1,259.6,180.8z"/>
<path class="st1" d="M135.7,181.1c-48.6,25.9-49.6,74.8,0,101.3c-24.9-1-89-30.4-110.3-50.7C55.2,208.2,91.3,190.7,135.7,181.1z"/>
<path class="st2" d="M236.9,228c-11.2-4.5-19.8-4.8-27.2-0.8c-7.7,4.1-9.2,9.2-5.1,17.4c-11.6,3-30.5-2.9-39-12
	c-9.9-10.6-7-24.7,6.7-33.1c14.7-9,36.2-9.6,52.4-1.5C238.3,204.8,243.9,218.6,236.9,228z"/>
<path class="st3" d="M0.3,170.6h14c6.8,0,9.7,3.5,9.7,8.2c0,4.9-3.3,6.6-5.1,7v0.1c1.4,0.4,4.6,1.6,4.8,7.5c0.1,2.2,0.2,5.4,1,6.3
	v0.4h-6.6c-0.6-1.4-0.8-3.7-1-6c-0.4-4-1.8-6.1-5.8-6.1h-5v12.1H0.3V170.6z M13.2,183.2c3.1,0,4.9-1.1,4.9-3.7
	c0-2.5-1.3-3.7-4.2-3.7H6.2v7.5H13.2z"/>
<path class="st3" d="M374.6,190.6h6.2c0,1.6,0.8,4.7,6.3,4.7c3,0,6.4-0.7,6.4-3.6c0-2.2-2-2.8-5.2-3.5l-3.3-0.7
	c-5-1.1-9.7-2.3-9.7-8.5c0-3.9,3.4-8.4,12-8.4c9.4,0,11.9,5.9,12,9.3h-6.3c-0.2-1.3-0.5-4.5-6.1-4.5c-2.5,0-5.4,0.8-5.4,3.4
	c0,2.2,1.6,2.6,4.6,3.3l5.7,1.3c4.2,0.9,7.9,2.5,7.9,7.6c0,8.4-9.5,9.2-12.2,9.2C376.5,200.2,374.6,194.1,374.6,190.6z"/>
<path class="st3" d="M0,305.3c0-4.8,1.2-10,4.7-12.9c1.8-1.5,4-2.6,7.4-2.6c6.3,0,9.7,3.3,10.2,8.2h-6c-0.2-2.2-1.6-3.5-4.4-3.5
	c-4.5,0-6.3,4.9-6.2,9.1l0.1,0.1c1.7-2.3,4.3-3.5,7.3-3.5c5.5,0,9.4,4.2,9.4,9.6c0,6.1-4.4,10.8-10.7,10.8
	C2.9,320.6,0,312.8,0,305.3z M11.7,315.7c3.1,0,5.1-2.2,5.1-5.4s-1.7-5.6-5.1-5.6c-3.3,0-5.2,2.3-5.2,5.5
	C6.5,313.3,8.4,315.7,11.7,315.7z"/>
<g>
	<path class="st3" d="M352.7,305.3c0-4.8,1.2-10,4.7-12.9c1.8-1.5,4-2.6,7.4-2.6c6.3,0,9.7,3.3,10.2,8.2h-6
		c-0.2-2.2-1.6-3.5-4.4-3.5c-4.5,0-6.3,4.9-6.2,9.1l0.1,0.1c1.7-2.3,4.3-3.5,7.3-3.5c5.5,0,9.4,4.2,9.4,9.6
		c0,6.1-4.4,10.8-10.7,10.8C355.6,320.6,352.7,312.8,352.7,305.3z M364.4,315.7c3.1,0,5.1-2.2,5.1-5.4s-1.7-5.6-5.1-5.6
		c-3.3,0-5.2,2.3-5.2,5.5C359.2,313.3,361.1,315.7,364.4,315.7z"/>
	<path class="st3" d="M377.7,305.3c0-4.8,1.2-10,4.7-12.9c1.8-1.5,4-2.6,7.4-2.6c6.3,0,9.7,3.3,10.2,8.2h-6
		c-0.2-2.2-1.6-3.5-4.4-3.5c-4.5,0-6.3,4.9-6.2,9.1l0.1,0.1c1.7-2.3,4.3-3.5,7.3-3.5c5.5,0,9.4,4.2,9.4,9.6
		c0,6.1-4.4,10.8-10.7,10.8C380.6,320.6,377.7,312.8,377.7,305.3z M389.3,315.7c3.1,0,5.1-2.2,5.1-5.4s-1.7-5.6-5.1-5.6
		c-3.3,0-5.2,2.3-5.2,5.5C384.1,313.3,386.1,315.7,389.3,315.7z"/>
</g>
<rect x="0.2" y="-4.9" class="st0" width="399.8" height="175.6"/>
<g>
	<path d="M-0.2,51.1h11.4v7.6h0.2c2.4-4.5,6.7-8.8,13.8-8.8c0.7,0,2.3,0.1,3.1,0.2V62h-4.2c-9.1,0-12.4,5.1-12.4,10.5v24.2H-0.2
		V51.1z"/>
	<path d="M31.9,84.6c0-8.6,6.3-12.3,14-13.7l8.3-1.6c4.9-0.9,6.8-2.2,6.8-4.7c0-3-2.7-4.6-7.2-4.6c-6.6,0-8.8,3.5-8.7,6.5H33.4
		c0.8-12.3,11.1-16.6,21-16.6c6.5,0,18.4,2.7,18.4,13.6v24.6c0,4.1,0.8,6.7,1.8,7.8v0.8H62.4c-0.6-1.1-1-2.9-1.1-4.6
		c-2.1,2.6-6.8,5.7-14.1,5.7C39.4,97.9,31.9,93.3,31.9,84.6z M50.4,89.2c5.7,0,10.5-4.2,10.5-7.8V74c-1.1,1.5-3.9,2.6-7.8,3.3
		c-4.7,0.9-9.1,2.2-9.1,6.4C44,87.3,46.8,89.2,50.4,89.2z"/>
	<path d="M83.1,51.1h11.4v6.5h0.2c1.5-3.1,6.3-7.6,14.2-7.6c9.1,0,15.8,5.1,15.8,14.8v32h-11.9V68.3c0-3.2-1-8.3-7.8-8.3
		c-5.4,0-10,3.5-10,10.2v26.5H83.1V51.1z"/>
	<path d="M132.5,74.7c0-15.3,8.1-24.8,19.1-24.8c7.7,0,11.5,4.1,12.6,6.9h0.2V35.5h11.8v61.2h-11.5v-5.6h-0.2
		c-2.9,5-7.3,6.7-12.3,6.7C138.5,97.9,132.5,87.3,132.5,74.7z M154.4,88.3c7.6,0,10.5-6.5,10.5-13.3c0-7.2-2.3-14.4-10.1-14.4
		c-7.6,0-10,6.7-10,13.9C144.7,80,146.8,88.3,154.4,88.3z"/>
	<path d="M183.8,73.9c0-16.4,10.7-24,22.6-24s22.6,7.5,22.6,24s-10.7,24-22.6,24S183.8,90.3,183.8,73.9z M206.4,88.3
		c9.1-0.1,10.7-8.4,10.7-14.4c0-6.3-1.8-14.4-10.7-14.4c-8.9,0-10.7,8-10.7,14.4C195.7,80,197.3,88.3,206.4,88.3z"/>
	<path d="M236.7,51.1h11.4v6.5h0.2c1.4-3.1,5-7.6,12.4-7.6c6,0,11.3,2.6,13.9,7.5c1.7-3.1,6.8-7.5,13.7-7.5
		c8.4,0,15.4,5.1,15.4,14.8v32h-11.9v-29c0-3.2-0.9-7.7-6.8-7.7c-5.1,0-8.8,3.1-8.8,9.8v27h-11.9v-29c0-3.2-1-7.7-6.9-7.7
		c-5,0-8.7,3.1-8.7,9.8v27h-11.9V51.1z"/>
	<path d="M311,82.2h12c0,3.7,2.3,6.5,9.2,6.5c6,0,7.4-2.2,7.4-4.6c0-2.7-2.9-3.8-7.1-4.9l-8.4-2.2c-6.2-1.6-11.8-5.2-11.8-12.4
		s4.6-14.8,18.4-14.8c8.6,0,18.4,2.6,19.4,15h-11.4c-0.5-2.8-1.8-5.6-8.1-5.6c-4.8,0-6.8,1.8-6.8,4.1c0,2.9,2.3,4.1,6.7,5.3
		l10.2,2.7c5.8,1.5,10.5,4.5,10.5,11.2c0,12.9-12.9,15.2-19.8,15.2C321.8,97.9,311.4,94,311,82.2z"/>
	<path d="M358.3,35.5h11.4v22.1h0.2c1.5-3.1,6.3-7.6,14.2-7.6c9.1,0,15.8,5.1,15.8,14.8v32h-11.9V68.3c0-3.2-1-8.3-7.8-8.3
		c-5.4,0-10,3.5-10,10.2v26.5h-11.9V35.5z"/>
</g>
<path d="M209.7,170.8v-12.7h12.6v12.7H209.7z"/>
<g>
	<path d="M0,108.4h11.7v10.4H0V108.4z M11.7,170.8H0v-46.5h11.7V170.8z"/>
	<path d="M26.1,158.7v-24.6h-7.7v-10h7.7v-12.3h12v12.3h11v10h-11v22.5c0,3.7,2.3,4.6,6.5,4.6h4.2v9.4c-1,0.1-3.4,0.2-6.9,0.2
		C33.9,170.8,26.1,168.7,26.1,158.7z"/>
	<path d="M53.7,139.9c0-9.6,2.4-20.2,9.6-26c3.7-3.1,8.1-5.1,15.1-5.1c12.8,0,19.8,6.6,20.8,16.5H87c-0.5-4.5-3.4-7-8.9-7
		c-9.1,0-12.8,10-12.7,18.2l0.2,0.2c3.5-4.7,8.7-7,14.9-7c11.2,0,19.2,8.4,19.2,19.4c0,12.2-8.9,21.8-21.9,21.8
		C59.6,170.8,53.7,155,53.7,139.9z M77.4,160.8c6.3,0,10.3-4.4,10.3-10.9s-3.5-11.2-10.3-11.2c-6.8,0-10.6,4.6-10.6,11
		C66.8,156.1,70.8,160.8,77.4,160.8z"/>
	<path d="M104.5,139.9c0-9.6,2.4-20.2,9.6-26c3.7-3.1,8.1-5.1,15.1-5.1c12.8,0,19.8,6.6,20.8,16.5h-12.2c-0.5-4.5-3.4-7-8.9-7
		c-9.1,0-12.8,10-12.7,18.2l0.2,0.2c3.5-4.7,8.7-7,14.9-7c11.2,0,19.2,8.4,19.2,19.4c0,12.2-8.9,21.8-21.9,21.8
		C110.5,170.8,104.5,155,104.5,139.9z M128.3,160.8c6.3,0,10.3-4.4,10.3-10.9s-3.5-11.2-10.3-11.2c-6.8,0-10.6,4.6-10.6,11
		C117.7,156.1,121.6,160.8,128.3,160.8z"/>
	<path d="M155.4,139.9c0-9.6,2.4-20.2,9.6-26c3.7-3.1,8.1-5.1,15.1-5.1c12.8,0,19.8,6.6,20.8,16.5h-12.2c-0.5-4.5-3.4-7.1-8.9-7.1
		c-9.1,0-12.8,10-12.7,18.2l0.2,0.2c3.5-4.7,8.7-7.1,14.9-7.1c11.2,0,19.2,8.4,19.2,19.4c0,12.2-8.9,21.8-21.9,21.8
		C161.3,170.8,155.4,155,155.4,139.9z M179.1,160.8c6.3,0,10.3-4.4,10.3-11s-3.5-11.2-10.3-11.2c-6.8,0-10.6,4.6-10.6,11
		C168.5,156.1,172.5,160.8,179.1,160.8z"/>
	<path d="M228.8,148.1c0-14.7,7.6-25.2,23-25.2c7.6,0,20,3.2,21.1,17.5h-12.5c-0.5-3-2.4-7.8-8.6-7.8c-8.1,0-10.2,7.7-10.2,13.5
		c0,5.1,0.8,15.3,10.2,15.3c6.4,0,8.5-5.7,8.6-8.4h12.5c-0.3,5.3-4.3,17.8-21.4,17.8C234.1,170.8,228.8,157.7,228.8,148.1z"/>
	<path d="M278.7,146.8c0-16.4,10.8-24,22.8-24c12,0,22.8,7.5,22.8,24s-10.8,24-22.8,24C289.5,170.8,278.7,163.2,278.7,146.8z
		 M301.5,161.2c9.1-0.1,10.8-8.4,10.8-14.4c0-6.3-1.8-14.4-10.8-14.4c-9,0-10.8,8-10.8,14.4C290.7,152.9,292.4,161.2,301.5,161.2z"
		/>
	<path d="M332.1,124h11.5v6.6h0.2c1.4-3.1,5-7.8,12.5-7.8c6,0,11.4,2.6,14,7.7c1.7-3.1,6.9-7.7,13.8-7.7c8.5,0,15.5,5.2,15.5,15.1
		v32.8h-12V141c0-3.3-0.9-7.9-6.9-7.9c-5.1,0-8.9,3.1-8.9,10v27.6h-12V141c0-3.3-1-7.9-7-7.9c-5,0-8.8,3.1-8.8,10v27.6h-12V124z"/>
</g>
</svg>
