<?xml version="1.0" encoding="UTF-8"?>
<svg id="Layer_1" data-name="Layer 1" xmlns="http://www.w3.org/2000/svg" xmlns:xlink="http://www.w3.org/1999/xlink" viewBox="0 0 506 400">
  <defs>
    <style>
      .cls-1 {
        fill: url(#linear-gradient);
      }

      .cls-1, .cls-2, .cls-3 {
        stroke-width: 0px;
      }

      .cls-3 {
        fill: #fff200;
      }
    </style>
    <linearGradient id="linear-gradient" x1="253" y1="429.9" x2="253" y2="-61.8" gradientTransform="translate(0 400.29) scale(1 -1)" gradientUnits="userSpaceOnUse">
      <stop offset="0" stop-color="#fff"/>
      <stop offset=".57" stop-color="#fff200"/>
      <stop offset="1" stop-color="#ff3"/>
    </linearGradient>
  </defs>
  <rect class="cls-3" y="233.07" width="506" height="166.93"/>
  <g>
    <path class="cls-2" d="m0,252.18h14.41v9.34h.25c3.03-5.53,8.47-10.82,17.45-10.82.89,0,2.91.12,3.92.25v14.63h-5.31c-11.51,0-15.68,6.27-15.68,12.91v29.75H0v-56.05Z"/>
    <path class="cls-2" d="m40.59,293.36c0-10.57,7.97-15.12,17.7-16.84l10.49-1.97c6.2-1.11,8.6-2.7,8.6-5.78,0-3.69-3.41-5.65-9.1-5.65-8.34,0-11.13,4.3-11,7.99h-14.79c1.01-15.12,14.03-20.41,26.55-20.41,8.22,0,23.26,3.32,23.26,16.72v30.24c0,5.04,1.01,8.24,2.28,9.59v.98h-15.43c-.76-1.35-1.26-3.56-1.39-5.65-2.66,3.2-8.6,7.01-17.83,7.01-9.86.12-19.34-5.53-19.34-16.23Zm23.39,5.65c7.21,0,13.28-5.16,13.28-9.59v-9.1c-1.39,1.84-4.93,3.2-9.86,4.06-5.94,1.11-11.51,2.7-11.51,7.87,0,4.43,3.54,6.76,8.09,6.76Z"/>
    <path class="cls-2" d="m105.32,252.18h14.41v7.99h.25c1.9-3.81,7.97-9.34,17.95-9.34,11.51,0,19.98,6.27,19.98,18.19v39.34h-15.05v-35.03c0-3.93-1.26-10.2-9.86-10.2-6.83,0-12.64,4.3-12.64,12.54v32.58h-15.05v-56.05h0Z"/>
    <path class="cls-2" d="m167.78,281.19c0-18.81,10.24-30.49,24.15-30.49,9.74,0,14.54,5.04,15.93,8.48h.25v-26.18h14.92v75.23h-14.54v-6.88h-.25c-3.67,6.15-9.23,8.24-15.55,8.24-17.32.12-24.91-12.91-24.91-28.4Zm27.69,16.72c9.61,0,13.28-7.99,13.28-16.35,0-8.85-2.91-17.7-12.77-17.7s-12.64,8.24-12.64,17.09c-.13,6.76,2.53,16.96,12.14,16.96Z"/>
    <path class="cls-2" d="m232.64,280.21c0-20.16,13.53-29.5,28.57-29.5s28.57,9.22,28.57,29.5-13.53,29.5-28.57,29.5-28.57-9.34-28.57-29.5Zm28.7,17.7c11.51-.12,13.53-10.33,13.53-17.7,0-7.74-2.28-17.7-13.53-17.7s-13.53,9.83-13.53,17.7c-.13,7.5,1.9,17.7,13.53,17.7Z"/>
    <path class="cls-2" d="m299.66,252.18h14.41v7.99h.25c1.77-3.81,6.32-9.34,15.68-9.34,7.59,0,14.29,3.2,17.57,9.22,2.15-3.81,8.6-9.22,17.32-9.22,10.62,0,19.47,6.27,19.47,18.19v39.34h-15.05v-35.65c0-3.93-1.14-9.47-8.6-9.47-6.45,0-11.13,3.81-11.13,12.05v33.19h-15.05v-35.65c0-3.93-1.26-9.47-8.72-9.47-6.32,0-11,3.81-11,12.05v33.19h-15.05v-56.42h-.13Z"/>
    <path class="cls-2" d="m393.6,290.41h15.17c0,4.55,2.91,7.99,11.63,7.99,7.59,0,9.36-2.7,9.36-5.65,0-3.32-3.67-4.67-8.98-6.02l-10.62-2.7c-7.84-1.97-14.92-6.39-14.92-15.24s5.82-18.19,23.26-18.19c10.87,0,23.26,3.2,24.53,18.44h-14.41c-.63-3.44-2.28-6.88-10.24-6.88-6.07,0-8.6,2.21-8.6,5.04,0,3.56,2.91,5.04,8.47,6.52l12.9,3.32c7.33,1.84,13.28,5.53,13.28,13.77,0,15.86-16.31,18.68-25.03,18.68-12.14.25-25.29-4.55-25.79-19.05Z"/>
    <path class="cls-2" d="m453.4,233.01h14.41v27.17h.25c1.9-3.81,7.97-9.34,17.95-9.34,11.51,0,19.98,6.27,19.98,18.19v39.34h-15.05v-35.03c0-3.93-1.26-10.2-9.86-10.2-6.83,0-12.64,4.3-12.64,12.54v32.58h-15.05v-75.23h0Z"/>
  </g>
  <rect class="cls-1" width="506" height="233.07"/>
  <g>
    <g>
      <path class="cls-2" d="m0,323.42h14.88v12.78H0v-12.78Zm14.88,76.71H0v-57.16h14.88v57.16Z"/>
      <path class="cls-2" d="m33.19,385.25v-30.24h-9.79v-12.29h9.79v-15.12h15.26v15.12h13.99v12.29h-13.99v27.66c0,4.55,2.92,5.65,8.27,5.65h5.34v11.56c-1.27.12-4.32.25-8.77.25-10.17,0-20.09-2.58-20.09-14.87Z"/>
      <path class="cls-2" d="m68.41,362.14c0-11.8,3.05-24.83,12.21-31.96,4.71-3.81,10.3-6.27,19.2-6.27,16.28,0,25.18,8.11,26.45,20.28h-15.51c-.64-5.53-4.32-8.6-11.32-8.6-11.57,0-16.28,12.29-16.15,22.37l.25.25c4.45-5.78,11.06-8.6,18.95-8.6,14.24,0,24.42,10.33,24.42,23.85,0,15-11.32,26.8-27.85,26.8-23.14-.12-30.65-19.55-30.65-38.11Zm30.14,25.69c8.01,0,13.1-5.41,13.1-13.4s-4.45-13.77-13.1-13.77-13.48,5.65-13.48,13.52,5.09,13.64,13.48,13.64Z"/>
      <path class="cls-2" d="m133.01,362.14c0-11.8,3.05-24.83,12.21-31.96,4.71-3.81,10.3-6.27,19.2-6.27,16.28,0,25.18,8.11,26.45,20.28h-15.51c-.64-5.53-4.32-8.6-11.32-8.6-11.57,0-16.28,12.29-16.15,22.37l.25.25c4.45-5.78,11.06-8.6,18.95-8.6,14.24,0,24.42,10.33,24.42,23.85,0,15-11.32,26.8-27.85,26.8-23.02-.12-30.65-19.55-30.65-38.11Zm30.26,25.69c8.01,0,13.1-5.41,13.1-13.4s-4.45-13.77-13.1-13.77-13.48,5.65-13.48,13.52,4.96,13.64,13.48,13.64Z"/>
      <path class="cls-2" d="m197.87,362.14c0-11.8,3.05-24.83,12.21-31.96,4.71-3.81,10.3-6.27,19.2-6.27,16.28,0,25.18,8.11,26.45,20.28h-15.51c-.64-5.53-4.32-8.73-11.32-8.73-11.57,0-16.28,12.29-16.15,22.37l.25.25c4.45-5.78,11.06-8.73,18.95-8.73,14.24,0,24.42,10.33,24.42,23.85,0,15-11.32,26.8-27.85,26.8-23.14.12-30.65-19.3-30.65-37.86Zm30.14,25.69c8.01,0,13.1-5.41,13.1-13.52s-4.45-13.77-13.1-13.77-13.48,5.65-13.48,13.52,5.09,13.77,13.48,13.77Z"/>
      <path class="cls-2" d="m291.2,372.22c0-18.07,9.66-30.98,29.25-30.98,9.66,0,25.43,3.93,26.83,21.51h-15.9c-.64-3.69-3.05-9.59-10.94-9.59-10.3,0-12.97,9.47-12.97,16.59,0,6.27,1.02,18.81,12.97,18.81,8.14,0,10.81-7.01,10.94-10.33h15.9c-.38,6.52-5.47,21.88-27.21,21.88s-28.87-16.1-28.87-27.9Z"/>
      <path class="cls-2" d="m354.78,370.62c0-20.16,13.73-29.5,28.99-29.5s28.99,9.22,28.99,29.5-13.73,29.5-28.99,29.5-28.99-9.34-28.99-29.5Zm28.99,17.7c11.57-.12,13.73-10.33,13.73-17.7,0-7.74-2.29-17.7-13.73-17.7s-13.73,9.83-13.73,17.7,2.16,17.7,13.73,17.7Z"/>
      <path class="cls-2" d="m422.69,342.59h14.62v8.11h.25c1.78-3.81,6.36-9.59,15.9-9.59,7.63,0,14.5,3.2,17.8,9.47,2.16-3.81,8.77-9.47,17.55-9.47,10.81,0,19.71,6.39,19.71,18.56v40.32h-15.26v-36.51c0-4.06-1.14-9.71-8.77-9.71-6.49,0-11.32,3.81-11.32,12.29v33.93h-15.26v-36.51c0-4.06-1.27-9.71-8.9-9.71-6.36,0-11.19,3.81-11.19,12.29v33.93h-15.26v-57.41h.13Z"/>
    </g>
    <path class="cls-2" d="m265.21,400.25v-15.61h16.02v15.61h-16.02Z"/>
  </g>
</svg>