<?xml version="1.0" encoding="UTF-8"?>
<svg id="Layer_1" data-name="Layer 1" xmlns="http://www.w3.org/2000/svg" viewBox="0 0 623.62 85.04">
  <defs>
    <style>
      .cls-1 {
        fill: #000;
      }

      .cls-1, .cls-2 {
        stroke-width: 0px;
      }

      .cls-2 {
        fill: #fff;
      }
    </style>
  </defs>
  <rect class="cls-1" x=".35" width="623" height="85"/>
  <g>
    <path class="cls-2" d="M39.13,32.92v5.76h.12c.4-.96.94-1.85,1.62-2.67.68-.82,1.46-1.52,2.34-2.1.88-.58,1.82-1.03,2.82-1.35,1-.32,2.04-.48,3.12-.48.56,0,1.18.1,1.86.3v7.92c-.4-.08-.88-.15-1.44-.21-.56-.06-1.1-.09-1.62-.09-1.56,0-2.88.26-3.96.78-1.08.52-1.95,1.23-2.61,2.13-.66.9-1.13,1.95-1.41,3.15-.28,1.2-.42,2.5-.42,3.9v13.98h-8.52v-31.02h8.1Z"/>
    <path class="cls-2" d="M54.13,42.46c.12-2,.62-3.66,1.5-4.98.88-1.32,2-2.38,3.36-3.18,1.36-.8,2.89-1.37,4.59-1.71,1.7-.34,3.41-.51,5.13-.51,1.56,0,3.14.11,4.74.33,1.6.22,3.06.65,4.38,1.29,1.32.64,2.4,1.53,3.24,2.67.84,1.14,1.26,2.65,1.26,4.53v16.14c0,1.4.08,2.74.24,4.02.16,1.28.44,2.24.84,2.88h-8.64c-.16-.48-.29-.97-.39-1.47-.1-.5-.17-1.01-.21-1.53-1.36,1.4-2.96,2.38-4.8,2.94-1.84.56-3.72.84-5.64.84-1.48,0-2.86-.18-4.14-.54-1.28-.36-2.4-.92-3.36-1.68s-1.71-1.72-2.25-2.88-.81-2.54-.81-4.14c0-1.76.31-3.21.93-4.35.62-1.14,1.42-2.05,2.4-2.73.98-.68,2.1-1.19,3.36-1.53,1.26-.34,2.53-.61,3.81-.81,1.28-.2,2.54-.36,3.78-.48,1.24-.12,2.34-.3,3.3-.54.96-.24,1.72-.59,2.28-1.05.56-.46.82-1.13.78-2.01,0-.92-.15-1.65-.45-2.19-.3-.54-.7-.96-1.2-1.26-.5-.3-1.08-.5-1.74-.6-.66-.1-1.37-.15-2.13-.15-1.68,0-3,.36-3.96,1.08-.96.72-1.52,1.92-1.68,3.6h-8.52ZM73.81,48.76c-.36.32-.81.57-1.35.75s-1.12.33-1.74.45c-.62.12-1.27.22-1.95.3-.68.08-1.36.18-2.04.3-.64.12-1.27.28-1.89.48-.62.2-1.16.47-1.62.81-.46.34-.83.77-1.11,1.29-.28.52-.42,1.18-.42,1.98s.14,1.4.42,1.92c.28.52.66.93,1.14,1.23s1.04.51,1.68.63c.64.12,1.3.18,1.98.18,1.68,0,2.98-.28,3.9-.84.92-.56,1.6-1.23,2.04-2.01.44-.78.71-1.57.81-2.37.1-.8.15-1.44.15-1.92v-3.18Z"/>
    <path class="cls-2" d="M97.15,32.92v4.32h.18c1.08-1.8,2.48-3.11,4.2-3.93,1.72-.82,3.48-1.23,5.28-1.23,2.28,0,4.15.31,5.61.93,1.46.62,2.61,1.48,3.45,2.58.84,1.1,1.43,2.44,1.77,4.02.34,1.58.51,3.33.51,5.25v19.08h-8.52v-17.52c0-2.56-.4-4.47-1.2-5.73-.8-1.26-2.22-1.89-4.26-1.89-2.32,0-4,.69-5.04,2.07-1.04,1.38-1.56,3.65-1.56,6.81v16.26h-8.52v-31.02h8.1Z"/>
    <path class="cls-2" d="M146.77,59.98c-1,1.68-2.31,2.89-3.93,3.63-1.62.74-3.45,1.11-5.49,1.11-2.32,0-4.36-.45-6.12-1.35-1.76-.9-3.21-2.12-4.35-3.66-1.14-1.54-2-3.31-2.58-5.31-.58-2-.87-4.08-.87-6.24s.29-4.09.87-6.03c.58-1.94,1.44-3.65,2.58-5.13,1.14-1.48,2.57-2.67,4.29-3.57,1.72-.9,3.72-1.35,6-1.35,1.84,0,3.59.39,5.25,1.17,1.66.78,2.97,1.93,3.93,3.45h.12v-15.6h8.52v42.84h-8.1v-3.96h-.12ZM146.41,44.65c-.24-1.18-.65-2.22-1.23-3.12-.58-.9-1.33-1.63-2.25-2.19-.92-.56-2.08-.84-3.48-.84s-2.58.28-3.54.84c-.96.56-1.73,1.3-2.31,2.22-.58.92-1,1.97-1.26,3.15-.26,1.18-.39,2.41-.39,3.69,0,1.2.14,2.4.42,3.6.28,1.2.73,2.27,1.35,3.21.62.94,1.4,1.7,2.34,2.28.94.58,2.07.87,3.39.87,1.4,0,2.57-.28,3.51-.84.94-.56,1.69-1.31,2.25-2.25.56-.94.96-2.01,1.2-3.21.24-1.2.36-2.44.36-3.72s-.12-2.51-.36-3.69Z"/>
    <path class="cls-2" d="M161.71,41.71c.76-2.02,1.84-3.74,3.24-5.16,1.4-1.42,3.08-2.52,5.04-3.3,1.96-.78,4.16-1.17,6.6-1.17s4.65.39,6.63,1.17c1.98.78,3.67,1.88,5.07,3.3,1.4,1.42,2.48,3.14,3.24,5.16.76,2.02,1.14,4.27,1.14,6.75s-.38,4.72-1.14,6.72c-.76,2-1.84,3.71-3.24,5.13-1.4,1.42-3.09,2.51-5.07,3.27-1.98.76-4.19,1.14-6.63,1.14s-4.64-.38-6.6-1.14c-1.96-.76-3.64-1.85-5.04-3.27-1.4-1.42-2.48-3.13-3.24-5.13-.76-2-1.14-4.24-1.14-6.72s.38-4.73,1.14-6.75ZM169.45,52.09c.24,1.18.65,2.24,1.23,3.18.58.94,1.35,1.69,2.31,2.25.96.56,2.16.84,3.6.84s2.65-.28,3.63-.84c.98-.56,1.76-1.31,2.34-2.25.58-.94.99-2,1.23-3.18s.36-2.39.36-3.63-.12-2.46-.36-3.66-.65-2.26-1.23-3.18c-.58-.92-1.36-1.67-2.34-2.25-.98-.58-2.19-.87-3.63-.87s-2.64.29-3.6.87c-.96.58-1.73,1.33-2.31,2.25-.58.92-.99,1.98-1.23,3.18-.24,1.2-.36,2.42-.36,3.66s.12,2.45.36,3.63Z"/>
    <path class="cls-2" d="M206.59,32.92v4.2h.12c1.12-1.6,2.47-2.84,4.05-3.72,1.58-.88,3.39-1.32,5.43-1.32s3.75.38,5.37,1.14c1.62.76,2.85,2.1,3.69,4.02.92-1.36,2.17-2.56,3.75-3.6,1.58-1.04,3.45-1.56,5.61-1.56,1.64,0,3.16.2,4.56.6,1.4.4,2.6,1.04,3.6,1.92,1,.88,1.78,2.03,2.34,3.45.56,1.42.84,3.13.84,5.13v20.76h-8.52v-17.58c0-1.04-.04-2.02-.12-2.94-.08-.92-.3-1.72-.66-2.4-.36-.68-.89-1.22-1.59-1.62-.7-.4-1.65-.6-2.85-.6s-2.17.23-2.91.69c-.74.46-1.32,1.06-1.74,1.8-.42.74-.7,1.58-.84,2.52-.14.94-.21,1.89-.21,2.85v17.28h-8.52v-17.4c0-.92-.02-1.83-.06-2.73-.04-.9-.21-1.73-.51-2.49-.3-.76-.8-1.37-1.5-1.83-.7-.46-1.73-.69-3.09-.69-.4,0-.93.09-1.59.27-.66.18-1.3.52-1.92,1.02-.62.5-1.15,1.22-1.59,2.16-.44.94-.66,2.17-.66,3.69v18h-8.52v-31.02h8.04Z"/>
    <path class="cls-2" d="M259.96,56.23c.38.66.87,1.2,1.47,1.62s1.29.73,2.07.93c.78.2,1.59.3,2.43.3.6,0,1.23-.07,1.89-.21.66-.14,1.26-.36,1.8-.66s.99-.7,1.35-1.2c.36-.5.54-1.13.54-1.89,0-1.28-.85-2.24-2.55-2.88-1.7-.64-4.07-1.28-7.11-1.92-1.24-.28-2.45-.61-3.63-.99-1.18-.38-2.23-.88-3.15-1.5-.92-.62-1.66-1.4-2.22-2.34-.56-.94-.84-2.09-.84-3.45,0-2,.39-3.64,1.17-4.92.78-1.28,1.81-2.29,3.09-3.03,1.28-.74,2.72-1.26,4.32-1.56,1.6-.3,3.24-.45,4.92-.45s3.31.16,4.89.48c1.58.32,2.99.86,4.23,1.62,1.24.76,2.27,1.77,3.09,3.03.82,1.26,1.31,2.85,1.47,4.77h-8.1c-.12-1.64-.74-2.75-1.86-3.33-1.12-.58-2.44-.87-3.96-.87-.48,0-1,.03-1.56.09-.56.06-1.07.19-1.53.39-.46.2-.85.49-1.17.87-.32.38-.48.89-.48,1.53,0,.76.28,1.38.84,1.86.56.48,1.29.87,2.19,1.17.9.3,1.93.57,3.09.81,1.16.24,2.34.5,3.54.78,1.24.28,2.45.62,3.63,1.02,1.18.4,2.23.93,3.15,1.59.92.66,1.66,1.48,2.22,2.46.56.98.84,2.19.84,3.63,0,2.04-.41,3.75-1.23,5.13-.82,1.38-1.89,2.49-3.21,3.33s-2.83,1.43-4.53,1.77c-1.7.34-3.43.51-5.19.51s-3.56-.18-5.28-.54c-1.72-.36-3.25-.96-4.59-1.8-1.34-.84-2.44-1.95-3.3-3.33-.86-1.38-1.33-3.11-1.41-5.19h8.1c0,.92.19,1.71.57,2.37Z"/>
    <path class="cls-2" d="M293.65,21.1v16.14h.18c1.08-1.8,2.46-3.11,4.14-3.93,1.68-.82,3.32-1.23,4.92-1.23,2.28,0,4.15.31,5.61.93,1.46.62,2.61,1.48,3.45,2.58.84,1.1,1.43,2.44,1.77,4.02.34,1.58.51,3.33.51,5.25v19.08h-8.52v-17.52c0-2.56-.4-4.47-1.2-5.73-.8-1.26-2.22-1.89-4.26-1.89-2.32,0-4,.69-5.04,2.07-1.04,1.38-1.56,3.65-1.56,6.81v16.26h-8.52V21.1h8.52Z"/>
    <path class="cls-2" d="M321.07,28.12v-7.02h8.52v7.02h-8.52ZM329.59,32.92v31.02h-8.52v-31.02h8.52Z"/>
    <path class="cls-2" d="M353.47,32.92v5.7h-6.24v15.36c0,1.44.24,2.4.72,2.88s1.44.72,2.88.72c.48,0,.94-.02,1.38-.06.44-.04.86-.1,1.26-.18v6.6c-.72.12-1.52.2-2.4.24-.88.04-1.74.06-2.58.06-1.32,0-2.57-.09-3.75-.27s-2.22-.53-3.12-1.05c-.9-.52-1.61-1.26-2.13-2.22-.52-.96-.78-2.22-.78-3.78v-18.3h-5.16v-5.7h5.16v-9.3h8.52v9.3h6.24Z"/>
    <path class="cls-2" d="M375.79,29.08c-1-1.04-2.24-1.56-3.72-1.56s-2.79.45-3.81,1.35c-1.02.9-1.83,2-2.43,3.3-.6,1.3-1.04,2.69-1.32,4.17-.28,1.48-.44,2.8-.48,3.96l.12.12c1.16-1.68,2.52-2.88,4.08-3.6,1.56-.72,3.36-1.08,5.4-1.08,1.8,0,3.56.39,5.28,1.17,1.72.78,3.18,1.83,4.38,3.15,1.12,1.28,1.94,2.74,2.46,4.38.52,1.64.78,3.3.78,4.98,0,2.16-.35,4.17-1.05,6.03-.7,1.86-1.7,3.48-3,4.86s-2.85,2.46-4.65,3.24c-1.8.78-3.8,1.17-6,1.17-3.16,0-5.78-.63-7.86-1.89-2.08-1.26-3.74-2.91-4.98-4.95s-2.1-4.35-2.58-6.93c-.48-2.58-.72-5.21-.72-7.89s.3-5.2.9-7.8c.6-2.6,1.56-4.95,2.88-7.05s3.02-3.81,5.1-5.13c2.08-1.32,4.62-1.98,7.62-1.98,1.8,0,3.48.26,5.04.78,1.56.52,2.94,1.27,4.14,2.25,1.2.98,2.18,2.19,2.94,3.63s1.26,3.1,1.5,4.98h-8.1c-.28-1.4-.92-2.62-1.92-3.66ZM368.62,42.79c-.86.42-1.57.99-2.13,1.71-.56.72-.98,1.55-1.26,2.49-.28.94-.42,1.93-.42,2.97,0,.96.15,1.91.45,2.85.3.94.74,1.78,1.32,2.52.58.74,1.29,1.33,2.13,1.77.84.44,1.8.66,2.88.66s1.95-.22,2.73-.66c.78-.44,1.45-1.02,2.01-1.74.56-.72.98-1.54,1.26-2.46.28-.92.42-1.86.42-2.82s-.13-1.97-.39-2.91c-.26-.94-.65-1.78-1.17-2.52-.52-.74-1.19-1.34-2.01-1.8-.82-.46-1.77-.69-2.85-.69s-2.11.21-2.97.63Z"/>
    <path class="cls-2" d="M409.27,29.08c-1-1.04-2.24-1.56-3.72-1.56s-2.79.45-3.81,1.35c-1.02.9-1.83,2-2.43,3.3-.6,1.3-1.04,2.69-1.32,4.17-.28,1.48-.44,2.8-.48,3.96l.12.12c1.16-1.68,2.52-2.88,4.08-3.6,1.56-.72,3.36-1.08,5.4-1.08,1.8,0,3.56.39,5.28,1.17,1.72.78,3.18,1.83,4.38,3.15,1.12,1.28,1.94,2.74,2.46,4.38.52,1.64.78,3.3.78,4.98,0,2.16-.35,4.17-1.05,6.03-.7,1.86-1.7,3.48-3,4.86s-2.85,2.46-4.65,3.24c-1.8.78-3.8,1.17-6,1.17-3.16,0-5.78-.63-7.86-1.89-2.08-1.26-3.74-2.91-4.98-4.95s-2.1-4.35-2.58-6.93c-.48-2.58-.72-5.21-.72-7.89s.3-5.2.9-7.8c.6-2.6,1.56-4.95,2.88-7.05s3.02-3.81,5.1-5.13c2.08-1.32,4.62-1.98,7.62-1.98,1.8,0,3.48.26,5.04.78,1.56.52,2.94,1.27,4.14,2.25,1.2.98,2.18,2.19,2.94,3.63s1.26,3.1,1.5,4.98h-8.1c-.28-1.4-.92-2.62-1.92-3.66ZM402.1,42.79c-.86.42-1.57.99-2.13,1.71-.56.72-.98,1.55-1.26,2.49-.28.94-.42,1.93-.42,2.97,0,.96.15,1.91.45,2.85.3.94.74,1.78,1.32,2.52.58.74,1.29,1.33,2.13,1.77.84.44,1.8.66,2.88.66s1.95-.22,2.73-.66c.78-.44,1.45-1.02,2.01-1.74.56-.72.98-1.54,1.26-2.46.28-.92.42-1.86.42-2.82s-.13-1.97-.39-2.91c-.26-.94-.65-1.78-1.17-2.52-.52-.74-1.19-1.34-2.01-1.8-.82-.46-1.77-.69-2.85-.69s-2.11.21-2.97.63Z"/>
    <path class="cls-2" d="M442.75,29.08c-1-1.04-2.24-1.56-3.72-1.56s-2.79.45-3.81,1.35c-1.02.9-1.83,2-2.43,3.3-.6,1.3-1.04,2.69-1.32,4.17-.28,1.48-.44,2.8-.48,3.96l.12.12c1.16-1.68,2.52-2.88,4.08-3.6,1.56-.72,3.36-1.08,5.4-1.08,1.8,0,3.56.39,5.28,1.17,1.72.78,3.18,1.83,4.38,3.15,1.12,1.28,1.94,2.74,2.46,4.38.52,1.64.78,3.3.78,4.98,0,2.16-.35,4.17-1.05,6.03-.7,1.86-1.7,3.48-3,4.86s-2.85,2.46-4.65,3.24c-1.8.78-3.8,1.17-6,1.17-3.16,0-5.78-.63-7.86-1.89-2.08-1.26-3.74-2.91-4.98-4.95s-2.1-4.35-2.58-6.93c-.48-2.58-.72-5.21-.72-7.89s.3-5.2.9-7.8c.6-2.6,1.56-4.95,2.88-7.05s3.02-3.81,5.1-5.13c2.08-1.32,4.62-1.98,7.62-1.98,1.8,0,3.48.26,5.04.78,1.56.52,2.94,1.27,4.14,2.25,1.2.98,2.18,2.19,2.94,3.63s1.26,3.1,1.5,4.98h-8.1c-.28-1.4-.92-2.62-1.92-3.66ZM435.58,42.79c-.86.42-1.57.99-2.13,1.71-.56.72-.98,1.55-1.26,2.49-.28.94-.42,1.93-.42,2.97,0,.96.15,1.91.45,2.85.3.94.74,1.78,1.32,2.52.58.74,1.29,1.33,2.13,1.77.84.44,1.8.66,2.88.66s1.95-.22,2.73-.66c.78-.44,1.45-1.02,2.01-1.74.56-.72.98-1.54,1.26-2.46.28-.92.42-1.86.42-2.82s-.13-1.97-.39-2.91c-.26-.94-.65-1.78-1.17-2.52-.52-.74-1.19-1.34-2.01-1.8-.82-.46-1.77-.69-2.85-.69s-2.11.21-2.97.63Z"/>
    <path class="cls-2" d="M467.89,54.7v9.24h-9.42v-9.24h9.42Z"/>
    <path class="cls-2" d="M489.73,38.5c-1.36,0-2.5.31-3.42.93-.92.62-1.67,1.42-2.25,2.4-.58.98-.99,2.06-1.23,3.24-.24,1.18-.36,2.35-.36,3.51s.12,2.26.36,3.42.63,2.21,1.17,3.15c.54.94,1.27,1.71,2.19,2.31.92.6,2.04.9,3.36.9,2.04,0,3.61-.57,4.71-1.71,1.1-1.14,1.79-2.67,2.07-4.59h8.22c-.56,4.12-2.16,7.26-4.8,9.42s-6.02,3.24-10.14,3.24c-2.32,0-4.45-.39-6.39-1.17-1.94-.78-3.59-1.87-4.95-3.27-1.36-1.4-2.42-3.07-3.18-5.01-.76-1.94-1.14-4.07-1.14-6.39s.35-4.63,1.05-6.69c.7-2.06,1.73-3.84,3.09-5.34,1.36-1.5,3.02-2.67,4.98-3.51,1.96-.84,4.2-1.26,6.72-1.26,1.84,0,3.61.24,5.31.72s3.22,1.21,4.56,2.19c1.34.98,2.43,2.2,3.27,3.66.84,1.46,1.32,3.19,1.44,5.19h-8.34c-.56-3.56-2.66-5.34-6.3-5.34Z"/>
    <path class="cls-2" d="M507.73,41.71c.76-2.02,1.84-3.74,3.24-5.16,1.4-1.42,3.08-2.52,5.04-3.3,1.96-.78,4.16-1.17,6.6-1.17s4.65.39,6.63,1.17c1.98.78,3.67,1.88,5.07,3.3,1.4,1.42,2.48,3.14,3.24,5.16.76,2.02,1.14,4.27,1.14,6.75s-.38,4.72-1.14,6.72c-.76,2-1.84,3.71-3.24,5.13-1.4,1.42-3.09,2.51-5.07,3.27-1.98.76-4.19,1.14-6.63,1.14s-4.64-.38-6.6-1.14c-1.96-.76-3.64-1.85-5.04-3.27-1.4-1.42-2.48-3.13-3.24-5.13-.76-2-1.14-4.24-1.14-6.72s.38-4.73,1.14-6.75ZM515.47,52.09c.24,1.18.65,2.24,1.23,3.18.58.94,1.35,1.69,2.31,2.25.96.56,2.16.84,3.6.84s2.65-.28,3.63-.84c.98-.56,1.76-1.31,2.34-2.25.58-.94.99-2,1.23-3.18s.36-2.39.36-3.63-.12-2.46-.36-3.66-.65-2.26-1.23-3.18c-.58-.92-1.36-1.67-2.34-2.25-.98-.58-2.19-.87-3.63-.87s-2.64.29-3.6.87c-.96.58-1.73,1.33-2.31,2.25-.58.92-.99,1.98-1.23,3.18s-.36,2.42-.36,3.66.12,2.45.36,3.63Z"/>
    <path class="cls-2" d="M550.69,32.92v4.2h.12c1.12-1.6,2.47-2.84,4.05-3.72,1.58-.88,3.39-1.32,5.43-1.32s3.75.38,5.37,1.14c1.62.76,2.85,2.1,3.69,4.02.92-1.36,2.17-2.56,3.75-3.6,1.58-1.04,3.45-1.56,5.61-1.56,1.64,0,3.16.2,4.56.6,1.4.4,2.6,1.04,3.6,1.92,1,.88,1.78,2.03,2.34,3.45.56,1.42.84,3.13.84,5.13v20.76h-8.52v-17.58c0-1.04-.04-2.02-.12-2.94-.08-.92-.3-1.72-.66-2.4-.36-.68-.89-1.22-1.59-1.62-.7-.4-1.65-.6-2.85-.6s-2.17.23-2.91.69c-.74.46-1.32,1.06-1.74,1.8-.42.74-.7,1.58-.84,2.52-.14.94-.21,1.89-.21,2.85v17.28h-8.52v-17.4c0-.92-.02-1.83-.06-2.73-.04-.9-.21-1.73-.51-2.49-.3-.76-.8-1.37-1.5-1.83-.7-.46-1.73-.69-3.09-.69-.4,0-.93.09-1.59.27-.66.18-1.3.52-1.92,1.02-.62.5-1.15,1.22-1.59,2.16-.44.94-.66,2.17-.66,3.69v18h-8.52v-31.02h8.04Z"/>
  </g>
</svg>