<?xml version="1.0" encoding="UTF-8"?>
<svg id="Layer_2" data-name="Layer 2" xmlns="http://www.w3.org/2000/svg" viewBox="0 0 311.08 310.98">
  <defs>
    <style>
      .cls-1 {
        fill: #010100;
      }

      .cls-1, .cls-2, .cls-3, .cls-4, .cls-5, .cls-6, .cls-7, .cls-8, .cls-9 {
        stroke-width: 0px;
      }

      .cls-2 {
        fill: #feeeac;
      }

      .cls-3 {
        fill: #fed000;
      }

      .cls-4 {
        fill: #fee887;
      }

      .cls-5 {
        fill: #fdd000;
      }

      .cls-6 {
        fill: #fee267;
      }

      .cls-7 {
        fill: #000;
      }

      .cls-8 {
        fill: #fefefe;
      }

      .cls-9 {
        fill: #ceaf00;
      }
    </style>
  </defs>
  <g id="Layer_1-2" data-name="Layer 1">
    <g>
      <path class="cls-7" d="M154.68,310.98c-6.29-1.73-8.39-7.96-8.34-13.03.03-3,.72-5.79,2.37-8.31.34-.53.48-1.04.45-1.67-.19-5.46-1.37-10.68-3.68-15.65-.61-1.32-1.24-2.64-1.35-4.13-.04-.57-.35-.81-.98-.88-14.18-1.59-27.59-5.72-40.21-12.4-5.47-2.9-10.66-6.25-15.58-10-.35-.27-.63-.75-1.17-.37-2.37,1.69-5.23,2.34-7.8,3.6-3.66,1.78-6.93,4.1-9.88,6.89-.46.44-.7.9-.85,1.51-1.64,6.37-5.71,10.44-12.03,12.04-3.01.76-6.04.26-8.26-2.17-2.64-2.89-2.69-6.39-1.35-9.8,2.01-5.14,5.68-8.67,11.15-10.08.83-.22,1.47-.6,2.06-1.23,3.78-4.04,6.54-8.68,8.43-13.86.3-.81.57-1.68,1.09-2.34.82-1.05.38-1.71-.31-2.57-11.64-14.3-19.28-30.52-23.05-48.55-.66-3.13-1.17-6.3-1.46-9.5-.04-.43-.04-.81-.62-.89-3.03-.44-5.64-2.05-8.46-3.05-3.76-1.33-7.64-1.82-11.57-2.14-.93-.08-1.56.41-2.25.83-5.32,3.22-12.9,2.74-17.68-1.08-1.98-1.58-2.87-3.71-3.33-6.1v-.55c2.19-6.83,7.07-9.89,14.41-9.2,2.56.24,4.92.93,7.08,2.32.46.3.92.52,1.53.48,5.48-.35,10.79-1.33,15.77-3.78,1.27-.62,2.61-1.15,4.01-1.32.86-.11,1.03-.55,1.1-1.25,1.13-10.66,3.85-20.9,7.98-30.78,3.93-9.38,9.04-18.07,15.36-26.03.67-.84.67-1.34.1-2.23-1.42-2.25-2.04-4.87-3.22-7.24-1.75-3.53-4.04-6.65-6.7-9.54-.53-.57-1.18-.78-1.91-.94-5.66-1.28-11-6.74-11.8-12.45-1.04-7.42,4.66-11.28,10.91-9.48,5.89,1.69,9.7,5.67,11.33,11.61.21.76.51,1.32,1.06,1.84,3.86,3.61,8.23,6.4,13.2,8.24,1.19.44,2.43.89,3.47,1.6.9.62,1.42.53,2.23-.11,13.2-10.49,28.02-17.62,44.45-21.4,3.7-.85,7.43-1.6,11.21-1.95,1.03-.1,1.59-.46,1.96-1.61,1.15-3.65,3.05-7.02,3.78-10.83.55-2.85.78-5.72,1-8.6.06-.78-.43-1.28-.75-1.87-3.02-5.5-2.99-11.03.11-16.44,1.67-2.92,4.28-4.75,7.79-4.49,3.71.28,6.12,2.61,7.55,5.84,2.28,5.17,2.17,10.32-.78,15.25-.47.78-.71,1.53-.66,2.44.27,5.3,1.19,10.44,3.44,15.3.55,1.2,1.1,2.43,1.43,3.7.2.75.54.97,1.19,1.03,12.71,1.29,24.81,4.75,36.35,10.22,7.93,3.76,15.32,8.4,22.15,13.92.79.64,1.33.86,2.35.26,1.56-.92,3.31-1.53,5-2.2,4.77-1.9,8.73-5,12.49-8.39.48-.43.54-1.04.66-1.61,1.36-6.37,7.92-11.59,13.37-11.98,5.92-.42,10,4.07,8.83,9.83-1.34,6.66-5.61,10.82-12.16,12.57-.72.19-1.24.5-1.71,1-3.89,4.1-6.95,8.72-8.87,14.07-.35.99-.66,2.08-1.31,2.85-1.02,1.21-.54,1.97.25,3,9.39,12.13,15.89,25.69,19.74,40.51,1.23,4.73,2.17,9.54,2.62,14.43.04.43.02.89.63,1.07,3.72,1.09,7.11,3.09,10.94,3.92,3.11.67,6.25.92,9.4,1.15.76.06,1.27-.48,1.84-.83,5.1-3.12,12.72-2.73,17.37.9,4.81,3.76,4.65,10.22-.52,13.53-5.47,3.51-11.23,3.61-16.87.43-2-1.13-3.93-.68-5.86-.53-4.78.37-9.21,2.06-13.67,3.76-2.45.93-3.09,2.18-3.4,4.57-1.68,13.31-5.67,25.91-11.94,37.79-3.15,5.97-6.78,11.61-10.95,16.91-.5.63-.63,1.02-.14,1.77,1.44,2.19,2.08,4.75,3.18,7.1,1.9,4.04,4.66,7.45,7.6,10.73.36.4.82.53,1.32.65,6.43,1.44,11.48,6.82,12.29,13.38.57,4.57-2.41,8.73-7.58,9.03-6.07.35-12.92-4.96-14.42-11.08-.67-2.74-2.65-4.05-4.49-5.59-3.39-2.84-7.25-4.91-11.44-6.37-.64-.22-1.36-.42-1.86-.85-1.38-1.19-2.36-.61-3.58.36-13.17,10.46-27.97,17.53-44.35,21.31-4.06.94-8.18,1.57-12.3,2.16-.41.06-.87,0-.95.56-.41,2.95-2.02,5.46-2.99,8.21-1.38,3.92-1.92,7.99-2.17,12.11-.04.72.45,1.17.75,1.72,3.05,5.61,3.04,11.18-.2,16.7-1.33,2.28-3.46,3.56-5.91,4.36h-2.49Z"/>
      <path class="cls-3" d="M260.05,155.27c4.76,2.47,6.39,6.6,6.57,11.29.1,2.67-.54,5.38-1,8.05-2.31,13.3-6.9,25.76-13.74,37.4-2.99,5.08-6.28,9.97-10.15,14.41-2.62,3-6.16,4-10.12,3.33-.45-.08-.86-.34-1.49-.18.42,1.8.77,3.62.3,5.48-.7,2.8-2.01,5.13-4.32,6.99-12.49,10.04-26.43,17.2-41.92,21.33-5.56,1.48-11.2,2.73-16.93,3.01-4.32.21-8.22-1.38-10.73-5.31-.19-.3-.4-.6-.59-.9-.14.06-.26.07-.29.13-2.14,3.93-5.73,5.58-9.92,6.09-2.71.33-5.4-.38-8.07-.81-12.06-1.96-23.49-5.81-34.28-11.56-6.18-3.29-12.15-6.97-17.41-11.59-2.76-2.42-3.57-5.93-2.77-9.61.25-1.14.33-1.48-1.09-1.17-4.64,1.02-8.53-.77-11.48-4.13-6.87-7.81-12.28-16.6-16.59-26.07-4.87-10.71-7.97-21.91-9.2-33.59-.52-4.91,1.18-9.04,5.57-11.76.19-.12.36-.27.67-.51-3.66-1.79-5.35-4.87-6.17-8.56-.5-2.22-.07-4.4.23-6.58,2.6-18.95,9.64-36.08,20.94-51.51,2.02-2.76,4.36-5.03,7.47-6.47,2.36-1.1,4.79-1.6,7.35-.82.81.24,1.09.03.86-.83-1.01-3.79.34-7.01,2.38-10.11,2.36-3.57,6.02-5.61,9.41-7.9,12.4-8.38,25.98-14,40.68-16.86,3.2-.62,6.44-1.36,9.67-1.4,4.04-.05,7.65,1.43,10.09,4.96.24.34.44.7.66,1.05.05.07.12.13.18.2.08-.05.19-.07.23-.14,3.49-5.68,8.79-6.66,14.86-5.85,15.27,2.03,29.53,6.91,42.77,14.79,5.47,3.25,10.72,6.83,15.41,11.12,2.92,2.67,3.95,6.23,3.24,10.18-.27,1.48-.33,1.41,1.21,1.17,4.04-.64,7.52.32,10.18,3.65,11.22,14.03,18.64,29.84,22.29,47.41.79,3.81,1.74,7.66,1.51,11.58-.27,4.49-2.03,8.28-6.49,10.59Z"/>
      <path class="cls-9" d="M155.44,281.72c0,2.39-.03,4.79.02,7.18.02.83-.2,1.2-1.08,1.06-.59-.1-1.19-.12-1.79-.17q-2.5-.2-2.59-2.66c-.19-5.11-1.33-9.99-3.46-14.64-.58-1.25-1.11-2.52-1.46-3.86-.2-.76-.03-1.11.87-.96,1.13.2,2.29.2,3.4.43,3.83.82,6.04,3.61,6.05,7.54,0,2.02,0,4.05,0,6.07h.04Z"/>
      <path class="cls-3" d="M166.73,267.55c-.14,1.75-.74,3.15-1.39,4.51-2.5,5.22-3.57,10.77-3.74,16.51-.03.87-.22,1.21-1.15,1.18-1.1-.03-2.2.11-3.3.21-.6.06-.8-.17-.79-.77.01-5.1-.05-10.2,0-15.3.03-2.21,2.71-5.12,5.19-5.65,1.64-.35,3.34-.45,5.17-.68Z"/>
      <path class="cls-9" d="M29.45,155.23c-2.44,0-4.88-.02-7.31.01-.73,0-1.11-.09-.97-.98.14-.9.17-1.84.11-2.75-.07-1.16.3-1.57,1.54-1.6,4.57-.08,9.04-.85,13.33-2.49,1.88-.72,3.72-1.56,5.61-2.26,1.57-.58,1.64-.47,1.59,1.22-.11,3.75-1.24,6.85-5.01,8.43-.56.24-1.1.39-1.71.39-2.39-.02-4.78,0-7.18,0,0,0,0,.02,0,.03Z"/>
      <path class="cls-3" d="M29.62,156.29c2.11,0,4.25.18,6.34-.05,3.1-.34,6.69,2.78,7,5.61.14,1.32.26,2.65.42,3.97.09.69-.25.78-.79.67-1.13-.22-2.2-.65-3.23-1.14-5.22-2.48-10.72-3.76-16.49-3.83-1.15-.01-1.68-.33-1.59-1.56.08-1.18-.49-2.75.09-3.44.62-.74,2.24-.19,3.43-.22,1.61-.03,3.22,0,4.83-.01Z"/>
      <path class="cls-3" d="M68.69,83.94c-.88-.93-1.31-2-1.68-3.07-2-5.73-5.17-10.74-9.36-15.11-.62-.65-.64-1.05,0-1.66.73-.7,1.42-1.45,2.02-2.26.57-.76.91-.55,1.47.01,3.43,3.47,6.9,6.9,10.34,10.36,1.71,1.72,2.06,5.78.61,7.7-1.05,1.39-2.24,2.67-3.39,4.03Z"/>
      <path class="cls-9" d="M76.89,72.9c-2.12-.17-4.05-.64-5.65-2.33-3.06-3.24-6.27-6.33-9.45-9.44-.6-.58-.69-.91.03-1.46.91-.69,1.74-1.5,2.57-2.28.41-.38.71-.42,1.14,0,4.6,4.49,9.99,7.69,16.03,9.88,2.69.98,2.63,1.14.45,3.05-1.48,1.3-2.87,2.79-5.12,2.58Z"/>
      <path class="cls-9" d="M70.05,228.64c1.64,2.18,3.76,3.81,4.32,6.48.41,1.98.16,3.75-1.42,5.28-3.4,3.3-6.73,6.67-10.01,10.07-.79.82-1.21.74-1.84-.08-.77-1.01-2.23-1.92-2.29-2.94-.05-.89,1.41-1.88,2.21-2.81,2.95-3.45,5.32-7.24,6.92-11.49.56-1.5,1.11-3.01,2.11-4.5Z"/>
      <path class="cls-3" d="M280.83,154.27c-2.16,0-4.34-.19-6.47.05-2.73.3-5.79-2.49-6.14-5.4-.15-1.23-.18-2.47-.33-3.7-.11-.92.05-1.35,1.06-.85.45.22.96.33,1.41.55,5.49,2.68,11.31,3.96,17.38,4.13.96.03,1.25.33,1.21,1.26-.03.96.07,1.93.2,2.88.11.85-.16,1.12-1.03,1.1-2.43-.06-4.87-.02-7.3-.02h0Z"/>
      <path class="cls-3" d="M228.49,69.11c.78-.74,1.7-1.06,2.59-1.37,5.73-2,10.73-5.15,15.08-9.35.6-.58,1.01-.7,1.64-.03.91.96,1.93,1.83,2.9,2.73-.91.95-1.81,1.92-2.74,2.85-2.56,2.58-5.13,5.14-7.69,7.71-1.77,1.78-4.2,2.24-6.54,1.28-2.05-.84-3.5-2.47-5.25-3.83Z"/>
      <path class="cls-3" d="M243.31,227.02c.33.01.39.28.48.46.37.78.77,1.57,1.06,2.39,1.95,5.5,4.99,10.31,9.04,14.49.8.83.8,1.36-.04,2.08-.94.79-1.52,2.49-2.57,2.46-.88-.03-1.73-1.49-2.57-2.33-2.64-2.63-5.23-5.31-7.93-7.88-1.88-1.79-2.11-3.9-1.43-6.17.64-2.12,2.31-3.61,3.68-5.27.08-.1.2-.16.29-.23Z"/>
      <path class="cls-3" d="M62.68,252.03c3.43-3.41,6.77-6.75,10.14-10.07,1.6-1.57,6.55-2,8.72-.8,1.17.65,2.15,1.57,3.19,2.4.61.49.3.71-.19.94-.71.33-1.39.72-2.12.98-5.7,1.96-10.64,5.12-14.98,9.26-.67.64-1.07.74-1.75.04-.92-.95-1.96-1.79-3.01-2.73Z"/>
      <path class="cls-3" d="M144.16,43.29c.66-2.52,1.9-4.69,2.73-7.01,1.46-4.1,2.18-8.34,2.24-12.67.02-1.21.39-1.62,1.58-1.55,1.18.07,2.8-.52,3.44.05.78.69.23,2.33.25,3.56.03,3.31-.14,6.62.05,9.92.2,3.48-2.97,7.27-6.95,7.46-1.08.05-2.16.16-3.33.24Z"/>
      <path class="cls-9" d="M165.69,43.33c-1.63-.4-3.1-.2-4.55-.51-3.25-.67-5.68-3.5-5.69-6.78-.01-4.32,0-8.64-.06-12.95-.01-.98.25-1.33,1.24-1.11,1.29.28,2.97-.47,3.82.47.78.85.24,2.47.36,3.74.46,4.73,1.56,9.3,3.6,13.62.51,1.07.97,2.17,1.27,3.53Z"/>
      <path class="cls-9" d="M228.24,242.09c.62-.53,1.1-.95,1.59-1.36,3.22-2.74,6.47-3.14,10.22-1.23.24.12.43.34.63.53,3.07,3.05,6.11,6.12,9.2,9.15.6.58.73.96-.02,1.48-.49.34-.91.77-1.36,1.17-1.77,1.6-1.8,1.63-3.51.07-4.02-3.68-8.54-6.49-13.68-8.32-1.03-.37-2.04-.79-3.07-1.48Z"/>
      <path class="cls-9" d="M268.03,165.41c-.57-4.94,1.61-8.42,6.27-10.05.29-.1.63-.11.94-.11,4.27-.01,8.55,0,12.82-.05.92-.01,1.25.26,1.1,1.16-.09.54-.09,1.1-.15,1.65-.24,2.45-.24,2.52-2.64,2.62-5.48.23-10.68,1.53-15.63,3.89-.85.41-1.73.83-2.71.88Z"/>
      <path class="cls-9" d="M243.78,84.09c-3.87-3.27-4.76-7.05-2.72-11.55.15-.32.4-.61.66-.86,3.04-3.06,6.11-6.1,9.13-9.19.55-.57.85-.59,1.35.03.86,1.07,2.42,2.02,2.53,3.13.12,1.14-1.56,2.09-2.44,3.13-3.02,3.62-5.41,7.61-7.01,12.06-.4,1.12-.86,2.22-1.49,3.24Z"/>
      <path class="cls-3" d="M56.4,56.44c-3.71-1.89-7.25-2.61-10.93-.82-2.22-4.6-.17-9.66,4.36-10.75,1.69-.4,3.38-.24,5.03.28.38.12.84.17.55.81-1.49,3.33-.89,6.54.65,9.68.08.16.14.33.33.8Z"/>
      <path class="cls-3" d="M15.02,155.72c-1.96.75-3.61,1.41-5.01,2.54-1.35,1.09-2.44,2.38-3.03,4.01-.21.58-.36.75-.93.43-2.75-1.54-4.79-3.61-4.89-6.97-.08-2.72,2.18-5.79,4.93-6.94.35-.15.62-.37.83.22,1.35,3.65,4.31,5.43,8.1,6.71Z"/>
      <path class="cls-3" d="M256.22,56.4c1.2-2.3,1.93-4.58,1.78-7.09-.07-1.07-.27-2.09-.75-3.04-.27-.53-.25-.81.35-.98,3.02-.84,5.97-.92,8.35,1.46,2.39,2.38,2.34,5.32,1.49,8.34-.09.31-.1.8-.69.52-3.58-1.71-6.95-.82-10.28.8-.03.01-.07,0-.27-.02Z"/>
      <path class="cls-3" d="M155.93,296.16c1.23,3.63,2.98,6.64,6.7,8,.51.19.42.5.22.86-1.53,2.66-3.49,4.78-6.81,4.85-3.47.08-5.5-2.11-7.09-4.84-.17-.29-.42-.67.15-.87,3.63-1.28,5.39-4.19,6.59-7.59.04-.13.14-.23.25-.42Z"/>
      <path class="cls-3" d="M256.16,254.71c2.22,1.09,4.52,1.88,7.06,1.66,1.02-.09,2-.28,2.93-.7.42-.19.74-.39.95.24,1.39,4.11.27,8.9-4.41,10.17-1.82.49-3.65.3-5.44-.24-.3-.09-.71-.13-.43-.72,1.58-3.31.93-6.52-.55-9.68-.09-.2-.28-.37-.11-.73Z"/>
      <path class="cls-3" d="M154.93,14.82c-.86-2.48-1.86-4.56-3.64-6.17-.86-.78-1.78-1.46-2.89-1.79-.62-.19-.68-.44-.37-.97,1.53-2.67,3.5-4.77,6.83-4.82,3.4-.05,5.44,2.04,7,4.76.2.35.5.72-.16.96-3.5,1.27-5.3,4.04-6.47,7.36-.04.13-.11.25-.3.67Z"/>
      <path class="cls-3" d="M57.9,256.15c-.74,1.89-1.48,3.5-1.63,5.3-.14,1.69.02,3.3.69,4.85.19.43.39.74-.21.94-4.22,1.4-8.85.19-10.15-4.27-.54-1.87-.34-3.73.2-5.57.1-.33.18-.69.75-.43,3.27,1.51,6.43.93,9.54-.55.16-.08.34-.12.81-.28Z"/>
      <path class="cls-3" d="M296.17,154.78c3.77-1.2,6.74-3.03,8.14-6.71.22-.59.55-.34.85-.17,2.76,1.53,4.88,3.59,4.85,6.97-.03,3.37-2.16,5.42-4.92,6.94-.3.16-.57.38-.79-.22-1.24-3.37-3.88-5.23-7.12-6.39-.3-.11-.59-.24-1.01-.42Z"/>
      <path class="cls-9" d="M163.54,12.67c-.13,2.94-.68,5.41-2.02,7.69-.41.7-.89.93-1.67.83-.86-.11-1.76-.29-2.61-.18-1.58.19-1.83-.58-1.75-1.9.21-3.88,1.17-7.43,4.29-10.06.77-.65,1.72-1.52,2.63-1.23.84.26.66,1.58.84,2.45.19.89.22,1.82.29,2.4Z"/>
      <path class="cls-9" d="M256.64,261.17c0,1.36.04,3.16-1.06,3.65-.98.44-2.2-.96-3.17-1.77-2.51-2.07-4.26-4.64-5.06-7.84-.16-.63-.07-1.02.43-1.43.72-.57,1.37-1.23,2.05-1.84,1.38-1.24,1.39-1.24,2.64.06,2.47,2.56,4.1,5.51,4.17,9.16Z"/>
      <path class="cls-9" d="M154.39,18.72q.04,2.18-1.86,2.26c-.46.02-.92.05-1.37.1-2.43.25-2.42.24-3.43-2.08-1.47-3.37-1.59-6.82-.74-10.35.22-.91.61-1.09,1.44-.68,2.94,1.44,4.49,3.96,5.38,6.95.39,1.31.63,2.68.59,3.81Z"/>
      <path class="cls-9" d="M262.65,55.74c1.51.07,3.22,0,3.73,1.07.5,1.04-.88,2.14-1.63,3.08-2.02,2.54-4.6,4.28-7.76,5.15-.71.2-1.21.08-1.68-.5-.6-.75-1.2-1.53-1.93-2.14-1.07-.9-.79-1.52.1-2.36,2.65-2.51,5.65-4.19,9.17-4.3Z"/>
      <path class="cls-9" d="M290.06,151.27q-.11-2.84,2.61-3.91c3.18-1.25,6.41-1.32,9.71-.5,1.05.26,1.1.68.68,1.52-1.52,3.03-4.18,4.52-7.28,5.38-1.37.38-2.8.44-4.22.51-1.06.05-1.65-.32-1.51-1.49.06-.5,0-1.01,0-1.51Z"/>
      <path class="cls-9" d="M290.02,158.33c.07-2.96.07-3.04,3.09-2.83,4.08.29,7.59,1.74,9.77,5.46.79,1.34.65,1.6-.84,1.94-3.16.72-6.28.63-9.32-.55-2.78-1.08-2.78-1.09-2.71-4.02Z"/>
      <path class="cls-9" d="M262.42,255.41c-4.07-.26-7.23-2.13-9.88-5.01-.35-.38-.37-.65-.01-1.04.91-.98,1.8-1.96,2.66-2.99.42-.5.91-.4,1.38-.28,4.28,1.14,7.34,3.81,9.53,7.59.4.7-.05.91-.53,1.11-1.03.41-2.13.54-3.14.62Z"/>
      <path class="cls-9" d="M256.97,50.04c-.14,4.02-2.09,7.14-4.92,9.82-.44.42-.75.36-1.16-.03-.66-.64-1.32-1.31-2.07-1.82-1.23-.84-1.34-1.83-.85-3.15,1.37-3.7,3.81-6.44,7.16-8.45.75-.45,1.05-.14,1.31.52.39,1,.52,2.04.54,3.11Z"/>
      <path class="cls-9" d="M20.41,160.93c.44,1.17-.37,1.73-1.52,2.19-3.27,1.29-6.59,1.46-10,.64-1.05-.25-1.21-.69-.75-1.59,1.47-2.86,3.95-4.39,6.91-5.27,1.31-.39,2.68-.59,4.07-.61.73-.01,1.07.14,1.06.97-.01,1.14.13,2.29.23,3.67Z"/>
      <path class="cls-9" d="M164.37,298.12c.04,1.39-.23,2.73-.49,4.08-.24,1.21-.78,1.13-1.61.7-2.96-1.52-4.48-4.12-5.31-7.18-.32-1.18-.37-2.44-.54-3.67-.11-.78.13-1.19,1.02-1.21,1.42-.02,2.84-.11,4.26-.23.79-.07,1.03.44,1.29.99.95,2.07,1.48,4.23,1.39,6.52Z"/>
      <path class="cls-9" d="M13.01,147.2c2.21.09,4.3.5,6.31,1.37.81.35,1.23.78,1.12,1.74-.16,1.36-.21,2.74-.26,4.12-.02.5-.16.76-.71.76-3.76,0-8.82-1.47-11-5.34-.98-1.74-.99-1.71.91-2.18,1.21-.3,2.44-.42,3.64-.48Z"/>
      <path class="cls-9" d="M57.21,262.62c.19-3.78,1.85-6.76,4.35-9.34.38-.39.67-.32,1.04.03,1.11,1.03,2.23,2.05,3.39,3.02.48.41.49.82.3,1.33-1.35,3.8-3.86,6.6-7.33,8.58-.54.31-.82.14-1.04-.39-.45-1.07-.67-2.19-.71-3.24Z"/>
      <path class="cls-9" d="M49.93,55.63c3.69.17,6.62,1.82,9.17,4.29.46.45.31.77-.04,1.16-.74.81-1.59,1.57-2.18,2.48-.9,1.37-1.87,1.34-3.23.71-3.19-1.49-5.6-3.76-7.39-6.76-.45-.76-.14-1.04.5-1.3,1.04-.41,2.13-.52,3.17-.57Z"/>
      <path class="cls-9" d="M55.6,49.77c.2-1.24-.05-2.99,1.07-3.51,1.05-.49,2.14.89,3.09,1.63,2.23,1.74,3.78,3.98,4.81,6.6.31.78.24,1.33-.47,1.89-1.08.85-2.08,1.81-3.11,2.73-.33.3-.6.51-1.03.07-2.53-2.64-4.22-5.65-4.36-9.42Z"/>
      <path class="cls-9" d="M51.4,256.84c-1.31-.11-3-.02-3.55-1.08-.5-.96.85-2.05,1.55-2.96,1.7-2.18,3.85-3.77,6.42-4.82.93-.38,1.6-.38,2.27.48.78,1.01,1.69,1.94,2.56,2.89.33.36.61.68.12,1.15-2.64,2.52-5.66,4.19-9.37,4.35Z"/>
      <path class="cls-9" d="M147.43,297.22c.01-2.02.6-3.89,1.41-5.7.27-.6.6-.96,1.35-.89,1.37.13,2.75.17,4.13.24.46.03.94-.03.97.67.17,3.72-1.46,8.98-5.35,11.13-1.59.88-1.72.82-2.13-.94-.35-1.48-.44-2.98-.37-4.5Z"/>
      <path class="cls-5" d="M83.41,241.05c-2.65-1.93-5.45-2.1-8.58-1,1.05-3.12.98-5.95-1.37-8.77,1.37.51,2.31.91,3.29,1.21,1.42.44,2.88.53,4.36.39.33-.03.98-.32.9.38-.31,2.71.25,5.26,1.4,7.79Z"/>
      <path class="cls-5" d="M155.81,272.28c-1.5-3.13-3.63-4.97-7.12-5.29,1.27-.6,2.35-1.06,3.37-1.61,1.27-.68,2.33-1.62,3.22-2.76.2-.26.39-.9.88-.23,1.63,2.25,3.96,3.49,6.94,4.56-3.66.39-5.83,2.19-7.29,5.33Z"/>
      <path class="cls-5" d="M239.71,73.66c-1.21,3.15-.96,5.94,1.22,8.76-1.4-.5-2.4-.89-3.43-1.22-1.38-.44-2.8-.42-4.23-.33-.27.02-.92.4-.81-.44.18-1.33.13-2.65-.14-3.97-.27-1.3-.83-2.48-1.51-4.12,2.84,2.25,5.67,2.48,8.89,1.31Z"/>
      <path class="cls-5" d="M239.67,229.51c-1.87,2.63-2.04,5.41-.93,8.53-3.11-1.03-5.94-.98-8.49,1.12-.28-.53.09-.84.23-1.16.86-2.02,1.38-4.08,1.06-6.29-.06-.42-.26-.96.57-.85,2.63.34,5.09-.25,7.56-1.35Z"/>
      <path class="cls-5" d="M44.21,148.91c1.06,2.73,2.44,5.07,4.94,6.72-2.43,1.72-3.96,4.04-4.94,6.89-.5-3.28-2.34-5.47-5.44-6.85,3.06-1.42,4.91-3.54,5.43-6.76Z"/>
      <path class="cls-5" d="M161.72,44.04c-2.73,1.06-5.12,2.45-6.82,4.97-1.75-2.52-4.12-3.97-6.9-4.95,3.25-.5,5.48-2.23,6.87-5.45,1.44,3.09,3.57,5.01,6.85,5.43Z"/>
      <path class="cls-3" d="M81.92,72.16c-1.14,2.66-1.94,5.3-1.31,8.31-2.88-.42-5.54.04-8.2,1.31,1.68-2.65,2.16-5.4.79-8.62,3.32,1.23,6.11.95,8.72-1Z"/>
      <path class="cls-3" d="M272.45,155.28c-3.24,1.39-4.96,3.7-5.42,7.25-1-3.09-2.38-5.53-4.98-7.26,2.5-1.72,3.97-4.1,4.99-7.31.46,3.67,2.28,5.91,5.42,7.32Z"/>
      <path class="cls-1" d="M248.85,155.41c.09,51.31-41.6,93.05-93.06,93.17-51.38.13-93.22-41.68-93.2-93.12.02-51.43,41.66-93.07,93.08-93.1,51.37-.03,93.09,41.63,93.18,93.05Z"/>
      <path class="cls-3" d="M155.67,63.25c50.84-.03,92.27,41.4,92.23,92.23-.04,50.9-41.43,92.27-92.25,92.22-50.89-.05-92.24-41.47-92.14-92.31.1-50.91,41.32-92.12,92.16-92.14Z"/>
      <path class="cls-7" d="M155.66,69.11c47.65-.04,86.47,38.78,86.41,86.42-.05,47.69-38.69,86.38-86.29,86.4-47.79.01-86.55-38.74-86.48-86.48.07-47.69,38.68-86.3,86.35-86.34Z"/>
      <path class="cls-8" d="M212.08,91.49c-3.81,4.58-8.86,7.13-14.36,8.97-.35.12-.7.22-1.04.34-2.18.8-3.63,2.1-4.55,4.45-3.23,8.3-8.4,15.4-14.5,21.84-.51.54-.86.58-1.47.14-3.91-2.88-8.26-4.82-13.01-5.84-.84-.18-1.17-.46-1.16-1.41.15-9.07,1.77-17.83,5.43-26.16.67-1.52.69-2.9.07-4.34-.9-2.09-1.93-4.13-2.76-6.25-1.49-3.77-2.23-7.71-2.36-11.78-.03-.91.24-1.03,1.08-.96,15.93,1.41,30.26,7.01,43.11,16.45,1.92,1.41,3.84,2.83,5.51,4.54Z"/>
      <path class="cls-8" d="M72.97,163.51c4.27.33,8.76,1.31,12.97,3.37.86.42,1.72.84,2.58,1.26,2.16,1.05,4.18,1.11,6.5.07,6.08-2.75,12.56-4.09,19.19-4.76,2.16-.22,4.31-.18,6.47-.29.56-.03.98-.06,1.17.75,1.08,4.43,2.94,8.53,5.72,12.17.42.55.23.86-.2,1.25-6.42,5.9-13.42,10.91-21.62,14.04-1.81.69-2.94,1.82-3.64,3.57-1.27,3.22-2.25,6.56-4.08,9.54-1.59,2.59-3.49,4.93-5.5,7.21-.52.59-.77.43-1.23-.1-6.64-7.52-11.7-16.01-15.32-25.34-2.52-6.5-4.25-13.2-5.01-20.14-.02-.18-.05-.36-.09-.54q-.4-2.13,2.09-2.06Z"/>
      <path class="cls-3" d="M121.65,155.47c-.07-18.64,15.14-33.88,33.93-34,18.71-.12,34.07,15.15,34.15,33.93.08,18.71-15.22,34.04-34.01,34.07-18.77.03-34-15.17-34.07-34Z"/>
      <path class="cls-8" d="M119.15,149.11c-8.66-.41-17.09-1.89-25.04-5.48-1.46-.66-2.77-.59-4.21-.09-1.6.56-3.1,1.35-4.63,2.06-3.87,1.79-7.92,2.76-12.17,3-.05,0-.09,0-.14,0q-2.52.13-2.22-2.45c1.97-16.53,8.1-31.31,18.5-44.32.66-.83,1.01-.73,1.66-.03,3.71,4.09,6.58,8.66,8.24,13.95.16.52.37,1.03.55,1.55.76,2.17,2.06,3.61,4.37,4.49,8.21,3.12,15.16,8.24,21.56,14.18.62.58.55.95.15,1.6-1.85,2.96-3.12,6.18-3.96,9.56q-.51,2.04-2.65,2Z"/>
      <path class="cls-8" d="M193.04,163.14c8.56.4,16.72,2.02,24.45,5.5,1.28.57,2.43.52,3.68.12,1.66-.53,3.19-1.35,4.76-2.09,4.37-2.06,8.98-3.02,13.79-3.2.83-.03,1.04.09.94,1.02-1.78,16.57-7.93,31.33-18.27,44.37-1.36,1.72-1.39,1.72-2.99.17-3.56-3.47-5.67-7.8-7.25-12.44-.18-.52-.38-1.03-.55-1.55-.76-2.23-2.13-3.65-4.46-4.55-8.32-3.22-15.38-8.42-21.84-14.51-.65-.62-.62-1.09-.19-1.77,2.04-3.18,3.57-6.57,4.39-10.27.15-.67.53-.86,1.18-.82.82.05,1.65.01,2.36.01Z"/>
      <path class="cls-8" d="M147.52,72.98c-.33,4.08-1.26,8.29-3.16,12.27-.86,1.81-1.84,3.57-2.29,5.55-.19.83-.16,1.6.2,2.4,3.34,7.42,5.11,15.22,5.52,23.33.07,1.28.11,2.57.25,3.85.1.85-.35,1.15-1.03,1.31-3.64.85-7,2.35-10.12,4.39-.72.47-1.15.41-1.73-.23-6.07-6.59-11.14-13.83-14.37-22.24-.55-1.43-1.45-2.3-2.74-2.84-2.27-.95-4.59-1.77-6.86-2.72-3.86-1.61-7.08-4.17-10.19-6.89-1.09-.95.01-1.26.44-1.61,5.5-4.53,11.48-8.33,17.92-11.37,7.48-3.53,15.33-5.84,23.47-7.16,1.17-.19,2.38-.17,3.55-.38,1.14-.2,1.39.2,1.12,1.22-.07.26-.01.55-.01,1.11Z"/>
      <path class="cls-8" d="M164.23,240.56c-.68.13-.73-.38-.69-1.01.34-4.91,1.17-9.7,3.36-14.18.92-1.88,1.94-3.72,2.31-5.82.11-.62.08-1.16-.18-1.72-2.68-5.8-4.29-11.93-5.16-18.23-.42-3.04-.72-6.11-.65-9.2.01-.68.22-.9.87-1.06,3.43-.83,6.69-2.12,9.66-4.03.8-.51,1.15-.07,1.6.4,6.32,6.61,11.58,13.94,14.9,22.52.7,1.8,1.82,2.86,3.49,3.55,3.07,1.27,6.3,2.14,9.18,3.88,2.37,1.43,4.52,3.1,6.65,4.85.77.64.52.88-.11,1.38-9.45,7.61-20.02,13.03-31.75,16.19-4.38,1.18-8.83,1.93-13.49,2.49Z"/>
      <path class="cls-8" d="M238.37,148.51c-4.6-.17-8.73-1.22-12.66-3.09-1.81-.86-3.56-1.84-5.56-2.25-.75-.15-1.43-.16-2.13.17-5.85,2.71-12.03,4.29-18.38,5.15-2.86.39-5.75.62-8.65.66-.78.01-1.04-.31-1.17-.95-.62-3.11-1.71-6.05-3.17-8.86-.43-.83-.33-1.32.35-1.97,6.8-6.54,14.34-11.97,23.22-15.34,1.52-.57,2.41-1.6,2.99-2.97.7-1.63,1.29-3.31,1.9-4.98,1.5-4.1,3.94-7.61,6.75-10.91.66-.77.97-.48,1.43.13,3.76,4.92,7,10.15,9.66,15.75,3.63,7.64,5.99,15.66,7.31,24,.21,1.36.26,2.74.5,4.09.16.89-.03,1.29-.97,1.27-.55-.01-1.1.06-1.41.08Z"/>
      <path class="cls-8" d="M149.19,192.92c-.45,8.29-1.99,16.43-5.46,24.11-.64,1.42-.62,2.72-.09,4.06.62,1.57,1.33,3.1,2.05,4.62,2.07,4.37,2.91,9.02,3.19,13.81.05.91-.19,1.14-1.1,1.06-7.93-.69-15.59-2.53-23-5.4-7.6-2.94-14.59-6.94-21.09-11.86-1.01-.77-.97-1.2-.06-2.03,4.28-3.87,9.16-6.64,14.66-8.36.69-.22,1.36-.52,2.02-.84,1.22-.59,2.11-1.41,2.63-2.78,3.23-8.52,8.4-15.8,14.55-22.44.72-.78,1.3-.91,2.22-.4,2.44,1.37,5.07,2.33,7.8,2.91,1.37.29,2.02.77,1.69,2.21-.09.39-.01.82-.01,1.33Z"/>
      <path class="cls-9" d="M211.13,120.57c-6.01,2.23-11.45,5.25-16.49,9-2.77,2.06-5.42,4.27-7.87,6.7-.84.84-1.34,1.17-1.99-.16-.44-.89-1.13-1.68-1.78-2.45-.44-.53-.45-.86.05-1.36,5.12-5.1,10.21-10.22,15.3-15.34.88-.89,1.99-.9,3.08-.88,3.13.06,7.28,1.99,9.69,4.5Z"/>
      <path class="cls-9" d="M175.46,184.4c1.27-1.04,2.44-1.93,3.53-2.91.51-.45.8-.38,1.24.06,5.1,5.11,10.22,10.2,15.33,15.31.9.9.86,2.1.78,3.24-.26,3.63-1.97,6.6-4.42,9.54-3.64-9.77-9.34-17.96-16.46-25.23Z"/>
      <path class="cls-3" d="M209.13,192.47c-3.18,2.56-6.38,4.51-10.45,4.45-1.06-.02-1.91-.34-2.69-1.13-4.87-4.96-9.77-9.89-14.7-14.78-.68-.68-.72-1.08-.03-1.74.76-.73,1.47-1.54,2.05-2.41.53-.79.84-.65,1.44-.07,5.84,5.62,12.33,10.31,19.71,13.72,1.45.67,2.95,1.26,4.67,1.98Z"/>
      <path class="cls-3" d="M181.68,131.96c-1.12-1.06-2.18-2.08-3.27-3.06-.44-.39-.63-.62-.1-1.17,6.71-6.94,12.05-14.78,15.5-23.84.06-.15.14-.29.28-.57,2.37,2.83,4.09,5.79,4.43,9.4.15,1.57-.24,2.87-1.47,4.06-4.86,4.69-9.61,9.5-14.41,14.26-.32.32-.66.63-.96.91Z"/>
      <path class="cls-9" d="M219.15,168.26c-5.05-2.29-10.1-3.88-15.35-4.85-4.16-.77-8.35-1.25-12.59-1.28-.99,0-1.26-.2-1.01-1.23.26-1.06.32-2.18.35-3.28.02-.69.19-.97.93-.97,7.08,0,14.16-.02,21.24-.04.82,0,1.37.47,1.92.95,2.78,2.4,3.78,5.65,4.36,9.11.07.44.08.9.13,1.59Z"/>
      <path class="cls-3" d="M92.19,168.25c.44-4.09,1.35-7.77,4.39-10.58.77-.72,1.62-1.08,2.72-1.07,6.71.06,13.43.08,20.15.05.99,0,1.43.22,1.39,1.27-.03.68.08,1.38.18,2.06.28,2.09.29,2.04-1.88,2.14-8.69.38-17.14,1.9-25.16,5.41-.5.22-1.01.41-1.78.72Z"/>
      <path class="cls-9" d="M167.1,91.99c-1.37,3.17-2.57,6.29-3.46,9.52-1.64,5.92-2.51,11.94-2.61,18.08-.02,1.08-.18,1.44-1.36,1.15-1.01-.25-2.1-.18-3.16-.21-.65-.02-.97-.21-.97-.97.01-7.13-.02-14.26-.02-21.39,0-1.19.88-1.89,1.64-2.59,2.3-2.15,6.42-3.63,9.94-3.59Z"/>
      <path class="cls-9" d="M144.31,218.84c-.2-.49.1-.8.24-1.11,3.77-8.43,5.35-17.33,5.68-26.49.04-1.03.18-1.35,1.29-1.09,1.01.24,2.1.18,3.16.21.68.03.95.3.95,1.02,0,6.99.03,13.98.07,20.97,0,1.25-.76,2.04-1.58,2.78-2.79,2.5-6.19,3.41-9.8,3.69Z"/>
      <path class="cls-3" d="M143,91.89c4.03.45,7.78,1.38,10.59,4.59.56.65.84,1.33.84,2.23-.04,6.85-.05,13.69,0,20.54,0,1.09-.3,1.43-1.37,1.41-1-.02-2.02.12-3,.32-.87.18-1.09-.05-1.1-.93-.04-5.44-.72-10.8-1.98-16.09-.85-3.57-1.98-7.05-3.45-10.42-.21-.49-.54-.95-.52-1.65Z"/>
      <path class="cls-3" d="M137.54,185.45c-6.97,7.22-12.54,15.3-16.07,24.88-2.61-3.28-4.62-6.55-4.39-10.75.05-.97.36-1.74,1.07-2.44,4.75-4.69,9.48-9.4,14.18-14.13.58-.58.97-.75,1.67-.17,1.09.91,2.28,1.69,3.54,2.6Z"/>
      <path class="cls-3" d="M102.29,119.69c2.94-2.35,6.08-4.24,10.03-4.27,1.26,0,2.26.39,3.18,1.33,4.6,4.7,9.25,9.35,13.92,13.99.61.61.77,1.03.06,1.63-.38.32-.7.73-1.01,1.13-1.71,2.18-1.72,2.2-3.72.38-6.39-5.79-13.46-10.49-21.55-13.59-.32-.12-.75-.14-.92-.61Z"/>
      <path class="cls-9" d="M92.18,143.89c4.01,1.83,7.86,3.17,11.83,4.13,5.15,1.25,10.39,1.93,15.69,2.03,1.2.02,1.47.44,1.28,1.54-.17.95-.23,1.92-.23,2.89,0,.74-.2,1.02-1.01,1.02-7.09-.03-14.17-.03-21.26,0-.89,0-1.47-.46-2.03-1-2.93-2.82-3.83-6.46-4.27-10.6Z"/>
      <path class="cls-3" d="M219.17,144.2c-.42,3.95-1.34,7.66-4.45,10.47-.65.59-1.33.87-2.23.86-6.9-.04-13.8-.07-20.7-.03-1.02,0-1.23-.36-1.22-1.26.02-.96-.03-1.94-.2-2.88-.17-.94-.02-1.27,1.03-1.3,6.46-.15,12.81-1.04,19.01-2.87,2.47-.73,4.88-1.6,7.24-2.62.44-.19.85-.57,1.51-.38Z"/>
      <path class="cls-3" d="M156.85,201.77c0-3.45.02-6.89-.02-10.34-.01-.83.22-1.18,1.07-1.12.5.04,1.01-.01,1.51-.05.89-.07,2.01-.73,2.6-.15.47.46.26,1.64.29,2.51.35,8.75,2.08,17.19,5.65,25.21.35.78.31,1.06-.65.93-3.58-.47-6.9-1.48-9.47-4.2-.73-.77-1.08-1.63-1.07-2.72.05-3.35.02-6.71.02-10.06h.06Z"/>
      <path class="cls-9" d="M119.31,102.65c.71,1.68,1.31,3.21,2,4.69,3.26,7.08,7.74,13.34,13.06,19.01.74.79.57,1.07-.19,1.6-.86.6-1.69,1.29-2.4,2.06-.63.67-.96.47-1.51-.08-4.52-4.53-8.98-9.12-13.64-13.5-1.79-1.68-1.99-3.5-1.6-5.6.57-3.06,2.16-5.63,4.28-8.18Z"/>
      <path class="cls-9" d="M104.24,193.12c1.61-.67,3.01-1.22,4.38-1.84,7.09-3.22,13.37-7.64,19.05-12.94.68-.63,1.07-.73,1.68.05.71.9,1.53,1.71,2.36,2.5.47.44.38.71-.02,1.11-4.94,4.94-9.86,9.89-14.79,14.85-.45.45-.99.6-1.61.65-4.31.36-7.67-1.7-11.06-4.38Z"/>
      <path class="cls-9" d="M118.32,102.01c-1.67,1.45-3.16,2.96-5.06,3.92-2.93,1.48-6.11.95-8.43-1.37-2.86-2.86-5.68-5.76-8.58-8.57-.78-.76-.74-1.21.07-1.8.4-.3.75-.68,1.12-1.02q2.16-2.03,4.33-.09c3.78,3.38,8.09,5.84,12.91,7.4,1.22.39,2.41.84,3.65,1.53Z"/>
      <path class="cls-3" d="M168.03,220.08c-.21,1.22-.69,2.21-1.2,3.18-2.63,5.05-4.03,10.42-4.17,16.11-.02.91-.29,1.34-1.24,1.35-1.33,0-2.66.06-4,.14-.63.03-.77-.26-.76-.82.03-4.41-.17-8.84.13-13.24.18-2.71,2.02-4.7,4.56-5.75,2.1-.86,4.37-.89,6.68-.96Z"/>
      <path class="cls-3" d="M120.42,210.87c-.96.66-1.95,1.04-2.95,1.35-5.59,1.71-10.47,4.63-14.71,8.62-.75.7-1.24.81-1.99.04-.86-.89-1.84-1.66-2.79-2.46-.51-.42-.51-.71-.02-1.19,3.28-3.22,6.5-6.51,9.81-9.7,1.68-1.63,5.76-1.65,8.2-.19,1.63.97,2.95,2.31,4.45,3.53Z"/>
      <path class="cls-9" d="M155.68,233.2c0,2.16-.03,4.32.01,6.48.02.84-.13,1.29-1.13,1.19-1.05-.1-2.12-.11-3.17-.04-1.09.07-1.59-.3-1.6-1.43-.1-6.14-1.88-11.81-4.68-17.23-1.11-2.14-.99-2.23,1.4-2,1.5.14,3.02.24,4.46.77,2.77,1.01,4.71,3.71,4.71,6.61,0,1.89,0,3.77,0,5.66h0Z"/>
      <path class="cls-9" d="M103.71,194.16c1.18,1.44,2.41,2.68,3.36,4.16,2.03,3.18,1.66,6.72-1,9.37-2.87,2.85-5.77,5.67-8.58,8.58-.76.78-1.16.71-1.79-.05-.76-.92-1.58-1.79-2.42-2.64-.44-.44-.51-.75-.05-1.24,4.48-4.64,7.59-10.1,9.47-16.26.16-.52.42-1.01.66-1.51.05-.12.17-.21.35-.41Z"/>
      <path class="cls-3" d="M101.51,118.83c-1.16-2.05-1.67-4.21-2.48-6.25-1.71-4.27-4.24-8.03-7.39-11.35-.86-.91-.76-1.44.05-2.21.86-.82,1.66-1.72,2.44-2.63.4-.47.67-.45,1.09-.02,3.23,3.27,6.65,6.37,9.64,9.84,1.72,1.99,1.71,4.67.68,7.17-.87,2.13-2.56,3.65-4.03,5.44Z"/>
      <path class="cls-3" d="M220.38,144.29c1.07.14,1.94.55,2.78.99,5.24,2.76,10.81,4.26,16.74,4.39.8.02,1.01.35,1.01,1.07.02,1.29.06,2.57.17,3.85.08.9-.3,1.07-1.1,1.06-4.36-.05-8.74.12-13.09-.16-2.69-.17-4.56-2.03-5.57-4.52-.85-2.11-.85-4.38-.94-6.68Z"/>
      <path class="cls-3" d="M77.96,156.58c1.7,0,3.4,0,5.11,0,3.46,0,6.33,2.2,7.29,5.55.49,1.7.45,3.46.65,5.19.06.55-.16.67-.63.48-.76-.31-1.55-.59-2.28-.97-4.92-2.55-10.11-4.04-15.67-4.28-1.89-.08-1.89-.16-1.98-2.06-.02-.51-.02-1.01-.03-1.52q-.03-2.39,2.43-2.39c1.7,0,3.4,0,5.11,0Z"/>
      <path class="cls-9" d="M233.51,156.62c2.12,0,4.24.05,6.35-.02,1.01-.03,1.28.34,1.19,1.27-.12,1.14-.19,2.3-.18,3.44,0,.82-.26,1.11-1.1,1.16-3.26.19-6.49.59-9.64,1.53-2.7.8-5.19,2.07-7.73,3.25-2.07.96-2.16.88-1.93-1.39.15-1.46.23-2.93.73-4.33,1.03-2.87,3.88-4.92,6.92-4.92,1.79,0,3.59,0,5.39,0h0Z"/>
      <path class="cls-9" d="M155.48,77.72c0-2.16.03-4.32-.02-6.48-.02-.8.14-1.19,1.05-1.1,1.32.12,2.66.14,3.99.18.54.02.82.17.84.79.16,6.46,2.11,12.41,4.99,18.13.72,1.42.6,1.48-.96,1.36-1.01-.08-2.01-.17-3.01-.27-3.19-.33-5.25-2.16-6.62-4.94-.22-.45-.23-.88-.23-1.33,0-2.11,0-4.23,0-6.34h-.02Z"/>
      <path class="cls-3" d="M209.75,193.46c.86,1.44,1.31,2.84,1.77,4.23,1.53,4.71,4.07,8.82,7.33,12.51q1.25,1.41-.07,2.81c-.73.77-1.48,1.51-2.19,2.3-.4.44-.67.46-1.11.02-3.1-3.15-6.41-6.11-9.27-9.46-1.59-1.86-1.62-4.44-.64-6.8.9-2.16,2.59-3.76,4.17-5.6Z"/>
      <path class="cls-9" d="M91.03,144.25c-.17,1.87-.17,3.7-.56,5.5-.59,2.71-2.36,4.37-4.72,5.57-.36.18-.71.17-1.07.17-4.41,0-8.83-.02-13.24.02-.84,0-1.14-.2-1.07-1.07.09-1.19.09-2.39.07-3.58-.01-.79.23-1.15,1.09-1.17,5.88-.13,11.41-1.59,16.61-4.35.88-.47,1.81-.87,2.9-1.08Z"/>
      <path class="cls-3" d="M195.06,102.66c2.11-1.15,4.26-1.67,6.29-2.49,4.04-1.63,7.64-3.99,10.84-6.95.68-.63,1.14-.85,1.86-.01.99,1.15,2.87,2.1,2.97,3.26.11,1.18-1.85,2.16-2.89,3.24-1.8,1.84-3.81,3.51-5.43,5.49-2.07,2.54-6.95,2.66-9.21,1.05-1.5-1.07-2.88-2.25-4.42-3.6Z"/>
      <path class="cls-3" d="M143.09,90.74c.67-2.3,1.82-4.19,2.68-6.2,1.78-4.14,2.59-8.5,2.8-12.98.04-.88.26-1.2,1.17-1.19,1.24.02,2.48-.09,3.72-.19.7-.06.97.14.96.89-.03,4.41.22,8.85-.1,13.24-.19,2.57-2.07,4.4-4.52,5.43-2.08.88-4.31.74-6.71.99Z"/>
      <path class="cls-9" d="M193.03,210.22c1.55-1.36,2.97-2.79,4.77-3.74,2.92-1.53,6.4-1,8.71,1.31,2.67,2.67,5.31,5.36,8.01,7.99.68.66.62,1.04-.05,1.6-.99.83-1.92,1.71-2.86,2.6-.4.38-.71.47-1.15.04-4.51-4.3-9.9-7.07-15.8-8.93-.43-.14-.84-.37-1.25-.57-.11-.05-.2-.15-.38-.3Z"/>
      <path class="cls-9" d="M207.18,111.31c.25-1.99.52-3.93,2.25-5.49,2.72-2.46,5.25-5.14,7.82-7.77.63-.65,1.03-.71,1.6.02.62.8,1.24,1.61,1.98,2.29.98.89.97,1.54.04,2.54-3.55,3.82-5.98,8.31-7.59,13.26-.3.91-.7,1.79-1.06,2.68-.13.31-.3.67-.66.25-1.97-2.28-4.23-4.4-4.37-7.78Z"/>
      <path class="cls-5" d="M208.18,116.9c-2.6-1.25-5.19-2.08-8.05-1.78-.37.04-.76.12-.68-.5.39-2.93-.54-5.58-1.95-8.36.93.54,1.62.97,2.33,1.35,1.89.99,3.88.97,5.9.5.39-.09,1.06-.46.82.44-.82,3.05-.28,5.8,1.62,8.36Z"/>
      <path class="cls-3" d="M214.57,156.15c2.58-1.93,4-4.49,4.97-7.45.53,3.37,2.23,5.84,5.49,7.42-3.17,1.63-5.04,4-5.45,7.46-1.05-2.91-2.37-5.53-5.01-7.43Z"/>
      <path class="cls-3" d="M148.84,219.27c2.81-1.04,5.35-2.27,7.14-4.63.26-.35.42-.2.61.04,1.82,2.32,4.33,3.57,7.11,4.56-3.32.55-5.84,2.17-7.4,5.51-1.64-3.22-4.03-5.06-7.46-5.47Z"/>
      <path class="cls-3" d="M195.6,206.52c.81-2.02,1.63-3.91,1.72-6.01.04-.86,0-1.72.01-2.59.85,0,1.71.07,2.56,0,2.12-.16,4.08-.92,6.09-1.82-2.01,2.73-2.44,5.67-1.38,9.03-3.3-.96-6.28-.72-8.99,1.38Z"/>
      <path class="cls-3" d="M154.91,86.02c1.68,3.29,4.12,5.03,7.89,5.42-1.77.68-3.22,1.14-4.5,1.95-1.09.7-2.09,1.49-2.9,2.52-.21.27-.4.69-.81.16-1.82-2.35-4.36-3.58-7.51-4.59,3.7-.48,6.23-2.1,7.83-5.47Z"/>
      <path class="cls-3" d="M86.46,156.2c3.79-2.55,4.21-3.16,5.38-7.75,1.01,3.09,2.31,5.77,4.96,7.68-2.62,1.92-3.98,4.57-5.02,7.92-.44-3.82-2.14-6.33-5.31-7.85Z"/>
      <path class="cls-3" d="M106.57,107.17c3.4,1.07,6.36.67,9.08-1.41-.5,1.37-1.12,2.63-1.46,3.99-.33,1.35-.51,2.71-.34,4.1.05.42.11.7-.51.62-2.71-.37-5.17.45-7.56,1.61-.15.07-.3.12-.57.11,2.04-2.72,2.5-5.67,1.35-9.02Z"/>
      <path class="cls-3" d="M117.86,207.36c-2.71-2.1-5.61-2.75-9.1-1.46,1.14-3.43.7-6.42-1.68-9.31,1.86.68,3.31,1.52,4.98,1.78.68.11,1.36.2,2.04.21,1.9.04,1.9.03,1.9,1.85,0,1.87.53,3.61,1.27,5.3.21.48.58.92.58,1.62Z"/>
      <path class="cls-1" d="M181.62,155.46c.02,14.23-11.57,25.87-25.85,25.96-14.25.09-25.97-11.61-25.98-25.94-.01-14.31,11.68-26,25.96-25.95,14.25.04,25.85,11.68,25.87,25.93Z"/>
      <path class="cls-9" d="M155.63,180.45c-13.83-.08-25-11.29-24.96-25.04.05-13.75,11.47-25.11,25.08-24.95,13.98.17,25.01,11.34,24.9,25.2-.11,13.76-11.31,24.86-25.02,24.78Z"/>
      <path class="cls-1" d="M155.66,137.52c9.88,0,18.09,8.06,18.02,17.9-.08,10.68-8.7,17.97-17.94,18.01-9.36.04-18.08-7.47-18.1-18.02-.02-9.87,8.16-17.9,18.03-17.9Z"/>
      <path class="cls-6" d="M172.21,158.63c-.52-4.14-1.98-7.35-5.08-9.66-5.11-3.79-10.76-1.55-11.87,4.72-.43,2.41-2.29,3.74-5.37,3.83-2.01.06-3.48-1.21-3.9-3.69-.7-4.14.66-7.78,3.05-11.09.38-.52.83-.98,1.25-1.47,2.48-2.97,5.66-2.95,9.06-2.19,7.91,1.76,14.43,9.59,12.86,19.55Z"/>
      <path class="cls-2" d="M150.05,139.67c-2.77,2.93-4.57,6.3-5.19,10.27-.26,1.65-.24,3.3.26,4.91,1.15,3.71,4.64,4.86,8.58,2.81,1.2-.62,2.2-1.56,3.66-.31,1.4,1.19,2.05,2.52,1.84,4.31-.65,5.51-5.56,8.54-11.24,6.65-6.67-2.22-8.95-5.51-9.15-12.89-.18-6.73,4.22-12.98,10.47-15.51.25-.1.51-.16.77-.24Z"/>
      <path class="cls-4" d="M145.9,168.93c2.51.79,4.99,1.28,7.6.67,4.09-.95,6.93-4.66,6.77-8.88-.09-2.4-1.47-3.89-3.47-4.88-.64-.31-.79-.61-.64-1.26.22-.94.37-1.89.77-2.77,1.73-3.85,5.61-4.75,9.28-2.24,5.25,3.58,6.96,12.21,1.35,17.67-5.69,5.54-14.72,6.54-21.25,2.05-.15-.1-.28-.24-.41-.36Z"/>
    </g>
  </g>
</svg>