<?xml version="1.0" encoding="utf-8"?>
<!-- Generator: Adobe Illustrator 28.0.0, SVG Export Plug-In . SVG Version: 6.00 Build 0)  -->
<svg version="1.1" id="Layer_1" xmlns="http://www.w3.org/2000/svg" xmlns:xlink="http://www.w3.org/1999/xlink" x="0px" y="0px"
	 viewBox="0 0 506 400" style="enable-background:new 0 0 506 400;" xml:space="preserve">
<style type="text/css">
	.st0{fill:url(#SVGID_1_);}
	.st1{fill:#FFF200;}
	.st2{fill:#FFF200;stroke:#000000;stroke-width:2;stroke-miterlimit:10;}
	.st3{fill:#FFFFFF;stroke:#000000;stroke-width:2;stroke-miterlimit:10;}
	.st4{fill:#FFFFFF;}
	.st5{fill:url(#SVGID_00000072269862034368646590000017465555777316063872_);}
</style>
<linearGradient id="SVGID_1_" gradientUnits="userSpaceOnUse" x1="-445.2949" y1="-44.3795" x2="-445.2949" y2="264.5449" gradientTransform="matrix(1 0 0 -1 0 400.2898)">
	<stop  offset="0" style="stop-color:#FFFFFF"/>
	<stop  offset="0.8852" style="stop-color:#000000"/>
</linearGradient>
<rect x="-701.7" y="140.5" class="st0" width="512.8" height="216.3"/>
<rect x="-701.7" y="-43.2" width="506.6" height="183.7"/>
<path class="st1" d="M-450.8,63.6c59.1,0,112,12.7,160.5,33.9c34.3,15.1,63.4,33.8,88.4,55.2c1.9,1.6,3.8,2.8,1,5.2
	c-43.2,36.9-96.2,65.4-164.5,80.5c-73.3,16.2-144.3,11.4-212.5-11.8c-49-16.6-88.9-40.1-122.1-68.6c-1.9-1.6-2.1-2.7-0.1-4.4
	c48.1-40.9,107.9-71.2,185.7-84.8C-493.7,65.2-472.4,63.7-450.8,63.6z M-450.5,96.2c-51.4,0.1-91.9,26.4-92,59.6
	c0,32.9,41.1,59.5,91.8,59.4c51.4-0.1,92-26.6,91.9-59.7C-358.9,122.8-399.8,96.2-450.5,96.2z M-376,93.4c30,16.3,46.2,37,46.3,62.3
	s-16.5,46-46.2,62.4c56.1-11.8,101.3-33.3,138.9-62.4C-275,126.4-320.2,105.1-376,93.4z M-525.5,93.4
	c-55.9,11.7-101.1,33.2-138.5,62.1c26.7,25,107.2,61.2,138.5,62.3C-587.8,185.2-586.5,125.2-525.5,93.4z"/>
<path class="st2" d="M-450.9,79c50.7-0.1,91.7,26.4,91.8,59.4c0,33.2-40.7,59.6-91.9,59.7c-50.6,0.1-91.8-26.6-91.8-59.4
	C-542.8,105.4-502.3,79.1-450.9,79z M-404.3,149.9c8.8-11.6,1.8-28.6-15.4-37c-20.3-10-47.3-9.2-65.8,1.8
	c-17.2,10.3-20.7,27.7-8.4,40.7c10.7,11.3,34.4,18.4,49,14.8c-5.1-10.1-3.3-16.3,6.4-21.4C-429.2,144.1-418.4,144.4-404.3,149.9z"/>
<path class="st2" d="M-376,76.2c55.8,11.7,101,33.2,139,62.3c-37.4,29.1-82.8,50.6-138.9,62.4c29.8-16.5,46.3-37.1,46.2-62.4
	C-329.7,113.2-346.1,92.5-376,76.2z"/>
<path class="st2" d="M-531.5,76.5c-61,31.8-62.3,91.9,0,124.5c-31.3-1.2-111.8-37.4-138.5-62.3C-632.6,109.8-587.3,88.3-531.5,76.5z
	"/>
<path class="st3" d="M-404.5,134.2c-14.1-5.5-24.9-5.9-34.2-1c-9.7,5-11.6,11.3-6.4,21.4c-14.6,3.7-38.3-3.6-49-14.8
	c-12.4-13-8.8-30.4,8.4-40.7c18.5-11.1,45.5-11.8,65.8-1.8C-402.7,105.7-395.7,122.6-404.5,134.2z"/>
<path class="st4" d="M-701.6-43.2h17.6c8.5,0,12.2,4.3,12.2,10.1c0,6-4.1,8.1-6.4,8.6v0.1c1.8,0.5,5.8,2,6,9.2
	c0.1,2.7,0.3,6.6,1.3,7.7v0.5h-8.3c-0.8-1.7-1-4.5-1.3-7.4c-0.5-4.9-2.3-7.5-7.3-7.5h-6.3v14.9h-7.5V-43.2z M-685.4-27.7
	c3.9,0,6.2-1.4,6.2-4.5c0-3.1-1.6-4.5-5.3-4.5h-9.7v9.2h8.8V-27.7z"/>
<path class="st4" d="M-231-18.6h7.8c0,2,1,5.8,7.9,5.8c3.8,0,8-0.9,8-4.4c0-2.7-2.5-3.4-6.5-4.3l-4.1-0.9
	c-6.3-1.4-12.2-2.8-12.2-10.4c0-4.8,4.3-10.3,15.1-10.3c11.8,0,14.9,7.3,15.1,11.4h-7.9c-0.3-1.6-0.6-5.5-7.7-5.5
	c-3.1,0-6.8,1-6.8,4.2c0,2.7,2,3.2,5.8,4.1l7.2,1.6c5.3,1.1,9.9,3.1,9.9,9.3c0,10.3-11.9,11.3-15.3,11.3
	C-228.7-6.8-231-14.3-231-18.6z"/>
<path class="st4" d="M-701.5,337.4c0-5.9,1.5-12.3,5.9-15.9c2.3-1.8,5-3.2,9.3-3.2c7.9,0,12.2,4.1,12.8,10.1h-7.5
	c-0.3-2.7-2-4.3-5.5-4.3c-5.7,0-7.9,6-7.8,11.2l0.1,0.1c2.1-2.8,5.4-4.3,9.2-4.3c6.9,0,11.8,5.2,11.8,11.8c0,7.5-5.5,13.3-13.4,13.3
	C-697.8,356.2-701.5,346.6-701.5,337.4z M-686.8,350.2c3.9,0,6.4-2.7,6.4-6.6s-2.1-6.9-6.4-6.9c-4.1,0-6.5,2.8-6.5,6.8
	C-693.3,347.2-690.9,350.2-686.8,350.2z"/>
<g>
	<path class="st4" d="M-259,338c0-5.9,1.5-12.3,5.9-15.9c2.3-1.8,5-3.2,9.3-3.2c7.9,0,12.2,4.1,12.8,10.1h-7.5
		c-0.3-2.7-2-4.3-5.5-4.3c-5.7,0-7.9,6-7.8,11.2l0.1,0.1c2.1-2.8,5.4-4.3,9.2-4.3c6.9,0,11.8,5.2,11.8,11.8
		c0,7.5-5.5,13.3-13.4,13.3C-255.4,356.8-259,347.2-259,338z M-244.4,350.8c3.9,0,6.4-2.7,6.4-6.6s-2.1-6.9-6.4-6.9
		c-4.1,0-6.5,2.8-6.5,6.8C-250.9,347.8-248.5,350.8-244.4,350.8z"/>
	<path class="st4" d="M-227.6,338c0-5.9,1.5-12.3,5.9-15.9c2.3-1.8,5-3.2,9.3-3.2c7.9,0,12.2,4.1,12.8,10.1h-7.5
		c-0.3-2.7-2-4.3-5.5-4.3c-5.7,0-7.9,6-7.8,11.2l0.1,0.1c2.1-2.8,5.4-4.3,9.2-4.3c6.9,0,11.8,5.2,11.8,11.8
		c0,7.5-5.5,13.3-13.4,13.3C-224,356.8-227.6,347.2-227.6,338z M-213.1,350.8c3.9,0,6.4-2.7,6.4-6.6s-2.1-6.9-6.4-6.9
		c-4.1,0-6.5,2.8-6.5,6.8C-219.6,347.8-217.1,350.8-213.1,350.8z"/>
</g>
<rect y="233.1" class="st1" width="506" height="166.9"/>
<g>
	<path d="M0,252.2h14.4v9.3h0.3c3-5.5,8.5-10.8,17.4-10.8c0.9,0,2.9,0.1,3.9,0.2v14.6h-5.3c-11.5,0-15.7,6.3-15.7,12.9v29.7H0V252.2
		z"/>
	<path d="M40.6,293.4c0-10.6,8-15.1,17.7-16.8l10.5-2c6.2-1.1,8.6-2.7,8.6-5.8c0-3.7-3.4-5.7-9.1-5.7c-8.3,0-11.1,4.3-11,8H42.5
		c1-15.1,14-20.4,26.6-20.4c8.2,0,23.3,3.3,23.3,16.7v30.2c0,5,1,8.2,2.3,9.6v1H79.1c-0.8-1.4-1.3-3.6-1.4-5.7
		c-2.7,3.2-8.6,7-17.8,7C50.1,309.7,40.6,304.1,40.6,293.4z M64,299c7.2,0,13.3-5.2,13.3-9.6v-9.1c-1.4,1.8-4.9,3.2-9.9,4.1
		c-5.9,1.1-11.5,2.7-11.5,7.9C55.9,296.7,59.4,299,64,299z"/>
	<path d="M105.3,252.2h14.4v8h0.3c1.9-3.8,8-9.3,18-9.3c11.5,0,20,6.3,20,18.2v39.3h-15v-35c0-3.9-1.3-10.2-9.9-10.2
		c-6.8,0-12.6,4.3-12.6,12.5v32.6h-15L105.3,252.2L105.3,252.2z"/>
	<path d="M167.8,281.2c0-18.8,10.2-30.5,24.1-30.5c9.7,0,14.5,5,15.9,8.5h0.3V233H223v75.2h-14.5v-6.9h-0.3
		c-3.7,6.1-9.2,8.2-15.6,8.2C175.4,309.7,167.8,296.7,167.8,281.2z M195.5,297.9c9.6,0,13.3-8,13.3-16.3c0-8.9-2.9-17.7-12.8-17.7
		c-9.6,0-12.6,8.2-12.6,17.1C183.2,287.7,185.9,297.9,195.5,297.9z"/>
	<path d="M232.6,280.2c0-20.2,13.5-29.5,28.6-29.5s28.6,9.2,28.6,29.5c0,20.3-13.5,29.5-28.6,29.5S232.6,300.4,232.6,280.2z
		 M261.3,297.9c11.5-0.1,13.5-10.3,13.5-17.7c0-7.7-2.3-17.7-13.5-17.7c-11.3,0-13.5,9.8-13.5,17.7
		C247.7,287.7,249.7,297.9,261.3,297.9z"/>
	<path d="M299.7,252.2h14.4v8h0.3c1.8-3.8,6.3-9.3,15.7-9.3c7.6,0,14.3,3.2,17.6,9.2c2.1-3.8,8.6-9.2,17.3-9.2
		c10.6,0,19.5,6.3,19.5,18.2v39.3h-15v-35.6c0-3.9-1.1-9.5-8.6-9.5c-6.4,0-11.1,3.8-11.1,12v33.2h-15v-35.6c0-3.9-1.3-9.5-8.7-9.5
		c-6.3,0-11,3.8-11,12v33.2h-15v-56.4L299.7,252.2L299.7,252.2z"/>
	<path d="M393.6,290.4h15.2c0,4.5,2.9,8,11.6,8c7.6,0,9.4-2.7,9.4-5.7c0-3.3-3.7-4.7-9-6l-10.6-2.7c-7.8-2-14.9-6.4-14.9-15.2
		s5.8-18.2,23.3-18.2c10.9,0,23.3,3.2,24.5,18.4h-14.4c-0.6-3.4-2.3-6.9-10.2-6.9c-6.1,0-8.6,2.2-8.6,5c0,3.6,2.9,5,8.5,6.5
		l12.9,3.3c7.3,1.8,13.3,5.5,13.3,13.8c0,15.9-16.3,18.7-25,18.7C407.3,309.7,394.1,304.9,393.6,290.4z"/>
	<path d="M453.4,233h14.4v27.2h0.3c1.9-3.8,8-9.3,18-9.3c11.5,0,20,6.3,20,18.2v39.3h-15v-35c0-3.9-1.3-10.2-9.9-10.2
		c-6.8,0-12.6,4.3-12.6,12.5v32.6h-15V233L453.4,233z"/>
</g>
<linearGradient id="SVGID_00000144316283199420530200000004126959244329506980_" gradientUnits="userSpaceOnUse" x1="253" y1="429.8983" x2="253" y2="-61.8041" gradientTransform="matrix(1 0 0 -1 0 400.2898)">
	<stop  offset="0" style="stop-color:#FFFFFF"/>
	<stop  offset="0.5672" style="stop-color:#FFF200"/>
	<stop  offset="1" style="stop-color:#FFFF33"/>
</linearGradient>
<rect style="fill:url(#SVGID_00000144316283199420530200000004126959244329506980_);" width="506" height="233.1"/>
<g>
	<g>
		<path d="M0,323.4h14.9v12.8H0V323.4z M14.9,400.1H0V343h14.9V400.1z"/>
		<path d="M33.2,385.2V355h-9.8v-12.3h9.8v-15.1h15.3v15.1h14V355h-14v27.7c0,4.5,2.9,5.7,8.3,5.7h5.3v11.6
			c-1.3,0.1-4.3,0.2-8.8,0.2C43.1,400.1,33.2,397.5,33.2,385.2z"/>
		<path d="M68.4,362.1c0-11.8,3.1-24.8,12.2-32c4.7-3.8,10.3-6.3,19.2-6.3c16.3,0,25.2,8.1,26.4,20.3h-15.5
			c-0.6-5.5-4.3-8.6-11.3-8.6c-11.6,0-16.3,12.3-16.1,22.4l0.3,0.2c4.5-5.8,11.1-8.6,18.9-8.6c14.2,0,24.4,10.3,24.4,23.8
			c0,15-11.3,26.8-27.8,26.8C75.9,400.1,68.4,380.7,68.4,362.1z M98.6,387.8c8,0,13.1-5.4,13.1-13.4s-4.5-13.8-13.1-13.8
			s-13.5,5.7-13.5,13.5C85.1,382.1,90.2,387.8,98.6,387.8z"/>
		<path d="M133,362.1c0-11.8,3.1-24.8,12.2-32c4.7-3.8,10.3-6.3,19.2-6.3c16.3,0,25.2,8.1,26.4,20.3h-15.5
			c-0.6-5.5-4.3-8.6-11.3-8.6c-11.6,0-16.3,12.3-16.1,22.4l0.3,0.2c4.5-5.8,11.1-8.6,18.9-8.6c14.2,0,24.4,10.3,24.4,23.8
			c0,15-11.3,26.8-27.8,26.8C140.6,400.1,133,380.7,133,362.1z M163.3,387.8c8,0,13.1-5.4,13.1-13.4s-4.5-13.8-13.1-13.8
			s-13.5,5.7-13.5,13.5C149.8,382.1,154.8,387.8,163.3,387.8z"/>
		<path d="M197.9,362.1c0-11.8,3.1-24.8,12.2-32c4.7-3.8,10.3-6.3,19.2-6.3c16.3,0,25.2,8.1,26.4,20.3h-15.5
			c-0.6-5.5-4.3-8.7-11.3-8.7c-11.6,0-16.3,12.3-16.1,22.4l0.3,0.2c4.5-5.8,11.1-8.7,18.9-8.7c14.2,0,24.4,10.3,24.4,23.8
			c0,15-11.3,26.8-27.8,26.8C205.4,400.1,197.9,380.7,197.9,362.1z M228,387.8c8,0,13.1-5.4,13.1-13.5s-4.5-13.8-13.1-13.8
			c-8.6,0-13.5,5.7-13.5,13.5C214.5,382.1,219.6,387.8,228,387.8z"/>
		<path d="M291.2,372.2c0-18.1,9.7-31,29.2-31c9.7,0,25.4,3.9,26.8,21.5h-15.9c-0.6-3.7-3.1-9.6-10.9-9.6c-10.3,0-13,9.5-13,16.6
			c0,6.3,1,18.8,13,18.8c8.1,0,10.8-7,10.9-10.3h15.9c-0.4,6.5-5.5,21.9-27.2,21.9C297.9,400.1,291.2,384,291.2,372.2z"/>
		<path d="M354.8,370.6c0-20.2,13.7-29.5,29-29.5s29,9.2,29,29.5c0,20.3-13.7,29.5-29,29.5S354.8,390.8,354.8,370.6z M383.8,388.3
			c11.6-0.1,13.7-10.3,13.7-17.7c0-7.7-2.3-17.7-13.7-17.7s-13.7,9.8-13.7,17.7C370,378.1,372.2,388.3,383.8,388.3z"/>
		<path d="M422.7,342.6h14.6v8.1h0.3c1.8-3.8,6.4-9.6,15.9-9.6c7.6,0,14.5,3.2,17.8,9.5c2.2-3.8,8.8-9.5,17.5-9.5
			c10.8,0,19.7,6.4,19.7,18.6V400h-15.3v-36.5c0-4.1-1.1-9.7-8.8-9.7c-6.5,0-11.3,3.8-11.3,12.3V400h-15.3v-36.5
			c0-4.1-1.3-9.7-8.9-9.7c-6.4,0-11.2,3.8-11.2,12.3V400h-15.3v-57.4H422.7z"/>
	</g>
	<path d="M265.2,400.2v-15.6h16v15.6H265.2z"/>
</g>
</svg>
