<?xml version="1.0" encoding="UTF-8"?>
<svg id="Layer_2" data-name="Layer 2" xmlns="http://www.w3.org/2000/svg" viewBox="0 0 484.6 37.6">
  <defs>
    <style>
      .cls-1 {
        fill: #000;
        stroke-width: 0px;
      }
    </style>
  </defs>
  <g id="Layer_1-2" data-name="Layer 1">
    <g>
      <path class="cls-1" d="M0,9.4h6.85v4.6h.1c1.45-2.7,4.05-5.3,8.3-5.3.45,0,1.4.05,1.85.1v7.15h-2.5c-5.45,0-7.45,3.1-7.45,6.35v14.6H0V9.4Z"/>
      <path class="cls-1" d="M19.3,29.6c0-5.2,3.8-7.4,8.4-8.25l5-.95c2.95-.55,4.1-1.35,4.1-2.85,0-1.8-1.65-2.75-4.35-2.75-3.95,0-5.3,2.1-5.25,3.9h-7c.5-7.4,6.7-10,12.65-10,3.9,0,11.05,1.65,11.05,8.2v14.8c0,2.5.5,4.05,1.1,4.7v.5h-7.35c-.35-.65-.6-1.75-.65-2.75-1.25,1.55-4.1,3.45-8.5,3.45-4.7,0-9.2-2.75-9.2-8ZM30.45,32.35c3.45,0,6.35-2.55,6.35-4.7v-4.45c-.65.9-2.35,1.55-4.7,2-2.85.55-5.5,1.35-5.5,3.85,0,2.15,1.65,3.3,3.85,3.3Z"/>
      <path class="cls-1" d="M50.1,9.4h6.85v3.9h.1c.9-1.85,3.8-4.6,8.55-4.6,5.45,0,9.5,3.05,9.5,8.9v19.3h-7.15v-17.15c0-1.95-.6-5-4.7-5-3.25,0-6,2.1-6,6.15v16h-7.15V9.4Z"/>
      <path class="cls-1" d="M79.85,23.6c0-9.2,4.9-14.95,11.5-14.95,4.65,0,6.95,2.45,7.6,4.15h.1V0h7.1v36.9h-6.95v-3.35h-.1c-1.75,3-4.4,4.05-7.4,4.05-8.2,0-11.85-6.4-11.85-14ZM93.05,31.85c4.55,0,6.3-3.9,6.3-8,0-4.35-1.4-8.7-6.1-8.7s-6.05,4.05-6.05,8.4c0,3.25,1.25,8.3,5.85,8.3Z"/>
      <path class="cls-1" d="M110.75,23.15c0-9.9,6.45-14.45,13.6-14.45s13.6,4.55,13.6,14.45-6.45,14.45-13.6,14.45-13.6-4.55-13.6-14.45ZM124.35,31.8c5.45-.05,6.45-5.05,6.45-8.65,0-3.8-1.1-8.65-6.45-8.65s-6.45,4.8-6.45,8.65c0,3.65,1,8.65,6.45,8.65Z"/>
      <path class="cls-1" d="M142.6,9.4h6.85v3.9h.1c.85-1.85,3-4.6,7.45-4.6,3.6,0,6.8,1.55,8.35,4.55,1-1.85,4.1-4.55,8.25-4.55,5.05,0,9.25,3.05,9.25,8.9v19.3h-7.15v-17.5c0-1.95-.55-4.65-4.1-4.65-3.05,0-5.3,1.85-5.3,5.9v16.25h-7.15v-17.5c0-1.95-.6-4.65-4.15-4.65-3,0-5.25,1.85-5.25,5.9v16.25h-7.15V9.4Z"/>
      <path class="cls-1" d="M187.35,28.15h7.2c0,2.25,1.4,3.9,5.55,3.9,3.6,0,4.45-1.35,4.45-2.75,0-1.6-1.75-2.3-4.25-2.95l-5.05-1.3c-3.75-.95-7.1-3.15-7.1-7.45s2.75-8.9,11.05-8.9c5.2,0,11.1,1.55,11.65,9.05h-6.85c-.3-1.7-1.1-3.35-4.9-3.35-2.9,0-4.1,1.1-4.1,2.5,0,1.75,1.4,2.5,4.05,3.2l6.15,1.6c3.5.9,6.35,2.7,6.35,6.75,0,7.75-7.75,9.15-11.9,9.15-5.8,0-12.1-2.35-12.3-9.45Z"/>
      <path class="cls-1" d="M215.8,0h6.85v13.3h.1c.9-1.85,3.8-4.6,8.55-4.6,5.45,0,9.5,3.05,9.5,8.9v19.3h-7.15v-17.15c0-1.95-.6-5-4.7-5-3.25,0-6,2.1-6,6.15v16h-7.15V0Z"/>
      <path class="cls-1" d="M246.4,0h7v6.15h-7V0ZM253.4,36.9h-7V9.4h7v27.5Z"/>
      <path class="cls-1" d="M261.95,30.15v-14.75h-4.6v-6h4.6V2h7.15v7.4h6.55v6h-6.55v13.5c0,2.2,1.4,2.75,3.9,2.75h2.5v5.65c-.6.05-2.05.1-4.1.1-4.8,0-9.45-1.25-9.45-7.25Z"/>
      <path class="cls-1" d="M278.4,19c0-5.8,1.45-12.15,5.7-15.7,2.2-1.85,4.85-3.1,9-3.1,7.65,0,11.8,4,12.4,9.95h-7.25c-.3-2.7-2-4.25-5.3-4.25-5.45,0-7.65,6-7.55,11l.1.1c2.1-2.85,5.2-4.25,8.85-4.25,6.65,0,11.45,5.05,11.45,11.7,0,7.35-5.3,13.15-13.05,13.15-10.8,0-14.35-9.5-14.35-18.6ZM292.55,31.6c3.75,0,6.15-2.65,6.15-6.6s-2.1-6.75-6.15-6.75-6.3,2.8-6.3,6.65,2.35,6.7,6.3,6.7Z"/>
      <path class="cls-1" d="M308.7,19c0-5.8,1.45-12.15,5.7-15.7,2.2-1.85,4.85-3.1,9-3.1,7.65,0,11.8,4,12.4,9.95h-7.25c-.3-2.7-2-4.25-5.3-4.25-5.45,0-7.65,6-7.55,11l.1.1c2.1-2.85,5.2-4.25,8.85-4.25,6.65,0,11.45,5.05,11.45,11.7,0,7.35-5.3,13.15-13.05,13.15-10.8,0-14.35-9.5-14.35-18.6ZM322.85,31.6c3.75,0,6.15-2.65,6.15-6.6s-2.1-6.75-6.15-6.75-6.3,2.8-6.3,6.65,2.35,6.7,6.3,6.7Z"/>
      <path class="cls-1" d="M339,19c0-5.8,1.45-12.15,5.7-15.7,2.2-1.85,4.85-3.1,9-3.1,7.65,0,11.8,4,12.4,9.95h-7.25c-.3-2.7-2-4.25-5.3-4.25-5.45,0-7.65,6-7.55,11l.1.1c2.1-2.85,5.2-4.25,8.85-4.25,6.65,0,11.45,5.05,11.45,11.7,0,7.35-5.3,13.15-13.05,13.15-10.8,0-14.35-9.5-14.35-18.6ZM353.15,31.6c3.75,0,6.15-2.65,6.15-6.6s-2.1-6.75-6.15-6.75-6.3,2.8-6.3,6.65,2.35,6.7,6.3,6.7Z"/>
      <path class="cls-1" d="M371.09,36.9v-7.65h7.5v7.65h-7.5Z"/>
      <path class="cls-1" d="M382.79,23.9c0-8.85,4.55-15.2,13.7-15.2,4.5,0,11.9,1.95,12.6,10.55h-7.45c-.3-1.8-1.45-4.7-5.15-4.7-4.85,0-6.1,4.65-6.1,8.15,0,3.1.5,9.2,6.1,9.2,3.8,0,5.05-3.45,5.1-5.05h7.45c-.15,3.2-2.55,10.75-12.75,10.75s-13.5-7.9-13.5-13.7Z"/>
      <path class="cls-1" d="M412.5,23.15c0-9.9,6.45-14.45,13.6-14.45s13.6,4.55,13.6,14.45-6.45,14.45-13.6,14.45-13.6-4.55-13.6-14.45ZM426.1,31.8c5.45-.05,6.45-5.05,6.45-8.65,0-3.8-1.1-8.65-6.45-8.65s-6.45,4.8-6.45,8.65c0,3.65,1,8.65,6.45,8.65Z"/>
      <path class="cls-1" d="M444.34,9.4h6.85v3.9h.1c.85-1.85,3-4.6,7.45-4.6,3.6,0,6.8,1.55,8.35,4.55,1-1.85,4.1-4.55,8.25-4.55,5.05,0,9.25,3.05,9.25,8.9v19.3h-7.15v-17.5c0-1.95-.55-4.65-4.1-4.65-3.05,0-5.3,1.85-5.3,5.9v16.25h-7.15v-17.5c0-1.95-.6-4.65-4.15-4.65-3,0-5.25,1.85-5.25,5.9v16.25h-7.15V9.4Z"/>
    </g>
  </g>
</svg>