<?xml version="1.0" encoding="UTF-8"?>
<svg id="Layer_2" data-name="Layer 2" xmlns="http://www.w3.org/2000/svg" xmlns:xlink="http://www.w3.org/1999/xlink" viewBox="0 0 253 183">
  <defs>
    <style>
      .cls-1 {
        fill: url(#Concentric_Circles);
      }

      .cls-1, .cls-2, .cls-3 {
        stroke-width: 0px;
      }

      .cls-2, .cls-4, .cls-5, .cls-6 {
        fill: none;
      }

      .cls-4, .cls-5 {
        stroke-width: .3px;
      }

      .cls-4, .cls-5, .cls-6 {
        stroke: #231f20;
      }

      .cls-3 {
        fill: #ff0;
      }

      .cls-5 {
        stroke-linecap: square;
      }

      .cls-6 {
        stroke-linecap: round;
      }
    </style>
    <pattern id="Concentric_Circles" data-name="Concentric Circles" x="0" y="0" width="57.6" height="43.2" patternTransform="translate(-209 -176)" patternUnits="userSpaceOnUse" viewBox="0 0 57.6 43.2">
      <g>
        <rect class="cls-2" x="0" y="0" width="57.6" height="43.2"/>
        <g>
          <line class="cls-5" x1="57.59" y1=".8" x2="115.21" y2=".8"/>
          <line class="cls-5" x1="57.59" y1="8" x2="115.21" y2="8"/>
          <line class="cls-5" x1="57.59" y1="15.2" x2="115.21" y2="15.2"/>
          <line class="cls-5" x1="57.59" y1="22.4" x2="115.21" y2="22.4"/>
          <line class="cls-5" x1="57.59" y1="29.6" x2="115.21" y2="29.6"/>
          <line class="cls-5" x1="57.59" y1="36.8" x2="115.21" y2="36.8"/>
        </g>
        <g>
          <line class="cls-4" x1="53.96" y1="8.01" x2="53.96" y2="15.2"/>
          <line class="cls-4" x1="39.56" y1="8.01" x2="39.56" y2="15.2"/>
          <line class="cls-4" x1="25.16" y1="8.01" x2="25.16" y2="15.2"/>
          <line class="cls-4" x1="10.76" y1="8.01" x2="10.76" y2="15.2"/>
          <line class="cls-4" x1="53.96" y1="22.38" x2="53.96" y2="29.57"/>
          <line class="cls-4" x1="39.56" y1="22.38" x2="39.56" y2="29.57"/>
          <line class="cls-4" x1="25.16" y1="22.38" x2="25.16" y2="29.57"/>
          <line class="cls-4" x1="10.76" y1="22.38" x2="10.76" y2="29.57"/>
          <line class="cls-4" x1="53.96" y1="36.82" x2="53.96" y2="44.2"/>
          <line class="cls-4" x1="39.56" y1="36.82" x2="39.56" y2="44.2"/>
          <line class="cls-4" x1="25.16" y1="36.82" x2="25.16" y2="44.2"/>
          <line class="cls-4" x1="10.76" y1="36.82" x2="10.76" y2="44.2"/>
          <line class="cls-4" x1="46.75" y1="29.57" x2="46.75" y2="36.76"/>
          <line class="cls-4" x1="32.35" y1="29.57" x2="32.35" y2="36.76"/>
          <line class="cls-4" x1="17.95" y1="29.57" x2="17.95" y2="36.76"/>
          <line class="cls-4" x1="3.55" y1="29.57" x2="3.55" y2="36.76"/>
          <line class="cls-4" x1="46.75" y1="15.2" x2="46.75" y2="22.38"/>
          <line class="cls-4" x1="32.35" y1="15.2" x2="32.35" y2="22.38"/>
          <line class="cls-4" x1="17.95" y1="15.2" x2="17.95" y2="22.38"/>
          <line class="cls-4" x1="3.55" y1="15.2" x2="3.55" y2="22.38"/>
          <line class="cls-4" x1="46.75" y1=".82" x2="46.75" y2="8.01"/>
          <line class="cls-4" x1="32.35" y1=".82" x2="32.35" y2="8.01"/>
          <line class="cls-4" x1="17.95" y1=".82" x2="17.95" y2="8.01"/>
          <line class="cls-4" x1="3.55" y1=".82" x2="3.55" y2="8.01"/>
          <line class="cls-5" x1="-.01" y1=".8" x2="57.61" y2=".8"/>
          <line class="cls-5" x1="-.01" y1="8" x2="57.61" y2="8"/>
          <line class="cls-5" x1="-.01" y1="15.2" x2="57.61" y2="15.2"/>
          <line class="cls-5" x1="-.01" y1="22.4" x2="57.61" y2="22.4"/>
          <line class="cls-5" x1="-.01" y1="29.6" x2="57.61" y2="29.6"/>
          <line class="cls-5" x1="-.01" y1="36.8" x2="57.61" y2="36.8"/>
          <path class="cls-4" d="M3.56,42.36c1.08,0,1.96-.88,1.96-1.96s-.88-1.96-1.96-1.96-1.96.88-1.96,1.96.88,1.96,1.96,1.96Z"/>
          <path class="cls-4" d="M17.96,42.36c1.09,0,1.96-.88,1.96-1.96s-.88-1.96-1.96-1.96-1.96.88-1.96,1.96.88,1.96,1.96,1.96Z"/>
          <path class="cls-4" d="M32.36,42.36c1.08,0,1.96-.88,1.96-1.96s-.88-1.96-1.96-1.96-1.96.88-1.96,1.96.88,1.96,1.96,1.96Z"/>
          <path class="cls-4" d="M46.76,42.36c1.08,0,1.96-.88,1.96-1.96s-.88-1.96-1.96-1.96-1.96.88-1.96,1.96.88,1.96,1.96,1.96Z"/>
          <path class="cls-4" d="M10.76,35.16c1.08,0,1.96-.88,1.96-1.96s-.88-1.96-1.96-1.96-1.96.88-1.96,1.96.88,1.96,1.96,1.96Z"/>
          <path class="cls-4" d="M25.16,35.16c1.08,0,1.96-.88,1.96-1.96s-.88-1.96-1.96-1.96-1.96.88-1.96,1.96.88,1.96,1.96,1.96Z"/>
          <path class="cls-4" d="M39.56,35.16c1.08,0,1.96-.88,1.96-1.96s-.88-1.96-1.96-1.96-1.96.88-1.96,1.96.88,1.96,1.96,1.96Z"/>
          <path class="cls-4" d="M53.96,35.16c1.08,0,1.96-.88,1.96-1.96s-.88-1.96-1.96-1.96-1.96.88-1.96,1.96.88,1.96,1.96,1.96Z"/>
          <path class="cls-4" d="M3.56,27.96c1.08,0,1.96-.88,1.96-1.96s-.88-1.96-1.96-1.96-1.96.88-1.96,1.96.88,1.96,1.96,1.96Z"/>
          <path class="cls-4" d="M17.96,27.96c1.09,0,1.96-.88,1.96-1.96s-.88-1.96-1.96-1.96-1.96.88-1.96,1.96.88,1.96,1.96,1.96Z"/>
          <path class="cls-4" d="M32.36,27.96c1.08,0,1.96-.88,1.96-1.96s-.88-1.96-1.96-1.96-1.96.88-1.96,1.96.88,1.96,1.96,1.96Z"/>
          <path class="cls-4" d="M46.76,27.96c1.08,0,1.96-.88,1.96-1.96s-.88-1.96-1.96-1.96-1.96.88-1.96,1.96.88,1.96,1.96,1.96Z"/>
          <path class="cls-4" d="M10.76,20.76c1.08,0,1.96-.88,1.96-1.96s-.88-1.96-1.96-1.96-1.96.88-1.96,1.96.88,1.96,1.96,1.96Z"/>
          <path class="cls-4" d="M25.16,20.76c1.08,0,1.96-.88,1.96-1.96s-.88-1.96-1.96-1.96-1.96.88-1.96,1.96.88,1.96,1.96,1.96Z"/>
          <path class="cls-4" d="M39.56,20.76c1.08,0,1.96-.88,1.96-1.96s-.88-1.96-1.96-1.96-1.96.88-1.96,1.96.88,1.96,1.96,1.96Z"/>
          <path class="cls-4" d="M53.96,20.76c1.08,0,1.96-.88,1.96-1.96s-.88-1.96-1.96-1.96-1.96.88-1.96,1.96.88,1.96,1.96,1.96Z"/>
          <path class="cls-4" d="M3.56,13.56c1.08,0,1.96-.88,1.96-1.96s-.88-1.96-1.96-1.96-1.96.88-1.96,1.96.88,1.96,1.96,1.96Z"/>
          <path class="cls-4" d="M17.96,13.56c1.09,0,1.96-.88,1.96-1.96s-.88-1.96-1.96-1.96-1.96.88-1.96,1.96.88,1.96,1.96,1.96Z"/>
          <path class="cls-4" d="M32.36,13.56c1.08,0,1.96-.88,1.96-1.96s-.88-1.96-1.96-1.96-1.96.88-1.96,1.96.88,1.96,1.96,1.96Z"/>
          <path class="cls-4" d="M46.76,13.56c1.08,0,1.96-.88,1.96-1.96s-.88-1.96-1.96-1.96-1.96.88-1.96,1.96.88,1.96,1.96,1.96Z"/>
          <path class="cls-4" d="M10.76,6.36c1.08,0,1.96-.88,1.96-1.96s-.88-1.96-1.96-1.96-1.96.88-1.96,1.96.88,1.96,1.96,1.96Z"/>
          <path class="cls-4" d="M25.16,6.36c1.08,0,1.96-.88,1.96-1.96s-.88-1.96-1.96-1.96-1.96.88-1.96,1.96.88,1.96,1.96,1.96Z"/>
          <path class="cls-4" d="M39.56,6.36c1.08,0,1.96-.88,1.96-1.96s-.88-1.96-1.96-1.96-1.96.88-1.96,1.96.88,1.96,1.96,1.96Z"/>
          <path class="cls-4" d="M53.96,6.36c1.08,0,1.96-.88,1.96-1.96s-.88-1.96-1.96-1.96-1.96.88-1.96,1.96.88,1.96,1.96,1.96Z"/>
          <line class="cls-6" x1="3.56" y1="40.4" x2="3.56" y2="40.4"/>
          <line class="cls-6" x1="17.96" y1="40.4" x2="17.96" y2="40.4"/>
          <line class="cls-6" x1="32.36" y1="40.4" x2="32.36" y2="40.4"/>
          <line class="cls-6" x1="46.76" y1="40.4" x2="46.76" y2="40.4"/>
          <line class="cls-6" x1="10.76" y1="33.2" x2="10.76" y2="33.2"/>
          <line class="cls-6" x1="25.16" y1="33.2" x2="25.16" y2="33.2"/>
          <line class="cls-6" x1="39.56" y1="33.2" x2="39.56" y2="33.2"/>
          <line class="cls-6" x1="53.96" y1="33.2" x2="53.96" y2="33.2"/>
          <line class="cls-6" x1="3.56" y1="26" x2="3.56" y2="26"/>
          <line class="cls-6" x1="17.96" y1="26" x2="17.96" y2="26"/>
          <line class="cls-6" x1="32.36" y1="26" x2="32.36" y2="26"/>
          <line class="cls-6" x1="46.76" y1="26" x2="46.76" y2="26"/>
          <line class="cls-6" x1="10.76" y1="18.8" x2="10.76" y2="18.8"/>
          <line class="cls-6" x1="25.16" y1="18.8" x2="25.16" y2="18.8"/>
          <line class="cls-6" x1="39.56" y1="18.8" x2="39.56" y2="18.8"/>
          <line class="cls-6" x1="53.96" y1="18.8" x2="53.96" y2="18.8"/>
          <line class="cls-6" x1="3.56" y1="11.6" x2="3.56" y2="11.6"/>
          <line class="cls-6" x1="17.96" y1="11.6" x2="17.96" y2="11.6"/>
          <line class="cls-6" x1="32.36" y1="11.6" x2="32.36" y2="11.6"/>
          <line class="cls-6" x1="46.76" y1="11.6" x2="46.76" y2="11.6"/>
          <line class="cls-6" x1="10.76" y1="4.4" x2="10.76" y2="4.4"/>
          <line class="cls-6" x1="25.16" y1="4.4" x2="25.16" y2="4.4"/>
          <line class="cls-6" x1="39.56" y1="4.4" x2="39.56" y2="4.4"/>
          <line class="cls-6" x1="53.96" y1="4.4" x2="53.96" y2="4.4"/>
        </g>
        <g>
          <line class="cls-5" x1="-57.61" y1=".8" x2=".01" y2=".8"/>
          <line class="cls-5" x1="-57.61" y1="8" x2=".01" y2="8"/>
          <line class="cls-5" x1="-57.61" y1="15.2" x2=".01" y2="15.2"/>
          <line class="cls-5" x1="-57.61" y1="22.4" x2=".01" y2="22.4"/>
          <line class="cls-5" x1="-57.61" y1="29.6" x2=".01" y2="29.6"/>
          <line class="cls-5" x1="-57.61" y1="36.8" x2=".01" y2="36.8"/>
        </g>
        <g>
          <line class="cls-4" x1="53.96" y1="-6.38" x2="53.96" y2="1"/>
          <line class="cls-4" x1="39.56" y1="-6.38" x2="39.56" y2="1"/>
          <line class="cls-4" x1="25.16" y1="-6.38" x2="25.16" y2="1"/>
          <line class="cls-4" x1="10.76" y1="-6.38" x2="10.76" y2="1"/>
        </g>
      </g>
    </pattern>
  </defs>
  <g id="Layer_1-2" data-name="Layer 1">
    <rect class="cls-1" width="253" height="183" rx="36.52" ry="36.52"/>
    <rect class="cls-3" x="30" y="30" width="223" height="153"/>
  </g>
</svg>