<?xml version="1.0" encoding="UTF-8"?>
<svg id="Layer_2" data-name="Layer 2" xmlns="http://www.w3.org/2000/svg" xmlns:xlink="http://www.w3.org/1999/xlink" viewBox="0 0 617 475">
  <defs>
    <style>
      .cls-1 {
        fill: none;
      }

      .cls-1, .cls-2, .cls-3, .cls-4, .cls-5 {
        stroke-width: 0px;
      }

      .cls-2 {
        fill: #f6acaa;
      }

      .cls-3 {
        fill: #008243;
      }

      .cls-4 {
        fill: #f0786a;
      }

      .cls-6 {
        fill: #ff1d25;
        stroke: url(#Tulips_Color);
        stroke-miterlimit: 10;
        stroke-width: 70px;
      }

      .cls-5 {
        fill: #549866;
      }
    </style>
    <pattern id="Tulips_Color" data-name="Tulips Color" x="0" y="0" width="72.12" height="72.12" patternTransform="translate(-79 -93)" patternUnits="userSpaceOnUse" viewBox="0 0 72.12 72.12">
      <g>
        <rect class="cls-1" x="0" width="72.12" height="72.12"/>
        <rect class="cls-3" x="70.74" y="65.56" width="2.75" height="13.12"/>
        <g>
          <rect class="cls-3" x="-1.38" y="65.56" width="2.75" height="13.12"/>
          <rect class="cls-3" x="70.74" y="65.56" width="2.75" height="13.12"/>
          <polygon class="cls-3" points="7.38 73.99 7.38 70.99 1.94 75.12 1.94 78.12 7.38 73.99"/>
          <polygon class="cls-3" points="64.74 73.99 64.74 70.99 70.18 75.12 70.18 78.12 64.74 73.99"/>
          <polygon class="cls-5" points="7.38 70.99 7.38 67.99 1.94 72.12 1.94 75.12 7.38 70.99"/>
          <polygon class="cls-5" points="64.74 70.99 64.74 67.99 70.18 72.12 70.18 75.12 64.74 70.99"/>
        </g>
        <rect class="cls-3" x="-1.38" y="65.56" width="2.75" height="13.12"/>
        <g>
          <polygon class="cls-2" points="66.12 51.18 69.12 54.18 72.12 51.18 75.12 54.18 78.12 51.18 78.12 55.87 75.12 58.87 72.12 55.87 69.12 58.87 66.12 55.87 66.12 51.18"/>
          <polygon class="cls-4" points="66.12 62.18 69.12 65.18 75.12 65.18 78.12 62.18 78.12 55.87 75.12 58.87 72.12 55.87 69.12 58.87 66.12 55.87 66.12 62.18"/>
          <rect class="cls-3" x="70.74" y="-6.56" width="2.75" height="13.12"/>
          <rect class="cls-3" x="70.74" y="65.56" width="2.75" height="13.12"/>
        </g>
        <g>
          <polygon class="cls-2" points="-6 51.18 -3 54.18 0 51.18 3 54.18 6 51.18 6 55.87 3 58.87 0 55.87 -3 58.87 -6 55.87 -6 51.18"/>
          <polygon class="cls-2" points="66.12 51.18 69.12 54.18 72.12 51.18 75.12 54.18 78.12 51.18 78.12 55.87 75.12 58.87 72.12 55.87 69.12 58.87 66.12 55.87 66.12 51.18"/>
          <polygon class="cls-2" points="30.06 15.12 33.06 18.12 36.06 15.12 39.06 18.12 42.06 15.12 42.06 19.81 39.06 22.81 36.06 19.81 33.06 22.81 30.06 19.81 30.06 15.12"/>
          <polygon class="cls-4" points="-6 62.18 -3 65.18 3 65.18 6 62.18 6 55.87 3 58.87 0 55.87 -3 58.87 -6 55.87 -6 62.18"/>
          <polygon class="cls-4" points="66.12 62.18 69.12 65.18 75.12 65.18 78.12 62.18 78.12 55.87 75.12 58.87 72.12 55.87 69.12 58.87 66.12 55.87 66.12 62.18"/>
          <polygon class="cls-4" points="30.06 26.12 33.06 29.12 39.06 29.12 42.06 26.12 42.06 19.81 39.06 22.81 36.06 19.81 33.06 22.81 30.06 19.81 30.06 26.12"/>
          <rect class="cls-3" x="-1.38" y="-6.56" width="2.75" height="13.12"/>
          <rect class="cls-3" x="-1.38" y="65.56" width="2.75" height="13.12"/>
          <rect class="cls-3" x="70.74" y="65.56" width="2.75" height="13.12"/>
          <rect class="cls-3" x="70.74" y="-6.56" width="2.75" height="13.12"/>
          <rect class="cls-3" x="34.68" y="29.5" width="2.75" height="13.12"/>
          <polygon class="cls-3" points="7.38 1.88 7.38 -1.12 1.94 3 1.94 6 7.38 1.88"/>
          <polygon class="cls-3" points="7.38 73.99 7.38 70.99 1.94 75.12 1.94 78.12 7.38 73.99"/>
          <polygon class="cls-3" points="64.74 73.99 64.74 70.99 70.18 75.12 70.18 78.12 64.74 73.99"/>
          <polygon class="cls-3" points="64.74 1.88 64.74 -1.12 70.18 3 70.18 6 64.74 1.88"/>
          <polygon class="cls-3" points="43.43 37.93 43.43 34.93 38 39.06 38 42.06 43.43 37.93"/>
          <polygon class="cls-3" points="28.68 37.93 28.68 34.93 34.12 39.06 34.12 42.06 28.68 37.93"/>
          <polygon class="cls-5" points="7.38 -1.12 7.38 -4.12 1.94 0 1.94 3 7.38 -1.12"/>
          <polygon class="cls-5" points="7.38 70.99 7.38 67.99 1.94 72.12 1.94 75.12 7.38 70.99"/>
          <polygon class="cls-5" points="64.74 70.99 64.74 67.99 70.18 72.12 70.18 75.12 64.74 70.99"/>
          <polygon class="cls-5" points="64.74 -1.12 64.74 -4.12 70.18 0 70.18 3 64.74 -1.12"/>
          <polygon class="cls-5" points="43.43 34.93 43.43 31.93 38 36.06 38 39.06 43.43 34.93"/>
          <polygon class="cls-5" points="28.68 34.93 28.68 31.93 34.12 36.06 34.12 39.06 28.68 34.93"/>
        </g>
        <g>
          <polygon class="cls-2" points="-6 51.18 -3 54.18 0 51.18 3 54.18 6 51.18 6 55.87 3 58.87 0 55.87 -3 58.87 -6 55.87 -6 51.18"/>
          <polygon class="cls-4" points="-6 62.18 -3 65.18 3 65.18 6 62.18 6 55.87 3 58.87 0 55.87 -3 58.87 -6 55.87 -6 62.18"/>
          <rect class="cls-3" x="-1.38" y="65.56" width="2.75" height="13.12"/>
          <rect class="cls-3" x="-1.38" y="-6.56" width="2.75" height="13.12"/>
        </g>
        <rect class="cls-3" x="70.74" y="-6.56" width="2.75" height="13.12"/>
        <g>
          <rect class="cls-3" x="-1.38" y="-6.56" width="2.75" height="13.12"/>
          <rect class="cls-3" x="70.74" y="-6.56" width="2.75" height="13.12"/>
          <polygon class="cls-3" points="7.38 1.88 7.38 -1.12 1.94 3 1.94 6 7.38 1.88"/>
          <polygon class="cls-3" points="64.74 1.88 64.74 -1.12 70.18 3 70.18 6 64.74 1.88"/>
          <polygon class="cls-5" points="7.38 -1.12 7.38 -4.12 1.94 0 1.94 3 7.38 -1.12"/>
          <polygon class="cls-5" points="64.74 -1.12 64.74 -4.12 70.18 0 70.18 3 64.74 -1.12"/>
        </g>
        <rect class="cls-3" x="-1.38" y="-6.56" width="2.75" height="13.12"/>
      </g>
    </pattern>
  </defs>
  <g id="Layer_1-2" data-name="Layer 1">
    <rect class="cls-6" x="35" y="35" width="547" height="405"/>
  </g>
</svg>