<?xml version="1.0" encoding="UTF-8"?>
<svg id="Layer_2" data-name="Layer 2" xmlns="http://www.w3.org/2000/svg" xmlns:xlink="http://www.w3.org/1999/xlink" viewBox="0 0 270 199">
  <defs>
    <style>
      .cls-1, .cls-2 {
        fill: none;
      }

      .cls-1, .cls-3 {
        stroke-width: 0px;
      }

      .cls-2 {
        stroke: #231f20;
        stroke-width: .3px;
      }

      .cls-3 {
        fill: url(#USGS_2_Marsh);
      }
    </style>
    <pattern id="USGS_2_Marsh" data-name="USGS 2 Marsh" x="0" y="0" width="72" height="72" patternTransform="translate(-215 -221)" patternUnits="userSpaceOnUse" viewBox="0 0 72 72">
      <g>
        <rect class="cls-1" y="0" width="72" height="72"/>
        <g>
          <line class="cls-2" x1="29.5" y1="73.13" x2="29.5" y2="71.38"/>
          <line class="cls-2" x1="29" y1="73.13" x2="28.56" y2="72"/>
          <line class="cls-2" x1="30" y1="73.13" x2="30.53" y2="72"/>
        </g>
        <g>
          <line class="cls-2" x1="70.5" y1="48.75" x2="77.38" y2="48.75"/>
          <line class="cls-2" x1="71.81" y1="35.38" x2="78.69" y2="35.38"/>
          <line class="cls-2" x1="71.5" y1="12.12" x2="78.38" y2="12.12"/>
          <line class="cls-2" x1="70.62" y1="3.5" x2="77.5" y2="3.5"/>
          <line class="cls-2" x1="70.94" y1="65.38" x2="75.31" y2="65.38"/>
        </g>
        <g>
          <line class="cls-2" x1="17.06" y1="69.38" x2="23.94" y2="69.38"/>
          <line class="cls-2" x1="30.06" y1="65.88" x2="36.94" y2="65.88"/>
          <line class="cls-2" x1="56.19" y1="67.63" x2="63.06" y2="67.63"/>
          <line class="cls-2" x1="59.06" y1="62" x2="65.94" y2="62"/>
          <line class="cls-2" x1="48.06" y1="58.75" x2="54.94" y2="58.75"/>
          <line class="cls-2" x1="35.56" y1="56.12" x2="42.44" y2="56.12"/>
          <line class="cls-2" x1="22.56" y1="52.88" x2="29.44" y2="52.88"/>
          <line class="cls-2" x1="34.06" y1="48.62" x2="40.94" y2="48.62"/>
          <line class="cls-2" x1="45.56" y1="44.38" x2="52.44" y2="44.38"/>
          <line class="cls-2" x1="40.31" y1="40.5" x2="47.19" y2="40.5"/>
          <line class="cls-2" x1="54.06" y1="52.75" x2="60.94" y2="52.75"/>
          <line class="cls-2" x1="53.81" y1="37.25" x2="60.69" y2="37.25"/>
          <line class="cls-2" x1="11.56" y1="62.12" x2="18.44" y2="62.12"/>
          <line class="cls-2" x1=".56" y1="58.88" x2="7.44" y2="58.88"/>
          <line class="cls-2" x1="6.56" y1="52.88" x2="13.44" y2="52.88"/>
          <line class="cls-2" x1="-1.5" y1="48.75" x2="5.38" y2="48.75"/>
          <line class="cls-2" x1="5.69" y1="44.25" x2="12.56" y2="44.25"/>
          <line class="cls-2" x1="20.81" y1="41.5" x2="27.69" y2="41.5"/>
          <line class="cls-2" x1="29.31" y1="37.25" x2="36.19" y2="37.25"/>
          <line class="cls-2" x1="22.81" y1="30.12" x2="29.69" y2="30.12"/>
          <line class="cls-2" x1="35.31" y1="31.25" x2="42.19" y2="31.25"/>
          <line class="cls-2" x1="3.81" y1="31.38" x2="10.69" y2="31.38"/>
          <line class="cls-2" x1="-.19" y1="35.38" x2="6.69" y2="35.38"/>
          <line class="cls-2" x1="-.5" y1="12.12" x2="6.38" y2="12.12"/>
          <line class="cls-2" x1="11.5" y1="16.12" x2="18.38" y2="16.12"/>
          <line class="cls-2" x1="13.12" y1="22.75" x2="20" y2="22.75"/>
          <line class="cls-2" x1="6" y1="6.75" x2="12.88" y2="6.75"/>
          <line class="cls-2" x1="-1.38" y1="3.5" x2="5.5" y2="3.5"/>
          <line class="cls-2" x1="28.31" y1="21.38" x2="35.19" y2="21.38"/>
          <line class="cls-2" x1="41.81" y1="25.88" x2="48.69" y2="25.88"/>
          <line class="cls-2" x1="41" y1="18" x2="47.88" y2="18"/>
          <line class="cls-2" x1="52" y1="21.25" x2="58.88" y2="21.25"/>
          <line class="cls-2" x1="59" y1="16" x2="65.88" y2="16"/>
          <line class="cls-2" x1="34.5" y1="10.88" x2="41.38" y2="10.88"/>
          <line class="cls-2" x1="27" y1="7.88" x2="33.88" y2="7.88"/>
          <line class="cls-2" x1="26.06" y1="1.12" x2="32.94" y2="1.12"/>
          <line class="cls-2" x1="38.5" y1="3.62" x2="45.38" y2="3.62"/>
          <line class="cls-2" x1="53.5" y1="6.62" x2="60.38" y2="6.62"/>
          <line class="cls-2" x1="63.69" y1="53.5" x2="70.56" y2="53.5"/>
          <line class="cls-2" x1="64.81" y1="40.62" x2="71.69" y2="40.62"/>
          <line class="cls-2" x1="65.5" y1="18" x2="72.38" y2="18"/>
          <line class="cls-2" x1="66.31" y1="26" x2="73.19" y2="26"/>
          <line class="cls-2" x1="20.5" y1="69.38" x2="20.5" y2="67.63"/>
          <line class="cls-2" x1="33.5" y1="65.88" x2="33.5" y2="64.13"/>
          <line class="cls-2" x1="59.62" y1="67.63" x2="59.62" y2="65.88"/>
          <line class="cls-2" x1="62.5" y1="62" x2="62.5" y2="60.25"/>
          <line class="cls-2" x1="51.5" y1="58.75" x2="51.5" y2="57"/>
          <line class="cls-2" x1="39" y1="56.12" x2="39" y2="54.38"/>
          <line class="cls-2" x1="26" y1="52.88" x2="26" y2="51.12"/>
          <line class="cls-2" x1="37.5" y1="48.62" x2="37.5" y2="46.88"/>
          <line class="cls-2" x1="49" y1="44.38" x2="49" y2="42.62"/>
          <line class="cls-2" x1="43.75" y1="40.5" x2="43.75" y2="38.75"/>
          <line class="cls-2" x1="57.5" y1="52.75" x2="57.5" y2="51"/>
          <line class="cls-2" x1="57.25" y1="37.25" x2="57.25" y2="35.5"/>
          <line class="cls-2" x1="15" y1="62.12" x2="15" y2="60.38"/>
          <line class="cls-2" x1="4" y1="58.88" x2="4" y2="57.12"/>
          <line class="cls-2" x1="10" y1="52.88" x2="10" y2="51.12"/>
          <line class="cls-2" x1="1.94" y1="48.75" x2="1.94" y2="47"/>
          <line class="cls-2" x1="9.12" y1="44.25" x2="9.12" y2="42.5"/>
          <line class="cls-2" x1="24.25" y1="41.5" x2="24.25" y2="39.75"/>
          <line class="cls-2" x1="32.75" y1="37.25" x2="32.75" y2="35.5"/>
          <line class="cls-2" x1="26.25" y1="30.12" x2="26.25" y2="28.38"/>
          <line class="cls-2" x1="38.75" y1="31.25" x2="38.75" y2="29.5"/>
          <line class="cls-2" x1="69.75" y1="26" x2="69.75" y2="24.25"/>
          <line class="cls-2" x1="7.25" y1="31.38" x2="7.25" y2="29.62"/>
          <line class="cls-2" x1="3.25" y1="35.38" x2="3.25" y2="33.62"/>
          <line class="cls-2" x1="2.94" y1="12.12" x2="2.94" y2="10.38"/>
          <line class="cls-2" x1="14.94" y1="16.12" x2="14.94" y2="14.38"/>
          <line class="cls-2" x1="16.56" y1="22.75" x2="16.56" y2="21"/>
          <line class="cls-2" x1="9.44" y1="6.75" x2="9.44" y2="5"/>
          <line class="cls-2" x1="2.06" y1="3.5" x2="2.06" y2="1.75"/>
          <line class="cls-2" x1="31.75" y1="21.38" x2="31.75" y2="19.62"/>
          <line class="cls-2" x1="45.25" y1="25.88" x2="45.25" y2="24.12"/>
          <line class="cls-2" x1="44.44" y1="18" x2="44.44" y2="16.25"/>
          <line class="cls-2" x1="55.44" y1="21.25" x2="55.44" y2="19.5"/>
          <line class="cls-2" x1="62.44" y1="16" x2="62.44" y2="14.25"/>
          <line class="cls-2" x1="37.94" y1="10.88" x2="37.94" y2="9.12"/>
          <line class="cls-2" x1="30.44" y1="7.88" x2="30.44" y2="6.12"/>
          <line class="cls-2" x1="29.5" y1="1.12" x2="29.5" y2="-.62"/>
          <line class="cls-2" x1="41.94" y1="3.62" x2="41.94" y2="1.88"/>
          <line class="cls-2" x1="56.94" y1="6.62" x2="56.94" y2="4.88"/>
          <line class="cls-2" x1="67.12" y1="53.5" x2="67.12" y2="51.75"/>
          <line class="cls-2" x1="68.25" y1="40.62" x2="68.25" y2="38.88"/>
          <line class="cls-2" x1="68.94" y1="18" x2="68.94" y2="16.25"/>
          <line class="cls-2" x1="20" y1="69.38" x2="19.56" y2="68.25"/>
          <line class="cls-2" x1="33" y1="65.88" x2="32.56" y2="64.75"/>
          <line class="cls-2" x1="59.12" y1="67.63" x2="58.69" y2="66.5"/>
          <line class="cls-2" x1="62" y1="62" x2="61.56" y2="60.88"/>
          <line class="cls-2" x1="51" y1="58.75" x2="50.56" y2="57.62"/>
          <line class="cls-2" x1="38.5" y1="56.12" x2="38.06" y2="55"/>
          <line class="cls-2" x1="25.5" y1="52.88" x2="25.06" y2="51.75"/>
          <line class="cls-2" x1="37" y1="48.62" x2="36.56" y2="47.5"/>
          <line class="cls-2" x1="48.5" y1="44.38" x2="48.06" y2="43.25"/>
          <line class="cls-2" x1="43.25" y1="40.5" x2="42.81" y2="39.38"/>
          <line class="cls-2" x1="57" y1="52.75" x2="56.56" y2="51.62"/>
          <line class="cls-2" x1="56.75" y1="37.25" x2="56.31" y2="36.12"/>
          <line class="cls-2" x1="14.5" y1="62.12" x2="14.06" y2="61"/>
          <line class="cls-2" x1="3.5" y1="58.88" x2="3.06" y2="57.75"/>
          <line class="cls-2" x1="9.5" y1="52.88" x2="9.06" y2="51.75"/>
          <line class="cls-2" x1="1.44" y1="48.75" x2="1" y2="47.62"/>
          <line class="cls-2" x1="8.62" y1="44.25" x2="8.19" y2="43.12"/>
          <line class="cls-2" x1="23.75" y1="41.5" x2="23.31" y2="40.38"/>
          <line class="cls-2" x1="32.25" y1="37.25" x2="31.81" y2="36.12"/>
          <line class="cls-2" x1="25.75" y1="30.12" x2="25.31" y2="29"/>
          <line class="cls-2" x1="38.25" y1="31.25" x2="37.81" y2="30.12"/>
          <line class="cls-2" x1="6.75" y1="31.38" x2="6.31" y2="30.25"/>
          <line class="cls-2" x1="2.75" y1="35.38" x2="2.31" y2="34.25"/>
          <line class="cls-2" x1="2.44" y1="12.12" x2="2" y2="11"/>
          <line class="cls-2" x1="14.44" y1="16.12" x2="14" y2="15"/>
          <line class="cls-2" x1="16.06" y1="22.75" x2="15.62" y2="21.62"/>
          <line class="cls-2" x1="8.94" y1="6.75" x2="8.5" y2="5.62"/>
          <line class="cls-2" x1="1.56" y1="3.5" x2="1.12" y2="2.38"/>
          <line class="cls-2" x1="31.25" y1="21.38" x2="30.81" y2="20.25"/>
          <line class="cls-2" x1="44.75" y1="25.88" x2="44.31" y2="24.75"/>
          <line class="cls-2" x1="43.94" y1="18" x2="43.5" y2="16.88"/>
          <line class="cls-2" x1="54.94" y1="21.25" x2="54.5" y2="20.12"/>
          <line class="cls-2" x1="61.94" y1="16" x2="61.5" y2="14.88"/>
          <line class="cls-2" x1="37.44" y1="10.88" x2="37" y2="9.75"/>
          <line class="cls-2" x1="29.94" y1="7.88" x2="29.5" y2="6.75"/>
          <line class="cls-2" x1="29" y1="1.12" x2="28.56"/>
          <line class="cls-2" x1="41.44" y1="3.62" x2="41" y2="2.5"/>
          <line class="cls-2" x1="56.44" y1="6.62" x2="56" y2="5.5"/>
          <line class="cls-2" x1="66.62" y1="53.5" x2="66.19" y2="52.38"/>
          <line class="cls-2" x1="67.75" y1="40.62" x2="67.31" y2="39.5"/>
          <line class="cls-2" x1="68.44" y1="18" x2="68" y2="16.88"/>
          <line class="cls-2" x1="69.25" y1="26" x2="68.81" y2="24.88"/>
          <line class="cls-2" x1="19.41" y1="69.38" x2="18.78" y2="68.75"/>
          <line class="cls-2" x1="32.41" y1="65.88" x2="31.78" y2="65.25"/>
          <line class="cls-2" x1="58.53" y1="67.63" x2="57.91" y2="67"/>
          <line class="cls-2" x1="61.41" y1="62" x2="60.78" y2="61.38"/>
          <line class="cls-2" x1="50.41" y1="58.75" x2="49.78" y2="58.12"/>
          <line class="cls-2" x1="37.91" y1="56.12" x2="37.28" y2="55.5"/>
          <line class="cls-2" x1="24.91" y1="52.88" x2="24.28" y2="52.25"/>
          <line class="cls-2" x1="36.41" y1="48.62" x2="35.78" y2="48"/>
          <line class="cls-2" x1="47.91" y1="44.38" x2="47.28" y2="43.75"/>
          <line class="cls-2" x1="42.66" y1="40.5" x2="42.03" y2="39.88"/>
          <line class="cls-2" x1="56.41" y1="52.75" x2="55.78" y2="52.12"/>
          <line class="cls-2" x1="56.16" y1="37.25" x2="55.53" y2="36.62"/>
          <line class="cls-2" x1="13.91" y1="62.12" x2="13.28" y2="61.5"/>
          <line class="cls-2" x1="2.91" y1="58.88" x2="2.28" y2="58.25"/>
          <line class="cls-2" x1="8.91" y1="52.88" x2="8.28" y2="52.25"/>
          <line class="cls-2" x1=".84" y1="48.75" x2=".22" y2="48.12"/>
          <line class="cls-2" x1="8.03" y1="44.25" x2="7.41" y2="43.62"/>
          <line class="cls-2" x1="23.16" y1="41.5" x2="22.53" y2="40.88"/>
          <line class="cls-2" x1="31.66" y1="37.25" x2="31.03" y2="36.62"/>
          <line class="cls-2" x1="25.16" y1="30.12" x2="24.53" y2="29.5"/>
          <line class="cls-2" x1="37.66" y1="31.25" x2="37.03" y2="30.62"/>
          <line class="cls-2" x1="6.16" y1="31.38" x2="5.53" y2="30.75"/>
          <line class="cls-2" x1="2.16" y1="35.38" x2="1.53" y2="34.75"/>
          <line class="cls-2" x1="1.84" y1="12.12" x2="1.22" y2="11.5"/>
          <line class="cls-2" x1="13.84" y1="16.12" x2="13.22" y2="15.5"/>
          <line class="cls-2" x1="15.47" y1="22.75" x2="14.84" y2="22.12"/>
          <line class="cls-2" x1="8.34" y1="6.75" x2="7.72" y2="6.12"/>
          <line class="cls-2" x1=".97" y1="3.5" x2=".34" y2="2.88"/>
          <line class="cls-2" x1="30.66" y1="21.38" x2="30.03" y2="20.75"/>
          <line class="cls-2" x1="44.16" y1="25.88" x2="43.53" y2="25.25"/>
          <line class="cls-2" x1="43.34" y1="18" x2="42.72" y2="17.38"/>
          <line class="cls-2" x1="54.34" y1="21.25" x2="53.72" y2="20.62"/>
          <line class="cls-2" x1="61.34" y1="16" x2="60.72" y2="15.38"/>
          <line class="cls-2" x1="36.84" y1="10.88" x2="36.22" y2="10.25"/>
          <line class="cls-2" x1="29.34" y1="7.88" x2="28.72" y2="7.25"/>
          <line class="cls-2" x1="28.41" y1="1.12" x2="27.78" y2=".5"/>
          <line class="cls-2" x1="40.84" y1="3.62" x2="40.22" y2="3"/>
          <line class="cls-2" x1="55.84" y1="6.62" x2="55.22" y2="6"/>
          <line class="cls-2" x1="66.03" y1="53.5" x2="65.41" y2="52.88"/>
          <line class="cls-2" x1="67.16" y1="40.62" x2="66.53" y2="40"/>
          <line class="cls-2" x1="67.84" y1="18" x2="67.22" y2="17.38"/>
          <line class="cls-2" x1="68.66" y1="26" x2="68.03" y2="25.38"/>
          <line class="cls-2" x1="21" y1="69.38" x2="21.53" y2="68.25"/>
          <line class="cls-2" x1="34" y1="65.88" x2="34.53" y2="64.75"/>
          <line class="cls-2" x1="60.12" y1="67.63" x2="60.66" y2="66.5"/>
          <line class="cls-2" x1="63" y1="62" x2="63.53" y2="60.88"/>
          <line class="cls-2" x1="52" y1="58.75" x2="52.53" y2="57.62"/>
          <line class="cls-2" x1="39.5" y1="56.12" x2="40.03" y2="55"/>
          <line class="cls-2" x1="26.5" y1="52.88" x2="27.03" y2="51.75"/>
          <line class="cls-2" x1="38" y1="48.62" x2="38.53" y2="47.5"/>
          <line class="cls-2" x1="49.5" y1="44.38" x2="50.03" y2="43.25"/>
          <line class="cls-2" x1="44.25" y1="40.5" x2="44.78" y2="39.38"/>
          <line class="cls-2" x1="58" y1="52.75" x2="58.53" y2="51.62"/>
          <line class="cls-2" x1="57.75" y1="37.25" x2="58.28" y2="36.12"/>
          <line class="cls-2" x1="15.5" y1="62.12" x2="16.03" y2="61"/>
          <line class="cls-2" x1="4.5" y1="58.88" x2="5.03" y2="57.75"/>
          <line class="cls-2" x1="10.5" y1="52.88" x2="11.03" y2="51.75"/>
          <line class="cls-2" x1="2.44" y1="48.75" x2="2.97" y2="47.62"/>
          <line class="cls-2" x1="9.62" y1="44.25" x2="10.16" y2="43.12"/>
          <line class="cls-2" x1="24.75" y1="41.5" x2="25.28" y2="40.38"/>
          <line class="cls-2" x1="33.25" y1="37.25" x2="33.78" y2="36.12"/>
          <line class="cls-2" x1="26.75" y1="30.12" x2="27.28" y2="29"/>
          <line class="cls-2" x1="39.25" y1="31.25" x2="39.78" y2="30.12"/>
          <line class="cls-2" x1="69.44" y1="18" x2="69.97" y2="16.88"/>
          <line class="cls-2" x1="70.25" y1="26" x2="70.78" y2="24.88"/>
          <line class="cls-2" x1="7.75" y1="31.38" x2="8.28" y2="30.25"/>
          <line class="cls-2" x1="3.75" y1="35.38" x2="4.28" y2="34.25"/>
          <line class="cls-2" x1="3.44" y1="12.12" x2="3.97" y2="11"/>
          <line class="cls-2" x1="15.44" y1="16.12" x2="15.97" y2="15"/>
          <line class="cls-2" x1="17.06" y1="22.75" x2="17.59" y2="21.62"/>
          <line class="cls-2" x1="9.94" y1="6.75" x2="10.47" y2="5.62"/>
          <line class="cls-2" x1="2.56" y1="3.5" x2="3.09" y2="2.38"/>
          <line class="cls-2" x1="32.25" y1="21.38" x2="32.78" y2="20.25"/>
          <line class="cls-2" x1="45.75" y1="25.88" x2="46.28" y2="24.75"/>
          <line class="cls-2" x1="44.94" y1="18" x2="45.47" y2="16.88"/>
          <line class="cls-2" x1="55.94" y1="21.25" x2="56.47" y2="20.12"/>
          <line class="cls-2" x1="62.94" y1="16" x2="63.47" y2="14.88"/>
          <line class="cls-2" x1="38.44" y1="10.88" x2="38.97" y2="9.75"/>
          <line class="cls-2" x1="30.94" y1="7.88" x2="31.47" y2="6.75"/>
          <line class="cls-2" x1="30" y1="1.12" x2="30.53"/>
          <line class="cls-2" x1="42.44" y1="3.62" x2="42.97" y2="2.5"/>
          <line class="cls-2" x1="57.44" y1="6.62" x2="57.97" y2="5.5"/>
          <line class="cls-2" x1="67.62" y1="53.5" x2="68.16" y2="52.38"/>
          <line class="cls-2" x1="68.75" y1="40.62" x2="69.28" y2="39.5"/>
          <line class="cls-2" x1="21.56" y1="69.38" x2="22.25" y2="68.69"/>
          <line class="cls-2" x1="34.56" y1="65.88" x2="35.25" y2="65.19"/>
          <line class="cls-2" x1="60.69" y1="67.63" x2="61.38" y2="66.94"/>
          <line class="cls-2" x1="63.56" y1="62" x2="64.25" y2="61.31"/>
          <line class="cls-2" x1="52.56" y1="58.75" x2="53.25" y2="58.06"/>
          <line class="cls-2" x1="40.06" y1="56.12" x2="40.75" y2="55.44"/>
          <line class="cls-2" x1="27.06" y1="52.88" x2="27.75" y2="52.19"/>
          <line class="cls-2" x1="38.56" y1="48.62" x2="39.25" y2="47.94"/>
          <line class="cls-2" x1="50.06" y1="44.38" x2="50.75" y2="43.69"/>
          <line class="cls-2" x1="44.81" y1="40.5" x2="45.5" y2="39.81"/>
          <line class="cls-2" x1="58.56" y1="52.75" x2="59.25" y2="52.06"/>
          <line class="cls-2" x1="58.31" y1="37.25" x2="59" y2="36.56"/>
          <line class="cls-2" x1="16.06" y1="62.12" x2="16.75" y2="61.44"/>
          <line class="cls-2" x1="5.06" y1="58.88" x2="5.75" y2="58.19"/>
          <line class="cls-2" x1="11.06" y1="52.88" x2="11.75" y2="52.19"/>
          <line class="cls-2" x1="3" y1="48.75" x2="3.69" y2="48.06"/>
          <line class="cls-2" x1="69.31" y1="40.62" x2="70" y2="39.94"/>
          <line class="cls-2" x1="10.19" y1="44.25" x2="10.88" y2="43.56"/>
          <line class="cls-2" x1="25.31" y1="41.5" x2="26" y2="40.81"/>
          <line class="cls-2" x1="33.81" y1="37.25" x2="34.5" y2="36.56"/>
          <line class="cls-2" x1="27.31" y1="30.12" x2="28" y2="29.44"/>
          <line class="cls-2" x1="39.81" y1="31.25" x2="40.5" y2="30.56"/>
          <line class="cls-2" x1="70" y1="18" x2="70.69" y2="17.31"/>
          <line class="cls-2" x1="70.81" y1="26" x2="71.5" y2="25.31"/>
          <line class="cls-2" x1="8.31" y1="31.38" x2="9" y2="30.69"/>
          <line class="cls-2" x1="4.31" y1="35.38" x2="5" y2="34.69"/>
          <line class="cls-2" x1="4" y1="12.12" x2="4.69" y2="11.44"/>
          <line class="cls-2" x1="16" y1="16.12" x2="16.69" y2="15.44"/>
          <line class="cls-2" x1="17.62" y1="22.75" x2="18.31" y2="22.06"/>
          <line class="cls-2" x1="10.5" y1="6.75" x2="11.19" y2="6.06"/>
          <line class="cls-2" x1="3.12" y1="3.5" x2="3.81" y2="2.81"/>
          <line class="cls-2" x1="32.81" y1="21.38" x2="33.5" y2="20.69"/>
          <line class="cls-2" x1="46.31" y1="25.88" x2="47" y2="25.19"/>
          <line class="cls-2" x1="45.5" y1="18" x2="46.19" y2="17.31"/>
          <line class="cls-2" x1="56.5" y1="21.25" x2="57.19" y2="20.56"/>
          <line class="cls-2" x1="63.5" y1="16" x2="64.19" y2="15.31"/>
          <line class="cls-2" x1="39" y1="10.88" x2="39.69" y2="10.19"/>
          <line class="cls-2" x1="31.5" y1="7.88" x2="32.19" y2="7.19"/>
          <line class="cls-2" x1="30.56" y1="1.12" x2="31.25" y2=".44"/>
          <line class="cls-2" x1="43" y1="3.62" x2="43.69" y2="2.94"/>
          <line class="cls-2" x1="58" y1="6.62" x2="58.69" y2="5.94"/>
          <line class="cls-2" x1="68.19" y1="53.5" x2="68.88" y2="52.81"/>
          <line class="cls-2" x1="18.75" y1="69.75" x2="22.38" y2="69.75"/>
          <line class="cls-2" x1="31.75" y1="66.25" x2="35.38" y2="66.25"/>
          <line class="cls-2" x1="57.88" y1="68" x2="61.5" y2="68"/>
          <line class="cls-2" x1="60.75" y1="62.38" x2="64.38" y2="62.38"/>
          <line class="cls-2" x1="49.75" y1="59.13" x2="53.38" y2="59.13"/>
          <line class="cls-2" x1="37.25" y1="56.5" x2="40.88" y2="56.5"/>
          <line class="cls-2" x1="24.25" y1="53.25" x2="27.88" y2="53.25"/>
          <line class="cls-2" x1="35.75" y1="49" x2="39.38" y2="49"/>
          <line class="cls-2" x1="47.25" y1="44.75" x2="50.88" y2="44.75"/>
          <line class="cls-2" x1="42" y1="40.88" x2="45.63" y2="40.88"/>
          <line class="cls-2" x1="55.75" y1="53.13" x2="59.38" y2="53.13"/>
          <line class="cls-2" x1="55.5" y1="37.63" x2="59.13" y2="37.63"/>
          <line class="cls-2" x1="13.25" y1="62.5" x2="16.88" y2="62.5"/>
          <line class="cls-2" x1="2.25" y1="59.25" x2="5.88" y2="59.25"/>
          <line class="cls-2" x1="8.25" y1="53.25" x2="11.88" y2="53.25"/>
          <line class="cls-2" x1=".19" y1="49.13" x2="3.82" y2="49.13"/>
          <line class="cls-2" x1="7.38" y1="44.63" x2="11" y2="44.63"/>
          <line class="cls-2" x1="22.5" y1="41.88" x2="26.13" y2="41.88"/>
          <line class="cls-2" x1="31" y1="37.63" x2="34.63" y2="37.63"/>
          <line class="cls-2" x1="24.5" y1="30.5" x2="28.13" y2="30.5"/>
          <line class="cls-2" x1="37" y1="31.63" x2="40.63" y2="31.63"/>
          <line class="cls-2" x1="5.5" y1="31.75" x2="9.13" y2="31.75"/>
          <line class="cls-2" x1="1.5" y1="35.75" x2="5.13" y2="35.75"/>
          <line class="cls-2" x1="1.19" y1="12.5" x2="4.82" y2="12.5"/>
          <line class="cls-2" x1="13.19" y1="16.5" x2="16.82" y2="16.5"/>
          <line class="cls-2" x1="14.82" y1="23.13" x2="18.44" y2="23.13"/>
          <line class="cls-2" x1="7.69" y1="7.13" x2="11.32" y2="7.13"/>
          <line class="cls-2" x1=".32" y1="3.88" x2="3.94" y2="3.88"/>
          <line class="cls-2" x1="30" y1="21.75" x2="33.63" y2="21.75"/>
          <line class="cls-2" x1="43.5" y1="26.25" x2="47.13" y2="26.25"/>
          <line class="cls-2" x1="42.69" y1="18.38" x2="46.32" y2="18.38"/>
          <line class="cls-2" x1="53.69" y1="21.63" x2="57.32" y2="21.63"/>
          <line class="cls-2" x1="60.69" y1="16.38" x2="64.32" y2="16.38"/>
          <line class="cls-2" x1="36.19" y1="11.25" x2="39.82" y2="11.25"/>
          <line class="cls-2" x1="28.69" y1="8.25" x2="32.32" y2="8.25"/>
          <line class="cls-2" x1="27.75" y1="1.5" x2="31.38" y2="1.5"/>
          <line class="cls-2" x1="40.19" y1="4" x2="43.82" y2="4"/>
          <line class="cls-2" x1="55.19" y1="7" x2="58.82" y2="7"/>
          <line class="cls-2" x1="65.38" y1="53.88" x2="69" y2="53.88"/>
          <line class="cls-2" x1="66.5" y1="41" x2="70.13" y2="41"/>
          <line class="cls-2" x1="67.19" y1="18.38" x2="70.82" y2="18.38"/>
          <line class="cls-2" x1="68" y1="26.38" x2="71.63" y2="26.38"/>
          <line class="cls-2" x1="7.38" y1="3.12" x2="11.75" y2="3.12"/>
          <line class="cls-2" x1="13.25" y1="7.88" x2="17.62" y2="7.88"/>
          <line class="cls-2" x1="38.88" y1="6" x2="47.62" y2="6"/>
          <line class="cls-2" x1="6.75" y1="13.38" x2="11.12" y2="13.38"/>
          <line class="cls-2" x1="19.5" y1="17.38" x2="23.88" y2="17.38"/>
          <line class="cls-2" x1="54.88" y1="3" x2="59.25" y2="3"/>
          <line class="cls-2" x1="60.75" y1="7.75" x2="65.12" y2="7.75"/>
          <line class="cls-2" x1="54.25" y1="13.25" x2="58.62" y2="13.25"/>
          <line class="cls-2" x1="1.56" y1="27.12" x2="5.94" y2="27.12"/>
          <line class="cls-2" x1="27.19" y1="25.25" x2="35.94" y2="25.25"/>
          <line class="cls-2" x1="7.81" y1="36.62" x2="12.19" y2="36.62"/>
          <line class="cls-2" x1="43.19" y1="22.25" x2="47.56" y2="22.25"/>
          <line class="cls-2" x1="49.06" y1="27" x2="53.44" y2="27"/>
          <line class="cls-2" x1="42.56" y1="32.5" x2="46.94" y2="32.5"/>
          <line class="cls-2" x1="14.44" y1="43.88" x2="18.81" y2="43.88"/>
          <line class="cls-2" x1="20.31" y1="48.62" x2="24.69" y2="48.62"/>
          <line class="cls-2" x1="45.94" y1="46.75" x2="54.69" y2="46.75"/>
          <line class="cls-2" x1="13.81" y1="54.12" x2="18.19" y2="54.12"/>
          <line class="cls-2" x1="26.56" y1="58.12" x2="30.94" y2="58.12"/>
          <line class="cls-2" x1="61.94" y1="43.75" x2="66.31" y2="43.75"/>
          <line class="cls-2" x1="-1.06" y1="65.38" x2="3.31" y2="65.38"/>
          <line class="cls-2" x1="4.81" y1="70.13" x2="9.19" y2="70.13"/>
          <line class="cls-2" x1="30.44" y1="68.25" x2="39.19" y2="68.25"/>
          <line class="cls-2" x1="46.44" y1="65.25" x2="50.81" y2="65.25"/>
          <line class="cls-2" x1="52.31" y1="70" x2="56.69" y2="70"/>
          <line class="cls-2" x1="2.38" y1="40.25" x2="6.75" y2="40.25"/>
          <line class="cls-2" x1="63.75" y1="10" x2="68.12" y2="10"/>
          <line class="cls-2" x1="63.56" y1="70.75" x2="67.94" y2="70.75"/>
          <line class="cls-2" x1="39.56" y1="59.75" x2="43.94" y2="59.75"/>
          <line class="cls-2" x1="20.5" y1="38.25" x2="26.94" y2="38.25"/>
          <line class="cls-2" x1="67.69" y1="22.38" x2="72.06" y2="22.38"/>
          <line class="cls-2" x1="67.06" y1="32.62" x2="71.44" y2="32.62"/>
          <line class="cls-2" x1="68.12" y1="44.25" x2="72.5" y2="44.25"/>
        </g>
        <g>
          <line class="cls-2" x1="-6.5" y1="18" x2=".38" y2="18"/>
          <line class="cls-2" x1="-5.69" y1="26" x2="1.19" y2="26"/>
          <line class="cls-2" x1="-4.31" y1="22.38" x2=".06" y2="22.38"/>
          <line class="cls-2" x1="-3.88" y1="44.25" x2=".5" y2="44.25"/>
        </g>
      </g>
    </pattern>
  </defs>
  <g id="Layer_1-2" data-name="Layer 1">
    <rect class="cls-3" width="270" height="199"/>
  </g>
</svg>