<?xml version="1.0" encoding="UTF-8"?>
<svg id="Layer_2" data-name="Layer 2" xmlns="http://www.w3.org/2000/svg" xmlns:xlink="http://www.w3.org/1999/xlink" viewBox="0 0 270 199">
  <defs>
    <style>
      .cls-1 {
        fill: url(#Turtle);
      }

      .cls-1, .cls-2, .cls-3, .cls-4, .cls-5, .cls-6, .cls-7, .cls-8, .cls-9, .cls-10, .cls-11 {
        stroke-width: 0px;
      }

      .cls-2 {
        fill: none;
      }

      .cls-3 {
        fill: #876142;
      }

      .cls-4 {
        fill: #949a90;
      }

      .cls-5 {
        fill: #687068;
      }

      .cls-6 {
        fill: #543517;
      }

      .cls-7 {
        fill: #d5d5c4;
      }

      .cls-8 {
        fill: #59393e;
      }

      .cls-9 {
        fill: #37322b;
      }

      .cls-10 {
        fill: #704825;
      }

      .cls-11 {
        fill: #231f20;
      }
    </style>
    <pattern id="Turtle" x="0" y="0" width="72.66" height="72.07" patternTransform="translate(-217 -221)" patternUnits="userSpaceOnUse" viewBox="0 0 72.66 72.07">
      <g>
        <rect class="cls-2" width="72.66" height="72.07"/>
        <g>
          <path class="cls-5" d="M22.33,70.64l2.5,8.67.17,1.33,1,1.67-.67,1.17-.33,1.33-.67,1-1.89,1.64-2,4.83.55.03,1.17,2.83,1.5,2,2.5,2.67-.17,2v1.83l-1.5-3.83-2-3-2.17-4.33,1.67-5.5,1.33-2,2-2.5-1.5-3.17s-2-7.5-1.5-8.67Z"/>
          <path class="cls-4" d="M21.83,70.3l2.5,8.67.17,1.33,1,1.67-.67,1.17-.33,1.33-.67,1-1,.83-2,4.83-.33.83,1.17,2.83,1.5,2,2.5,2.67-.17,2v1.83l-1.5-3.83-2-3-2.17-4.33,1.67-5.5,1.33-2,2-2.5-1.5-3.17s-2-7.5-1.5-8.67Z"/>
          <path class="cls-11" d="M36.49,79.39c-2.89.02-8.79,1.93-10.47,2.53l-3.19-12.28,14.17-5,13.25,4.5-2.51,12.17s-6.95-1.96-11.24-1.92Z"/>
          <path class="cls-8" d="M23.45,69.94c.27.82,3.1,9.43,3.36,10.24,2.13-.61,7.08-1.53,9.74-1.55,3.69-.03,8.79,1.07,10.32,1.34.21-.79,2.55-9.72,2.76-10.52-.81-.28-12.34-4.19-12.65-4.29-.31.11-12.69,4.48-13.54,4.78Z"/>
          <path class="cls-9" d="M33.85,67.02s-9.67,2.99-10.02,3.12c.12.35,3.35,8.9,3.46,9.22,2.48-.6,6.79-1.15,9.2-1.17,3.38-.02,8.13,1.2,10.09,1.53.09-.33,2.13-9.46,2.22-9.81-.33-.11-11.64-4.57-11.76-4.61-.12.04-3.19,1.72-3.19,1.72Z"/>
          <path class="cls-10" d="M33.95,67.3s-8.4,2.97-9.24,3.26c.26.8,2.53,7.71,2.77,8.45,2.53-.58,6.69-.89,9.04-.9,3.26-.02,7.52.39,9.62.74.2-.76,2.09-7.96,2.3-8.74-.78-.26-11.13-3.78-11.44-3.88-.29.1-3.05,1.08-3.05,1.08Z"/>
          <path class="cls-7" d="M34.11,67.77h0s-7.94,2.8-8.78,3.1c.26.79,1.82,6.85,2.48,7.56,2.62-.56,6.45-1.03,8.66-1.05,3.07-.02,6.97.52,9.29.89.2-.77,1.93-7.36,2.06-7.85-.72-.24-10.52-3.36-10.83-3.47-.29.1-2.89.81-2.89.81Z"/>
          <path class="cls-9" d="M34.18,67.96s-8.24,2.91-8.59,3.03c.11.35,2.28,6.94,2.37,7.21,2.68-.56,6.38-.8,8.52-.82,2.9-.02,6.53.25,9.15.67.09-.33,1.88-7.16,1.97-7.5-.34-.11-10.46-3.55-10.59-3.59-.12.04-2.83,1-2.83,1Z"/>
          <path class="cls-10" d="M34.28,68.24s-7.49,2.64-8.31,2.93c.26.79,2.03,6.2,2.19,6.68,2.67-.54,6.22-.96,8.31-.98,2.82-.02,6.33.43,8.93.83.19-.73,1.63-6.21,1.83-6.96-.8-.27-9.92-3.37-10.23-3.47-.29.1-2.73.96-2.73.96Z"/>
          <path class="cls-3" d="M34.45,68.72s-7.03,2.48-7.85,2.77c.25.75,1.69,5.14,1.91,5.81,2.7-.52,5.97-.9,7.97-.91,2.21-.02,5.1.25,8.56.77.19-.73,1.47-5.59,1.6-6.08-3.06-.36-9.21-3.13-9.62-3.27-.29.1-2.56.91-2.56.91Z"/>
          <path class="cls-7" d="M34.78,69.66s-6.12,2.16-6.93,2.45c.17.53,1.13,3.45,1.33,4.06,2.62-.46,5.5-.77,7.28-.78,2.02-.01,4.67.21,7.83.66.17-.63.99-3.76,1.14-4.32-.78-.27-8.11-2.75-8.41-2.86-.28.1-2.24.79-2.24.79Z"/>
          <path class="cls-9" d="M34.84,69.85h0s-6.39,2.26-6.74,2.38c.1.31,1.13,3.45,1.22,3.72,2.63-.45,5.41-.75,7.14-.76,1.97-.01,4.57.21,7.68.65.08-.3.95-4,1.02-4.28-.34-.11-8.02-2.43-8.14-2.47-.12.04-2.17.77-2.17.77Z"/>
          <path class="cls-11" d="M34.94,70.13h0s-5.66,2-6.47,2.28c.19.58.88,2.7,1.05,3.2,2.57-.43,5.25-.71,6.93-.72,1.93-.01,4.46.2,7.46.62.16-.61.8-3.03.91-3.45-.78-.26-7.51-2.55-7.81-2.65-.28.1-2.08.73-2.08.73Z"/>
          <path class="cls-10" d="M35.11,70.6h0s-5.21,1.84-6.01,2.12c.09.26.59,1.79.76,2.33,2.49-.4,4.99-.65,6.58-.66,1.81-.01,4.22.19,7.09.57.12-.46.55-2.08.68-2.58-.52-.17-6.89-2.34-7.2-2.44-.28.1-1.91.67-1.91.67Z"/>
          <path class="cls-11" d="M57.78,71.2s3.45-2.78,4.45-2.44c1,.33,9.28,1.21,9.28,1.21l.67,3v4l-4.18,1.33-2.67.33-1.04-2.94-6.5-4.49Z"/>
          <path class="cls-10" d="M59.01,71.42s2.77-1.83,3.55-1.57c.78.26,7.96.92,7.96.92l.52,2.34v3.12l-3.38,1.04-2.08.26-.52-2.6-6.05-3.51Z"/>
          <path class="cls-7" d="M60.59,72.13s4.38-1.74,4.99-1.54c.61.2,4.17.81,4.17.81l.4,1.82v2.43l-2.75.81-1.62.2-.41-2.03-4.79-2.52Z"/>
          <path class="cls-11" d="M61.28,72.49s3.83-2.05,4.3-1.89c.47.16,3.56,1.3,3.56,1.3l.32,1.42v1.9l-2.26.63-1.26.16-.32-1.58-4.34-1.94Z"/>
          <path class="cls-10" d="M61.82,72.77s3.68-1.63,4.05-1.51c.37.12,2.29,1.02,2.29,1.02l.76,1.11v1.48l-1.87.49-.99.12-.25-1.23-3.99-1.48Z"/>
          <path class="cls-11" d="M11.49,70.97s-2.67-2.67-3.67-2.33c-1,.33-6,1.33-6,1.33l-.67,3-.67,6.57,3.67,1.33,2.67.33.67-3.33,4-6.9Z"/>
          <path class="cls-10" d="M10.35,71.56s-2.08-2.08-2.86-1.82c-.78.26-4.68,1.04-4.68,1.04l-.52,2.34-.67,5.68,2.86,1.04,2.08.26.52-2.6,3.27-5.94Z"/>
          <path class="cls-7" d="M9.47,72.01s-1.62-1.62-2.23-1.42c-.61.2-3.65.81-3.65.81l-.41,1.82-.67,5,2.23.81,1.62.2,1.08-4.59,2.03-2.63Z"/>
          <path class="cls-11" d="M8.77,72.37s-1.06-1.93-1.54-1.78c-.47.16-3.05,1.3-3.05,1.3l-.32,1.42-.67,4.46,1.74.63,1.26.16.99-4.15,1.58-2.05Z"/>
          <path class="cls-10" d="M8.23,72.65s-.91-1.51-1.28-1.39c-.37.12-2.29,1.02-2.29,1.02l-.25,1.11v1.48l.69,3.06.99.12.92-3.8,1.23-1.6Z"/>
          <path class="cls-11" d="M49.99,69.05l-5.92,2.92-2.67-.33-.5-.75s-.67-.25-1-.25-1.5.17-1.5.17l-.67.25-.67-.08-.08-6.33-.67,6.08-.75.25h-.92l-.92-.17-.75,1.33-1.75.58-2.25-.5-5.83-2.58,5.58,3.25s.75.92,1,1c.25.08,1.58-.08,1.58-.08l-.58,1.83-1.56.53-2.36,3.8,2.67-3.33,3-.83,1.92-.33,1.17.08.89.33.61.58-.08,2.25.5-2.25,1.92-.5,1.5-.33,1.75.92,4.5,3.67-4.08-4.58-.08-2-.25-.83s1,.17,1.25,0c.25-.17,6-3.75,6-3.75Z"/>
          <path class="cls-7" d="M36.62,71.73l-1.79.9-.41,1.51,2.03,1.06,2.38-1.06-.41-1.66s-1.24-.45-1.79-.75Z"/>
          <path class="cls-10" d="M36.62,72.01l-1.62.75-.38,1.25,1.83,1.18,2.17-1.18-.38-1.38s-1.12-.38-1.62-.62Z"/>
          <polygon class="cls-5" points="50.82 70.17 49.99 73.14 50.49 74.8 50.13 75.32 49.32 76.47 48.16 78.97 50.16 76.97 51.16 74.47 50.82 70.17"/>
          <polygon class="cls-4" points="51.65 68.1 50.16 72.47 50.66 74.13 50.29 74.65 49.49 75.8 48.33 78.3 50.33 76.3 50.96 72.38 51.65 68.1"/>
          <polygon class="cls-5" points="9.99 61.97 11.49 64.8 11.83 66.97 13.66 67.64 13.83 69.14 14.16 71.14 13.83 72.47 9.68 76.89 7.23 82.69 9.01 75.88 12.83 71.64 12.49 68.97 11.33 67.8 10.83 64.8 9.99 61.97"/>
          <path class="cls-11" d="M66.74,89.57h-12l-4.67-7.83,2.54-13.05c3-.17,8.8,6.55,9.63,7.88,0,0,5.17,12.5,4.5,13Z"/>
          <path class="cls-10" d="M50.6,81.65c.19.31,4.16,6.97,4.42,7.42h11.24c-.22-1.44-2.35-7.14-4.48-12.31-.79-1.24-5.96-7.3-8.77-7.53-.17.79-2.33,12.07-2.41,12.42Z"/>
          <path class="cls-7" d="M51.13,81.56c.19.31,3.91,6.56,4.18,7.01h10.33c-.49-1.87-2.23-6.56-4.32-11.62-.65-1.01-5.59-7.15-8.31-7.72-.19.88-1.8,11.98-1.88,12.33Z"/>
          <path class="cls-9" d="M51.49,81.48c.18.31,3.84,6.14,4.1,6.58.5,0,8.77.25,9.9.25-.66-2.17-2.79-6.71-4.64-11.18-.51-.79-4.98-6.7-7.58-7.54-.2.95-1.71,11.53-1.79,11.88Z"/>
          <path class="cls-10" d="M53.13,76.96s-.48,4.17-.56,4.52c.18.31,3.04,5.64,3.31,6.08h8.4c-.74-2.31-2.2-6.17-3.88-10.24-.41-.61-3.78-5.13-6.26-6.17-.19.9-1,5.81-1,5.81Z"/>
          <polygon class="cls-11" points="52.61 68.68 55.57 78.15 54.24 78.32 54.07 79.48 50.32 81.65 54.24 80.07 55.07 81.57 56.41 82.57 56.57 84.07 54.74 89.07 56.91 84.32 58.33 84.57 60.41 84.9 66.58 89.07 60.83 84.65 59.16 82.9 58.41 82.32 59.08 81.4 59.08 80.73 58.58 79.73 57.74 79.57 59.58 78.4 61.74 76.48 57.82 78.98 56.49 77.82 55.99 77.15 52.61 68.68"/>
          <path class="cls-11" d="M5.73,90.91l13.05-.74,4.56-8.26-2.71-12.27c-3.27.01-10.04,6.35-10.86,7.76,0,0-4.8,13.04-4.04,13.51Z"/>
          <path class="cls-10" d="M22.76,81.86c-.18.33-4.06,7.35-4.32,7.82-.57.03-11.28.64-12.22.69.14-1.48,2.08-7.41,4.07-12.8.77-1.32,6.9-6.94,9.95-7.35.23.79,2.42,11.28,2.53,11.64Z"/>
          <path class="cls-7" d="M22.18,81.8c-.18.33-3.82,6.92-4.08,7.39-.55.03-10.05.57-11.23.63.41-1.93,1.99-6.81,3.93-12.09.64-1.07,6.52-6.77,9.43-7.52.26.89,1.84,11.23,1.95,11.58Z"/>
          <path class="cls-9" d="M21.79,81.75c-.18.33-3.77,6.48-4.03,6.95-.55.03-9.52.79-10.75.86.57-2.24,2.59-7,4.31-11.66.51-.84,5.88-6.27,8.65-7.28.28.96,1.72,10.78,1.82,11.13Z"/>
          <polygon class="cls-11" points="20.63 69.65 17.13 78.61 18.59 78.7 18.85 79.87 23.07 81.85 18.7 80.48 17.9 82.06 16.51 83.16 16.43 84.69 18.75 89.67 16.08 84.97 14.56 85.31 12.31 85.78 5.88 90.39 11.84 85.55 13.54 83.66 14.32 83.02 13.54 82.13 13.49 81.45 13.97 80.4 14.86 80.18 12.79 79.11 10.31 77.29 14.74 79.6 16.11 78.33 16.61 77.62 20.63 69.65"/>
        </g>
        <g>
          <g>
            <polygon class="cls-11" points="73.78 36.29 70.53 36.63 72.33 45.57 69.52 55.38 73.52 57.05 77.52 55.71 74.66 46.9 75.66 37.9 73.78 36.29"/>
            <path class="cls-10" d="M71.05,36.98c.04.67,1.78,8.66,1.78,8.66,0,0-2.37,8.67-2.67,9.46.67.28,3.1,1.29,3.38,1.41.28-.09,2.5-.83,3.28-1.09-.43-.86-2.67-8.44-2.67-8.44,0,0,.91-8.35.98-8.87-.28-.23-.96-.77-1.23-.98-.31.1-2.44-.28-2.85-.15Z"/>
            <path class="cls-7" d="M71.57,37.34c.04.67,1.77,8.39,1.77,8.39,0,0-2.24,8.32-2.54,9.11.45.19,2.48,1.03,2.76,1.15.26-.09,1.84-.61,2.55-.85-.42-.85-2.74-8.31-2.74-8.31.72-5.06.91-6.33,1.22-8.49-.26-.21-.78-.62-.8-.64-.23.08-1.93-.45-2.23-.35Z"/>
            <path class="cls-11" d="M73.69,38.25c.14.11.22.17.36.29-.03.2-.18,3.29-.36,4.51-.07-1.37-1.59-5.02-1.61-5.36.07-.02,1.54.58,1.61.56ZM73.23,47.4c.09.19,2.21,6.79,2.62,7.61-.33.11-2.01.35-2.28.44-.25-.1-2.3-.41-2.78-.62.22-.58,1.84-5.86,2.44-7.43Z"/>
            <path class="cls-10" d="M72.98,49.48s-.67,4.2-.9,4.8c.5.21,1.29.54,1.52.63.19-.06.64-.21,1.1-.37-.3-.61-.8-5.79-1.33-6.86-.16.41-.39,1.79-.39,1.79Z"/>
          </g>
          <polygon class="cls-11" points="67.61 8.9 71.61 7.57 78.51 10.29 76.61 17.23 73.28 17.57 69.94 17.57 68.94 12.57 67.61 8.9"/>
          <path class="cls-10" d="M68.26,9.21c.26.73,1.16,3.18,1.16,3.18.02.06.71,3.51.94,4.67h2.92s1.91-.19,2.81-.28c-.03-.79-.27-6.34-.3-6.88-.49-.21-3.9-1.67-4.2-1.8-.29.09-2.62.87-3.33,1.11Z"/>
          <path class="cls-7" d="M68.26,9.21c.25.7,1.63,3.01,1.63,3.01,0,.03.66,3.23.88,4.34h2.51l-.04.04c.36-.08,1.01-.15,2.23-.27,0,0,.08,0,.11-.01-.03-.78,2.48-5.18,2.46-5.71-.48-.2-6.16-1.86-6.46-1.99-.27.09-2.64.35-3.31.58Z"/>
          <path class="cls-11" d="M69.55,9.84c.24.65.81,2.22.81,2.22q.02.06.72,3.54s-.36.74-.31.97c.57,0,2.51-.5,2.51-.5l-.15.06s1.41-.17,1.92-.23c-.03-.75,2.15-4.52,2.12-5.04-.47-.2-5.34-1.55-5.63-1.68-.25.08-1.4.47-2,.67Z"/>
          <path class="cls-10" d="M70.19,10.15c.21.59.63,1.73.63,1.73q.04.11.75,3.62s0,.05.01.07h1.7s0,.03,0,.03c.25-.03.79-.1,1.25-.15-.03-.72,1.1-3.54,1.08-4.04-.45-.19-3.81-1.58-4.09-1.7-.22.07-.84.28-1.33.44Z"/>
          <path class="cls-11" d="M70.68,11.11c.17.39.49,1.13.49,1.13q.03.07.58,2.35s0,.03,0,.04h1.33s0,.02,0,.02c.2-.02.62-.06.98-.1-.03-.47-.14-2.63-.15-2.96-.35-.13-1.98-.71-2.2-.79-.17.05-.65.18-1.04.29Z"/>
          <g>
            <polygon class="cls-11" points="71.75 23.53 68.95 17.88 75.87 19.11 77.21 22.57 74.31 28.57 75.65 35.57 71.65 34.9 72.98 28.23 71.75 23.53"/>
            <path class="cls-10" d="M72.24,23.42s1.25,4.8,1.25,4.8c0,0-1.08,5.41-1.25,6.27.62.1,1.97.33,2.78.46-.22-1.14-1.22-6.41-1.22-6.41,0,0,2.55-5.59,2.63-5.87-.07-.21-.82-2.78-.94-3.15-.39-.09-4.95-.77-5.89-.99.19.99,2.65,4.86,2.65,4.88Z"/>
            <path class="cls-7" d="M70.23,19.2c.8.18,4.52.67,4.87.75.11.33.59,2.97.66,3.17-.06.21-1.62,2.34-2.06,3.91-.33-1.28-.97-3.72-.97-3.73,0-.05-2.33-3.23-2.5-4.11ZM73.61,30.2c.29,1.53,1.13,3.68,1.29,4.49-.59-.1-1.6-.53-2.07-.61.12-.58.45-2.25.78-3.89Z"/>
            <path class="cls-11" d="M71.18,19.78c.56.13,3.26.54,3.53.6.02.05-.37,2.03-.3,2.23-.04.16-.38,3.22-.71,4.43-.18-.7-.48-3.82-.49-3.84,0-.03-1.89-2.71-2.03-3.42ZM73.77,30.69c.06.3,1.04,3.58,1.12,4-.17-.03-1.32-.99-1.47-1.02.04-.19.08-.38.08-.38,0,0,.25-2.47.27-2.6Z"/>
          </g>
          <polygon class="cls-5" points="74.53 66.33 72.36 67.49 70.53 68.49 68.53 67.83 66.69 67.33 64.86 67.16 63.69 66.66 61.86 67.66 58.53 70.83 62.86 68.16 63.86 67.49 66.03 67.99 67.53 68.33 70.36 68.99 72.36 69.16 74.53 66.33"/>
        </g>
        <g>
          <rect class="cls-7" x="0" width="72.66" height="72.07"/>
          <path class="cls-5" d="M52.3,15.86l1.79,2.63.71,1.04.67.33,1.33.17,1.67-.67s1.67.33,2.17.33,4.33.17,4.33.17l2,.5-1.17.5-1.83-.5h-4.33l-1.83-.17-2.5.67-1.33,1.17-1.67,1.67-1.17,3.17-2.33,2-2.33.17-3.17-1-2.83-.5-5.83.67c.67-.67,2.33-1.33,2.33-1.33l2.33-.33,2,.17,2,.5,2.17.5,2,.33,1.5-.5,1.67-1,.83-2.17,1-1.83,1.17-1.83-1.33-4.83Z"/>
          <path class="cls-4" d="M51.96,15.36l1.79,2.63.71,1.04.67.33,1.33.17,1.67-.67s1.66.33,2.16.33,4.34.17,4.34.17l2,.5-1.17.5-1.83-.5h-4.34l-1.83-.17-2.5.67-1.33,1.17-1.67,1.67-1.17,3.17-2.33,2-2.34.17-3.17-1-2.83-.5-5.83.67c.67-.67,2.33-1.33,2.33-1.33l2.33-.33,2,.17,2,.5,2.17.5,2,.33,1.5-.5,1.66-1,.84-2.17,1-1.83,1.16-1.83-1.33-4.83Z"/>
          <path class="cls-5" d="M22.33-1.43l2.5,8.67.17,1.33,1,1.67-.67,1.17-.33,1.33-.67,1-1.89,1.64-2,4.83.55.03,1.17,2.83,1.5,2,2.5,2.67-.17,2v1.83l-1.5-3.83-2-3-2.17-4.33,1.67-5.5,1.33-2,2-2.5-1.5-3.17s-2-7.5-1.5-8.67Z"/>
          <path class="cls-4" d="M21.83-1.77l2.5,8.67.17,1.33,1,1.67-.67,1.17-.33,1.33-.67,1-1,.83-2,4.83-.33.83,1.17,2.83,1.5,2,2.5,2.67-.17,2v1.83l-1.5-3.83-2-3-2.17-4.33,1.67-5.5,1.33-2,2-2.5-1.5-3.17s-2-7.5-1.5-8.67Z"/>
          <path class="cls-11" d="M25.11,12.37c4.14-1.55,7.63-3.34,10.93-3.43,2.98-.08,9.26,1.56,11.45,2.38l5.5,7.5-4.81,9.1s-5.34-1.52-9.87-1.52c-4.25,0-11.3.89-13.18,2.62l-4.28-9.15,4.25-7.5Z"/>
          <path class="cls-8" d="M36.26,10.07h0c-2.47.07-5.18.75-7.79,1.41,0,0-1.79.44-2.14.53-.2.34-3.74,6.6-4,7.06.26.44,4.09,6.94,4.52,7.68,1.98-.99,7.88-1.42,11.46-1.42,3.91,0,8,.83,9.21,1.17.36-.56,4.54-7.13,4.87-7.65-.37-.5-4.72-7.28-4.89-7.52-2.19-.78-8.29-1.33-11.24-1.25Z"/>
          <path class="cls-10" d="M36.27,10.57c-2.42.07-5.1.74-7.68,1.39,0,0-1.46.36-1.94.47-.19.34-4.07,6.17-4.33,6.63.26.44,4.36,6.42,4.74,7.06,2.43-.97,8.04-1.31,11.25-1.31,3.68,0,7.47.68,8.99,1.09.35-.55,4.16-6.54,4.49-7.05-.35-.48-4.42-6.87-4.6-7.11-2.25-.76-8.09-1.25-10.92-1.18Z"/>
          <path class="cls-7" d="M36.28,11.07h0c-2.37.06-5.01.73-7.58,1.38,0,0-1.45.36-1.73.42-.13.23-3.24,5.72-3.5,6.18.26.44,3.45,5.87,3.81,6.47,2.75-.95,8.07-1.77,11.02-1.77,3.52,0,7.08,1.14,8.76,1.58.34-.53,4.39-5.97,4.71-6.48-.33-.45-5.02-6-5.21-6.25-2.3-.74-7.59-1.61-10.29-1.54Z"/>
          <path class="cls-9" d="M37.87,11.19l-2.31.12c-2.31.06-4.19.97-6.72,1.61,0,0-1.09.27-1.52.37-.19.34-3.31,5.25-3.56,5.7.25.43,3.46,5.39,3.77,5.93,3-.93,8.09-1.37,10.73-1.37,3.32,0,6.68.71,8.59,1.2.3-.48,4.34-5.46,4.66-5.95-.36-.49-5.04-5.53-5.22-5.78-2.31-.72-5.79-1.92-8.41-1.84Z"/>
          <path class="cls-10" d="M37.3,11.75l-1.06-.06c-2.26.06-4.78,1.09-7.29,1.72,0,0-1.04.25-1.32.32-.19.34-2.75,4.86-3.01,5.3.25.43,2.81,4.78,3.13,5.32,3.12-.88,7.93-1.3,10.48-1.3,3.07,0,6.18.6,8.36,1.13.33-.51,3.11-4.88,3.36-5.28-.36-.49-3.8-5.18-3.99-5.44-2.34-.7-6.16-1.79-8.67-1.72Z"/>
          <path class="cls-11" d="M36.34,13.07h0c-2.15.06-4.69.7-7.14,1.32,0,0-.76-.21-1.08-.13-.19.33-2.09,4.34-2.34,4.78.24.4,2.2,3.73,2.47,4.2,3.26-.8,7.74-1.17,9.99-1.17s4.97.36,7.88,1.02c.31-.49,2.99-3.85,3.18-4.15-.35-.48-3.73-4.32-3.92-4.58-2.34-.66-6.72-1.36-9.04-1.29Z"/>
          <path class="cls-9" d="M36.35,13.57h0c-2.1.06-4.61.69-7.03,1.3h0s-.51.13-.71.17c-.19.34-2.22,3.91-2.26,3.99.24.41,1.86,3.16,2.15,3.65,3.3-.76,7.62-1.11,9.73-1.11s4.78.34,7.64.97c.3-.47,2.1-3.3,2.26-3.56-.35-.47-2.87-3.92-3.06-4.17-2.36-.64-6.51-1.3-8.74-1.24Z"/>
          <path class="cls-7" d="M37.12,14.57l-.88-.06c-2.05.06-4.36.5-6.75,1.11-.01,0-.49.12-.5.12-.18.32-1.77,3.13-2.01,3.55.23.39,1.55,2.63,1.82,3.1,3.32-.72,7.49-1.05,9.48-1.05,2.1,0,4.6.32,7.4.92.28-.44,1.62-2.54,1.9-2.99-.34-.46-2.56-3.49-2.75-3.75-2.32-.61-5.56-1-7.72-.94Z"/>
          <path class="cls-10" d="M36.38,14.57h0c-1.99.05-4.44.67-6.81,1.27-.01,0-.28.07-.3.07-.18.31-1.53,2.7-1.76,3.11.24.41,1.38,3.05,1.42,3.11,3.33-.68,7.44-1.56,9.31-1.56,2,0,4.58.62,7.31,1.19.23-.36,1.14-2.35,1.38-2.74-.27-.37-2.25-3.06-2.44-3.32-2.32-.6-6.06-1.18-8.12-1.13Z"/>
          <polygon class="cls-5" points="9.74 39.07 11.37 39.82 13.74 39.82 16.12 39.19 18.24 38.57 20.87 38.94 22.37 40.44 22.74 42.69 24.24 43.32 24.87 45.94 25.24 49.57 27.12 47.57 27.99 46.94 30.99 46.44 34.74 46.07 36.37 45.32 38.12 45.19 35.87 44.82 34.24 45.57 32.37 45.57 30.62 45.57 27.74 45.82 26.12 46.82 25.99 45.44 24.87 42.94 23.87 42.19 22.24 39.07 21.49 37.94 18.99 37.82 16.49 38.32 14.74 39.19 12.12 39.32 9.74 39.07"/>
          <polygon class="cls-4" points="9.74 38.57 11.37 39.32 13.74 39.32 16.12 38.69 18.24 38.07 20.87 38.44 22.37 39.94 22.74 42.19 24.24 42.82 24.87 45.44 25.24 49.07 27.12 47.07 27.99 46.44 30.99 45.94 34.74 45.57 36.37 44.82 38.12 44.69 35.87 44.32 34.24 45.07 32.37 45.07 30.62 45.07 27.74 45.32 26.12 46.32 25.99 44.94 24.87 42.44 23.87 41.69 22.24 38.57 21.49 37.44 18.99 37.32 16.49 37.82 14.74 38.69 12.12 38.82 9.74 38.57"/>
          <polygon class="cls-5" points="69.49 22.32 71.12 25.94 71.74 28.57 70.49 33.57 70.91 35.11 72.38 35.92 70.24 36.57 68.74 37.69 66.37 38.19 63.87 38.32 61.37 37.82 58.62 38.57 56.37 38.44 54.99 38.32 53.49 37.32 52.99 35.82 51.87 34.82 50.62 31.57 50.74 29.82 51.49 31.19 51.87 33.07 53.12 35.19 54.24 37.07 56.62 37.94 59.49 37.69 60.99 37.44 63.87 37.82 66.99 37.69 68.37 36.69 69.87 36.32 70.12 33.94 71.37 28.82 70.12 25.32 69.49 22.32"/>
          <polygon class="cls-4" points="68.99 22.07 70.62 25.69 71.24 28.32 69.99 33.32 71.05 35.99 69.74 36.32 68.24 37.44 65.87 37.94 63.37 38.07 60.87 37.57 58.12 38.32 55.87 38.19 54.49 38.07 52.99 37.07 52.49 35.57 51.37 34.57 50.12 31.32 50.24 29.57 50.99 30.94 51.37 32.82 52.62 34.94 53.74 36.82 56.12 37.69 58.99 37.44 60.49 37.19 63.37 37.57 66.49 37.44 67.87 36.44 69.37 36.07 69.98 35.44 69.62 33.69 70.87 28.57 69.62 25.07 68.99 22.07"/>
          <path class="cls-11" d="M26.63,29.28c.88.16,6.2-.78,10.87-.96,1.65-.07,7.72-.56,11.31.54l4.1,7.71-3.4,9.62s-7.17-1.79-11.63-1.88c-2.76-.05-9,1.21-11.24,1.97,0,0-3.8-9.32-3.8-9.72s3.8-7.29,3.8-7.29Z"/>
          <path class="cls-8" d="M48.14,30.49c.18.36,2.71,5.46,2.88,5.8-.12.36-2.59,7.67-2.85,8.44-1.54-.37-6.8-1.58-10.66-1.66-2.7-.05-7.47.74-9.9,1.48-1.28-2.85-3.15-7.06-3.34-7.72.19-.56,1.71-3.54,3.22-6.4.35-.04.92-.15,2.04-.38,2.14-.45,5.37-1.12,7.99-1.23h0c1.55-.06,7.04.6,10.63,1.67Z"/>
          <path class="cls-10" d="M37.53,29.32h0c-2.58.1-5.78.77-7.9,1.22,0,0-1.26.24-1.81.34-1.55,2.94-2.76,5.34-3.02,5.97.3.82,1.7,4.04,3.09,7.12,2.56-.72,7.01-1.44,9.62-1.39,3.61.07,8.4,1.11,10.33,1.56.26-.77,2.61-7.71,2.64-7.81-.17-.34-2.5-5.05-2.68-5.41-3.54-1.02-8.8-1.65-10.26-1.6Z"/>
          <path class="cls-7" d="M37.55,29.82h0c-2.54.1-5.72.77-7.82,1.21,0,0-1.43-.44-1.9-.35-1.38,2.62-2.16,5.43-2.48,6.18.33.86,1.44,3.42,2.83,6.52,2.61-.68,6.88-2.36,9.49-2.31,3.42.07,7.72,1.99,9.85,2.48.25-.74,2.85-6.87,2.97-7.22-.15-.31-2.85-4.62-3.03-4.98-3.48-.97-8.53-1.58-9.9-1.52Z"/>
          <path class="cls-9" d="M38.99,30.23l-1.42.08c-2.49.1-5.64.76-7.72,1.19h0s-1.42-.44-1.69-.39c-1.21,2.31-1.89,4.92-2.27,5.74.14.33,2.29,5.29,2.58,5.93,2.61-.65,6.64-1.78,9.19-1.73,3.23.06,7.14,1.36,9.52,1.89.24-.72,2.54-6.25,2.65-6.56-.16-.31-2.55-4.28-2.72-4.63-3.42-.92-6.83-1.58-8.11-1.53Z"/>
          <path class="cls-10" d="M37.59,30.82h0c-2.45.1-5.57.75-7.64,1.18-.02,0-1.23-.47-1.46-.43-.19.38-1.88,4.97-2.05,5.31.16.37,2.04,4.7,2.32,5.34,2.56-.6,6.44-1.62,8.98-1.57,2.98.06,6.42,1.14,9.1,1.73.2-.6,1.89-5.59,2.01-5.95-.05-.1-1.91-3.86-2.1-4.23-3.36-.88-7.98-1.43-9.17-1.38Z"/>
          <path class="cls-11" d="M37.63,31.81c-2.36.09-5.43.74-7.46,1.16,0,0-.41.08-.68.13-.19.37-1.78,3.51-1.93,3.81.16.36,1.25,4.12,1.51,4.73,1.54-.33,5.54-1.63,8.5-1.58,2.25.04,5.49,1.02,8.95,1.74.21-.62,1.15-4.97,1.27-5.3-.16-.32-1.19-3.52-1.37-3.88-3.21-.79-7.76-.85-8.79-.81Z"/>
          <path class="cls-9" d="M37.65,32.31c-2.32.09-5.36.73-7.37,1.15-.02,0-.33.06-.46.09-.16.32-1.54,3.04-1.71,3.38.16.36,1.35,3.12,1.55,3.57,1.67-.35,5.09-.98,7.92-.93,2.16.04,4.96.41,8.28,1.09.22-.66,1.28-3.79,1.39-4.11-.15-.31-1.33-2.69-1.51-3.04-3.13-.75-7.13-1.22-8.08-1.18Z"/>
          <path class="cls-7" d="M37.67,32.81c-2.27.09-5.29.72-7.29,1.14,0,0-.12.02-.23.04-.18.36-1.32,2.61-1.5,2.95.13.3.95,2.77,1.17,3.29,1.86-.38,5.11-1.22,7.75-1.17,2.07.04,4.41-.18,7.6.45.21-.61,1.43-2.66,1.52-2.94-.14-.28-1.15-2.32-1.31-2.64-3.05-.71-6.84-1.15-7.72-1.12Z"/>
          <path class="cls-10" d="M37.66,33.32c-2.24.09-5.21.21-7.19.62-.18.35-1.11,2.19-1.28,2.52.14.32.56,2.42.79,2.94,2.08-.41,5.15-1.38,7.6-1.33,1.98.04,4.54.36,7.59.95.2-.6.88-2.59.98-2.9-.15-.29-.95-1.9-1.11-2.24-2.96-.66-5.56-.88-7.37-.55Z"/>
          <path class="cls-11" d="M54.8,19.52l-3.26,8.63,2.56,8.27s13.98,1.86,15.03-.76c.27-.67,1.36-8.34,1.36-8.34l-3.25-6.75s-11.11-.11-12.45-1.04Z"/>
          <path class="cls-10" d="M52.09,28.18c.15.39,2.67,6.84,2.87,7.36,5.27.55,12.7.62,13.32-.91.18-.45,1.12-4.61,1.69-7.25-.14-.28-2.77-5.75-3.03-6.29-2.03.12-8.83.47-11.02-.19-.35.66-3.64,6.93-3.83,7.29Z"/>
          <path class="cls-7" d="M52.76,27.99s-.06.11-.12.22c.15.38,2.47,6.34,2.67,6.86,6.76.67,11.7.01,12.05-.85.14-.35,1.38-3.58,2.08-6.78-.14-.29-2.69-5.58-2.81-5.84-2.21.13-7.98.39-10.44-.15-.32.6-3.43,6.53-3.43,6.53Z"/>
          <path class="cls-9" d="M53.2,28.22h0s0,.02-.01.02c.15.38,2.11,6.09,2.3,6.58,6.79.64,11.37-.11,11.87-.6.14-.41.82-3.35,1.56-6.72-.14-.28-2.06-5.42-2.29-5.9-2.38.13-7.6.84-10.17.4-.3.58-3.27,6.21-3.27,6.21Z"/>
          <path class="cls-11" d="M53.74,28.27c.14.37,2.09,5.37,2.28,5.85,6.38.58,10.27.09,10.92-.24.17-.59.72-2.98,1.46-6.32-.13-.28-2.12-4.41-2.37-4.93-2.55.14-6.73.26-9.27-.1-.28.52-2.84,5.41-3.01,5.74Z"/>
          <path class="cls-7" d="M56.25,24.57s-1.77,3.38-1.97,3.74c.15.37,1.88,4.83,2.08,5.34,5.97.51,9.36.08,10.15-.16.11-.46,1.28-5.56,1.35-5.86-.13-.27-1.81-4.24-2.04-4.72-2.31.12-6.22.47-8.79.16-.22.41-.79,1.5-.79,1.5Z"/>
          <path class="cls-11" d="M56.69,24.8h0s-2.22,3.15-2.41,3.51c.15.39,2.34,4.64,2.43,4.86,5.33.43,8.39.11,9.38-.1.12-.52,1.17-5.1,1.24-5.38-.13-.26-1.45-3.98-1.68-4.45-2.09.1-5.79.62-8.33.35-.2.38-.64,1.21-.64,1.21Z"/>
          <path class="cls-10" d="M57.13,25.03h0s-1.56,2.98-1.75,3.34c.15.38,1.56,4.01,1.68,4.32,5.09.39,7.77.08,8.62-.06.13-.55,1.06-4.59,1.12-4.89-.13-.28-1.55-3.21-1.72-3.57-1.88.08-4.99.16-7.47-.07-.18.33-.48.92-.48.92Z"/>
          <path class="cls-11" d="M61.74,39.57l7.95-1.66-.45,7.66-2.99,8.62s-4.33.49-6.83.15-6.18-.22-6.68-.39c-.5-.17-1.17-8.62-1.17-8.62l2.23-7.68,7.94,1.93Z"/>
          <path class="cls-10" d="M52.1,45.37c.7,3.2,1.58,6.66,1.92,7.32.25.04.84.05,1.42.06,1.15.02,2.73.05,4.2.24,2.06.27,5.51-.22,6.48-.37.19-.5,2.53-6.91,2.61-7.11-.02-.21-.59-5.3-.68-6.14-.85.09-6.33.7-6.33.7,0,0-6.92-1.76-7.62-1.88-.27.64-1.89,6.9-2.01,7.17Z"/>
          <path class="cls-7" d="M52.62,45.41c.7,3.16,1.42,5.95,1.75,6.79.35.01,1.08.04,1.08.04,1.16.02,2.76.05,4.25.25,1.84.25,4.84-.15,6.05-.33.19-.51,2.39-6.51,2.47-6.72-.02-.21-.52-4.7-.61-5.52-.84.09-5.9.66-5.9.66,0,0-5.83-1.02-6.53-1.14-.27.63-2.45,5.71-2.56,5.98Z"/>
          <path class="cls-9" d="M53.5,44.62s-.59.65-.68.86c.61,2.76,1.57,5.21,1.92,6.23.32.01.73.03.73.03,1.17.02,2.78.05,4.3.25,1.65.22,4.65.17,5.97-.01.18-.51,1.89-6.4,1.97-6.6-.02-.2-.3-4.51-.39-5.32-.84.09-5.61.51-5.61.51,0,0-5.53-.46-6.22-.58-.27.62-1.98,4.62-1.98,4.62Z"/>
          <path class="cls-10" d="M53.96,44.82h0s-.21.48-.3.69c.54,2.42,1.09,4.61,1.45,5.72.19,0,.38.02.38.02,1.17.02,2.79.05,4.35.25,1.47.2,3.77-.05,5.19-.24.18-.51,2.1-5.73,2.18-5.94-.02-.2-.39-3.51-.48-4.29-.82.09-5.05.56-5.05.56,0,0-5.21-.91-5.89-1.03-.26.62-1.82,4.26-1.82,4.26Z"/>
          <path class="cls-10" d="M54.42,45.02s-.15.36-.23.54c.48,2.12.96,4.04,1.3,5.19h.02c1.18.02,2.81.05,4.39.26,1.01.13,2.7.05,4.76-.21.19-.52,1.96-5.33,2.03-5.54-.02-.13-.33-2.93-.41-3.68-.81.09-4.62.51-4.62.51,0,0-4.89-.85-5.57-.97-.26.61-1.67,3.9-1.67,3.9Z"/>
          <path class="cls-7" d="M54.88,45.21s-.1.23-.17.38c.07.27,1.02,4.08,1.17,4.66,1.16.02,2.62.06,4.09.25.9.12,2.44.05,4.33-.18.16-.44,1.81-4.92,1.89-5.13-.02-.19-.26-2.35-.34-3.07-.79.09-4.2.46-4.2.46,0,0-4.58-.8-5.25-.91-.26.6-1.51,3.53-1.51,3.53Z"/>
          <path class="cls-11" d="M55.34,45.41s-.05.12-.1.23c.07.28.89,3.53,1.04,4.13,1.15.03,2.44.07,3.76.25.79.1,2.54.51,4.26.31.16-.44,1.3-4.99,1.38-5.19-.02-.18-.2-1.79-.27-2.45-.77.09-3.75-.09-3.75-.09-4.26-.74-4.23-.23-4.95-.35-.25.59-1.36,3.17-1.36,3.17Z"/>
          <path class="cls-10" d="M55.81,45.61s-.02.04-.03.08c.06.25.77,3.08.91,3.61,1.1.03,2.25.07,3.43.22.68.09,1.93.04,3.47-.12.19-.51,1.51-4.12,1.59-4.32-.02-.17-.14-1.24-.2-1.84-.75.08-3.34.37-3.34.37,0,0-3.95-.69-4.61-.8-.25.57-1.2,2.8-1.2,2.8Z"/>
          <path class="cls-11" d="M36.49,7.32c-2.89.02-8.79,1.93-10.47,2.53l-3.19-12.28,14.17-5,13.25,4.5-2.51,12.17s-6.95-1.95-11.24-1.92Z"/>
          <path class="cls-8" d="M23.45-2.12c.27.82,3.1,9.43,3.36,10.24,2.13-.61,7.08-1.53,9.74-1.55,3.69-.03,8.79,1.07,10.32,1.34.21-.79,2.55-9.72,2.76-10.52-.81-.28-12.34-4.19-12.65-4.29-.31.11-12.69,4.48-13.54,4.78Z"/>
          <path class="cls-9" d="M33.85-5.05s-9.67,2.99-10.02,3.12c.12.35,3.35,8.9,3.46,9.22,2.48-.6,6.79-1.15,9.2-1.17,3.38-.02,8.13,1.2,10.09,1.53.09-.33,2.13-9.46,2.22-9.81-.33-.11-11.64-4.57-11.76-4.61-.12.04-3.19,1.72-3.19,1.72Z"/>
          <path class="cls-10" d="M33.95-4.77s-8.4,2.97-9.24,3.26c.26.8,2.53,7.71,2.77,8.45,2.53-.58,6.69-.89,9.04-.9,3.26-.02,7.52.39,9.62.74.2-.76,2.09-7.96,2.3-8.74-.78-.26-11.13-3.78-11.44-3.88-.29.1-3.05,1.08-3.05,1.08Z"/>
          <path class="cls-7" d="M34.11-4.3h0s-7.94,2.8-8.78,3.1c.26.79,1.82,6.85,2.48,7.56,2.62-.56,6.45-1.03,8.66-1.05,3.07-.02,6.97.52,9.29.89.2-.77,1.93-7.36,2.06-7.85-.72-.24-10.52-3.36-10.83-3.47-.29.1-2.89.81-2.89.81Z"/>
          <path class="cls-9" d="M34.18-4.11s-8.24,2.91-8.59,3.03c.11.35,2.28,6.94,2.37,7.21,2.68-.56,6.38-.8,8.52-.82,2.9-.02,6.53.25,9.15.67.09-.33,1.88-7.16,1.97-7.5-.34-.11-10.46-3.55-10.59-3.59-.12.04-2.83,1-2.83,1Z"/>
          <path class="cls-10" d="M34.28-3.82s-7.49,2.64-8.31,2.93c.26.79,2.03,6.2,2.19,6.68,2.67-.54,6.22-.96,8.31-.98,2.82-.02,6.33.43,8.93.83.19-.73,1.63-6.21,1.83-6.96-.8-.27-9.92-3.37-10.23-3.47-.29.1-2.73.96-2.73.96Z"/>
          <path class="cls-3" d="M34.45-3.35s-7.03,2.48-7.85,2.77c.25.75,1.69,5.14,1.91,5.81,2.7-.52,5.97-.9,7.97-.91,2.21-.02,5.1.25,8.56.77.19-.73,1.47-5.59,1.6-6.08-3.06-.36-9.21-3.13-9.62-3.27-.29.1-2.56.91-2.56.91Z"/>
          <path class="cls-7" d="M34.78-2.41S28.66-.25,27.85.04c.17.53,1.13,3.45,1.33,4.06,2.62-.45,5.5-.77,7.28-.78,2.02-.01,4.67.21,7.83.66.17-.63.99-3.76,1.14-4.32-.78-.27-8.11-2.75-8.41-2.86-.28.1-2.24.79-2.24.79Z"/>
          <path class="cls-9" d="M34.84-2.22h0S28.45.04,28.1.16c.1.31,1.13,3.45,1.22,3.72,2.63-.45,5.41-.75,7.14-.76,1.97-.01,4.57.21,7.68.65.08-.3.95-4,1.02-4.28-.34-.11-8.02-2.43-8.14-2.47-.12.04-2.17.77-2.17.77Z"/>
          <path class="cls-11" d="M34.94-1.94h0S29.28.06,28.48.34c.19.58.88,2.7,1.05,3.2,2.57-.43,5.25-.71,6.93-.72,1.93-.01,4.46.2,7.46.62.16-.61.8-3.03.91-3.45-.78-.26-7.51-2.55-7.81-2.65-.28.1-2.08.73-2.08.73Z"/>
          <path class="cls-10" d="M35.11-1.46h0s-5.21,1.84-6.01,2.12c.09.26.59,1.79.76,2.33,2.49-.4,4.99-.65,6.58-.67,1.81-.01,4.22.19,7.09.57.12-.46.55-2.08.68-2.58-.52-.17-6.89-2.34-7.2-2.44-.28.1-1.91.67-1.91.67Z"/>
          <path class="cls-11" d="M47.99,48.32c-7.9-2.77-7.32-3.01-9.88-3.12-2.83-.12-9.98,2.74-11.38,3.62l-1.75,5.25,2.01,4.61,2.36,4.62,8.13-1.72,7.75,1.75,4-4.5,1.68-4.94-2.93-5.56Z"/>
          <path class="cls-11" d="M27.15,49.17c-.11.34-1.52,4.55-1.62,4.88.14.33,1.93,4.42,1.93,4.43,0,0,2.13,2.94,2.76,3.8.56-.09,7.29-1.21,7.29-1.21,0,0,7.02,1.59,7.56,1.71.35-.39,3.55-3.99,3.71-4.18.05-.24.89-4.45.95-4.72-.1-.26-1.95-4.77-2.11-5.15-1.01-.35-6.72-2.26-9.89-2.4-2.66-.12-9.08,2.01-10.57,2.85Z"/>
          <path class="cls-10" d="M27.56,49.53c-.11.32-1.39,4.17-1.5,4.49.14.32,1.85,4.25,1.85,4.25,0,0-.04-.03-.05-.04.31.36.74,1.81,2.35,4.05.56-.09,7.31-1.72,7.31-1.72,0,0,6.83,1.54,7.37,1.66.34-.39,3.27-3.68,3.43-3.86.05-.24.83-4.17.89-4.44-.1-.24-1.81-4.43-1.96-4.8-1.41-.48-6.59-2.17-9.54-2.3-2.49-.11-8.48,1.85-10.14,2.71Z"/>
          <path class="cls-7" d="M27.97,49.89c-.12.36-1.26,3.79-1.37,4.11.14.32,1.77,4.07,1.77,4.07l-.13-.16s2.1,2.85,2.42,3.28c.55-.09,7-1.87,7-1.87,0,0,6.52,2.22,7.05,2.34.34-.38,2.98-3.36,3.14-3.54.05-.23.78-3.89.83-4.16-.1-.25-1.29-4.47-1.45-4.85-1.68-.56-6.82-1.68-9.56-1.8-2.22-.1-7.83,1.66-9.71,2.57Z"/>
          <path class="cls-9" d="M27.97,49.89c-.12.36-.73,3.77-.83,4.08.14.32,1.67,3.85,1.69,3.88.28.38,1.77,2.4,2.06,2.79.55-.09,6.78-1.66,6.78-1.66,0,0,6.34,2,6.87,2.12.34-.38,2.75-3.09,2.86-3.21.04-.23.72-3.62.78-3.88-.11-.26-1.29-4.32-1.34-4.45-1.63-.54-6.56-1.64-9.17-1.75-2.06-.09-7.72,1.17-9.69,2.07Z"/>
          <path class="cls-10" d="M28.77,50.63c-.11.34-1.01,3.03-1.11,3.32.14.32,1.61,3.69,1.61,3.7.01,0,1.12,2.35,1.6,3,.55-.09,6.78-2.41,6.78-2.41,0,0,6.16,2.2,6.69,2.32.27-.31,2.41-2.71,2.57-2.89.05-.23.67-3.34.72-3.6-.1-.25-1.38-3.37-1.53-3.74-1.89-.62-6.06-1.9-8.48-2.01-1.83-.08-6.68,1.35-8.86,2.32Z"/>
          <path class="cls-11" d="M29.58,51.39c-.11.32-.75,2.24-.84,2.51.14.32,1.46,3.34,1.46,3.34l-.15-.17s1.19,1.56,1.49,1.94c.54-.09,6.06-1.01,6.06-1.01,0,0,5.88,1.33,6.4,1.45.31-.35,1.85-2.08,2-2.25.05-.23.56-2.81.61-3.04-.1-.24-.72-3.07-.87-3.43-1.75-.56-5.96-1.32-8.15-1.42-1.53-.07-5.83,1.18-8.01,2.07Z"/>
          <path class="cls-9" d="M29.97,51.77c-.05.15-.6,1.81-.7,2.11.14.31,1.37,3.15,1.38,3.16.26.34.86,1.12,1.1,1.43.54-.09,5.86-.98,5.86-.98,0,0,5.69,1.28,6.21,1.4.3-.34,1.56-1.76,1.71-1.93.04-.21.5-2.5.55-2.76-.1-.23-.96-2.35-1.09-2.67-1.68-.54-5.35-1.64-7.42-1.73-1.32-.06-5.25,1.03-7.59,1.96Z"/>
          <path class="cls-7" d="M30.37,52.16c-.18.55.16,1.1-.03,1.67.12.27.7,2.85.74,2.95.06.08.64.83.88,1.15.53-.09,5.66-.94,5.66-.94,0,0,5.5,1.24,6.02,1.36.21-.24.79-1.45.93-1.61.04-.21.94-2.22.99-2.47-.09-.23-1.35-1.77-1.49-2.12-1.62-.51-4.47-2.08-6.42-2.17-1.2-.05-4.98,1.28-7.29,2.17Z"/>
          <path class="cls-10" d="M30.77,52.55c-.1.3-.34,1.04-.43,1.28.12.27,1.13,2.59,1.17,2.7.06.07.48.63.66.86.53-.09,5.46-.91,5.46-.91,0,0,5.3,1.2,5.83,1.32.2-.22,1-1.13,1.14-1.28.04-.22.39-1.95.44-2.19-.09-.22-.66-1.62-.8-1.95-1.55-.49-4.75-1.97-6.59-2.05-1-.04-4.42,1.3-6.89,2.23Z"/>
          <path class="cls-11" d="M52.99,55.57l5.5,1.25,8.52-1.72-2.89,6.68-2.13,3.04-2.33,3.42s-2.5.25-3.5.5-4.25-1.25-4.25-1.25l-5.48-2.52,6.56-9.39Z"/>
          <path class="cls-10" d="M47.13,64.72c.79.34,4.97,2.3,4.97,2.3,1.5.69,3.42,1.35,3.93,1.22.89-.22,2.78-.43,3.34-.49.23-.33,2.08-3.05,2.16-3.16.04-.14.98-3.18.98-3.18.03-.06,1.75-3.38,2.59-4.98-1.46.19-6.64.88-6.64.88,0,0-4.58-1.04-5.22-1.19-.32.59-5.65,7.74-6.11,8.58Z"/>
          <path class="cls-7" d="M50.19,62.73s-.93,1.7-1.3,2.36c.76.33,3.41,1.48,3.41,1.48,1.76.81,3.31,1.25,3.62,1.2.78-.2,2.24-.37,3.17-.47.2-.29,1.91-2.79,1.99-2.91.04-.14.96-3.11.96-3.11.03-.07.69-.68,2.79-4.71-1.4.19-6.38,1.27-6.38,1.27,0,0-4.31-.98-4.94-1.12-.33.59-3.31,6.02-3.31,6.02Z"/>
          <path class="cls-9" d="M50.63,62.97h0s-1.22,1.32-1.56,1.93c.73.32,3.43,1.21,3.43,1.21,1.8.83,2.92,1.63,3.15,1.62.53-.14,1.76-.76,3.15-.91.21-.3,1.74-2.55,1.82-2.66.04-.13.93-3.03.93-3.03.04-.12,1.58-1.33,3.27-4.56-1.33.18-6.4,1.77-6.4,1.77,0,0-4.05-1.13-4.68-1.27-.32.59-3.11,5.9-3.11,5.9Z"/>
          <path class="cls-11" d="M51.07,63.21s-.47.87-.77,1.4c.69.3,2.4,1.04,2.4,1.04,1.73.8,2.92,1.09,3.14,1.11.52-.13,1.43-.27,2.68-.41.15-.22,1.57-2.29,1.65-2.41.04-.14.91-2.96.91-2.96.06-.16.89-.97,2.16-3.41-1.24.17-4.84,1.28-4.84,1.28,0,0-3.75-.85-4.38-1-.32.59-2.95,5.36-2.95,5.36Z"/>
          <path class="cls-7" d="M51.51,63.45s-.28.5-.5.91c.63.27,1.9.82,1.9.82,1.68.77,2.76,1.04,2.95,1.07.21-.03,2-.31,2.37-.37.2-.3,1.41-2.06,1.48-2.17.04-.14.89-2.89.89-2.89,0-.02.9-1.63,1.3-2.43-1.11.15-3.53.95-3.53.95,0,0-3.1-.4-3.72-.54-.32.58-3.15,4.63-3.15,4.63Z"/>
          <path class="cls-11" d="M51.95,63.69s-.12.22-.24.43c.54.24,1.39.61,1.39.61,1.67.77,2.6,1.49,2.75,1.53.15-.02,1.78-.78,2.08-.83.1-.14,1.24-1.81,1.32-1.93.04-.14,1.34-2.67,1.34-2.67,0,0,.04-1.22.3-1.76-.93.12-2.33.42-2.33.42,0,0-3.43-.35-4.04-.49-.32.58-2.59,4.7-2.59,4.7Z"/>
          <path class="cls-10" d="M52.41,63.89c.41.18.89.39.89.39,1.49.69,2.34.91,2.59.96.15-.02,1.47-.22,1.76-.27.2-.29,1.08-1.58,1.15-1.69.04-.14.85-2.77.85-2.77l-.03.17s.12-.29.22-.52c-.68.09-1.52.2-1.52.2,0,0-2.94-.67-3.54-.8-.31.56-2.33,4.24-2.38,4.32Z"/>
          <path class="cls-11" d="M57.78-.87s3.45-2.78,4.45-2.44c1,.33,9.28,1.21,9.28,1.21l.67,3v4l-4.18,1.33-2.67.33-1.04-2.94-6.5-4.49Z"/>
          <path class="cls-10" d="M59.01-.65s2.77-1.83,3.55-1.57c.78.26,7.96.92,7.96.92l.52,2.34v3.12l-3.38,1.04-2.08.26-.52-2.6-6.05-3.51Z"/>
          <path class="cls-7" d="M60.59.06s4.38-1.74,4.99-1.54c.61.2,4.17.81,4.17.81l.4,1.82v2.43l-2.75.81-1.62.2-.41-2.03L60.59.06Z"/>
          <path class="cls-11" d="M61.28.42s3.83-2.05,4.3-1.89c.47.16,3.56,1.3,3.56,1.3l.32,1.42v1.9l-2.26.63-1.26.16-.32-1.58-4.34-1.94Z"/>
          <path class="cls-10" d="M61.82.7s3.68-1.63,4.05-1.51c.37.12,2.29,1.02,2.29,1.02l.76,1.11v1.48l-1.87.49-.99.12-.25-1.23-3.99-1.48Z"/>
          <path class="cls-11" d="M11.49-1.1s-2.67-2.67-3.67-2.33c-1,.33-6,1.33-6,1.33L1.16.9.49,7.47l3.67,1.33,2.67.33.67-3.33L11.49-1.1Z"/>
          <path class="cls-10" d="M10.35-.51s-2.08-2.08-2.86-1.82c-.78.26-4.68,1.04-4.68,1.04l-.52,2.34-.67,5.68,2.86,1.04,2.08.26.52-2.6L10.35-.51Z"/>
          <path class="cls-7" d="M9.47-.05s-1.62-1.62-2.23-1.42c-.61.2-3.65.81-3.65.81l-.41,1.82-.67,5,2.23.81,1.62.2,1.08-4.59L9.47-.05Z"/>
          <path class="cls-11" d="M8.77.3s-1.06-1.93-1.54-1.78c-.47.16-3.05,1.3-3.05,1.3l-.32,1.42-.67,4.46,1.74.63,1.26.16.99-4.15,1.58-2.05Z"/>
          <path class="cls-10" d="M8.23.58s-.91-1.51-1.28-1.39c-.37.12-2.29,1.02-2.29,1.02l-.25,1.11v1.48l.69,3.06.99.12.92-3.8,1.23-1.6Z"/>
          <path class="cls-11" d="M11.49,70.97s-2.67-2.67-3.67-2.33c-1,.33-6,1.33-6,1.33l-.67,3-.67,6.57,3.67,1.33,2.67.33.67-3.33,4-6.9Z"/>
          <path class="cls-10" d="M10.35,71.56s-2.08-2.08-2.86-1.82c-.78.26-4.68,1.04-4.68,1.04l-.52,2.34-.67,5.68,2.86,1.04,2.08.26.52-2.6,3.27-5.94Z"/>
          <path class="cls-7" d="M9.47,72.02s-1.62-1.62-2.23-1.42c-.61.2-3.65.81-3.65.81l-.41,1.82-.67,5,2.23.81,1.62.2,1.08-4.59,2.03-2.63Z"/>
          <path class="cls-11" d="M8.77,72.37s-1.06-1.93-1.54-1.78c-.47.16-3.05,1.3-3.05,1.3l-.32,1.42-.67,4.46,1.74.63,1.26.16.99-4.15,1.58-2.05Z"/>
          <path class="cls-10" d="M8.23,72.65s-.91-1.51-1.28-1.39c-.37.12-2.29,1.02-2.29,1.02l-.25,1.11v1.48l.69,3.06.99.12.92-3.8,1.23-1.6Z"/>
          <polygon class="cls-11" points="73.78 36.29 70.53 36.63 72.33 45.57 69.52 55.38 73.52 57.05 77.52 55.71 74.66 46.9 75.66 37.9 73.78 36.29"/>
          <path class="cls-10" d="M71.05,36.98c.04.67,1.78,8.66,1.78,8.66,0,0-2.37,8.67-2.67,9.46.67.28,3.1,1.29,3.38,1.41.28-.09,2.5-.83,3.28-1.09-.43-.86-2.67-8.44-2.67-8.44,0,0,.91-8.35.98-8.87-.28-.23-.96-.77-1.23-.98-.31.1-2.44-.28-2.85-.15Z"/>
          <path class="cls-7" d="M71.57,37.34c.04.67,1.77,8.39,1.77,8.39,0,0-2.24,8.32-2.54,9.11.45.19,2.48,1.03,2.76,1.15.26-.09,1.84-.61,2.55-.85-.42-.85-2.74-8.31-2.74-8.31.72-5.06.91-6.33,1.22-8.49-.26-.21-.78-.62-.8-.64-.23.08-1.93-.45-2.23-.35Z"/>
          <path class="cls-11" d="M73.69,38.25c.14.11.22.17.36.29-.03.2-.18,3.29-.36,4.51-.07-1.37-1.59-5.02-1.61-5.36.07-.02,1.54.58,1.61.56ZM73.23,47.4c.09.19,2.21,6.79,2.62,7.61-.33.11-2.01.35-2.28.44-.25-.1-2.3-.41-2.78-.62.22-.58,1.84-5.86,2.44-7.43Z"/>
          <path class="cls-10" d="M72.98,49.48s-.67,4.2-.9,4.8c.5.21,1.29.54,1.52.63.19-.06.64-.21,1.1-.37-.3-.61-.8-5.79-1.33-6.86-.16.41-.39,1.79-.39,1.79Z"/>
          <polygon class="cls-11" points="67.61 8.9 71.61 7.57 78.51 10.29 76.61 17.23 73.28 17.57 69.94 17.57 68.94 12.57 67.61 8.9"/>
          <path class="cls-10" d="M68.26,9.21c.26.73,1.16,3.18,1.16,3.18.02.06.71,3.51.94,4.67h2.92s1.91-.19,2.81-.28c-.03-.79-.27-6.34-.3-6.88-.49-.21-3.9-1.67-4.2-1.8-.29.09-2.62.87-3.33,1.11Z"/>
          <path class="cls-7" d="M68.26,9.21c.25.7,1.63,3.01,1.63,3.01,0,.03.66,3.23.88,4.34h2.51l-.04.04c.36-.08,1.01-.15,2.23-.27,0,0,.08,0,.11-.01-.03-.78,2.48-5.18,2.46-5.71-.48-.2-6.16-1.86-6.46-1.99-.27.09-2.64.35-3.31.58Z"/>
          <path class="cls-11" d="M69.55,9.84c.24.65.81,2.22.81,2.22q.02.06.72,3.54s-.36.74-.31.97c.57,0,2.51-.5,2.51-.5l-.15.06s1.41-.17,1.92-.23c-.03-.75,2.15-4.52,2.12-5.04-.47-.2-5.34-1.55-5.63-1.68-.25.08-1.4.47-2,.67Z"/>
          <path class="cls-10" d="M70.19,10.15c.21.59.63,1.73.63,1.73q.04.11.75,3.62s0,.05.01.07h1.7s0,.03,0,.03c.25-.03.79-.1,1.25-.15-.03-.72,1.1-3.54,1.08-4.04-.45-.19-3.81-1.58-4.09-1.7-.22.07-.84.28-1.33.44Z"/>
          <path class="cls-11" d="M70.68,11.11c.17.39.49,1.13.49,1.13q.03.07.58,2.35s0,.03,0,.04h1.33s0,.02,0,.02c.2-.02.62-.06.98-.1-.03-.47-.14-2.63-.15-2.96-.35-.13-1.98-.71-2.2-.79-.17.05-.65.18-1.04.29Z"/>
          <path class="cls-7" d="M.95,30.2c.29,1.53,1.13,3.68,1.29,4.49-.59-.1-1.6-.53-2.07-.61.12-.58.45-2.25.78-3.89Z"/>
          <polygon class="cls-11" points="71.75 23.53 68.95 17.88 75.87 19.11 77.21 22.57 74.31 28.57 75.65 35.57 71.65 34.9 72.98 28.23 71.75 23.53"/>
          <path class="cls-10" d="M72.24,23.42s1.25,4.8,1.25,4.8c0,0-1.08,5.41-1.25,6.27.62.1,1.97.33,2.78.46-.22-1.14-1.22-6.41-1.22-6.41,0,0,2.55-5.59,2.63-5.87-.07-.21-.82-2.78-.94-3.15-.39-.09-4.95-.77-5.89-.99.19.99,2.65,4.86,2.65,4.88Z"/>
          <path class="cls-7" d="M70.23,19.2c.8.18,4.52.67,4.87.75.11.33.59,2.97.66,3.17-.06.21-1.62,2.34-2.06,3.91-.33-1.28-.97-3.72-.97-3.73,0-.05-2.33-3.23-2.5-4.11ZM73.61,30.2c.29,1.53,1.13,3.68,1.29,4.49-.59-.1-1.6-.53-2.07-.61.12-.58.45-2.25.78-3.89Z"/>
          <path class="cls-11" d="M71.18,19.78c.56.13,3.26.54,3.53.6.02.05-.37,2.03-.3,2.23-.04.16-.38,3.22-.71,4.43-.18-.7-.48-3.82-.49-3.84,0-.03-1.89-2.71-2.03-3.42ZM73.77,30.69c.06.3,1.04,3.58,1.12,4-.17-.03-1.32-.99-1.47-1.02.04-.19.08-.38.08-.38,0,0,.25-2.47.27-2.6Z"/>
          <g>
            <polygon class="cls-11" points="1.12 36.29 -2.13 36.63 -.33 45.57 -3.14 55.38 .86 57.05 4.86 55.71 2 46.9 3 37.9 1.12 36.29"/>
            <path class="cls-10" d="M-1.61,36.98c.04.67,1.78,8.66,1.78,8.66,0,0-2.37,8.67-2.67,9.46.67.28,3.1,1.29,3.38,1.41.28-.09,2.5-.83,3.28-1.09-.43-.86-2.67-8.44-2.67-8.44,0,0,.91-8.35.98-8.87-.28-.23-.96-.77-1.23-.98-.31.1-2.44-.28-2.85-.15Z"/>
            <path class="cls-7" d="M-1.09,37.34c.04.67,1.77,8.39,1.77,8.39,0,0-2.24,8.32-2.54,9.11.45.19,2.48,1.03,2.76,1.15.26-.09,1.84-.61,2.55-.85-.42-.85-2.74-8.31-2.74-8.31.72-5.06.91-6.33,1.22-8.49-.26-.21-.78-.62-.79-.64-.23.08-1.93-.45-2.23-.35Z"/>
            <path class="cls-11" d="M1.03,38.25c.14.11.22.17.36.29-.03.2-.18,3.29-.36,4.51-.07-1.37-1.59-5.02-1.61-5.36.07-.02,1.54.58,1.61.56ZM.57,47.4c.09.19,2.21,6.79,2.62,7.61-.33.11-2.01.35-2.28.44-.25-.1-2.3-.41-2.78-.62.22-.58,1.84-5.86,2.44-7.43Z"/>
            <path class="cls-10" d="M.32,49.48s-.67,4.2-.9,4.8c.5.21,1.29.54,1.52.63.19-.06.64-.21,1.1-.37-.3-.61-.8-5.79-1.33-6.86-.16.41-.39,1.79-.39,1.79Z"/>
          </g>
          <polygon class="cls-11" points="-5.05 8.9 -1.05 7.57 5.85 10.29 3.95 17.23 .62 17.57 -2.71 17.57 -3.71 12.57 -5.05 8.9"/>
          <path class="cls-10" d="M-4.4,9.21c.26.73,1.16,3.18,1.16,3.18.02.06.71,3.51.94,4.67H.62s1.91-.19,2.81-.28c-.03-.79-.27-6.34-.3-6.88-.49-.21-3.9-1.67-4.2-1.8-.29.09-2.62.87-3.33,1.11Z"/>
          <path class="cls-7" d="M-4.4,9.21c.25.7,1.63,3.01,1.63,3.01,0,.03.66,3.23.88,4.34H.62s-.04.04-.05.04c.36-.08,1.01-.15,2.23-.27,0,0,.08,0,.11-.01-.03-.78,2.48-5.18,2.46-5.71-.48-.2-6.16-1.86-6.46-1.99-.27.09-2.64.35-3.31.58Z"/>
          <path class="cls-11" d="M-3.11,9.84c.24.65.81,2.22.81,2.22q.02.06.72,3.54s-.36.74-.31.97c.57,0,2.51-.5,2.51-.5l-.15.06s1.41-.17,1.92-.23c-.03-.75,2.15-4.52,2.12-5.04-.47-.2-5.34-1.55-5.63-1.68-.25.08-1.4.47-2,.67Z"/>
          <path class="cls-10" d="M-2.47,10.15c.21.59.63,1.73.63,1.73q.04.11.75,3.62s0,.05.01.07H.62s0,.03,0,.03c.25-.03.79-.1,1.25-.15-.03-.72,1.1-3.54,1.08-4.04-.45-.19-3.81-1.58-4.09-1.7-.22.07-.84.28-1.33.44Z"/>
          <path class="cls-11" d="M-1.97,11.11c.17.39.49,1.13.49,1.13q.03.07.58,2.35s0,.03,0,.04H.44s0,.02,0,.02c.2-.02.62-.06.98-.1-.03-.47-.14-2.63-.15-2.96-.35-.13-1.98-.71-2.2-.79-.17.05-.65.18-1.04.29Z"/>
          <g>
            <polygon class="cls-11" points="-.91 23.53 -3.71 17.88 3.21 19.11 4.55 22.57 1.65 28.57 2.99 35.57 -1.01 34.9 .32 28.23 -.91 23.53"/>
            <path class="cls-10" d="M-.42,23.42s1.25,4.8,1.25,4.8c0,0-1.08,5.41-1.25,6.27.62.1,1.97.33,2.78.46-.22-1.14-1.22-6.41-1.22-6.41,0,0,2.55-5.59,2.63-5.87-.07-.21-.82-2.78-.94-3.15-.39-.09-4.95-.77-5.89-.99.19.99,2.65,4.86,2.65,4.88Z"/>
            <path class="cls-7" d="M-2.43,19.2c.8.18,4.52.67,4.87.75.11.33.59,2.97.66,3.17-.06.21-1.62,2.34-2.06,3.91-.33-1.28-.97-3.72-.97-3.73,0-.05-2.33-3.23-2.5-4.11ZM.95,30.2c.29,1.53,1.13,3.68,1.29,4.49-.59-.1-1.6-.53-2.07-.61.12-.58.45-2.25.78-3.89Z"/>
            <path class="cls-11" d="M-1.48,19.78c.56.13,3.26.54,3.53.6.02.05-.37,2.03-.3,2.23-.04.16-.38,3.22-.71,4.43-.18-.7-.48-3.82-.49-3.84,0-.03-1.89-2.71-2.03-3.42ZM1.11,30.69c.06.3,1.04,3.58,1.12,4-.17-.03-1.32-.99-1.47-1.02.04-.19.08-.38.08-.38,0,0,.25-2.47.27-2.6Z"/>
          </g>
          <path class="cls-5" d="M3.38,30.65l.67,3.17.33,2.17-.17,2-.17,1.33.33,3.17.33,2.83-.33,2.33,1.5,1.5.83,2.83,2.33,1.5-3-1.17-1.17-2.96-1.25-2.25.38-3-.25-2.75-.5-2.62.62-2.62s-.88-3.12-.75-3.5.25-1.96.25-1.96Z"/>
          <path class="cls-4" d="M3.07,30.33l.67,3.17.33,2.17-.17,2-.17,1.33.33,3.17.33,2.83-.33,2.33,1.5,1.5.83,2.83,2.33,1.5-3-1.17-1.17-2.96-1.25-2.25.38-3-.25-2.75-.5-2.62.62-2.62s-.88-3.12-.75-3.5.25-1.96.25-1.96Z"/>
          <polygon class="cls-11" points="68.33 55.9 66.41 60.1 64.66 63.57 62.76 65.72 67.33 66.9 69.33 67.23 72.29 64.53 72.29 58.19 68.33 55.9"/>
          <path class="cls-10" d="M67.47,60.38l-.02.08s-2.28,3.26-2.35,3.35c-.03.07-.29.73-.47,1.19.62.31,2.74,1.37,2.86,1.43.11.02,1.14.19,1.59.27.28-.47,2.6-2.1,2.72-2.3v-5.9c-.35-.19-2.52-1.49-3.17-1.85-.27.88-1.15,3.74-1.15,3.74Z"/>
          <path class="cls-7" d="M67.95,60.53l-.02.08-.07.14s-2.25,3.21-2.31,3.3c-.02.06-1.05.7-1.18,1.02.58.29,3.16.82,3.27.87.1.02.78.13,1.18.2.18-.3,2.85-1.54,2.97-1.75,0-.25-.5-5.09-.5-5.6-.35-.2-2.31-1.37-2.37-1.41-.26.84-.97,3.15-.97,3.15Z"/>
          <path class="cls-11" d="M68.42,60.68l-.05.15-.07.14c-.04.06-2.76,3.47-2.94,3.73-.01.03.79.39.75.5.51.25,1.58.22,1.68.27.09.01.46.08.77.13.26-.43,2.78-1.33,2.89-1.52,0-.25-.67-4.48-.67-4.99-.18-.1-1.29-.81-1.57-.97-.24.78-.79,2.56-.79,2.56Z"/>
          <path class="cls-10" d="M68.9,60.82l-.06.16c-.02.06-.09.2-.09.2-.02.03-1.62,2.33-2.17,3.12.5.25,1.27.63,1.36.68.09.02.34.06.36.06.22-.36,2.43-1.35,2.53-1.52,0-.21-1.51-2.83-1.51-4.07-.21.68-.42,1.37-.42,1.37Z"/>
          <polygon class="cls-11" points="5.44 55.93 8.32 59.68 10.66 63.01 9.42 66.13 6.09 67.79 2.96 68.98 .65 66.66 1.54 57.4 5.44 55.93"/>
          <path class="cls-10" d="M7.79,60.17l.89,1s1.27,1.69,1.34,1.79c.03.07-1.41,2.47-1.23,2.92-.62.31-2.74,1.37-2.86,1.43-.11.02-2.28,1.05-2.72,1.12-.28-.47-1.94-1.71-2.06-1.91,0-.25.89-8.31.89-8.83.35-.19,2.52-.5,3.17-.87.4,1.3,1.63.29,2.57,3.35Z"/>
          <path class="cls-7" d="M7.34,59.5l.45,1.79.56.89s1.27,1.13,1.34,1.23c.02.06-.65,1.89-.52,2.22-.59.29-3.16.82-3.27.87-.1.02-1.97,1.45-2.36,1.51-.18-.3-2.14-1.62-2.26-1.83,0-.25,1.39-8.02,1.39-8.54.35-.2,2.39-.12,2.45-.16.26.84,2.23,2.01,2.23,2.01Z"/>
          <path class="cls-11" d="M6.67,59.73l.34,2.12,2.01,1.67c.04.06-1.15,1.8-.96,2.06.01.03-.79.39-.75.5-.51.25-1.58.22-1.68.27-.09.01-2.1,1.14-2.41,1.19-.26-.43-1.61-1.15-1.72-1.33,0-.25,1.56-7.41,1.56-7.92.18-.1,1.44-.18,1.73-.34.24.78,1.9,1.79,1.9,1.79Z"/>
          <path class="cls-10" d="M5.44,59.73l.22.78c.34.22,2.01,3.01,2.01,3.01.02.03-.99,1-.45,1.79-.51.25-1.82.16-1.91.2-.09.02-1.87,1.36-1.88,1.36-.22-.36-.83-.95-.93-1.12,0-.21,1.49-5.78,1.49-7.02.21.68,1.45,1,1.45,1Z"/>
          <path class="cls-11" d="M49.99-3.02L44.08-.1l-2.67-.33-.5-.75s-.67-.25-1-.25-1.5.17-1.5.17l-.67.25-.67-.08-.08-6.33-.67,6.08-.75.25h-.92l-.92-.17-.75,1.33-1.75.58-2.25-.5-5.83-2.58,5.58,3.25s.75.92,1,1c.25.08,1.58-.08,1.58-.08l-.58,1.83-1.56.53-2.36,3.8,2.67-3.33,3-.83,1.92-.33,1.17.08.89.33.61.58-.08,2.25.5-2.25,1.92-.5,1.5-.33,1.75.92,4.5,3.67-4.08-4.58-.08-2-.25-.83s1,.17,1.25,0c.25-.17,6-3.75,6-3.75Z"/>
          <path class="cls-7" d="M36.62-.34l-1.79.9-.41,1.51,2.03,1.06,2.38-1.06-.41-1.66s-1.24-.45-1.79-.75Z"/>
          <path class="cls-10" d="M36.62-.06l-1.62.75-.38,1.25,1.83,1.18,2.17-1.18-.38-1.37s-1.12-.37-1.62-.62Z"/>
          <path class="cls-7" d="M36.62.57l1.25.62-1.12,1.12.58-.9s-.1-.5-.71-.85Z"/>
          <path class="cls-5" d="M20.37,54.19l1.12-1,1.25-1,.62,2.38,1.25,1.88,2,3.13.75,3.12.88,1.88,3.62.25,1.25-1.5h7.5l3,.5,1.62,1.38,1.88,1.62,2.25.75-2.75-.25-2.75-2.12-1.5-.88-3-.25h-2.75l-3.25-.38-.25,1.12-1.75.75h-1.88l-1.88-.5-.62-1.75-1.12-3.62s-1.5-2.88-1.88-3-1.5-1.88-1.5-1.88v-1.25l-2.12.62Z"/>
          <path class="cls-4" d="M20.49,53.69l1.12-1,1.25-1,.62,2.38,1.25,1.88,2,3.13.75,3.12.88,1.88,3.62.25,1.25-1.5h7.5l3,.5,1.62,1.38,1.88,1.62,2.25.75-2.75-.25-2.75-2.12-1.5-.88-3-.25h-2.75l-3.25-.38-.25,1.12-1.75.75h-1.88l-1.88-.5-.62-1.75-1.12-3.62s-1.5-2.88-1.88-3-1.5-1.88-1.5-1.88v-1.25l-2.12.62Z"/>
          <path class="cls-11" d="M28.37,17.5c-.12-.19.06-1.12.06-1.12l-2.11-4.38c.17.25,2.73,4.13,2.73,4.13l2.31.31h1.31l1.5-.56,1.56-.06.88-.44v-5l.19-.44.38.75.38,4.31,1.31.25.5.06.44.56.81.38,2.19.06,1.19-.88,3.31-4.06-2.81,4.31.3,1.75,1.19,1.12,1.31.38,5.69-.12-6.06.69-.88.94-.44.56,1.9,5.48-2.4-5.23-1.38-.38-.94-1.38-.19-1.44-1.38-.62-.75-.12-.62-.12-.69-.12-.62,1.5-.56.38-.62-.12-.62-.25-.62-.88.06-1.25-1.38.88.25,2.44-1.12.38-.56-.12-1.5-.56-.25-.81-.56-.75-.25,1.88-.88.94-.81,1.38-2.31,4.5,2.06-5.38v-2.69l-6.79.48,6.29-1.48Z"/>
          <polygon class="cls-7" points="37.67 15.49 36.66 15.73 36.51 17.32 37.45 18.44 38.83 17.24 38.54 15.49 37.67 15.49"/>
          <polygon class="cls-10" points="37.68 15.82 36.8 16 36.68 17.25 37.49 18.13 38.68 17.19 38.43 15.82 37.68 15.82"/>
          <polygon class="cls-11" points="38.49 33.07 39.91 33.4 40.66 33.9 41.83 34.32 43.33 33.98 44.49 33.9 48.8 28.86 44.99 34.32 44.41 35.4 51.24 36.4 43.83 35.82 42.99 36.4 48.17 44.72 42.24 36.57 41.66 37.4 40.41 37.48 38.49 36.9 37.5 43.07 37.99 36.82 35.91 35.48 34.08 36.82 27.41 44.48 33.49 36.07 24.08 36.65 33.66 35.4 27.66 30.23 34.91 35.48 36.49 34.65 36.49 34.32 37.24 33.65 38.16 28.4 38.49 33.07"/>
          <polygon class="cls-7" points="38.16 33.57 37.24 34.32 37.08 35.23 38.08 36.32 38.99 36.32 39.91 35.57 40.24 34.57 39.49 33.9 38.16 33.57"/>
          <polygon class="cls-6" points="38.36 33.57 37.82 34.32 37.72 35.23 38.31 36.32 38.86 36.32 39.4 35.57 39.6 34.57 39.15 33.9 38.36 33.57"/>
          <path class="cls-7" d="M38.91,34.32l.08.75-.42.58.75-.5s.08-.75-.42-.83Z"/>
          <polygon class="cls-11" points="27.08 48.9 30.58 52.82 32.08 53.57 24.99 54.07 32.08 54.07 30.22 62.27 32.83 54.32 34.49 54.07 35.33 54.65 36.24 54.98 36.91 54.73 37.51 61.06 37.83 54.73 39.24 55.32 40.49 54.65 45.06 62.77 41.41 54.4 43.08 53.9 48.99 58.48 43.41 53.57 46.58 53.82 49.72 53.87 43.66 53.07 43.33 52.15 47.66 48.48 42.91 51.9 41.58 51.15 40.33 50.48 39.99 51.07 38.58 51.65 38.33 51.82 37.49 45.98 37.58 51.9 36.08 52.23 34.08 52.48 33.08 53.07 32.16 52.9 30.99 52.32 27.08 48.9"/>
          <path class="cls-7" d="M35.41,53.23l1.5-.25,1.08-.25.83.08.67.33.75.83.58.17-.67.5-.83-.08s-.5-.25-.75-.25-1,.17-1,.17l-1.08.08-1.08-.5v-.83Z"/>
          <path class="cls-6" d="M35.33,52.9l1.5-.25,1.08-.25.83.08.67.33.75.83.58.17-.67.5-.83-.08s-.5-.25-.75-.25-1,.17-1,.17l-1.08.08-1.08-.5v-.83Z"/>
          <path class="cls-7" d="M37.91,53.15l-.67-.33-.92.33.25.25s.33.25.75.25,2.17-.42,2.17-.42c0,0-.83-.92-1.5-.25"/>
          <path class="cls-5" d="M23.83,79.23s-2-7.5-1.5-8.67l2.5,8.67.17,1.33-1.17-1.33Z"/>
          <path class="cls-4" d="M23.33,78.9s-2-7.5-1.5-8.67l2.5,8.67.17,1.33-1.17-1.33Z"/>
          <path class="cls-5" d="M27.66,9.4l4-1,2.83-.17h2.33l3.17.17h2.33l2.17.5,2.33.17,2,1.17-2-.33-2.83-.5s-2.67-.5-3.33-.5h-3.33l-3-.17h-2.17s-2,.83-4.5.67Z"/>
          <polygon class="cls-5" points="50.82 -1.9 49.99 1.07 50.49 2.73 50.13 3.25 49.32 4.4 48.16 6.9 50.16 4.9 51.16 2.4 50.82 -1.9"/>
          <polygon class="cls-4" points="51.65 -3.96 50.16 .4 50.66 2.07 50.29 2.58 49.49 3.73 48.33 6.23 50.33 4.23 50.96 .31 51.65 -3.96"/>
          <path class="cls-11" d="M36.49,79.39c-2.89.02-8.79,1.93-10.47,2.53l-3.19-12.28,14.17-5,13.25,4.5-2.51,12.17s-6.95-1.96-11.24-1.92Z"/>
          <path class="cls-8" d="M23.45,69.94c.27.82,3.1,9.43,3.36,10.24,2.13-.61,7.08-1.53,9.74-1.55,3.69-.03,8.79,1.08,10.32,1.34.21-.79,2.55-9.72,2.76-10.52-.81-.28-12.34-4.19-12.65-4.29-.31.11-12.69,4.48-13.54,4.78Z"/>
          <path class="cls-9" d="M33.85,67.02s-9.67,2.99-10.02,3.12c.12.35,3.35,8.9,3.46,9.22,2.48-.6,6.79-1.15,9.2-1.17,3.38-.02,8.13,1.2,10.09,1.53.09-.33,2.13-9.47,2.22-9.81-.33-.11-11.64-4.57-11.76-4.61-.12.04-3.19,1.71-3.19,1.71Z"/>
          <path class="cls-10" d="M33.95,67.3s-8.4,2.97-9.24,3.26c.26.8,2.53,7.72,2.77,8.45,2.53-.58,6.69-.89,9.04-.9,3.26-.02,7.52.39,9.62.74.2-.76,2.09-7.95,2.3-8.73-.78-.26-11.13-3.78-11.44-3.88-.29.1-3.05,1.08-3.05,1.08Z"/>
          <path class="cls-7" d="M34.11,67.77h0s-7.94,2.8-8.78,3.1c.26.79,1.82,6.85,2.48,7.56,2.62-.56,6.45-1.03,8.66-1.05,3.07-.02,6.97.52,9.29.89.2-.77,1.93-7.36,2.06-7.85-.72-.24-10.52-3.36-10.83-3.47-.29.1-2.89.81-2.89.81Z"/>
          <path class="cls-9" d="M34.18,67.96s-8.24,2.91-8.59,3.03c.11.35,2.28,6.94,2.37,7.21,2.68-.56,6.38-.8,8.52-.82,2.9-.02,6.53.25,9.15.67.09-.32,1.88-7.16,1.97-7.49-.34-.12-10.46-3.55-10.59-3.6-.12.04-2.83,1-2.83,1Z"/>
          <path class="cls-10" d="M34.28,68.25s-7.49,2.64-8.31,2.93c.26.79,2.03,6.2,2.19,6.68,2.67-.54,6.22-.96,8.31-.98,2.82-.02,6.33.43,8.93.83.19-.73,1.63-6.21,1.83-6.96-.8-.27-9.92-3.37-10.23-3.47-.29.1-2.73.96-2.73.96Z"/>
          <path class="cls-3" d="M34.45,68.72s-7.03,2.48-7.85,2.77c.25.75,1.69,5.14,1.91,5.81,2.7-.51,5.97-.89,7.97-.91,2.21-.02,5.1.25,8.56.78.19-.73,1.47-5.59,1.6-6.08-3.06-.36-9.21-3.13-9.62-3.27-.29.1-2.56.9-2.56.9Z"/>
          <path class="cls-7" d="M34.78,69.66s-6.12,2.16-6.93,2.45c.17.53,1.13,3.45,1.33,4.06,2.62-.46,5.5-.77,7.28-.78,2.02-.01,4.67.21,7.83.66.17-.63.99-3.76,1.14-4.32-.78-.27-8.11-2.75-8.41-2.86-.28.1-2.24.79-2.24.79Z"/>
          <path class="cls-9" d="M34.84,69.85h0s-6.39,2.26-6.74,2.38c.1.31,1.13,3.45,1.22,3.72,2.63-.45,5.41-.75,7.14-.76,1.97-.01,4.57.21,7.68.65.08-.3.95-4,1.02-4.28-.34-.11-8.02-2.43-8.14-2.47-.12.04-2.17.77-2.17.77Z"/>
          <path class="cls-11" d="M34.94,70.13h0s-5.66,2-6.47,2.28c.19.57.88,2.7,1.05,3.2,2.57-.43,5.25-.71,6.93-.72,1.93-.01,4.46.2,7.46.62.16-.61.8-3.03.91-3.45-.78-.26-7.51-2.55-7.81-2.65-.28.1-2.08.73-2.08.73Z"/>
          <path class="cls-10" d="M35.11,70.6h0s-5.21,1.84-6.01,2.12c.09.26.59,1.79.76,2.33,2.49-.4,4.99-.65,6.58-.66,1.81-.01,4.22.19,7.09.57.12-.46.55-2.08.68-2.58-.52-.17-6.89-2.34-7.2-2.44-.28.1-1.91.67-1.91.67Z"/>
          <path class="cls-11" d="M49.99,69.05l-5.92,2.92-2.67-.33-.5-.75s-.67-.25-1-.25-1.5.17-1.5.17l-.67.25-.67-.08-.08-6.33-.67,6.08-.75.25h-.92l-.92-.17-.75,1.33-1.75.58-2.25-.5-5.83-2.58,5.58,3.25s.75.92,1,1c.25.08,1.58-.08,1.58-.08l-.58,1.83-1.56.53-2.36,3.8,2.67-3.33,3-.83,1.92-.33,1.17.08.89.33.61.58-.08,2.25.5-2.25,1.92-.5,1.5-.33,1.75.92,4.5,3.67-4.08-4.58-.08-2-.25-.83s1,.17,1.25,0c.25-.17,6-3.75,6-3.75Z"/>
          <path class="cls-7" d="M36.62,71.73l-1.79.9-.41,1.51,2.03,1.06,2.38-1.06-.41-1.66s-1.24-.45-1.79-.75Z"/>
          <path class="cls-10" d="M36.62,72.01l-1.62.75-.38,1.25,1.83,1.18,2.17-1.18-.38-1.38s-1.12-.38-1.62-.62Z"/>
          <polygon class="cls-5" points="50.82 70.17 49.99 73.14 50.49 74.8 50.13 75.32 49.32 76.47 48.16 78.97 50.16 76.97 51.16 74.47 50.82 70.17"/>
          <polygon class="cls-4" points="51.65 68.1 50.16 72.47 50.66 74.14 50.29 74.65 49.49 75.8 48.33 78.3 50.33 76.3 50.96 72.38 51.65 68.1"/>
          <polygon class="cls-5" points="5.95 13.19 5.62 16.36 5.45 18.36 4.62 19.53 6.45 20.36 7.62 19.53 10.78 19.53 8.78 20.53 6.62 20.94 4.78 20.69 3.78 19.53 4.62 16.86 4.78 15.03 5.95 13.19"/>
          <polygon class="cls-4" points="5.45 13.32 5.12 16.48 4.95 18.48 4.12 19.65 5.95 20.48 7.12 19.65 10.28 19.65 8.28 20.65 6.12 21.07 4.28 20.82 3.28 19.65 4.12 16.98 4.28 15.15 5.45 13.32"/>
          <polygon class="cls-5" points="61.12 1.69 63.24 2.94 63.99 4.69 64.74 7.57 66.62 7.69 68.24 7.19 66.62 8.44 66.24 10.07 67.12 11.57 67.74 15.82 66.62 12.32 65.12 9.44 65.62 8.44 64.37 7.94 63.62 4.69 62.74 3.19 61.12 1.69"/>
          <polygon class="cls-5" points="70.24 41.32 71.49 45.19 70.49 48.07 69.62 49.07 69.12 52.44 69.37 53.69 68.37 54.94 67.62 55.82 68.62 53.57 68.87 50.32 68.99 48.32 70.24 45.82 70.24 43.32 70.24 41.32"/>
          <polygon class="cls-4" points="69.87 41.57 71.12 45.44 70.12 48.32 69.24 49.32 68.74 52.69 68.99 53.94 67.99 55.19 67.24 56.07 68.24 53.82 68.49 50.57 68.62 48.57 69.87 46.07 69.87 43.57 69.87 41.57"/>
          <polygon class="cls-5" points="50.37 43.82 49.49 46.19 48.12 47.07 46.12 46.07 44.24 46.07 45.87 46.82 47.99 47.69 49.24 48.94 50.37 52.82 51.37 53.94 51.49 56.07 53.12 54.94 55.24 55.32 56.99 55.94 59.99 55.57 57.24 55.32 55.24 54.69 53.37 54.32 52.37 54.32 50.99 52.57 50.24 50.57 49.87 47.94 48.87 47.32 50.24 45.82 50.37 43.82"/>
          <polygon class="cls-4" points="50.74 43.44 49.87 45.82 48.49 46.69 46.49 45.69 44.62 45.69 46.24 46.44 48.37 47.32 49.62 48.57 50.74 52.44 51.74 53.57 51.87 55.69 53.49 54.57 55.62 54.94 57.37 55.57 60.37 55.19 57.62 54.94 55.62 54.32 53.74 53.94 52.74 53.94 51.37 52.19 50.62 50.19 50.24 47.57 49.24 46.94 50.62 45.44 50.74 43.44"/>
          <polygon class="cls-5" points="9.99 -10.1 11.49 -7.27 11.83 -5.1 13.66 -4.43 13.83 -2.93 14.16 -.93 13.83 .4 9.68 4.82 7.23 10.62 9.01 3.82 12.83 -.43 12.49 -3.1 11.33 -4.27 10.83 -7.27 9.99 -10.1"/>
          <path class="cls-11" d="M57.78,71.13s3.45-2.78,4.45-2.44c1,.33,9.28,1.22,9.28,1.22l.67,3v4l-4.18,1.33-2.67.33-1.04-2.94-6.5-4.49Z"/>
          <path class="cls-10" d="M59.01,71.35s2.77-1.83,3.55-1.57c.78.26,7.96.92,7.96.92l.52,2.34v3.12l-3.38,1.04-2.08.26-.52-2.6-6.05-3.51Z"/>
          <path class="cls-7" d="M60.59,72.07s4.38-1.74,4.99-1.54c.61.2,4.17.81,4.17.81l.4,1.82v2.43l-2.75.81-1.62.2-.41-2.03-4.79-2.52Z"/>
          <path class="cls-11" d="M61.28,72.42s3.83-2.05,4.3-1.89c.47.16,3.56,1.3,3.56,1.3l.32,1.42v1.9l-2.26.63-1.26.16-.32-1.58-4.34-1.94Z"/>
          <path class="cls-10" d="M61.82,72.7s3.68-1.63,4.05-1.51c.37.12,2.29,1.02,2.29,1.02l.76,1.11v1.48l-1.87.49-.99.12-.25-1.23-3.99-1.48Z"/>
          <polygon class="cls-5" points="9.99 61.9 11.49 64.73 11.83 66.9 13.66 67.57 13.83 69.07 14.16 71.07 13.83 72.4 9.68 76.82 7.23 82.62 9.01 75.82 12.83 71.57 12.49 68.9 11.33 67.73 10.83 64.73 9.99 61.9"/>
          <polygon class="cls-5" points="74.16 66.4 71.99 67.57 70.16 68.57 68.16 67.9 66.33 67.4 64.49 67.23 63.33 66.73 61.49 67.73 58.16 70.9 62.49 68.23 63.49 67.57 65.66 68.07 67.16 68.4 69.99 69.07 71.99 69.23 74.16 66.4"/>
          <polygon class="cls-5" points="1.87 66.33 -.3 67.49 -2.13 68.49 -4.13 67.83 -5.97 67.33 -7.8 67.16 -8.97 66.66 -10.8 67.66 -14.13 70.83 -9.8 68.16 -8.8 67.49 -6.63 67.99 -5.13 68.33 -2.3 68.99 -.3 69.16 1.87 66.33"/>
          <path class="cls-11" d="M66.99,20.82l-4,5.08.25.83.5.25,1.83,1.08,4.67-.5-4.42.83-1.5.83,4,5.67-4.42-5.42-.83-.08-.67,1s-.58-.08-.83-.17-.67-.5-.67-.5l-1.5.25-.92,1.42-3.53,4.14,3.78-5.73-.83-.83-.42-.92-1.42.08-4.25-.08,5.5-.33,1.17-.17.25-.58.67-.25-3.49-5.84,3.9,5.51,1.5-.17,1,.17s4.17-5.83,4.67-5.58Z"/>
          <path class="cls-7" d="M60.96,26.48l-.59.15-.76.19-.9,1.56.63,1.11,1.97.56,1.26-.67.9-.89.18-1.67s-1.39-.05-1.66-.17c-.27-.11-1.03-.17-1.03-.17Z"/>
          <path class="cls-10" d="M60.99,26.9l-.55.11-.7.14-.83,1.17.58.83,1.83.89,1.17-.97.83-.67.17-1.25s-1.25-.42-1.5-.5c-.25-.08-1,.25-1,.25Z"/>
          <polygon class="cls-7" points="60.66 27.57 59.83 28.07 60.49 29.07 60.99 28.9 61.49 28.57 62.58 28.15 61.66 27.73 60.66 28.82 60.66 27.57"/>
          <path class="cls-11" d="M60.74,45.98l-1.33-.17s-4.92-7.73-5.3-7.62l4.3,6.71-.17,1.17-1.42-.08-5.25-.67,5.92,1.08-.58,1.33-.42,1.42-2.67,3.67,2.84-3.17,1.42-1.75,1.17.75,1.5-.25.25-.58.5-.33,1.75.5,2.88,4.63-2.55-5.38,5.33-1.75-6.42.75.92-1,6.03-6.99-6.37,6.49-1.67,1.17-.67.08Z"/>
          <path class="cls-10" d="M59.58,46.65l-1,.33.17,1.08s.83.42,1.08.33,1.33-.33,1.17-.58c-.17-.25,0-1.08,0-1.08l-1.42-.08Z"/>
          <path class="cls-7" d="M59.33,46.82l-.33.42s.08.33.33.42c.25.08.83-.17.83-.17l.08-.42-.92-.25Z"/>
          <polygon class="cls-11" points="52.99 55.57 55.07 61.32 54.91 62.07 54.24 62.15 46.68 64.71 54.74 62.4 55.74 63.4 55.57 68.32 56.24 63.48 59.66 67.98 56.99 63.15 62.41 62.65 56.99 62.57 65.49 56.07 56.99 61.48 55.91 60.82 52.99 55.57"/>
          <polygon class="cls-7" points="55.66 61.4 55.41 61.82 55.41 62.57 56.07 63.07 56.66 62.4 56.49 61.65 55.66 61.4"/>
          <path class="cls-11" d="M18.73,20.17l5.16,9.11-2.28,7.74s-15.65,1.56-16.7-1.06c-.27-.67-2.12-8.05-2.12-8.05l3.83-6.97s10.78.16,12.11-.77Z"/>
          <path class="cls-10" d="M22.18,28.73c-.15.39-2.67,6.84-2.87,7.36-5.26.55-12.7.62-13.32-.91-.18-.45-1.11-4.61-1.69-7.25.14-.28,2.77-5.75,3.03-6.29,2.03.12,8.83.47,11.02-.19.35.66,3.64,6.93,3.83,7.29Z"/>
          <path class="cls-7" d="M21.51,28.54s.06.11.12.22c-.15.38-2.47,6.34-2.67,6.86-6.76.67-11.7.01-12.05-.85-.14-.35-1.38-3.58-2.08-6.78.14-.29,2.69-5.58,2.81-5.84,2.21.13,7.98.39,10.44-.15.32.6,3.43,6.53,3.43,6.53Z"/>
          <path class="cls-9" d="M21.07,28.77h0s0,.02.01.02c-.15.38-2.11,6.09-2.3,6.58-6.79.64-11.37-.11-11.87-.6-.14-.41-.82-3.35-1.55-6.72.13-.28,2.05-5.42,2.28-5.9,2.38.13,7.6.84,10.17.4.3.58,3.27,6.21,3.27,6.21Z"/>
          <path class="cls-11" d="M20.53,28.82c-.14.37-2.09,5.37-2.28,5.85-6.38.58-10.26.09-10.92-.24-.17-.59-.72-2.98-1.45-6.32.13-.28,2.12-4.41,2.37-4.93,2.55.14,6.73.26,9.27-.1.28.52,2.84,5.41,3.01,5.74Z"/>
          <path class="cls-7" d="M18.02,25.12s1.77,3.38,1.96,3.74c-.15.37-1.88,4.83-2.08,5.34-5.97.51-9.36.08-10.15-.16-.11-.46-1.28-5.56-1.35-5.86.13-.27,1.81-4.24,2.04-4.72,2.31.12,6.22.47,8.79.16.22.41.79,1.5.79,1.5Z"/>
          <path class="cls-11" d="M17.58,25.35h0s2.22,3.14,2.41,3.51c-.15.39-2.34,4.64-2.43,4.86-5.33.43-8.39.11-9.38-.1-.12-.52-1.17-5.09-1.24-5.38.13-.26,1.45-3.98,1.68-4.45,2.09.1,5.79.62,8.33.35.2.38.64,1.21.64,1.21Z"/>
          <path class="cls-10" d="M17.13,25.58h0s1.56,2.98,1.75,3.34c-.15.38-1.56,4.01-1.68,4.32-5.09.39-7.77.08-8.62-.06-.13-.55-1.06-4.59-1.13-4.89.14-.28,1.55-3.21,1.72-3.57,1.88.08,4.99.16,7.47-.07.18.33.49.92.49.92Z"/>
          <path class="cls-11" d="M13.11,39.91l-7.44-1.52-.8,7.56,2.96,6.68s4.56,1.55,7.25,1.26c2.7-.3,5.96-1.03,6.49-1.18.54-.15,3.29-6.76,3.29-6.76l-4.18-6.45-7.57.42Z"/>
          <path class="cls-10" d="M23.35,45.77c-.75,2.85-1.7,5.93-2.07,6.52-.26.03-.91.05-1.53.05-1.24.02-2.94.04-4.52.21-2.22.24-5.94-.2-6.99-.33-.2-.45-2.73-6.15-2.81-6.33.03-.19.63-4.72.73-5.46.92.09,6.82.62,6.82.62,0,0,6.63-.96,7.38-1.06.29.57,2.87,5.54,3,5.78Z"/>
          <path class="cls-7" d="M22.79,45.81c-.75,2.82-1.53,5.3-1.89,6.04-.38.01-1.16.04-1.16.04-1.25.02-2.97.04-4.59.22-1.98.22-5.22-.13-6.52-.29-.2-.45-2.58-5.8-2.66-5.98.02-.19.56-4.18.66-4.92.91.08,6.36.58,6.36.58,0,0,6.29-.91,7.04-1.01.29.56,2.64,5.08,2.76,5.32Z"/>
          <path class="cls-9" d="M21.84,45.11s.63.58.73.77c-.66,2.46-1.69,4.64-2.07,5.55-.34.01-.79.03-.79.03-1.26.02-3,.04-4.64.22-1.78.2-5.02.15-6.43-.01-.2-.45-2.04-5.69-2.12-5.88.03-.18.32-4.02.42-4.73.9.08,6.05.45,6.05.45,0,0,5.97-.41,6.71-.51.29.56,2.14,4.12,2.14,4.12Z"/>
          <path class="cls-10" d="M21.34,45.28h0s.22.43.32.61c-.58,2.15-1.18,4.1-1.56,5.1-.2,0-.41.01-.41.01-1.26.02-3.01.04-4.68.22-1.58.18-4.06-.04-5.59-.22-.2-.45-2.27-5.1-2.35-5.28.02-.18.42-3.13.51-3.83.89.08,5.44.5,5.44.5,0,0,5.61-.81,6.35-.92.29.55,1.97,3.79,1.97,3.79Z"/>
          <path class="cls-10" d="M20.85,45.46s.16.32.25.48c-.51,1.89-1.03,3.59-1.4,4.62,0,0-.02,0-.02,0-1.28.02-3.03.04-4.74.23-1.09.12-2.91.05-5.13-.19-.2-.46-2.11-4.75-2.19-4.93.02-.12.35-2.61.44-3.28.87.08,4.98.46,4.98.46,0,0,5.27-.76,6-.87.28.54,1.8,3.47,1.8,3.47Z"/>
          <path class="cls-7" d="M20.35,45.63s.11.2.18.34c-.07.24-1.1,3.63-1.26,4.15-1.25.02-2.82.05-4.4.22-.97.11-2.63.04-4.67-.16-.17-.39-1.95-4.38-2.03-4.57.02-.17.28-2.09.37-2.73.85.08,4.52.42,4.52.42,0,0,4.93-.71,5.66-.82.28.53,1.63,3.14,1.63,3.14Z"/>
          <path class="cls-11" d="M19.85,45.81s.06.11.11.21c-.08.25-.95,3.14-1.12,3.68-1.25.02-2.63.06-4.05.22-.85.09-2.74.46-4.59.28-.17-.39-1.4-4.44-1.48-4.62.02-.16.21-1.59.29-2.18.83.08,4.05-.08,4.05-.08,4.59-.66,4.56-.21,5.33-.32.27.52,1.46,2.82,1.46,2.82Z"/>
          <path class="cls-10" d="M19.36,45.98s.02.04.04.07c-.07.23-.83,2.74-.98,3.22-1.18.03-2.42.06-3.69.2-.74.08-2.08.04-3.75-.11-.2-.45-1.63-3.67-1.71-3.85.02-.15.15-1.11.22-1.64.81.07,3.6.33,3.6.33,0,0,4.26-.61,4.97-.72.26.51,1.29,2.5,1.29,2.5Z"/>
          <g>
            <path class="cls-11" d="M66.74,89.57h-12l-4.67-7.83,2.54-13.05c3-.17,8.8,6.55,9.63,7.88,0,0,5.17,12.5,4.5,13Z"/>
            <path class="cls-10" d="M50.6,81.65c.19.31,4.16,6.97,4.42,7.42h11.24c-.22-1.44-2.35-7.14-4.48-12.31-.79-1.24-5.96-7.3-8.77-7.53-.17.79-2.33,12.07-2.41,12.42Z"/>
            <path class="cls-7" d="M51.13,81.56c.19.31,3.91,6.56,4.18,7.01h10.33c-.49-1.87-2.23-6.56-4.32-11.62-.65-1.01-5.59-7.15-8.31-7.72-.19.88-1.8,11.98-1.88,12.33Z"/>
            <path class="cls-9" d="M51.49,81.48c.18.31,3.84,6.14,4.1,6.58.5,0,8.77.25,9.9.25-.66-2.17-2.79-6.71-4.64-11.18-.51-.79-4.98-6.7-7.58-7.54-.2.95-1.71,11.53-1.79,11.88Z"/>
            <path class="cls-10" d="M53.13,76.96s-.48,4.17-.56,4.52c.18.31,3.04,5.64,3.31,6.08h8.4c-.74-2.31-2.2-6.17-3.88-10.24-.41-.61-3.78-5.14-6.26-6.17-.19.9-1,5.81-1,5.81Z"/>
            <path class="cls-11" d="M53.62,77.07s-.82,3.88-.9,4.23c.18.31,3.21,5.39,3.44,5.77h7.41c-.8-2.38-1.68-6.11-3.18-9.74-.25-.36-3.66-2.64-6.03-3.81-.19.9-.75,3.55-.75,3.55Z"/>
            <path class="cls-10" d="M54.11,77.17s-1.31,3.77-1.39,4.12c.18.31,3.5,4.89,3.73,5.27h6.43c-.82-2.36-2.04-5.55-3.37-8.78-.29-.35-2.66-2.33-4.78-3.51-.19.87-.61,2.89-.61,2.89Z"/>
            <polygon class="cls-11" points="52.61 68.69 55.57 78.15 54.24 78.32 54.07 79.48 50.32 81.65 54.24 80.07 55.07 81.57 56.41 82.57 56.57 84.07 54.74 89.07 56.91 84.32 58.33 84.57 60.41 84.9 66.58 89.07 60.83 84.65 59.16 82.9 58.41 82.32 59.08 81.4 59.08 80.73 58.58 79.73 57.74 79.57 59.58 78.4 61.74 76.48 57.82 78.98 56.49 77.82 55.99 77.15 52.61 68.69"/>
            <path class="cls-7" d="M57.57,79.57l-.5-.42-1.33-.17-.5,1,.83,2.08s.75.33,1,.33,1.17-.33,1.17-.33l.33-1.08-.75-1-.25-.42Z"/>
            <path class="cls-10" d="M57.24,79.32l-.5-.42-1.33-.17-.5,1,.83,2.08s.75.33,1,.33,1.17-.33,1.17-.33l.33-1.08-.75-1-.25-.42Z"/>
            <polygon class="cls-7" points="56.57 79.65 55.74 79.4 55.66 80.4 56.16 80.82 56.57 80.73 57.41 80.9 57.74 80.4 57.16 80.32 56.24 79.98 56.57 79.65"/>
          </g>
          <g>
            <path class="cls-11" d="M5.73,90.91l13.05-.74,4.56-8.26-2.71-12.27c-3.27.01-10.04,6.35-10.86,7.76,0,0-4.8,13.04-4.04,13.51Z"/>
            <path class="cls-10" d="M22.76,81.86c-.18.33-4.06,7.35-4.32,7.82-.57.03-11.28.64-12.22.69.14-1.48,2.08-7.41,4.07-12.8.77-1.32,6.9-6.94,9.95-7.35.23.79,2.42,11.28,2.53,11.64Z"/>
            <path class="cls-7" d="M22.18,81.8c-.18.33-3.82,6.92-4.08,7.39-.55.03-10.05.57-11.23.63.41-1.93,1.99-6.81,3.93-12.09.64-1.07,6.52-6.77,9.43-7.52.26.89,1.84,11.23,1.95,11.58Z"/>
            <path class="cls-9" d="M21.79,81.75c-.18.33-3.77,6.48-4.03,6.95-.55.03-9.52.79-10.75.86.57-2.24,2.59-7,4.31-11.66.51-.84,5.88-6.27,8.65-7.28.28.96,1.72,10.78,1.82,11.13Z"/>
            <path class="cls-10" d="M19.71,77.25s.79,4.21.9,4.56c-.18.32-2.94,5.93-3.19,6.39-.54.03-7.89.45-9.14.52.66-2.39,1.99-6.41,3.55-10.65.4-.64,4.67-4.6,7.31-5.81.27.9.57,4.99.57,4.99Z"/>
            <path class="cls-11" d="M19.19,77.39s1.15,3.89,1.25,4.25c-.18.33-3.14,5.68-3.36,6.09-.53.03-6.83.39-8.07.46.71-2.47,1.43-6.32,2.82-10.1.25-.38,3.81-2.91,6.3-4.25.27.91,1.05,3.56,1.05,3.56Z"/>
            <path class="cls-10" d="M18.66,77.52s1.67,3.76,1.78,4.11c-.18.32-3.48,5.19-3.71,5.6-.51.03-5.79.33-6.99.39.73-2.45,1.85-5.77,3.09-9.14.3-.37,2.74-2.53,4.97-3.87.26.88.86,2.91.86,2.91Z"/>
            <polygon class="cls-11" points="20.63 69.65 17.13 78.61 18.59 78.7 18.85 79.87 23.07 81.85 18.7 80.48 17.9 82.06 16.51 83.16 16.43 84.69 18.75 89.67 16.08 84.97 14.56 85.31 12.31 85.78 5.88 90.39 11.84 85.55 13.54 83.66 14.32 83.02 13.54 82.13 13.49 81.45 13.97 80.4 14.86 80.18 12.79 79.11 10.31 77.29 14.74 79.6 16.11 78.33 16.61 77.62 20.63 69.65"/>
            <path class="cls-7" d="M15.05,80.17l.52-.46,1.44-.25.61.99-.77,2.17s-.79.39-1.07.4c-.27.02-1.29-.27-1.29-.27l-.43-1.08.75-1.06.24-.44Z"/>
            <path class="cls-10" d="M15.39,79.9l.52-.45,1.44-.25.61.99-.77,2.17s-.79.38-1.07.4c-.27.02-1.29-.27-1.29-.27l-.43-1.08.75-1.06.24-.44Z"/>
            <polygon class="cls-7" points="16.14 80.2 17.03 79.89 17.19 80.9 16.67 81.36 16.21 81.3 15.31 81.52 14.92 81.03 15.55 80.91 16.52 80.52 16.14 80.2"/>
          </g>
          <path class="cls-11" d="M66.74,17.5h-12l-4.67-7.83,2.54-13.05c3-.17,8.8,6.55,9.63,7.88,0,0,5.17,12.5,4.5,13Z"/>
          <path class="cls-10" d="M50.6,9.58c.19.31,4.16,6.97,4.42,7.42h11.24c-.22-1.44-2.35-7.14-4.48-12.31-.79-1.24-5.96-7.3-8.77-7.53-.17.79-2.33,12.07-2.41,12.42Z"/>
          <path class="cls-7" d="M51.13,9.49c.19.31,3.91,6.56,4.18,7.01h10.33c-.49-1.87-2.23-6.56-4.32-11.62-.65-1.01-5.59-7.15-8.31-7.72-.19.88-1.8,11.98-1.88,12.33Z"/>
          <path class="cls-9" d="M51.49,9.42c.18.31,3.84,6.14,4.1,6.58.5,0,8.77.25,9.9.25-.66-2.17-2.79-6.71-4.64-11.18-.51-.79-4.98-6.7-7.58-7.54-.2.95-1.71,11.53-1.79,11.88Z"/>
          <path class="cls-10" d="M53.13,4.9s-.48,4.17-.56,4.52c.18.31,3.04,5.64,3.31,6.08h8.4c-.74-2.31-2.2-6.17-3.88-10.24-.41-.61-3.78-5.13-6.26-6.17-.19.9-1,5.81-1,5.81Z"/>
          <path class="cls-11" d="M53.62,5s-.82,3.88-.9,4.23c.18.31,3.21,5.39,3.44,5.77h7.41c-.8-2.38-1.68-6.11-3.18-9.74-.25-.36-3.66-2.64-6.03-3.81-.19.9-.75,3.55-.75,3.55Z"/>
          <path class="cls-10" d="M54.11,5.1s-1.31,3.77-1.39,4.12c.18.31,3.5,4.89,3.73,5.27h6.43c-.82-2.36-2.04-5.55-3.37-8.78-.29-.35-2.66-2.33-4.78-3.51-.19.87-.61,2.89-.61,2.89Z"/>
          <polygon class="cls-11" points="52.61 -3.38 55.57 6.08 54.24 6.25 54.07 7.42 50.32 9.58 54.24 8 55.07 9.5 56.41 10.5 56.57 12 54.74 17 56.91 12.25 58.33 12.5 60.41 12.83 66.58 17 60.83 12.58 59.16 10.83 58.41 10.25 59.08 9.33 59.08 8.67 58.58 7.67 57.74 7.5 59.58 6.33 61.74 4.42 57.82 6.92 56.49 5.75 55.99 5.08 52.61 -3.38"/>
          <path class="cls-7" d="M57.57,7.5l-.5-.42-1.33-.17-.5,1,.83,2.08s.75.33,1,.33,1.17-.33,1.17-.33l.33-1.08-.75-1-.25-.42Z"/>
          <path class="cls-10" d="M57.24,7.25l-.5-.42-1.33-.17-.5,1,.83,2.08s.75.33,1,.33,1.17-.33,1.17-.33l.33-1.08-.75-1-.25-.42Z"/>
          <polygon class="cls-7" points="56.57 7.58 55.74 7.33 55.66 8.33 56.16 8.75 56.57 8.67 57.41 8.83 57.74 8.33 57.16 8.25 56.24 7.92 56.57 7.58"/>
          <path class="cls-11" d="M5.73,18.85l13.05-.74,4.56-8.26-2.71-12.27c-3.27.01-10.04,6.35-10.86,7.76,0,0-4.8,13.04-4.04,13.51Z"/>
          <path class="cls-10" d="M22.76,9.79c-.18.33-4.06,7.35-4.32,7.82-.57.03-11.28.64-12.22.69.14-1.48,2.08-7.41,4.07-12.8.77-1.32,6.9-6.94,9.95-7.35.23.79,2.42,11.28,2.53,11.64Z"/>
          <path class="cls-7" d="M22.18,9.74c-.18.33-3.82,6.92-4.08,7.39-.55.03-10.05.57-11.23.63.41-1.93,1.99-6.81,3.93-12.09.64-1.07,6.52-6.77,9.43-7.52.26.89,1.84,11.23,1.95,11.58Z"/>
          <path class="cls-9" d="M21.79,9.68c-.18.33-3.77,6.48-4.03,6.95-.55.03-9.52.79-10.75.86.57-2.24,2.59-7,4.31-11.66.51-.84,5.88-6.27,8.65-7.28.28.96,1.72,10.78,1.82,11.13Z"/>
          <path class="cls-10" d="M19.71,5.18s.79,4.21.9,4.56c-.18.32-2.94,5.93-3.19,6.39-.54.03-7.89.45-9.14.52.66-2.39,1.99-6.41,3.55-10.65.4-.64,4.67-4.6,7.31-5.81.27.9.57,4.99.57,4.99Z"/>
          <path class="cls-11" d="M19.19,5.32s1.15,3.89,1.25,4.25c-.18.33-3.14,5.68-3.36,6.09-.53.03-6.83.39-8.07.46.71-2.47,1.43-6.32,2.82-10.1.25-.38,3.81-2.91,6.3-4.25.27.91,1.05,3.56,1.05,3.56Z"/>
          <path class="cls-10" d="M18.66,5.45s1.67,3.76,1.78,4.11c-.18.32-3.48,5.19-3.71,5.6-.51.03-5.79.33-6.99.39.73-2.45,1.85-5.77,3.09-9.14.3-.37,2.74-2.53,4.97-3.87.26.88.86,2.91.86,2.91Z"/>
          <polygon class="cls-11" points="20.63 -2.42 17.13 6.54 18.59 6.63 18.85 7.8 23.07 9.78 18.7 8.41 17.9 9.99 16.51 11.09 16.43 12.62 18.75 17.6 16.08 12.9 14.56 13.24 12.31 13.71 5.88 18.33 11.84 13.48 13.54 11.6 14.32 10.96 13.54 10.06 13.49 9.38 13.97 8.34 14.86 8.12 12.79 7.04 10.31 5.22 14.74 7.53 16.11 6.26 16.61 5.55 20.63 -2.42"/>
          <path class="cls-7" d="M15.05,8.11l.52-.46,1.44-.25.61.99-.77,2.17s-.79.39-1.07.4c-.27.02-1.29-.27-1.29-.27l-.43-1.08.75-1.06.24-.44Z"/>
          <path class="cls-10" d="M15.39,7.83l.52-.45,1.44-.25.61.99-.77,2.17s-.79.38-1.07.4c-.27.02-1.29-.27-1.29-.27l-.43-1.08.75-1.06.24-.44Z"/>
          <polygon class="cls-7" points="16.14 8.13 17.03 7.82 17.19 8.84 16.67 9.29 16.21 9.23 15.31 9.45 14.92 8.96 15.55 8.84 16.52 8.45 16.14 8.13"/>
          <path class="cls-11" d="M7.28,21.37l4,5.08-.25.83-.5.25-1.83,1.08-4.67-.5,4.42.83,1.5.83-4,5.67,4.42-5.42.83-.08.67,1s.58-.08.83-.17.67-.5.67-.5l1.5.25.92,1.42,3.53,4.14-3.78-5.73.83-.83.42-.92,1.42.08,4.25-.08-5.5-.33-1.17-.17-.25-.58-.67-.25,3.49-5.84-3.9,5.51-1.5-.17-1,.17s-4.17-5.83-4.67-5.58Z"/>
          <path class="cls-7" d="M13.31,27.03l.59.15.76.19.9,1.56-.63,1.11-1.97.56-1.26-.67-.9-.89-.18-1.67s1.39-.05,1.66-.17c.27-.11,1.03-.17,1.03-.17Z"/>
          <path class="cls-10" d="M13.28,27.45l.54.11.71.14.83,1.17-.58.83-1.83.89-1.17-.97-.83-.67-.17-1.25s1.25-.42,1.5-.5c.25-.08,1,.25,1,.25Z"/>
          <path class="cls-11" d="M14.04,46.32l1.44-.15s4.47-6.27,4.88-6.18l-3.81,5.36.18,1.04,1.53-.08,5.66-.59-6.38.96.63,1.19.45,1.26,2.88,3.26-3.06-2.82-1.53-1.56-1.26.67-1.62-.22-.27-.52-.54-.3-1.89.45-3.11,4.13,2.75-4.79-5.75-1.56,6.92.67-.99-.89-5.21-5.42,5.57,4.97,1.8,1.04.72.07Z"/>
          <path class="cls-10" d="M15.29,46.91l1.08.3-.18.96s-.9.37-1.17.3c-.27-.07-1.44-.3-1.26-.52.18-.22,0-.96,0-.96l1.53-.07Z"/>
          <path class="cls-7" d="M15.56,47.06l.36.37s-.09.3-.36.37c-.27.07-.9-.15-.9-.15l-.09-.37.99-.22Z"/>
          <path class="cls-11" d="M22.03,54.25l-6.03,1.6-8.96-1.52,4.54,6.98.17,3.79,3.04,4.4s2.49-.4,3.49-.15,4.38-2.13,4.38-2.13l5.34-2.12-5.96-10.86Z"/>
          <path class="cls-10" d="M26.37,65.08c-.79.34-3.91,1.7-3.91,1.7-1.5.69-3.42,1.35-3.93,1.22-.89-.22-2.78-.43-3.34-.49-.23-.33-2.08-3.05-2.16-3.16-.04-.14-.98-3.18-.98-3.18-.03-.06-1.75-3.38-2.59-4.98,1.45.19,6.63.88,6.63.88,0,0,4.58-1.04,5.22-1.19.32.59,4.59,8.35,5.05,9.19Z"/>
          <path class="cls-7" d="M24.37,62.48s.93,1.7,1.3,2.36c-.76.33-3.41,1.48-3.41,1.48-1.75.81-3.31,1.25-3.61,1.2-.78-.2-2.24-.37-3.17-.47-.2-.29-1.91-2.79-1.99-2.91-.04-.14-.96-3.11-.96-3.11-.03-.07-.69-.68-2.79-4.71,1.4.19,6.38,1.27,6.38,1.27,0,0,4.3-.98,4.94-1.12.33.59,3.31,6.02,3.31,6.02Z"/>
          <path class="cls-9" d="M23.93,62.72h0s1.22,1.32,1.56,1.93c-.73.32-3.43,1.21-3.43,1.21-1.79.83-2.92,1.63-3.15,1.62-.53-.14-1.76-.76-3.15-.91-.2-.3-1.74-2.55-1.82-2.66-.04-.13-.93-3.03-.93-3.03-.04-.12-1.58-1.33-3.27-4.56,1.33.18,6.4,1.77,6.4,1.77,0,0,4.05-1.13,4.68-1.27.32.59,3.11,5.9,3.11,5.9Z"/>
          <path class="cls-11" d="M23.5,62.96s.48.87.77,1.4c-.69.3-2.4,1.04-2.4,1.04-1.73.8-2.92,1.09-3.14,1.11-.52-.13-1.43-.27-2.68-.41-.15-.22-1.57-2.29-1.65-2.41-.04-.14-.91-2.96-.91-2.96-.06-.16-.89-.97-2.16-3.41,1.24.17,4.84,1.28,4.84,1.28,0,0,3.76-.85,4.38-1,.32.59,2.95,5.36,2.95,5.36Z"/>
          <path class="cls-7" d="M23.06,63.2s.28.5.5.91c-.63.27-1.9.82-1.9.82-1.68.77-2.76,1.04-2.95,1.07-.21-.03-2-.31-2.37-.37-.2-.3-1.41-2.06-1.48-2.17-.04-.14-.89-2.89-.89-2.89,0-.02-.9-1.63-1.3-2.43,1.11.15,3.53.95,3.53.95,0,0,3.1-.4,3.72-.54.32.58,3.15,4.63,3.15,4.63Z"/>
          <path class="cls-11" d="M22.62,63.44s.12.22.24.43c-.54.24-1.4.61-1.4.61-1.67.77-2.6,1.49-2.75,1.53-.15-.02-1.78-.78-2.08-.83-.1-.14-1.24-1.81-1.32-1.93-.04-.14-1.34-2.67-1.34-2.67,0,0-.03-1.22-.3-1.76.93.12,2.33.42,2.33.42,0,0,3.43-.35,4.04-.49.32.58,2.58,4.7,2.58,4.7Z"/>
          <path class="cls-10" d="M22.16,63.64c-.41.18-.89.39-.89.39-1.49.69-2.34.91-2.59.96-.15-.02-1.47-.22-1.76-.27-.2-.29-1.08-1.58-1.15-1.69-.04-.14-.85-2.77-.85-2.77l.03.17s-.12-.29-.22-.52c.68.09,1.52.2,1.52.2,0,0,2.94-.67,3.54-.8.31.56,2.33,4.24,2.38,4.32Z"/>
          <polygon class="cls-11" points="21.58 55.32 19.49 61.07 19.66 61.82 20.33 61.9 26.83 65.07 19.83 62.15 18.83 63.15 18.99 68.07 18.33 63.23 14.91 67.73 17.58 62.9 12.16 62.4 17.58 62.32 9.08 55.82 17.58 61.23 18.66 60.57 21.58 55.32"/>
          <polygon class="cls-7" points="18.91 61.15 19.16 61.57 19.16 62.32 18.49 62.82 17.91 62.15 18.08 61.4 18.91 61.15"/>
        </g>
        <g>
          <polygon class="cls-11" points="1.12 36.29 -2.13 36.63 -.33 45.57 -3.14 55.38 .86 57.05 4.86 55.71 2 46.9 3 37.9 1.12 36.29"/>
          <path class="cls-10" d="M-1.61,36.98c.04.67,1.78,8.66,1.78,8.66,0,0-2.37,8.67-2.67,9.46.67.28,3.1,1.29,3.38,1.41.28-.09,2.5-.83,3.28-1.09-.43-.86-2.67-8.44-2.67-8.44,0,0,.91-8.35.98-8.87-.28-.23-.96-.77-1.23-.98-.31.1-2.44-.28-2.85-.15Z"/>
          <path class="cls-7" d="M-1.09,37.34c.04.67,1.77,8.39,1.77,8.39,0,0-2.24,8.32-2.54,9.11.45.19,2.48,1.03,2.76,1.15.26-.09,1.84-.61,2.55-.85-.42-.85-2.74-8.31-2.74-8.31.72-5.06.91-6.33,1.22-8.49-.26-.21-.78-.62-.79-.64-.23.08-1.93-.45-2.23-.35Z"/>
          <path class="cls-11" d="M1.03,38.25c.14.11.22.17.36.29-.03.2-.18,3.29-.36,4.51-.07-1.37-1.59-5.02-1.61-5.36.07-.02,1.54.58,1.61.56ZM.57,47.4c.09.19,2.21,6.79,2.62,7.61-.33.11-2.01.35-2.28.44-.25-.1-2.3-.41-2.78-.62.22-.58,1.84-5.86,2.44-7.43Z"/>
          <path class="cls-10" d="M.32,49.48s-.67,4.2-.9,4.8c.5.21,1.29.54,1.52.63.19-.06.64-.21,1.1-.37-.3-.61-.8-5.79-1.33-6.86-.16.41-.39,1.79-.39,1.79Z"/>
          <polygon class="cls-11" points="-5.05 8.9 -1.05 7.57 5.85 10.29 3.95 17.23 .62 17.57 -2.71 17.57 -3.71 12.57 -5.05 8.9"/>
          <path class="cls-10" d="M-4.4,9.21c.26.73,1.16,3.18,1.16,3.18.02.06.71,3.51.94,4.67H.62s1.91-.19,2.81-.28c-.03-.79-.27-6.34-.3-6.88-.49-.21-3.9-1.67-4.2-1.8-.29.09-2.62.87-3.33,1.11Z"/>
          <path class="cls-7" d="M-4.4,9.21c.25.7,1.63,3.01,1.63,3.01,0,.03.66,3.23.88,4.34H.62s-.04.04-.05.04c.36-.08,1.01-.15,2.23-.27,0,0,.08,0,.11-.01-.03-.78,2.48-5.18,2.46-5.71-.48-.2-6.16-1.86-6.46-1.99-.27.09-2.64.35-3.31.58Z"/>
          <path class="cls-11" d="M-3.11,9.84c.24.65.81,2.22.81,2.22q.02.06.72,3.54s-.36.74-.31.97c.57,0,2.51-.5,2.51-.5l-.15.06s1.41-.17,1.92-.23c-.03-.75,2.15-4.52,2.12-5.04-.47-.2-5.34-1.55-5.63-1.68-.25.08-1.4.47-2,.67Z"/>
          <path class="cls-10" d="M-2.47,10.15c.21.59.63,1.73.63,1.73q.04.11.75,3.62s0,.05.01.07H.62s0,.03,0,.03c.25-.03.79-.1,1.25-.15-.03-.72,1.1-3.54,1.08-4.04-.45-.19-3.81-1.58-4.09-1.7-.22.07-.84.28-1.33.44Z"/>
          <path class="cls-11" d="M-1.97,11.11c.17.39.49,1.13.49,1.13q.03.07.58,2.35s0,.03,0,.04H.44s0,.02,0,.02c.2-.02.62-.06.98-.1-.03-.47-.14-2.63-.15-2.96-.35-.13-1.98-.71-2.2-.79-.17.05-.65.18-1.04.29Z"/>
          <polygon class="cls-11" points="-.91 23.53 -3.71 17.88 3.21 19.11 4.55 22.57 1.65 28.57 2.99 35.57 -1.01 34.9 .32 28.23 -.91 23.53"/>
          <path class="cls-10" d="M-.42,23.42s1.25,4.8,1.25,4.8c0,0-1.08,5.41-1.25,6.27.62.1,1.97.33,2.78.46-.22-1.14-1.22-6.41-1.22-6.41,0,0,2.55-5.59,2.63-5.87-.07-.21-.82-2.78-.94-3.15-.39-.09-4.95-.77-5.89-.99.19.99,2.65,4.86,2.65,4.88Z"/>
          <path class="cls-7" d="M-2.43,19.2c.8.18,4.52.67,4.87.75.11.33.59,2.97.66,3.17-.06.21-1.62,2.34-2.06,3.91-.33-1.28-.97-3.72-.97-3.73,0-.05-2.33-3.23-2.5-4.11ZM.95,30.2c.29,1.53,1.13,3.68,1.29,4.49-.59-.1-1.6-.53-2.07-.61.12-.58.45-2.25.78-3.89Z"/>
          <path class="cls-11" d="M-1.48,19.78c.56.13,3.26.54,3.53.6.02.05-.37,2.03-.3,2.23-.04.16-.38,3.22-.71,4.43-.18-.7-.48-3.82-.49-3.84,0-.03-1.89-2.71-2.03-3.42ZM1.11,30.69c.06.3,1.04,3.58,1.12,4-.17-.03-1.32-.99-1.47-1.02.04-.19.08-.38.08-.38,0,0,.25-2.47.27-2.6Z"/>
          <polygon class="cls-5" points="1.5 66.4 -.67 67.57 -2.5 68.57 -4.5 67.9 -6.33 67.4 -8.17 67.23 -9.33 66.73 -11.17 67.73 -14.5 70.9 -10.17 68.23 -9.17 67.57 -7 68.07 -5.5 68.4 -2.67 69.07 -.67 69.23 1.5 66.4"/>
        </g>
        <g>
          <path class="cls-11" d="M11.49-1.1s-2.67-2.67-3.67-2.33c-1,.33-6,1.33-6,1.33L1.16.9.49,7.47l3.67,1.33,2.67.33.67-3.33L11.49-1.1Z"/>
          <path class="cls-10" d="M10.35-.51s-2.08-2.08-2.86-1.82c-.78.26-4.68,1.04-4.68,1.04l-.52,2.34-.67,5.68,2.86,1.04,2.08.26.52-2.6L10.35-.51Z"/>
          <path class="cls-7" d="M9.47-.05s-1.62-1.62-2.23-1.42c-.61.2-3.65.81-3.65.81l-.41,1.82-.67,5,2.23.81,1.62.2,1.08-4.59L9.47-.05Z"/>
          <path class="cls-11" d="M8.77.3s-1.06-1.93-1.54-1.78c-.47.16-3.05,1.3-3.05,1.3l-.32,1.42-.67,4.46,1.74.63,1.26.16.99-4.15,1.58-2.05Z"/>
          <path class="cls-10" d="M8.23.58s-.91-1.51-1.28-1.39c-.37.12-2.29,1.02-2.29,1.02l-.25,1.11v1.48l.69,3.06.99.12.92-3.8,1.23-1.6Z"/>
          <path class="cls-5" d="M23.83,7.17s-2-7.5-1.5-8.67l2.5,8.67.17,1.33-1.17-1.33Z"/>
          <path class="cls-4" d="M23.33,6.83s-2-7.5-1.5-8.67l2.5,8.67.17,1.33-1.17-1.33Z"/>
          <path class="cls-11" d="M36.49,7.32c-2.89.02-8.79,1.93-10.47,2.53l-3.19-12.28,14.17-5,13.25,4.5-2.51,12.17s-6.95-1.96-11.24-1.92Z"/>
          <path class="cls-8" d="M23.45-2.12c.27.82,3.1,9.43,3.36,10.24,2.13-.61,7.08-1.53,9.74-1.55,3.69-.03,8.79,1.08,10.32,1.34.21-.79,2.55-9.72,2.76-10.52-.81-.28-12.34-4.19-12.65-4.29-.31.11-12.69,4.48-13.54,4.78Z"/>
          <path class="cls-9" d="M33.85-5.05s-9.67,2.99-10.02,3.12c.12.35,3.35,8.9,3.46,9.22,2.48-.6,6.79-1.15,9.2-1.17,3.38-.02,8.13,1.2,10.09,1.53.09-.33,2.13-9.47,2.22-9.81-.33-.11-11.64-4.57-11.76-4.61-.12.04-3.19,1.71-3.19,1.71Z"/>
          <path class="cls-10" d="M33.95-4.77s-8.4,2.97-9.24,3.26c.26.8,2.53,7.72,2.77,8.45,2.53-.58,6.69-.89,9.04-.9,3.26-.02,7.52.39,9.62.74.2-.76,2.09-7.96,2.3-8.73-.78-.26-11.13-3.78-11.44-3.88-.29.1-3.05,1.08-3.05,1.08Z"/>
          <path class="cls-7" d="M34.11-4.29h0s-7.94,2.8-8.78,3.1c.26.79,1.82,6.85,2.48,7.56,2.62-.56,6.45-1.03,8.66-1.05,3.07-.02,6.97.52,9.29.89.2-.77,1.93-7.36,2.06-7.85-.72-.24-10.52-3.36-10.83-3.47-.29.1-2.89.81-2.89.81Z"/>
          <path class="cls-9" d="M34.18-4.11s-8.24,2.91-8.59,3.03c.11.35,2.28,6.94,2.37,7.21,2.68-.56,6.38-.8,8.52-.82,2.9-.02,6.53.25,9.15.67.09-.32,1.88-7.16,1.97-7.49-.34-.12-10.46-3.55-10.59-3.6-.12.04-2.83,1-2.83,1Z"/>
          <path class="cls-10" d="M34.28-3.82s-7.49,2.64-8.31,2.93c.26.79,2.03,6.2,2.19,6.68,2.67-.54,6.22-.96,8.31-.98,2.82-.02,6.33.43,8.93.83.19-.73,1.63-6.21,1.83-6.96-.8-.27-9.92-3.37-10.23-3.47-.29.1-2.73.96-2.73.96Z"/>
          <path class="cls-3" d="M34.45-3.35s-7.03,2.48-7.85,2.77c.25.75,1.69,5.14,1.91,5.81,2.7-.51,5.97-.89,7.97-.91,2.21-.02,5.1.25,8.56.78.19-.73,1.47-5.59,1.6-6.08-3.06-.36-9.21-3.13-9.62-3.27-.29.1-2.56.9-2.56.9Z"/>
          <path class="cls-7" d="M34.78-2.41S28.66-.25,27.85.04c.17.53,1.13,3.45,1.33,4.06,2.62-.46,5.5-.77,7.28-.78,2.02-.01,4.67.21,7.83.66.17-.63.99-3.76,1.14-4.32-.78-.27-8.11-2.75-8.41-2.86-.28.1-2.24.79-2.24.79Z"/>
          <path class="cls-9" d="M34.84-2.22h0S28.45.04,28.1.16c.1.31,1.13,3.45,1.22,3.72,2.63-.45,5.41-.75,7.14-.76,1.97-.01,4.57.21,7.68.65.08-.3.95-4,1.02-4.28-.34-.11-8.02-2.43-8.14-2.47-.12.04-2.17.77-2.17.77Z"/>
          <path class="cls-11" d="M34.94-1.94h0S29.28.06,28.48.34c.19.57.88,2.7,1.05,3.2,2.57-.43,5.25-.71,6.93-.72,1.93-.01,4.46.2,7.46.62.16-.61.8-3.03.91-3.45-.78-.26-7.51-2.55-7.81-2.65-.28.1-2.08.73-2.08.73Z"/>
          <path class="cls-10" d="M35.11-1.46h0s-5.21,1.84-6.01,2.12c.09.26.59,1.79.76,2.33,2.49-.4,4.99-.65,6.58-.67,1.81-.01,4.22.19,7.09.57.12-.46.55-2.08.68-2.58-.52-.17-6.89-2.34-7.2-2.44-.28.1-1.91.67-1.91.67Z"/>
          <path class="cls-11" d="M49.99-3.02L44.08-.1l-2.67-.33-.5-.75s-.67-.25-1-.25-1.5.17-1.5.17l-.67.25-.67-.08-.08-6.33-.67,6.08-.75.25h-.92l-.92-.17-.75,1.33-1.75.58-2.25-.5-5.83-2.58,5.58,3.25s.75.92,1,1c.25.08,1.58-.08,1.58-.08l-.58,1.83-1.56.53-2.36,3.8,2.67-3.33,3-.83,1.92-.33,1.17.08.89.33.61.58-.08,2.25.5-2.25,1.92-.5,1.5-.33,1.75.92,4.5,3.67-4.08-4.58-.08-2-.25-.83s1,.17,1.25,0c.25-.17,6-3.75,6-3.75Z"/>
          <path class="cls-7" d="M36.62-.34l-1.79.9-.41,1.51,2.03,1.06,2.38-1.06-.41-1.66s-1.24-.45-1.79-.75Z"/>
          <path class="cls-10" d="M36.62-.06l-1.62.75-.38,1.25,1.83,1.18,2.17-1.18-.38-1.37s-1.12-.37-1.62-.62Z"/>
          <polygon class="cls-5" points="50.82 -1.9 49.99 1.07 50.49 2.73 50.13 3.25 49.32 4.4 48.16 6.9 50.16 4.9 51.16 2.4 50.82 -1.9"/>
          <polygon class="cls-4" points="51.65 -3.96 50.16 .4 50.66 2.07 50.29 2.58 49.49 3.73 48.33 6.23 50.33 4.23 50.96 .31 51.65 -3.96"/>
          <path class="cls-11" d="M57.78-.94s3.45-2.78,4.45-2.44c1,.33,9.28,1.22,9.28,1.22l.67,3v4l-4.18,1.33-2.67.33-1.04-2.94-6.5-4.49Z"/>
          <path class="cls-10" d="M59.01-.71s2.77-1.83,3.55-1.57c.78.26,7.96.92,7.96.92l.52,2.34v3.12l-3.38,1.04-2.08.26-.52-2.6-6.05-3.51Z"/>
          <path class="cls-7" d="M60.59,0s4.38-1.74,4.99-1.54c.61.2,4.17.81,4.17.81l.4,1.82v2.43l-2.75.81-1.62.2-.41-2.03L60.59,0Z"/>
          <path class="cls-11" d="M61.28.35s3.83-2.05,4.3-1.89c.47.16,3.56,1.3,3.56,1.3l.32,1.42v1.9l-2.26.63-1.26.16-.32-1.58-4.34-1.94Z"/>
          <path class="cls-10" d="M61.82.63s3.68-1.63,4.05-1.51c.37.12,2.29,1.02,2.29,1.02l.76,1.11v1.48l-1.87.49-.99.12-.25-1.23-3.99-1.48Z"/>
          <polygon class="cls-5" points="9.99 -10.17 11.49 -7.33 11.83 -5.17 13.66 -4.5 13.83 -3 14.16 -1 13.83 .33 9.68 4.75 7.23 10.56 9.01 3.75 12.83 -.5 12.49 -3.17 11.33 -4.33 10.83 -7.33 9.99 -10.17"/>
          <g>
            <path class="cls-11" d="M66.74,17.5h-12l-4.67-7.83,2.54-13.05c3-.17,8.8,6.55,9.63,7.88,0,0,5.17,12.5,4.5,13Z"/>
            <path class="cls-10" d="M50.6,9.58c.19.31,4.16,6.97,4.42,7.42h11.24c-.22-1.44-2.35-7.14-4.48-12.31-.79-1.24-5.96-7.3-8.77-7.53-.17.79-2.33,12.07-2.41,12.42Z"/>
            <path class="cls-7" d="M51.13,9.49c.19.31,3.91,6.56,4.18,7.01h10.33c-.49-1.87-2.23-6.56-4.32-11.62-.65-1.01-5.59-7.15-8.31-7.72-.19.88-1.8,11.98-1.88,12.33Z"/>
            <path class="cls-9" d="M51.49,9.42c.18.31,3.84,6.14,4.1,6.58.5,0,8.77.25,9.9.25-.66-2.17-2.79-6.71-4.64-11.18-.51-.79-4.98-6.7-7.58-7.54-.2.95-1.71,11.53-1.79,11.88Z"/>
            <path class="cls-10" d="M53.13,4.9s-.48,4.17-.56,4.52c.18.31,3.04,5.64,3.31,6.08h8.4c-.74-2.31-2.2-6.17-3.88-10.24-.41-.61-3.78-5.14-6.26-6.17-.19.9-1,5.81-1,5.81Z"/>
            <path class="cls-11" d="M53.62,5s-.82,3.88-.9,4.23c.18.31,3.21,5.39,3.44,5.77h7.41c-.8-2.38-1.68-6.11-3.18-9.74-.25-.36-3.66-2.64-6.03-3.81-.19.9-.75,3.55-.75,3.55Z"/>
            <path class="cls-10" d="M54.11,5.1s-1.31,3.77-1.39,4.12c.18.31,3.5,4.89,3.73,5.27h6.43c-.82-2.36-2.04-5.55-3.37-8.78-.29-.35-2.66-2.33-4.78-3.51-.19.87-.61,2.89-.61,2.89Z"/>
            <polygon class="cls-11" points="52.61 -3.38 55.57 6.08 54.24 6.25 54.07 7.42 50.32 9.58 54.24 8 55.07 9.5 56.41 10.5 56.57 12 54.74 17 56.91 12.25 58.33 12.5 60.41 12.83 66.58 17 60.83 12.58 59.16 10.83 58.41 10.25 59.08 9.33 59.08 8.67 58.58 7.67 57.74 7.5 59.58 6.33 61.74 4.42 57.82 6.92 56.49 5.75 55.99 5.08 52.61 -3.38"/>
            <path class="cls-7" d="M57.57,7.5l-.5-.42-1.33-.17-.5,1,.83,2.08s.75.33,1,.33,1.17-.33,1.17-.33l.33-1.08-.75-1-.25-.42Z"/>
            <path class="cls-10" d="M57.24,7.25l-.5-.42-1.33-.17-.5,1,.83,2.08s.75.33,1,.33,1.17-.33,1.17-.33l.33-1.08-.75-1-.25-.42Z"/>
            <polygon class="cls-7" points="56.57 7.58 55.74 7.33 55.66 8.33 56.16 8.75 56.57 8.67 57.41 8.83 57.74 8.33 57.16 8.25 56.24 7.92 56.57 7.58"/>
          </g>
          <g>
            <path class="cls-11" d="M5.73,18.85l13.05-.74,4.56-8.26-2.71-12.27c-3.27.01-10.04,6.35-10.86,7.76,0,0-4.8,13.04-4.04,13.51Z"/>
            <path class="cls-10" d="M22.76,9.79c-.18.33-4.06,7.35-4.32,7.82-.57.03-11.28.64-12.22.69.14-1.48,2.08-7.41,4.07-12.8.77-1.32,6.9-6.94,9.95-7.35.23.79,2.42,11.28,2.53,11.64Z"/>
            <path class="cls-7" d="M22.18,9.74c-.18.33-3.82,6.92-4.08,7.39-.55.03-10.05.57-11.23.63.41-1.93,1.99-6.81,3.93-12.09.64-1.07,6.52-6.77,9.43-7.52.26.89,1.84,11.23,1.95,11.58Z"/>
            <path class="cls-9" d="M21.79,9.68c-.18.33-3.77,6.48-4.03,6.95-.55.03-9.52.79-10.75.86.57-2.24,2.59-7,4.31-11.66.51-.84,5.88-6.27,8.65-7.28.28.96,1.72,10.78,1.82,11.13Z"/>
            <path class="cls-10" d="M19.71,5.18s.79,4.21.9,4.56c-.18.32-2.94,5.93-3.19,6.39-.54.03-7.89.45-9.14.52.66-2.39,1.99-6.41,3.55-10.65.4-.64,4.67-4.6,7.31-5.81.27.9.57,4.99.57,4.99Z"/>
            <path class="cls-11" d="M19.19,5.32s1.15,3.89,1.25,4.25c-.18.33-3.14,5.68-3.36,6.09-.53.03-6.83.39-8.07.46.71-2.47,1.43-6.32,2.82-10.1.25-.38,3.81-2.91,6.3-4.25.27.91,1.05,3.56,1.05,3.56Z"/>
            <path class="cls-10" d="M18.66,5.45s1.67,3.76,1.78,4.11c-.18.32-3.48,5.19-3.71,5.6-.51.03-5.79.33-6.99.39.73-2.45,1.85-5.77,3.09-9.14.3-.37,2.74-2.53,4.97-3.87.26.88.86,2.91.86,2.91Z"/>
            <polygon class="cls-11" points="20.63 -2.42 17.13 6.54 18.59 6.63 18.85 7.8 23.07 9.78 18.7 8.41 17.9 9.99 16.51 11.09 16.43 12.62 18.75 17.6 16.08 12.9 14.56 13.24 12.31 13.71 5.88 18.33 11.84 13.48 13.54 11.6 14.32 10.96 13.54 10.06 13.49 9.38 13.97 8.34 14.86 8.12 12.79 7.04 10.31 5.22 14.74 7.53 16.11 6.26 16.61 5.55 20.63 -2.42"/>
            <path class="cls-7" d="M15.05,8.11l.52-.46,1.44-.25.61.99-.77,2.17s-.79.39-1.07.4c-.27.02-1.29-.27-1.29-.27l-.43-1.08.75-1.06.24-.44Z"/>
            <path class="cls-10" d="M15.39,7.83l.52-.45,1.44-.25.61.99-.77,2.17s-.79.38-1.07.4c-.27.02-1.29-.27-1.29-.27l-.43-1.08.75-1.06.24-.44Z"/>
            <polygon class="cls-7" points="16.14 8.13 17.03 7.82 17.19 8.84 16.67 9.29 16.21 9.23 15.31 9.45 14.92 8.96 15.55 8.84 16.52 8.45 16.14 8.13"/>
          </g>
        </g>
      </g>
    </pattern>
  </defs>
  <g id="Layer_1-2" data-name="Layer 1">
    <rect class="cls-1" width="270" height="199"/>
  </g>
</svg>