<?xml version="1.0" encoding="UTF-8"?>
<svg id="Layer_1" data-name="Layer 1" xmlns="http://www.w3.org/2000/svg" viewBox="0 0 37.05 105.08">
  <defs>
    <style>
      .cls-1 {
        fill: #000;
      }

      .cls-1, .cls-2 {
        stroke-width: 0px;
      }

      .cls-2 {
        fill: #fff;
      }
    </style>
  </defs>
  <path class="cls-1" d="M10.89,25.97c-3.28-1.65-6.44-3.26-9.63-4.81-.75-.37-1.01-.79-1-1.64.04-5.71.02-11.42.02-17.13,0-.46,0-.93,0-1.61,5,2.49,9.79,4.88,14.84,7.4,0-1.83-.05-3.41.01-4.98.06-1.67,1.29-2.95,2.89-3.16,1.66-.22,3.2.63,3.71,2.18.21.62.21,1.33.22,2,.03,1.22,0,2.45,0,3.95,5-2.49,9.79-4.88,14.73-7.34.04.5.09.88.09,1.25,0,5.83-.02,11.66.03,17.49,0,.86-.3,1.26-1.05,1.62-2.88,1.39-5.72,2.84-8.57,4.28-.31.16-.62.33-1.01.54,1.35,3.25,2.68,6.45,4.02,9.64,2.16,5.15,4.34,10.29,6.46,15.46.29.71.38,1.55.38,2.34.02,11.06.05,22.12,0,33.18-.04,9.7-7.57,17.84-16.97,18.42-10.11.62-18.57-6.19-19.92-16.07-.1-.75-.12-1.51-.12-2.27,0-11.02-.02-22.04.02-33.06,0-1.04.25-2.15.65-3.11,3.35-8.15,6.76-16.28,10.21-24.55ZM16.61,65.61c-.8-1.43-1.69-3.03-2.59-4.63-.91-1.62-1.84-3.24-2.75-4.85-4.55,2.43-7.92,8.42-7.2,12.75h10.86c.57-1.1,1.06-2.07,1.68-3.28ZM22.12,68.82h11.02c-.21-5.6-2.61-9.77-7.33-12.77-1.88,3.33-3.7,6.57-5.4,9.58.62,1.14,1.11,2.07,1.72,3.19ZM16.9,71.85c-1.75,3.1-3.56,6.32-5.36,9.53,3.49,2.52,10.51,2.51,13.96,0-1.81-3.21-3.63-6.43-5.37-9.52h-3.23ZM17.05,68.64c.04.91.52,1.48,1.39,1.52.85.04,1.44-.43,1.53-1.34.08-.84-.6-1.6-1.43-1.58-.88.03-1.38.53-1.49,1.4Z"/>
  <path class="cls-2" d="M16.61,65.61c-.62,1.21-1.12,2.18-1.68,3.28H4.07c-.71-4.33,2.66-10.32,7.2-12.75.92,1.61,1.84,3.23,2.75,4.85.9,1.6,1.79,3.2,2.59,4.63Z"/>
  <path class="cls-2" d="M22.12,68.82c-.6-1.12-1.1-2.05-1.72-3.19,1.7-3.01,3.52-6.25,5.4-9.58,4.72,3,7.12,7.17,7.33,12.77h-11.02Z"/>
  <path class="cls-2" d="M16.9,71.85h3.23c1.74,3.09,3.56,6.31,5.37,9.52-3.45,2.52-10.47,2.53-13.96,0,1.81-3.21,3.62-6.43,5.36-9.53Z"/>
  <path class="cls-2" d="M17.05,68.64c.11-.86.6-1.37,1.49-1.4.83-.03,1.51.74,1.43,1.58-.09.91-.68,1.39-1.53,1.34-.86-.04-1.35-.61-1.39-1.52Z"/>
</svg>