<?xml version="1.0" encoding="UTF-8"?>
<svg id="Layer_2" data-name="Layer 2" xmlns="http://www.w3.org/2000/svg" viewBox="0 0 478.2 140.6">
  <defs>
    <style>
      .cls-1 {
        fill: #000;
        stroke-width: 0px;
      }
    </style>
  </defs>
  <g id="Layer_1-2" data-name="Layer 1">
    <g>
      <path class="cls-1" d="M58,0c14,0,25.67,4.73,35,14.2,1.2-7.87,5.2-11.8,12-11.8,8.27,0,12.4,4,12.4,12,0,1.33-.27,4-.8,8-.8,6-1.2,10.07-1.2,12.2,0,2.4.13,4.2.4,5.4.27,4.27.4,6.67.4,7.2,0,3.47-1.53,6.37-4.6,8.7-3.07,2.33-7,3.5-11.8,3.5-7.73,0-12.4-3.8-14-11.4-1.6-7.6-3.9-12.83-6.9-15.7-3-2.87-7.77-4.3-14.3-4.3-8.67,0-15.37,4.03-20.1,12.1-4.73,8.07-7.1,19.5-7.1,34.3,0,12.53,2.3,22.3,6.9,29.3,4.6,7,10.97,10.5,19.1,10.5,5.2,0,9.5-1.5,12.9-4.5,3.4-3,5.1-6.77,5.1-11.3,0-5.6-2.33-8.4-7-8.4h-1.2c-.53.13-1,.2-1.4.2-2.13.27-3.33.4-3.6.4-2.67,0-4.93-1.17-6.8-3.5-1.87-2.33-2.8-5.23-2.8-8.7,0-4,1.33-7.2,4-9.6,2.67-2.4,6.13-3.6,10.4-3.6,2.8,0,7.03.37,12.7,1.1,5.67.73,9.97,1.1,12.9,1.1,4.4,0,9.27-.33,14.6-1,4.27-.53,7.2-.8,8.8-.8,4.27,0,7.7,1.3,10.3,3.9,2.6,2.6,3.9,6.1,3.9,10.5,0,3.87-.93,7.1-2.8,9.7-1.87,2.6-4.2,3.9-7,3.9l-4.8-.4c-3.6,0-5.4,3-5.4,9,0,2.53.07,5.2.2,8l.4,8.6c.13,2.93.2,5.73.2,8.4,0,8.93-4.93,13.4-14.8,13.4-9.33,0-14-3.27-14-9.8v-1.2c-9.2,7.33-19.67,11-31.4,11-10.27,0-19.93-2.7-29-8.1-9.07-5.4-15.67-12.43-19.8-21.1C2.67,100.33,0,87.47,0,72.8c0-22.4,5.2-40.13,15.6-53.2C26,6.53,40.13,0,58,0Z"/>
      <path class="cls-1" d="M231.4,140.4c-10.93,0-18.27-4.4-22-13.2-9.33,8.8-20.4,13.2-33.2,13.2-10.53,0-18.93-2.77-25.2-8.3-6.27-5.53-9.4-12.9-9.4-22.1,0-14,6.07-23.07,18.2-27.2,5.2-1.73,11.2-3.2,18-4.4,9.47-1.6,15.9-3.43,19.3-5.5,3.4-2.07,5.1-5.23,5.1-9.5,0-3.07-1.3-5.63-3.9-7.7-2.6-2.07-5.83-3.1-9.7-3.1-4.4,0-6.6,1.4-6.6,4.2,0,.93.07,1.87.2,2.8v.8c0,3.73-1.57,6.87-4.7,9.4-3.13,2.53-7.03,3.8-11.7,3.8-5.33,0-9.73-1.6-13.2-4.8-3.47-3.2-5.2-7.2-5.2-12,0-7.2,3.8-12.87,11.4-17,7.6-4.13,18.07-6.2,31.4-6.2,14.4,0,25.13,2.2,32.2,6.6,7.6,4.8,11.4,13.73,11.4,26.8v41.4c0,4.27,1.07,6.4,3.2,6.4,1.07,0,2.07-.07,3-.2.4-.13.87-.2,1.4-.2,3.07,0,5.67,1.07,7.8,3.2,2.13,2.13,3.2,4.73,3.2,7.8,0,4.4-1.97,8-5.9,10.8-3.93,2.8-8.97,4.2-15.1,4.2ZM202.4,97.6v-4.4c-.93.53-6.8,2.2-17.6,5-7.33,1.87-11,4.73-11,8.6,0,6.13,3.6,9.2,10.8,9.2,11.87,0,17.8-6.13,17.8-18.4Z"/>
      <path class="cls-1" d="M261.6,114l49.6-53.8h-20.4c-5.07,0-7.6,1.27-7.6,3.8,0,.53.2,2,.6,4.4,0,.27.07.6.2,1v1c0,3.33-1.2,6.1-3.6,8.3-2.4,2.2-5.4,3.3-9,3.3-7.6,0-11.4-4.07-11.4-12.2,0-1.2.13-3.47.4-6.8.27-2.93.33-5.27.2-7l-.8-10v-1.2c0-5.6,3.33-8.4,10-8.4h2.2l23,.6c4.67.13,9.8.2,15.4.2,7.87,0,16.67-.2,26.4-.6h2c9.87,0,14.8,4.6,14.8,13.8,0,4.53-1.53,8.47-4.6,11.8l-3.8,4.2-44.2,47.6h13.6c5.2,0,8.53-.13,10-.4,4.27-.8,6.4-2.8,6.4-6,0,.8-.13-1.2-.4-6v-1.2c0-7.46,3.93-11.2,11.8-11.2s12,4.47,12,13.4v3.4c-.8,8-1.2,12.2-1.2,12.6,0,1.33.13,3.23.4,5.7.27,2.47.4,4.37.4,5.7,0,2.93-.8,4.93-2.4,6s-4.6,1.6-9,1.6h-2.6l-9.6-.4-14.6-.4c-9.73-.27-16.27-.4-19.6-.4-2.93,0-7.33.2-13.2.6-5.87.4-10.27.6-13.2.6-4,0-7.2-1.1-9.6-3.3-2.4-2.2-3.6-5.17-3.6-8.9,0-4,1.67-7.8,5-11.4Z"/>
      <path class="cls-1" d="M457.2,140.4c-10.93,0-18.27-4.4-22-13.2-9.33,8.8-20.4,13.2-33.2,13.2-10.53,0-18.93-2.77-25.2-8.3-6.27-5.53-9.4-12.9-9.4-22.1,0-14,6.07-23.07,18.2-27.2,5.2-1.73,11.2-3.2,18-4.4,9.47-1.6,15.9-3.43,19.3-5.5,3.4-2.07,5.1-5.23,5.1-9.5,0-3.07-1.3-5.63-3.9-7.7-2.6-2.07-5.83-3.1-9.7-3.1-4.4,0-6.6,1.4-6.6,4.2,0,.93.07,1.87.2,2.8v.8c0,3.73-1.57,6.87-4.7,9.4-3.13,2.53-7.03,3.8-11.7,3.8-5.33,0-9.73-1.6-13.2-4.8-3.47-3.2-5.2-7.2-5.2-12,0-7.2,3.8-12.87,11.4-17,7.6-4.13,18.07-6.2,31.4-6.2,14.4,0,25.13,2.2,32.2,6.6,7.6,4.8,11.4,13.73,11.4,26.8v41.4c0,4.27,1.07,6.4,3.2,6.4,1.07,0,2.07-.07,3-.2.4-.13.87-.2,1.4-.2,3.07,0,5.67,1.07,7.8,3.2,2.13,2.13,3.2,4.73,3.2,7.8,0,4.4-1.97,8-5.9,10.8-3.93,2.8-8.97,4.2-15.1,4.2ZM428.2,97.6v-4.4c-.93.53-6.8,2.2-17.6,5-7.33,1.87-11,4.73-11,8.6,0,6.13,3.6,9.2,10.8,9.2,11.87,0,17.8-6.13,17.8-18.4Z"/>
    </g>
  </g>
</svg>