<?xml version="1.0" encoding="UTF-8"?>
<svg id="Layer_2" data-name="Layer 2" xmlns="http://www.w3.org/2000/svg" viewBox="0 0 69.05 60.21">
  <defs>
    <style>
      .cls-1 {
        fill: #000;
        stroke-width: 0px;
      }
    </style>
  </defs>
  <g id="Layer_1-2" data-name="Layer 1">
    <path class="cls-1" d="M34.63,6.15c3.26-3.33,7.03-5.59,11.72-6.05,12.86-1.24,23.83,9.85,22.6,22.76-.59,6.17-3.27,11.36-7.67,15.48-7.4,6.92-15.07,13.54-22.7,20.2-2.29,2-5.27,2.28-7.34.44-8.68-7.71-17.7-15.13-25.67-23.54C-1.85,27.61-1.59,15.94,4.78,7.8,11.48-.75,25.31-3.33,33.77,5.47c.22.23.5.4.86.68ZM34.61,16.8c-1.07-1.68-1.94-3.15-2.91-4.56-5.78-8.44-16.5-8.62-22.65-.38-4.77,6.39-4.1,15.18,2.48,21.7,6.96,6.89,14.48,13.21,21.83,19.69.48.42,1.99.42,2.48,0,7.36-6.48,14.8-12.88,21.86-19.67,4.71-4.53,6.67-10.33,4.83-16.84-1.62-5.75-5.55-9.37-11.44-10.58-6.03-1.24-10.52,1.23-13.75,6.27-.88,1.37-1.72,2.76-2.73,4.38Z"/>
  </g>
</svg>