<?xml version="1.0" encoding="UTF-8"?>
<svg id="Layer_2" data-name="Layer 2" xmlns="http://www.w3.org/2000/svg" viewBox="0 0 44.97 8.9">
  <defs>
    <style>
      .cls-1 {
        fill: #000;
        stroke-width: 0px;
      }
    </style>
  </defs>
  <g id="Layer_1-2" data-name="Layer 1">
    <g>
      <path class="cls-1" d="M4.48,8.89C2.01,8.9.04,6.97,0,4.52-.04,1.97,2.03-.06,4.59,0c2.46.06,4.39,2.05,4.36,4.5-.03,2.45-2,4.39-4.47,4.39Z"/>
      <path class="cls-1" d="M26.96,4.39c.03,2.45-1.89,4.44-4.36,4.5-2.57.06-4.63-1.96-4.59-4.51C18.04,1.93,20.02,0,22.49,0c2.47,0,4.44,1.94,4.47,4.39Z"/>
      <path class="cls-1" d="M44.97,4.57c-.06,2.45-2.06,4.36-4.53,4.33-2.56-.03-4.55-2.14-4.41-4.69C36.15,1.77,38.21-.09,40.67,0c2.46.1,4.36,2.11,4.29,4.56Z"/>
    </g>
  </g>
</svg>