<?xml version="1.0" encoding="UTF-8"?>
<svg id="Layer_2" data-name="Layer 2" xmlns="http://www.w3.org/2000/svg" viewBox="0 0 53.99 59.43">
  <defs>
    <style>
      .cls-1 {
        fill: #000;
        stroke-width: 0px;
      }
    </style>
  </defs>
  <g id="Layer_1-2" data-name="Layer 1">
    <path class="cls-1" d="M26.95,38.34c-5.03,4.72-9.99,9.37-14.94,14.02-2.12,1.99-4.12,4.12-6.39,5.92-.96.76-2.72,1.42-3.66,1.03-.94-.39-1.86-2.14-1.86-3.3C-.03,38.61,0,21.21.01,3.8.02,1.06,1.04.02,3.76.01c15.48-.02,30.97-.02,46.45,0,2.73,0,3.77,1.03,3.77,3.76.02,17.41.04,34.81-.07,52.22,0,1.16-.9,2.91-1.84,3.31-.94.4-2.79-.2-3.66-.99-6.57-5.98-13.01-12.12-19.48-18.2-.59-.56-1.22-1.09-1.97-1.76ZM47.77,49.6V6.11H6.22v43.49c6.1-5.74,11.9-11.2,17.72-16.66,2.51-2.36,3.62-2.36,6.12,0,5.82,5.46,11.62,10.93,17.72,16.67Z"/>
  </g>
</svg>