<?xml version="1.0" encoding="UTF-8"?>
<svg id="Layer_2" data-name="Layer 2" xmlns="http://www.w3.org/2000/svg" viewBox="0 0 65.94 57.73">
  <defs>
    <style>
      .cls-1 {
        fill: #000;
        stroke-width: 0px;
      }
    </style>
  </defs>
  <g id="Layer_1-2" data-name="Layer 1">
    <path class="cls-1" d="M33.05.02c9.58,0,19.15,0,28.73,0,4.06,0,5.23,2.08,3.15,5.58-9.85,16.53-19.73,33.04-29.58,49.57-.83,1.4-1.68,2.79-3.6,2.52-2.02-.28-2.48-1.86-2.89-3.57-2.08-8.7-4.17-17.4-6.4-26.06-.37-1.43-1.2-2.93-2.25-3.98C14.18,18.03,8.02,12.08,1.89,6.1.74,4.97-.49,3.86.2,2.04.91.15,2.55,0,4.32,0c9.58.04,19.15.02,28.73.02ZM33.28,46.93c7.22-12.1,14.08-23.59,20.95-35.11-.34-.15-.43-.22-.47-.2-8.17,4.46-16.34,8.91-24.46,13.45-.49.28-.92,1.37-.79,1.94,1.47,6.44,3.06,12.86,4.76,19.92ZM25.04,20.53c8.67-4.79,17.07-9.43,26.06-14.4H11.26c4.52,4.72,9.08,9.48,13.79,14.4Z"/>
  </g>
</svg>