<?xml version="1.0" encoding="UTF-8"?>
<svg id="Layer_1" data-name="Layer 1" xmlns="http://www.w3.org/2000/svg" viewBox="0 0 254.6 332.93">
  <defs>
    <style>
      .cls-1 {
        fill: none;
        stroke: #000;
        stroke-linecap: round;
        stroke-linejoin: round;
        stroke-width: 2px;
      }
    </style>
  </defs>
  <path class="cls-1" d="M243.1,146.43c-1.81-1.27-1.5-3.19-1.5-5,0-7.33-.31-14.68.07-22,.52-9.85,1.53-19.68,2.5-29.5.14-1.39.98-2.95,1.98-3.96,3.88-3.95,4.85-8.75,4.99-14.05.4-15.19-3.78-29.01-11.49-42.03-8.81-14.88-22.62-22.18-38.56-26.45-11.34-3.04-23.04-2.76-34.47-1.79-14.67,1.24-28.67,5.92-42.02,12.27-18.73,8.92-35.87,20.1-49.99,35.51-3.68,4.02-7.32,8.11-9.02,13.48"/>
  <path class="cls-1" d="M14.1,226.93c-1.76,2.93-1.68,4.01-1.04,8.01,3.61,22.45,13.47,42.05,27.04,59.99,6.05,8,12.82,15.09,21.41,20.63,9.6,6.18,20.1,8.2,30.52,5.61,19.34-4.81,36.61-14.19,51.05-28.26,2.76-2.69,4.91-5.76,4.42-10.26-4.27-.78-6.98,1.21-9.4,3.79-6.06,6.45-11.77,13.27-19.02,18.48-8.06,5.8-17.3,8.3-26.99,9.51-7.84.98-15.67,2-23.5,3"/>
  <path class="cls-1" d="M253.6,283.43c-11.75,3.64-23.42,7.21-36,7.14-9.78-.06-13.55-5.09-16.05-12.62-1.79-5.4-3.03-10.93-5.82-16.09-4.26-7.87-11.34-9.45-19.13-10.46-10.14-1.32-20.48-.16-30.52-2.9-6.3-1.72-11.89-4.49-16.45-9.1-4.97-5.03-9.59-10.41-14.58-15.42-2.45-2.47-5.39-4.4-8.57-.4,2.56,8.42,9.62,13.27,16.26,17.64,10.45,6.88,21.48,12.97,33.83,16.31,11.21,3.03,22.04,4.28,32.53-2.09"/>
  <path class="cls-1" d="M143.6,84.93c-3.61-4.57-9.12-6.02-14-8.49-11.41-5.76-23.56-9.65-36.03-11.8-11.16-1.92-22.57-1.78-33.98-.34-11.03,1.39-21.2,4.68-30.46,10.67-14.07,9.08-21.48,22.77-25.44,38.49-2.26,8.99-3.75,18.11-1.71,27.51.56,2.57,1.69,4.6,3.19,6.42,1.76,2.12,3.48,4.04,2.97,7.06-.08.46.18,1.34.48,1.44,6.09,2,5.44,8.77,8.98,12.55"/>
  <path class="cls-1" d="M245.6,93.43c.17.17.47.33.48.5.55,12.01,1.39,24.01-.43,36.01-.6,3.96.13,7.96-.89,12.03-1.22,4.88-2.42,9.82-2.87,14.94-.25,2.86-.44,5.63-.46,8.52-.04,5.17-.57,10.49-1.92,15.47-6.7,24.68-18.37,46.65-36.39,65.03-3.61,3.68-8.04,6.28-12.01,9.49"/>
  <path class="cls-1" d="M168.6,151.43c-8.27-2.96-16.74-5.08-25.5-6.04-3-.33-5.94-.91-9-1.03-12.99-.53-25.16,2.87-36.97,7.65-7.22,2.92-14.73,4.82-22.03,7.43"/>
  <path class="cls-1" d="M174.1,145.93c-1,1.83-2.08,3.63-2.99,5.51-3.31,6.85-7.37,6.82-14.48,5.79-8.99-1.3-17.9-3.46-27.02-2.72-10.34.84-20.31,3.15-27.99,10.94-4.2,4.26-4.68,10.47-.94,14.92,1.21,1.44,2.05,2.99,2.89,4.58.52.99.84,2.22,2.03,2.46,9.43,1.83,18.25,7.43,28.52,4.11,4.73-1.53,8.87-3.75,12.47-7.08"/>
  <path class="cls-1" d="M154.6,110.93c-.73-7.69-6.72-10.87-12.56-13.37-12.22-5.23-25.04-5.31-37.95-2.65-4.94,1.02-9.9,1.72-15,1.62-1.86-.04-2.92-1.33-4.5-1.6"/>
  <path class="cls-1" d="M9.6,156.93c.59,16,3.02,31.96,1.87,47.99-.52,7.34-.36,14.45,1.63,21.51"/>
  <path class="cls-1" d="M43.1,164.43c-2.4-3.16-5.73-4.11-9.5-4-1.22.04-2.41-.32-3.06,1.47-1.56,4.31-5.47,5.65-9.46,6.43-1.3.25-2.22.62-3.06,1.86,3.15,9.53,10.07,14.1,20.06,15.37,4.77.61,9.3,1.12,14.03-.1,6.13-1.58,7.14-4.07,2.96-8.52-2.13-2.27-4.08-4.91-7.47-5.53"/>
  <path class="cls-1" d="M250.1,70.93c-3.78-3.73-8.66-2.88-12.98-2.36-10.91,1.31-21.44,4.49-31.49,8.93-9.05,4-14.99,11.57-20.22,19.34-7.65,0-14.87-1-21.77-3.52-1.13-.41-1.71.1-2.54.12"/>
  <path class="cls-1" d="M194.1,173.43c.01-2.28-.57-4.98,1.55-6.43,4.44-3.04,3.25-7.2,2.36-11.05-1.04-4.53-4.08-8.39-5.66-12.61-2.54-6.76-5.35-13.6-6.22-20.91-.15-1.25-.75-2.04-1.38-3.09-6.44-10.71-16.39-18.11-25.43-26.1-4.91-4.34-11.73-7.14-19.18-8.13-8.2-1.09-16.37-2.27-24.53-1.55-11.22,1-22.42,2.68-32.51,8.36"/>
  <path class="cls-1" d="M37.1,136.93c8.94,1.3,16.33,5.64,22.39,12.1,1.48,1.58,3.06,3.26,4.3,5.28,1.82,2.97,4.26,5.68,8.26,6.79,3.65,1.01,5.17,3.72,4.88,8.35-.25,4.07,1.96,8.48,3.74,12.45,5.15,11.47,8.98,23.4,11.66,35.59.9,4.12,3.16,8.94.27,13.44"/>
  <path class="cls-1" d="M244.6,86.93c-3.17-.83-6.38-1.52-9.49-2.53-6.84-2.21-13.32-.56-19.47,2.11-7.76,3.37-15.22,7.41-23.52,9.48-1.94.49-3.68.53-5.52-.07"/>
  <path class="cls-1" d="M243.1,92.93c-2.17.72-2.74,2.61-3.54,4.48-1.87,4.39-4.08,8.63-5.93,13.03-3.67,8.68-11.04,12.04-19.54,12.81-5.07.46-10.36,1.07-15.51-.75-3.71-1.31-3.5-3.35-1.97-6.07,1.68-2.98,4.09-5.63,7.08-6.8,2.44-.96,3.56-2.9,5.42-4.2"/>
  <path class="cls-1" d="M239.6,163.93c-3.55,7.18-7.23,14.31-13.05,19.94-2.82,2.72-6.85,4.8-7.73,8.61-.95,4.07-3.21,7.17-5.28,10.41-4.78,7.47-9.63,14.94-15.05,21.96-3.22,4.17-7,8.04-13.39,7.69-7.83-.43-9.14-1.66-7.37-9.65,11.27.94,18.86-5.73,25.87-13.46,1.45-1.6-.43-2.98-.4-4.59,1.02-1.11,2.5-.88,3.91-.9"/>
  <path class="cls-1" d="M7.6,156.93c-1.46,1.44-.98,3.29-.99,5-.03,8.33-.51,16.71.13,24.99.57,7.35.35,14.88,2.85,22.01"/>
  <path class="cls-1" d="M54.1,111.93c-3.47-1.42-5.58-4.46-7.94-7.06-6.32-6.95-10.4-6.09-14.96,3.6-3.06,6.49-2.1,13.41.5,19.91.8,2,1.94,3.89,2.4,6.04"/>
  <path class="cls-1" d="M64.1,64.43c-3.58,9.09-2.78,18.6-2.41,28,.28,7.08-1.42,13.2-6.09,18.5"/>
  <path class="cls-1" d="M116.1,178.93c2.39-1.81,1.99-6.33,6-6.46,4.05-.13,8.65-1.09,11.89,1.59,5.12,4.23,8.91.98,13.79-1.16-4.25-4.97-9.68-6.21-15.19-6.38-12.56-.41-22.83,4.25-30,14.91"/>
  <path class="cls-1" d="M209.1,103.43c1.19,2.44,3.43,2.06,5.5,1.98,2.89-.11,5.24.57,6.52,3.51,1.27,2.91.4,5.51-1.59,7.43-2.01,1.94-4.28,2.16-7.5,1.35-4.92-1.23-5.43-4.88-6.93-8.28"/>
  <path class="cls-1" d="M144.1,113.43c-7.5-9.45-32.1-11.32-38.08-1.87,1.39,2.97,5.44,1.8,7.08,4.37"/>
  <path class="cls-1" d="M14.6,227.93c7.39,14.96,18.81,26.05,33,34.5"/>
  <path class="cls-1" d="M206.1,199.93c-2.62-4.37-6.69-6.44-11.47-5.36-4.38.99-8.71.98-13.03.79-10.3-.46-18.07,4.12-24.48,11.59-3.29,3.83-2.61,5.99,1.96,8.51,5.21,2.87,11.14,3.63,16.52,5.97"/>
  <path class="cls-1" d="M223.1,185.93c.26-5.18,1.45-10.41-.53-15.49-.81-2.07-1.66-4.26-3.03-5.97-4.21-5.26-7.28-5.35-11.92-.53-3.19,3.31-6.21,6.79-9.26,10.15,3.38,1.01,3.79,4.56,5.4,7.1-4.22,6.08-6,6-11.16-.27"/>
  <path class="cls-1" d="M203.1,204.43c-3.14-.65-6.06.76-8.42,2.13-9.3,5.41-19.2,3.92-29.08,3.37"/>
  <path class="cls-1" d="M76.1,170.43c-5.97,4.49-14.07,1.52-18.4-3.09-3.32-3.54-7.05-6.95-8.69-11.88-.4-1.2-1.76-2.64-2.94-2.93-7.84-1.97-14.84-7.49-23.46-6.04-4.89.82-9.68,2.27-14.51,3.44"/>
  <path class="cls-1" d="M175.1,174.93c1.79.12,2.3-1.3,3.27-2.68-3.04-3.46-6.81-4.82-11.27-4.85-2.15-.01-4.69-.26-5.35,2.07-.57,1.99-.49,4.34.81,6.49,3.2,5.29,8.57,5.26,13.55,5.36,7.08.14,11.88,3.66,15.32,9.22.61.99,1.23,2.54,1.68,3.89"/>
  <path class="cls-1" d="M106.6,123.43c10.59,9.17,22.22,9.4,34.5,4"/>
  <path class="cls-1" d="M42.6,167.43c.98,1.83,3.82,1.28,4.33,4.4-1.34,7.09-4.13,9.62-10.33,8.6-3.79-.62-5.22-2.67-5.01-7,.17-3.56,2.06-4.96,5.51-5.06,2.04-.06,5.16,1.42,5.16-2.94,0-.95,1.93-1.54,3.36-.52,6.12,4.39,13.29,7.29,18.49,13.01,4.54,4.99,4.54,10.54,2.48,16.5-2.6,7.5-7.89,13.68-10.21,21.44-1.08,3.62.24,7.21-1.27,10.57"/>
  <path class="cls-1" d="M85.6,273.43c-3.42,6.48-6.44,13.08-10.83,19.13-5.92,8.18-14.04,10.67-23.17,11.88-.68.09-1.33.32-2,.49"/>
  <path class="cls-1" d="M91.6,237.93c-3.15,4.62-8.33,5.15-13.01,5.34-9.1.37-14.21,5.05-16.99,13.16"/>
  <path class="cls-1" d="M87.1,268.93c1.62-2.07,1.08-5.06,3.12-7.12-6.21-3.13-12.58-4.97-19.62-4.45-3.65.27-7.34.25-11.02-.83-3.49-1.02-7.41,1.33-11.47,5.9,2.28,9.65,7.74,16.57,16.98,20.56,3.9,1.69,7.57,2.19,11.56.51.79-.33,1.97.26,2.97.43"/>
  <path class="cls-1" d="M55.1,111.93c-2.1,1.75-3.04,4.31-4.58,6.44-1.94,2.68-.88,4.35,1.09,6.05,2.3,1.99,4.92,1.11,6.33-.62,1.15-1.41,2.18-3.28,2.92-5.27,1.32-3.54.47-4.7-2.76-5.05-.92-.1-1.46-.45-1.99-1.05"/>
  <path class="cls-1" d="M44.6,151.43c-1.92-6.07-6.35-10.66-9.55-15.97-1.31-2.17-3.98-.89-5.98-1.4-5.54-1.4-11.17-2.54-16.96-2.7-3.82-.11-7.26.67-10.5,2.57"/>
  <path class="cls-1" d="M51.1,266.93c2.44-.02,4.71-.12,7.05,1.42,8.41,5.53,18.22,3.46,27.46,4.48.42.05,1-1.39,1.82-2.61-1.7-4.2-6.35-3.37-9.77-2.55-3.53.84-5.78.8-8.65-1.64-4.73-4.02-11.08-3.54-15.41.4"/>
  <path class="cls-1" d="M196.1,200.93c-4.8.45-9.5.86-13.09,4.92-1.37,1.54-4.28,1.14-5.84.43-4.27-1.96-7.94-1.06-10.99,1.74-3,2.75-6.1,2.73-9.58,1.91"/>
  <path class="cls-1" d="M89.6,260.93c3.54-8.86,4.43-18.05,3.56-27.51-.2-2.18-1.55-3.8-3.06-3.83-2.8-.06-5.66-.94-8.57.71-2.13,1.21-3.67,1.88-2.46,4.64.97,2.2-.63,3.55-1.95,5.01-1.75,1.94-4.02,1.03-5.46.35-4.77-2.25-8.78-5.71-12.55-9.38-.76-.74-1.3-1.7-2.02-2.48-1.48-1.58-3.16-3.21-5.46-1.96-2.97,1.62-.15,3.88.19,5.4,1.22,5.46,8.76,10.65,13.79,10.61,2.33-.02,3.33-.73,3-3.06"/>
  <path class="cls-1" d="M116.6,115.43c2.38,1.18,4.08,2.91,5.04,5.49,1.61,4.34,4.88,6.48,7.96,5.51,5.24-1.64,7.37-5.37,6-10.5-.98-3.66-5.19-6.36-8.99-5.47-6.67,1.56-12.67,4.41-17.54,9.43-1.76,1.82-3.27,4.73-6.71,3.03"/>
  <path class="cls-1" d="M62.6,317.93c-8.83,2.76-17.28,6.13-23,14"/>
  <path class="cls-1" d="M136.6,176.43c-1.98,2.11-4.29,3.57-5.22,6.94-1.5,5.46-8.24,5.53-12.79.56-.32-.35-.66-.67-1-1"/>
  <path class="cls-1" d="M234.1,105.93c-4.59-1.32-9.8-1.32-12.1-6.96-.93-2.28-3.42-2.06-5.39-1.02-10.88,5.73-22.21,10.84-30.01,20.98"/>
  <path class="cls-1" d="M192.1,145.43c-1.5,5.88-1.82,11.65.35,17.56.63,1.72,1.7,2.69,2.65,3.94"/>
  <path class="cls-1" d="M97.6,172.93c-6.67-1.83-13.33-3.67-20-5.5"/>
  <path class="cls-1" d="M168.6,156.93c3.22,3.81,7.11,2.61,11.15,1.93-.6-4.29-4.74-4.16-6.65-6.43"/>
  <path class="cls-1" d="M90.6,262.43c4.75,3.05,8.68,6.61,7.75,13.37-4.74,2.46-9.62,5.62-15.75,5.13"/>
  <path class="cls-1" d="M197.6,173.93c-1.33,0-3.21-.57-3.9.1-2.64,2.54-5.98,2.2-9.01,3.16-4.42,1.4-7.52,1.6-10.66-2.2-1.93-2.34-4.59-.4-6.93-.06"/>
  <path class="cls-1" d="M79.1,92.43c-2.02,1.64-4.93,2.22-6.16,5.34,2.23,1.85,4.31,2.22,7.2.74,4.47-2.28,5.34-3.58,2.33-6.98-1.43-1.62-1.74-3.77-3.38-5.11"/>
  <path class="cls-1" d="M178.1,231.93c-3.4,5.85-4.44,12.72-8,18.5"/>
  <path class="cls-1" d="M136.6,121.43c1.64,2.03,3.9,3.43,6.43,5.14,1.31-.65,4.83.72,5.92-1.71,1.92-4.28,6.23-7.58,5.65-12.93"/>
  <path class="cls-1" d="M66.1,157.93c-4.43,1.69-8.36-.96-12.46-1.72-1.27-.23-2.67-.58-4.04-.78"/>
  <path class="cls-1" d="M171.1,106.43c-6.32,3.14-13.34,3.97-20.02,5.94-4.99,1.48-10.19,2.31-14.48,5.56"/>
  <path class="cls-1" d="M112.1,274.93c-3.3-.04-6.39-.07-9.58-1.86-4.37-2.45-9.66-.45-14.42-1.64"/>
  <path class="cls-1" d="M218.1,192.43c-4.53,3.8-11.07,5.23-13.5,11.5"/>
  <path class="cls-1" d="M184.1,97.43c-1.47,4.69-6.22,5.47-9.5,8"/>
  <path class="cls-1" d="M223.1,101.93c-3.53,1.49-7.57-.71-11,1.5"/>
  <path class="cls-1" d="M108.6,175.43c2.93,1.87,7.15,1.9,8.62,6.38-1.95,1.95-4.04,4.03-6.12,6.12"/>
  <path class="cls-1" d="M106.1,175.43c-2.39-1.07-4.82-2-7.5-2"/>
  <path class="cls-1" d="M139.6,177.43c1.83,1.5,3.8,2.87,5.46,4.54,1.58,1.6,3.23,2.67,5.54,2.46"/>
  <path class="cls-1" d="M199.1,163.43c3.84-.73,3.63,2.14,4,4.5"/>
  <path class="cls-1" d="M29.6,164.93c4,.33,8,.67,12,1"/>
  <path class="cls-1" d="M146.6,114.43c1.33,2,2.67,4,4,6"/>
  <path class="cls-1" d="M193.1,195.43c1.64,3.28,3.77,6.11,7,8"/>
</svg>