<?xml version="1.0" encoding="UTF-8"?>
<svg id="Layer_2" data-name="Layer 2" xmlns="http://www.w3.org/2000/svg" viewBox="0 0 13.43 35.83">
  <defs>
    <style>
      .cls-1 {
        fill: #000;
        stroke-width: 0px;
      }
    </style>
  </defs>
  <g id="Layer_1-2" data-name="Layer 1">
    <g>
      <path class="cls-1" d="M10.41,11.79c-.03.44-.09.87-.09,1.31,0,6.6,0,13.19,0,19.79,0,.2,0,.4,0,.6,0,1.65-.53,2.38-1.7,2.34-1.14-.04-1.67-.8-1.67-2.42,0-3.4,0-6.8,0-10.19,0-.41-.04-.82-.06-1.24-.12,0-.23-.02-.35-.03-.04.39-.11.77-.11,1.16,0,3.6,0,7.2,0,10.79,0,1.22-.64,1.92-1.65,1.93-1.02,0-1.6-.67-1.64-1.93,0-.24,0-.48,0-.72,0-3.84,0-7.67,0-11.51,0-2.88,0-5.76,0-8.63,0-.41-.05-.81-.08-1.22-.12,0-.24-.01-.37-.02-.05.35-.13.69-.13,1.04-.01,2,0,4,0,6,0,.28.01.56,0,.84-.06.77-.4,1.32-1.24,1.34-.85.02-1.25-.53-1.26-1.29-.02-3.08-.09-6.16.05-9.23.1-2.09,1.67-3.39,3.77-3.42,1.88-.03,3.76-.03,5.64,0,2.32.04,3.9,1.61,3.93,3.95.03,2.8,0,5.6.01,8.39,0,.92-.26,1.64-1.3,1.62-.99-.02-1.18-.76-1.17-1.61.02-2.16.01-4.32,0-6.48,0-.39-.08-.77-.12-1.16-.14,0-.29.01-.43.02Z"/>
      <path class="cls-1" d="M3.32,3.21C3.38,1.35,4.91-.06,6.81,0c1.81.06,3.22,1.56,3.2,3.37-.02,1.83-1.59,3.34-3.43,3.3-1.84-.04-3.31-1.61-3.25-3.46Z"/>
    </g>
  </g>
</svg>