<?xml version="1.0" encoding="UTF-8"?>
<svg id="Layer_2" data-name="Layer 2" xmlns="http://www.w3.org/2000/svg" viewBox="0 0 87.4 135.4">
  <defs>
    <style>
      .cls-1 {
        fill: #000;
        stroke-width: 0px;
      }
    </style>
  </defs>
  <g id="Layer_1-2" data-name="Layer 1">
    <path class="cls-1" d="M20.4,108.8c2.67,0,4.33-1.73,5-5.2.27-1.33.4-4.13.4-8.4v-55.4c0-4.27-.13-7-.4-8.2-.67-3.47-2.33-5.2-5-5.2-1.07,0-2.63.23-4.7.7-2.07.47-3.7.7-4.9.7-3.07,0-5.63-1.27-7.7-3.8-2.07-2.53-3.1-5.67-3.1-9.4C0,10.07,1.3,6.5,3.9,3.9,6.5,1.3,10,0,14.4,0c2,0,6.67.4,14,1.2,4.93.53,9.73.8,14.4.8,3.73,0,9.1-.33,16.1-1,7-.67,11.63-1,13.9-1,9.73,0,14.6,4.87,14.6,14.6,0,3.73-1.03,6.87-3.1,9.4-2.07,2.53-4.63,3.8-7.7,3.8-1.07,0-2.67-.23-4.8-.7-2.13-.47-3.73-.7-4.8-.7-3.6,0-5.4,4.47-5.4,13.4v55.4c0,9.07,1.8,13.6,5.4,13.6,1.07,0,2.67-.23,4.8-.7,2.13-.47,3.73-.7,4.8-.7,3.07,0,5.63,1.27,7.7,3.8,2.07,2.53,3.1,5.67,3.1,9.4,0,4.27-1.3,7.8-3.9,10.6s-5.9,4.2-9.9,4.2c-.8,0-1.4-.07-1.8-.2l-12.6-1.6c-3.2-.4-6.73-.6-10.6-.6-6,0-12.27.33-18.8,1-7.87.8-13,1.2-15.4,1.2-4.27,0-7.73-1.33-10.4-4-2.67-2.67-4-6.2-4-10.6,0-3.87,1.03-7.03,3.1-9.5,2.07-2.47,4.7-3.7,7.9-3.7,1.07,0,2.63.23,4.7.7,2.07.47,3.63.7,4.7.7Z"/>
  </g>
</svg>